<svg id="Слой_1" data-name="Слой 1" xmlns="http://www.w3.org/2000/svg" viewBox="0 0 151 48"><defs><style>.cls-1{fill:#b3b3b3;}</style></defs><title>01</title><circle class="cls-1" cx="59.19" cy="35.54" r="5.03"/><path class="cls-1" d="M94.61,23.89h0l-2-7.38-1.21-.72H84.16l-1.11.82v3.85H81.79v-13l-39.86,0V26.7h-1v3.74h8.81v1.87H43.9v1.15h5.84v2h3.53a5.92,5.92,0,0,1,11.84,0h3.35V34.27H78.8v-.61h5.56v1h10.1a5.91,5.91,0,0,1,11.7,0h.6L109,33.42v-7.7l-2.5-.55A55.65,55.65,0,0,0,94.61,23.89ZM90,22.6h-5.1V17.66H90Zm.56,0V17.79h1.21L93,22.6Z"/><circle class="cls-1" cx="100.32" cy="35.54" r="5.03"/></svg>