<svg id="Слой_1" data-name="Слой 1" xmlns="http://www.w3.org/2000/svg" viewBox="0 0 151 48"><defs><style>.cls-1{fill:#b3b3b3;}</style></defs><title>01</title><circle class="cls-1" cx="61.98" cy="32.57" r="3.5"/><path class="cls-1" d="M98.94,22.88H97.8l-11-10.95H49A64.58,64.58,0,0,0,46.52,26.4l-.14,2.49h-.47v2.85H57.45a4.6,4.6,0,0,1,9.06,0h26.6a4.6,4.6,0,0,1,9.06,0H103l1-1.82v-2ZM61,23.85H48.14A19,19,0,0,1,49.48,18H61Zm9.87,0H63V18h7.85Zm13.45,0H73V18H84.34Zm11.54,1H93v-1H87V18L91.3,18l4.58,4.57Z"/><circle class="cls-1" cx="97.64" cy="32.57" r="3.5"/></svg>