<svg id="Слой_1" data-name="Слой 1" xmlns="http://www.w3.org/2000/svg" viewBox="0 0 151 48"><defs><style>.cls-1{fill:#b3b3b3;}</style></defs><title>01</title><circle class="cls-1" cx="24.64" cy="34.69" r="3.43"/><circle class="cls-1" cx="33.56" cy="34.69" r="3.43"/><circle class="cls-1" cx="88.6" cy="34.69" r="3.43"/><circle class="cls-1" cx="99.89" cy="34.69" r="3.43"/><circle class="cls-1" cx="128.4" cy="34.69" r="3.43"/><path class="cls-1" d="M133.27,15.45h-3a19.93,19.93,0,0,0-3.65-3.06,20.71,20.71,0,0,0-4.22-2.12V25.19l-1.16,2.2h-1.7V9.89H11.62V29h7.82v5.45h.1A5.1,5.1,0,0,1,29.1,32.2a5.1,5.1,0,0,1,9.56,2.24H83.5a5.11,5.11,0,0,1,10.21,0h1.08a5.1,5.1,0,0,1,10-1h18.63a5.12,5.12,0,0,1,10.07,1.3c0,.17,0,.34-.05.52h2.33l2.47-.83V23.59ZM76.11,32.37h-37V30.86h37Zm0-2.5h-37V28.41h37Zm45,1.49h-10v-3h10Zm14.1-8h-6.07V19.43h5l1.1,1.88Z"/></svg>