<svg id="Слой_1" data-name="Слой 1" xmlns="http://www.w3.org/2000/svg" viewBox="0 0 151 48"><defs><style>.cls-1{fill:#b3b3b3;}</style></defs><title>01</title><path class="cls-1" d="M55.79,37.52a3.31,3.31,0,0,0-3,1.89H43.4a3.32,3.32,0,1,0,0,2.83h9.38a3.32,3.32,0,1,0,3-4.72Z"/><path class="cls-1" d="M109.78,37.52a3.31,3.31,0,0,0-3,1.89H97.38a3.29,3.29,0,0,0-3-1.89,3.32,3.32,0,1,0,3,4.72h9.38a3.32,3.32,0,1,0,3-4.72Z"/><path class="cls-1" d="M131.4,35.14V29.25l-3-8V18h-24v-.51h.18l9.84-6.9L102.1,3.84H97.73l-13.1,6.94,11.25,6.64.13.09h.16V18H22.52l-2.86,3v5.06L18.5,27.27V38.11L20.43,41H36.3a.68.68,0,0,1,0-.14,4.14,4.14,0,0,1,4.13-4.13,4.07,4.07,0,0,1,3.46,1.89h8.46a4.09,4.09,0,0,1,3.46-1.89,4.13,4.13,0,0,1,4.13,4.13s0,.09,0,.14H90.28s0-.09,0-.14a4.13,4.13,0,0,1,4.13-4.13,4.09,4.09,0,0,1,3.46,1.89h8.46a4.07,4.07,0,0,1,3.46-1.89,4.14,4.14,0,0,1,4.13,4.13s0,.09,0,.14h14.48l3-2.81V37.12h-.77v-2ZM24.53,29.2H20.48V23.11h4.05Zm4,9H27.45v-6h1.07Zm0-8H27.45v-6h1.07Zm2,8H29.49v-6h1.07Zm0-8H29.49v-6h1.07Zm3,8H32.48v-6h1.08Zm0-8H32.48v-6h1.08Zm2,8H34.47v-6h1.07Zm0-8H34.47v-6h1.07Zm70-7v2h-5v-2ZM87,10.84,98,5h3.78l10.44,5.72-7.81,5.48v-.5H96.17v.53Zm1.53,12.28h5v2h-5Zm-13,0h5v2h-5Zm-24.11,0h5v2h-5Zm-13,0h5v2h-5Zm10,6h-10v-2h10Zm0-4h-4v-2h4Zm13,4h-10v-2h10Zm0-4h-4v-2h4Zm4,13.05H64.41v-6h1.07Zm0-8H64.41v-6h1.07Zm2,8H66.45v-6h1.08Zm0-8H66.45v-6h1.08Zm3,8H69.45v-6h1.07Zm0-8H69.45v-6h1.07Zm2,8H71.43v-6H72.5Zm0-8H71.43v-6H72.5Zm13.06-1h-10v-2h10Zm0-4h-4v-2h4Zm13,4h-10v-2h10Zm0-4h-4v-2h4Zm12,4h-10v-2h10Zm0-4h-4v-2h4Zm5,13.05h-1.07v-6h1.07Zm0-8h-1.07v-6h1.07Zm2,8h-1.07v-6h1.07Zm0-8h-1.07v-6h1.07Zm3,8H119.4v-6h1.08Zm0-8H119.4v-6h1.08Zm2,8h-1.08v-6h1.08Zm0-8h-1.08v-6h1.08Zm3.07,0v-7h2.21l2.73,7Z"/></svg>