<svg id="Слой_1" data-name="Слой 1" xmlns="http://www.w3.org/2000/svg" viewBox="0 0 151 48"><defs><style>.cls-1{fill:#b3b3b3;}</style></defs><title>01</title><circle class="cls-1" cx="53.03" cy="32.26" r="5.39"/><path class="cls-1" d="M123,23.11l-1.2-10.78v-1l-1-1H27.12L25,19.43V32.19l3.8,1.15H46.89a5.49,5.49,0,0,1-.1-1.08,6.25,6.25,0,1,1,12.49,0,6.12,6.12,0,0,1-.33,2l.95.15H97.55a6.24,6.24,0,1,1,11.74,0h14.4v-1h1.2v-5ZM67.42,30.87h-2v-15h2Zm4.91,0h-2v-15h2Zm44.09,0h-2v-15h2Zm4.54,0h-2v-15h2Z"/><circle class="cls-1" cx="103.42" cy="32.26" r="5.39"/></svg>