<svg id="Слой_1" data-name="Слой 1" xmlns="http://www.w3.org/2000/svg" viewBox="0 0 151 48"><defs><style>.cls-1{fill:#b3b3b3;}</style></defs><title>01</title><path class="cls-1" d="M54.2,37.13a3.47,3.47,0,0,0-3.13,2H41.2a3.49,3.49,0,1,0,0,3h9.84a3.48,3.48,0,1,0,3.15-4.95Z"/><path class="cls-1" d="M109.08,37.13a3.47,3.47,0,0,0-3.13,2H96.08a3.49,3.49,0,1,0,0,3h9.84a3.48,3.48,0,1,0,3.15-4.95Z"/><path class="cls-1" d="M132.56,34.24V31.05L131.4,18.11H106.63v-.63l10.5-6.94L104.64,3.9h-4.27L88.61,10.57l10,6.43v1.11H57.48V16.29H40.55v1.82H19.38L17.51,31.32V34.4H16.8V36h.82v1.54l2,3.42h14.1c0-.12,0-.23,0-.35a4.33,4.33,0,0,1,4.33-4.33,4.27,4.27,0,0,1,3.63,2h8.88a4.28,4.28,0,0,1,3.63-2,4.34,4.34,0,0,1,4.34,4.33c0,.12,0,.23,0,.35H88.64c0-.12,0-.23,0-.35a4.33,4.33,0,0,1,4.33-4.33,4.27,4.27,0,0,1,3.63,2h8.88a4.28,4.28,0,0,1,3.63-2,4.34,4.34,0,0,1,4.34,4.33c0,.12,0,.23,0,.35h17.08l2.14-3.58v-1.1h.5v-2Zm-98-2.12H28.52v-12h6.06Zm33.93-12h4v3.11h-4Zm-22,.52h4.1v2.59h-4.1Zm-10.37,0h4.43v2.59H36.12Zm9.42,9.5h-9v-6h9Zm.13-6.91H41.43V20.64h4.24Zm9.27,6.91H46.49v-6h8.45Zm0-6.91H51.5V20.64h3.44Zm6.58,8.89h-5v-12h5Zm6,0h-5v-12h5Zm10-2H68.51v-6h9.06Zm0-6.91h-4V20.12h4Zm6,8.89h-5v-12h5Zm6,0h-5v-12h5Zm1-12h4v3.11h-4Zm9,10H90.5v-6h9.06Zm0-6.91h-4V20.12h4Zm-8.69-12.6,9.81-5.56h3.67l10.5,5.58-8.55,5.64H99.72Zm13.7,9.49v3.11h-4V20.12Zm5,10h-9.06v-6h9.06Zm0-6.91h-4V20.12h4Zm7.28,8.89h-5v-12h5Zm7.66,0v-12h5.67l1.32,12Z"/></svg>