<svg id="Слой_1" data-name="Слой 1" xmlns="http://www.w3.org/2000/svg" viewBox="0 0 151 48"><defs><style>.cls-1{fill:#b3b3b3;}</style></defs><title>01</title><circle class="cls-1" cx="99.93" cy="32.81" r="3.8"/><path class="cls-1" d="M121.63,30V24h-1.32V13.81h.77V11.39H28.33L28.16,30.1h-.82V33l6.16,1H47.12a4.7,4.7,0,0,1-.16-1.2,5.2,5.2,0,0,1,10.4,0A4.7,4.7,0,0,1,57.2,34H94.88A5.21,5.21,0,1,1,105,34h16.39l1.21-1.21V30ZM35.32,23H30.64V14.14h4.68Zm5.45,4.13H36.42V15h4.35Zm5.45,0H41.87V15h4.35Zm12.16-3.53H47.32V14.14H58.38Zm11.95,0H59.26V14.14H70.33Zm5.83,3.53H71.81V15h4.35Zm5.45,0H77.26V15h4.35Zm12.83-3.53H83.37V14.14H94.44Zm11.94,0H95.32V14.14h11.06Zm5.4,3.53h-4.35V15h4.35Zm5.45,0h-4.35V15h4.35Z"/><circle class="cls-1" cx="52.16" cy="32.81" r="3.8"/></svg>