<svg id="Слой_1" data-name="Слой 1" xmlns="http://www.w3.org/2000/svg" viewBox="0 0 151 48"><defs><style>.cls-1{fill:#b3b3b3;}</style></defs><title>01</title><circle class="cls-1" cx="55.75" cy="38.81" r="4.46"/><circle class="cls-1" cx="105.21" cy="38.81" r="4.46"/><path class="cls-1" d="M122.92,17.64h-36V16.15H81v.58H78.93v-.91H76.39L44.83,4.73l-.25.71L75.26,16.22v1.42H27v23H50.29a5.81,5.81,0,0,1-.44-2.21,5.9,5.9,0,0,1,11.79,0,5.8,5.8,0,0,1-.43,2.21H99.75a6,6,0,0,1-.43-2.21,5.9,5.9,0,0,1,11.79,0,6,6,0,0,1-.43,2.21h12.24Zm-87,19.7H34V30.55h1.9Zm0-7.89H34v-6.8h1.9Zm3,7.89H37V30.55h1.89Zm0-7.89H37v-6.8h1.89Zm3,7.89H40V30.55h1.9Zm0-7.89H40v-6.8h1.9Zm3,7.89H43V30.55h1.89Zm0-7.89H43v-6.8h1.89Zm16.08,0H49V20.58H61Zm1-8.87h5v3H62Zm12,8.87H62v-4.9H74Zm0-5.87H68v-3h6Zm2.89,13.76H75V30.55h1.9Zm0-7.89H75v-6.8h1.9Zm3,7.89H78V30.55h1.9Zm0-7.89H78v-6.8h1.9Zm3,7.89H81V30.55h1.9Zm0-7.89H81v-6.8h1.9Zm3,7.89H84V30.55h1.9Zm0-7.89H84v-6.8h1.9Zm1.17-8.87h5v3h-5Zm12,8.87h-12v-4.9H99Zm0-5.87H93v-3h6Zm13,5.87H100V20.58h12Zm2.84,7.89h-1.9V30.55h1.9Zm0-7.89h-1.9v-6.8h1.9Zm3,7.89h-1.9V30.55h1.9Zm0-7.89h-1.9v-6.8h1.9Zm4.21,1.1h-3.11v-7.9H122Z"/></svg>