<svg id="Слой_1" data-name="Слой 1" xmlns="http://www.w3.org/2000/svg" viewBox="0 0 151 48"><defs><style>.cls-1{fill:#b3b3b3;}</style></defs><title>01</title><circle class="cls-1" cx="50.35" cy="32.38" r="4.46"/><path class="cls-1" d="M116.8,30.2V28.33h-1V24.15l-1.16-1.93h-1.87l-.55-7.13.55,0v-4H31l-2.14,1.59V15h.88v7.21h-2V33.29H45.19a5.5,5.5,0,0,1-.09-.91,5.25,5.25,0,0,1,10.5,0,5.5,5.5,0,0,1-.09.91h37a5.5,5.5,0,0,1-.09-.91,5.25,5.25,0,0,1,10.5,0,4.61,4.61,0,0,1-.1.91h14v-2H116V30.2ZM32.91,31.39H30.85v-6.5h2.06Zm0-9.28H30.85V15.62h2.06Zm3,9.28H33.79v-6.5h2.07Zm0-9.28H33.79V15.62h2.07Zm2.94,9.28H36.74v-6.5H38.8Zm0-9.28H36.74V15.62H38.8Zm3,9.28H39.68v-6.5h2.07Zm0-9.28H39.68V15.62h2.07Zm12.08,0H42.72v-9H53.83Zm12.87,0H55.6v-9H66.7Zm12.88,0H68.47v-9H79.58Zm3,9.28H80.55v-6.5h2.07Zm0-9.28H80.55V15.62h2.07Zm2.94,9.28H83.5v-6.5h2.06Zm0-9.28H83.5V15.62h2.06Zm3,9.28H86.44v-6.5h2.07Zm0-9.28H86.44V15.62h2.07Zm2.94,9.28H89.39v-6.5h2.06Zm0-9.28H89.39V15.62h2.06Zm12.42,0H92.76v-9h11.11Zm6.89,0h-5.9V15h5.9Z"/><circle class="cls-1" cx="97.64" cy="32.38" r="4.46"/></svg>