<svg id="Слой_1" data-name="Слой 1" xmlns="http://www.w3.org/2000/svg" viewBox="0 0 151 48"><defs><style>.cls-1{fill:#b3b3b3;}</style></defs><title>01</title><circle class="cls-1" cx="61" cy="32.51" r="3.21"/><path class="cls-1" d="M103.81,26.23v-.87l-3-13.08h-59l-2,6V32l3.09,1.24H56.45a4.41,4.41,0,0,1-.08-.74,4.63,4.63,0,0,1,9.25,0,4.42,4.42,0,0,1-.07.74H85.19a4.41,4.41,0,0,1-.08-.74,4.63,4.63,0,0,1,9.26,0,4.41,4.41,0,0,1-.08.74h9.44l1-1.11V26.23Zm-55-6h-5.1v-6h5.1Zm3,3.9h-2.1V15.33h2.1Zm3.45,0h-2.1V15.33h2.1Zm10.51-1.9h-9v-8h9Zm9,0h-8v-8h8Zm10,0h-8v-8h8Zm10,0h-8v-8h8Zm4,1.9h-2.1V15.33h2.1Zm1,0V15.33h1.06l1,8.84Z"/><circle class="cls-1" cx="89.74" cy="32.51" r="3.21"/></svg>