<svg id="Слой_1" data-name="Слой 1" xmlns="http://www.w3.org/2000/svg" viewBox="0 0 151 48"><defs><style>.cls-1{fill:#b3b3b3;}</style></defs><title>01</title><path class="cls-1" d="M96,23.18c-4.23-3.5-9.45-4.4-13.72-4.43A30.15,30.15,0,0,0,78,15.33a30.51,30.51,0,0,0-4.48-2.5H64a24.63,24.63,0,0,0-9.3,4.9,13,13,0,0,0-3.63,1,12.72,12.72,0,0,0-1.78,1,1.19,1.19,0,0,0-.56,1v3.06H47.8v2.89l2,1.08h2.92a4.19,4.19,0,0,1,4.51-4c4.38,0,4.46,5,4.46,5h22V28s.06-4.32,4.38-4.32c3.67,0,4.11,4.1,4.11,4.1h3.33a1.19,1.19,0,0,0,1.2-1.19V23.86C96.49,23.63,96.22,23.4,96,23.18ZM61.5,19.37l-.19-.18a1.3,1.3,0,0,1-.37-.89V17.19a1.27,1.27,0,0,1,.19-.66A5.64,5.64,0,0,1,64.51,14h4.26l.12.81.8,4.44a.34.34,0,0,1-.32.39l-7,.07A1.22,1.22,0,0,1,61.5,19.37Zm19.07.26H71.89a.33.33,0,0,1-.32-.24l-1.39-4.94A.34.34,0,0,1,70.5,14h3.22a22.62,22.62,0,0,1,7.1,5Z"/><circle class="cls-1" cx="57.28" cy="27.94" r="3.21"/><circle class="cls-1" cx="87.88" cy="27.94" r="3.21"/></svg>