<svg id="Слой_1" data-name="Слой 1" xmlns="http://www.w3.org/2000/svg" viewBox="0 0 151 48"><defs><style>.cls-1{fill:#b3b3b3;}</style></defs><title>01</title><path class="cls-1" d="M82,20.38l-7.43-4.7H58.74L53,19.85l-3.47.34-.33,1.44.33.49v3.42l-.63.14v1.94l1.66,2H51.8s1.33-4.09,4.75-4.09a4.69,4.69,0,0,1,5,4.09h21s.46-5,5.16-5c3.73,0,4.5,4.3,4.5,4.3h2.11L95.44,28a6,6,0,0,0,.24-1.61,6.23,6.23,0,0,0-.24-1.77,41.9,41.9,0,0,0-5.82-2.47A42.73,42.73,0,0,0,82,20.38Zm-28.44.94,5.15-4.76h2.2l-2.4,4.76Zm14.94,0H60.1l2-4.76h6.44Zm10.11,0h-9V16.56h5l4,3Z"/><circle class="cls-1" cx="56.82" cy="29.38" r="2.94"/><circle class="cls-1" cx="87.54" cy="29.38" r="2.94"/></svg>