<svg id="Слой_1" data-name="Слой 1" xmlns="http://www.w3.org/2000/svg" viewBox="0 0 151 48"><defs><style>.cls-1{fill:#b3b3b3;}</style></defs><title>01</title><circle class="cls-1" cx="60.65" cy="31.58" r="3.06"/><path class="cls-1" d="M96.44,27.27l-.53-1.94-3.1-3-2-1H89l-7.14-7-2.89-1H50.3a1.81,1.81,0,0,0-1.71,1.22L48,16.42V29.15l1,1.05h3.88v1h3.59a4.18,4.18,0,0,1,8.33,0H83.39a4.18,4.18,0,0,1,8.33,0h4.15v-1.9h.71V27.27Zm-42.56-6a1.06,1.06,0,0,1-1.06,1.06H49.93a1.06,1.06,0,0,1-1.06-1.06V17.31a1.06,1.06,0,0,1,1.06-1.06h2.89a1.06,1.06,0,0,1,1.06,1.06Zm11.05,0a1.07,1.07,0,0,1-1.07,1.06H56a1.07,1.07,0,0,1-1.07-1.06V17.31A1.07,1.07,0,0,1,56,16.25h7.9a1.07,1.07,0,0,1,1.07,1.06Zm12,0a1.07,1.07,0,0,1-1.06,1.06H68a1.06,1.06,0,0,1-1.06-1.06V17.31A1.06,1.06,0,0,1,68,16.25h7.91a1.07,1.07,0,0,1,1.06,1.06Zm5.94-4.66V22.3H80a1.07,1.07,0,0,1-1.06-1.06V17.31A1.07,1.07,0,0,1,80,16.25h2.21a1,1,0,0,1,.67.29v0Zm3.44,5.72H84V17.51l3.09,3A1.06,1.06,0,0,1,86.32,22.3Z"/><circle class="cls-1" cx="87.56" cy="31.58" r="3.06"/></svg>