<?xml version="1.0" encoding="utf-8"?>
<svg version="1.1" id="Layer_1"
xmlns="http://www.w3.org/2000/svg"
xmlns:xlink="http://www.w3.org/1999/xlink"
xmlns:author="http://www.sothink.com"
width="592px" height="87px"
xml:space="preserve">
<g id="0" transform="matrix(1, 0, 0, 1, 295.8, 43.55)">
<path style="fill:#B80000;fill-opacity:1" d="M295.85,-43.55L-295.8 -43.55L-295.8 42.9L295.85 42.9L295.85 -43.55" />
<path style="fill:#E87342;fill-opacity:1" d="M295.85,21.4L295.85 42.9L-295.8 42.9L-295.8 24.25L-290.5 24.25L-290.5 16.4L-286.65 16.4L-286.65 11.45L-285.2 11.45L-285.2 16.4L-276.3 16.4L-276.3 4.1L-264.4 4.1L-264.4 16.4L-254.8 16.4L-254.8 -5.8L-247.4 -5.8L-247.4 -30.2L-244.65 -30.2L-244.65 -13.3L-242.95 -13.3L-242.95 -5.05L-241.3 -5.05L-241.3 -9.65L-236.7 -9.65L-236.7 -13.8L-235.2 -13.8L-235.2 -9.65L-234.45 -9.65L-234.45 3.6L-228.45 3.6L-228.45 0.9L-221.65 0.9L-221.65 3.6L-215.2 3.6L-215.2 0.9L-208.35 0.9L-208.35 3.6L-203.95 3.6L-203.95 -7.65L-197.1 -7.65L-197.1 3.6L-194.45 3.6L-194.45 -22.05L-190.6 -22.05L-190.6 -29.45L-186.35 -29.45L-186.35 -10.55L-183.55 -10.55L-183.55 3.6L-172.1 3.6L-172.1 -0.9L-170.75 -0.9L-170.75 -2.6L-169.2 -2.6L-169.2 -0.9L-132.95 -0.9L-132.95 -2.8L-131.3 -2.8L-131.3 -0.9L-129.7 -0.9L-129.7 3.6L-123.65 3.6L-123.65 -4.5L-121.95 -4.5L-121.95 -8.8L-120.45 -8.8L-120.45 -4.5L-119.5 -4.5L-119.5 3.6L-112.95 3.6L-112.95 21.6L-111.35 21.6L-111.35 12.85L-108.4 12.85L-108.4 -9.45L-107.5 -9.45L-107.5 -24.55L-108.4 -24.55L-108.4 -27.4L-110.6 -27.4L-110.6 -26.95L-114.05 -26.95L-114.05 -27.4L-114.45 -27.4L-114.45 -28L-114.05 -28L-114.05 -29.15L-114.45 -29.15L-114.45 -29.75L-114.05 -29.75L-114.05 -30.25L-110.6 -30.25L-110.6 -29.75L-108.4 -29.75L-108.4 -30.7L-107.5 -30.7L-107.5 -34.7L-107.65 -34.85L-104.55 -37.9L-104.55 -38L-103.9 -38L-103.9 -29.75L-80.65 -29.75L-80.65 -29.15L-80.75 -29.15L-80.75 -28L-80.65 -28L-80.65 -27.4L-81.35 -27.4L-81.35 -23.95L-81.9 -23.95L-81.9 -27.4L-103.9 -27.4L-103.9 -9.45L-102.8 -9.45L-102.8 -11.65L-98.6 -11.65L-98.6 -9.45L-96.7 -9.45L-96.7 -11.65L-93.5 -11.65L-93.5 -11.7L-89 -11.7L-89 -16.75L-86.8 -16.75L-86.8 -14.15L-80.55 -14.15L-80.55 -15.3L-78.35 -15.3L-78.35 -14.15L-75.05 -14.15L-75.05 -15.3L-74.2 -15.3L-74.2 -14.15L-72.95 -14.15L-72.95 -13.35L-74.2 -13.35L-74.2 -11.7L-72.95 -11.7L-72.95 -10.8L-74.2 -10.8L-74.2 -9.15L-72.95 -9.15L-72.95 -8.4L-74.2 -8.4L-74.2 -6.7L-72.95 -6.7L-72.95 -5.85L-74.2 -5.85L-74.2 -4.2L-72.95 -4.2L-72.95 -3.4L-74.2 -3.4L-74.2 -1.75L-72.95 -1.75L-72.95 -0.95L-74.2 -0.95L-74.2 3.6L-71.55 3.6L-71.55 13.95L-63.45 13.95L-63.45 16.15L-61.6 16.15L-61.6 8.4L-61 8.4L-61 5.2L-59.55 5.2L-59.55 8.4L-57.75 8.4L-57.75 16.15L-54.45 16.15L-54.45 17.95L-51.9 17.95L-51.9 24.45L-49.5 24.45L-49.5 27.5L-41.75 27.5L-42.35 26.8L-42.15 26.5L-41.05 27.5L-40.4 27.5L-40.95 26.35L-41.65 24.4L-41.7 24.2L-41.4 24.15L-41.3 24.35L-40.65 26.1L-39.95 27.5L-39.85 27.5L-39.85 27.25L-35.85 27.25L-36.45 24.85L-38.25 21.85L-38 21.75L-36.85 23.6L-36.85 23.15Q-36.85 21.2 -36.45 20.2L-36.2 20.25Q-36.55 21.2 -36.55 23.15L-36.55 24.15L-36.2 24.7Q-35.8 25.3 -35.55 27.25L-32.75 27.25L-32.75 27.5L-28.5 27.5L-30.35 26Q-30.5 25.65 -32.2 24.7L-32.1 24.4Q-30.65 24.95 -30 25.7L-29.5 26.25L-29.5 25Q-29.5 23.85 -28.5 22.5L-28.15 22.7Q-29.15 23.95 -29.15 25L-29.15 26.5L-27.95 27.5L-24.8 27.5L-24.8 26.7L-25.05 24.45L-25.15 24.15Q-25.15 23.1 -26.15 22.25L-27.7 21.05Q-29.45 19.85 -30.1 19L-32.45 16.1L-33.2 15.9L-35.9 15.65L-35.9 15.55L-37.5 15.1L-37.55 15.1L-37.55 15.05L-38.5 13.7L-38.2 13.5L-37.3 14.75L-35.85 15.2L-35.25 15.3L-35.75 14.55Q-37 12.45 -37.45 10.8L-37.1 10.75L-35.45 14.45L-34.85 15.4L-33.2 15.55L-32.9 15.65L-33 15.45L-33.15 15.3L-33 15.2L-32.55 14.7L-31.15 16.55L-32.15 12L-32.6 10.9L-33.25 9.4L-34.4 7.65L-35.65 6.2L-36.2 5.6L-38 3.75L-37.75 3.45Q-37.05 3.95 -35.9 5.35L-35.4 5.95L-34.15 7.45Q-35.2 5.35 -35.35 3.05L-35 3.05Q-34.8 5.25 -33.8 7.35L-31.8 11.85Q-31.3 12.7 -31.1 15.2L-30.6 17.3L-29.3 18.7L-24.65 21.75L-24 20.55L-23.95 20.2L-25.8 18.6L-25.85 18.6L-27.25 16.65L-27.8 15.2L-27.9 15.3L-27.9 14.95L-29.05 13L-30.1 10.55Q-30.65 8.8 -31.15 7.95L-30.9 7.75Q-30.3 8.65 -29.75 10.4L-29.45 11.45L-29.55 8.1L-29.25 8.1L-29.05 12.2L-29.1 12.2L-27.9 14.25L-27.85 12L-27.65 11.5Q-27.2 10.1 -27.15 9L-26.95 7.35L-28.35 6.7Q-29.3 6 -30.1 4.1L-29.75 3.95Q-29 5.7 -28.15 6.35L-27.15 6.9L-27.35 6.6L-27.45 6.6L-28.05 5.7L-28.1 5.6L-28.5 3.8L-28.8 1.5L-28.45 1.5L-28.35 2.35L-27.8 5.5L-27.1 6.35L-26.85 6.6L-26.1 2.95L-25.8 3.05L-26.6 6.9L-26.5 7L-26.6 7.1L-25.45 7.4L-25.4 7.4L-25.3 7.45L-24.6 8.45L-24.15 8.85L-24.9 3.95L-24.7 3.95L-24.9 3.8L-24.7 3.5L-24.2 3.75L-24.05 3.9L-23.3 7.55L-22.6 10.4L-21.25 12.1L-21.2 12.2L-21.2 14.3L-21.05 15.15Q-19.75 13.7 -19.35 12.55L-19.3 9.55L-20 7.55L-20.85 4.6L-20.85 4.55L-19.95 1.45L-19.6 1.55L-20.5 4.6L-19.65 7.35L-18.95 9.55L-18.95 11.4Q-18.65 10.55 -18.75 9L-18.8 5.45L-18.8 5.25L-17.95 4.1L-17.65 4.25Q-18 6.9 -17.85 8.2L-17.7 9.25L-17.55 9.75L-16.95 9.05L-16.9 8.4L-16.75 6.8L-16.2 5.95L-16.35 5.55L-17.85 1.55L-17.55 1.45Q-16.6 3.05 -16 5.45L-15.9 5.75L-15.65 5.45L-14.55 3.9L-14.9 1.1L-14.55 1.05L-14.3 2.8L-14.25 3.3L-13.75 1.55L-13.35 1.6Q-13.65 3 -14.05 3.75L-15.3 5.55L-15.7 6L-14.45 5.9L-13.05 5.2L-12.85 5.55L-14.35 6.2L-15.7 6.4L-15.65 6.55L-14.85 15.4Q-14.45 16.9 -14.7 18.7L-15 20.95L-14 19.05L-13.55 18.55L-12.1 15.9L-11.85 15.3Q-11.65 15.1 -11.8 13.3L-11.85 11L-11.55 11L-11.45 13.25Q-11.35 15.15 -11.6 15.5L-11.85 16.05L-12.3 16.9L-11.4 15.95L-11.45 15.75L-11.1 15.7L-10 14.4L-10 12.2Q-10 11.55 -10.6 9.8L-10.65 9.6L-10.35 9.55L-10.25 9.75Q-9.7 11.5 -9.65 12.2L-9.65 13.55L-9.45 13.4L-8.85 12.05L-8.55 9.8L-8.25 9.8L-8.6 12.1L-8.6 12.2L-8.85 12.75L-5.9 10.45L-5.75 10.8Q-6.75 11.1 -9.2 13.55L-10.1 15.1L-10.6 15.65L-8.35 15.05L-5.9 13.65L-5.75 13.9L-8.2 15.3L-11 16.05L-11.05 16.05L-13.3 18.7L-13.45 18.85L-13.7 19.2L-15.25 22.15L-15.75 24.7L-15.85 24.7L-15.75 25.1L-15.65 26L-15.2 25.6L-15.1 25.6L-15.1 25.5Q-14.4 25.05 -14.2 24.6L-12.65 22.65L-11.9 21.95L-11.9 21.85L-11.85 21.85L-10.9 21.15L-11 21.15L-11.05 20.25L-10.1 18.5Q-9.85 17.6 -7.6 16.95L-7.2 16.85L-7.05 17.1L-7.55 17.2Q-9.6 17.95 -9.8 18.55L-10.7 20.25L-10.65 21L-10 20.55L-9.8 20.8L-11.25 21.8L-8.8 21.75L-5.6 21.4L-5.55 21.75L-8.8 22.05L-11.7 22.2L-12.35 22.85L-13.85 24.7Q-14.1 25.25 -14.95 25.85L-15.65 26.35L-15.7 27.5L-10.2 27.5L-10 27.1Q-9.75 26.45 -9.65 24.15L-9.35 24.15Q-9.4 26.5 -9.65 27.25L-9.85 27.5L-6.4 27.5L-6.4 23.7L-4.1 23.7L-4.1 -5.95L16.05 -5.95L16.05 26.85L19.7 26.85L19.7 27.5L32.55 27.5L32.4 26L32.05 25.5L31.65 24.25Q31.5 22.7 29.6 21.25L29.8 21L30.8 21.95L30.9 20.85L31.25 19.8L30.25 18.4Q30 18.15 30.15 16.75L29.25 15.9L29.2 15.15L29.1 13.7L28.6 13.05L28.55 13.05L28.55 13.25L27.15 13.1L25.75 12.45L25.9 12.2L27.2 12.75L28.4 12.9L28 12.5L26.9 10.8L26.3 8.75L26.6 8.65L27.1 10.4L27.1 9.9L27.2 9.05L25.8 6.9L26 6.7L27.25 8.65L27.35 8.25L27.7 8.25L27.55 9.15L28 9.85L28.45 9.15L28.7 9.25L28.1 10.1L28.35 11.65L28.6 12.5L28.55 12.5L28.8 12.75Q29.35 13.15 29.4 13.65L29.55 15.15L29.6 15.75L30.2 16.35L30.25 15.95L30.4 14.95Q30.55 13.7 30.2 11.2L30.55 11.05L31.2 12.05Q31.65 11.1 31.05 9.8L31 9.8L31 9.65L29.55 6.4L29.8 6.35L30.9 8.9L30.85 8.45L31.2 5.5L31.45 5.55L31.15 8.45L31.25 9.65Q32.05 11.35 31.35 12.25L31.35 12.3L31.25 15.7Q31.2 17.3 31.45 17.95L31.45 16.2Q31.45 15.35 32.2 14.2L32.9 11.55L32.05 8.65L32.4 8.6L33.1 11.1Q33.25 9.85 33.65 9.45L34.55 7.75L34.85 7.9L33.85 9.65Q33.3 10.1 33.4 11.55L33.25 11.55L32.45 14.3L31.8 16.2L31.8 18.2L32.3 16.75L33.25 14.4L33.45 14.5L31.85 18.95L31.85 19Q32.25 20.25 33.45 21.5L33.6 20.7L33.6 18.7L33.65 18.6L34.9 16.95L36.25 11.3L36.2 11.3L35.5 9.05Q35.05 7.8 35.1 7.35L35.4 7.35Q35.3 7.8 35.7 9L36.3 10.8L36.4 10.8L36.9 10.55L36.95 10.65L37.7 9.8L38.55 8.45L38.5 8.45L38.5 7.2L38.05 6.25L38.3 6.15L38.75 7.2L38.75 8.15L39.05 7.55L39.3 6.15L39.55 6.2L39.3 7.6Q38.6 9.1 37.9 10L37.05 11L36.95 11.55L36.3 15.55L36.75 15.2L37.45 14.3L37.5 14.25L37.55 14.25L38.65 13.9L38.55 13.75L39.15 13.25L39.75 12.4L40.4 8.65L40.75 8.65L40.5 10.75L41.4 9.75L41.35 8.55L41.15 7.8L41.35 7.75L41.7 9.45L42.7 8.35L42.7 8.25L42.75 8.25L44.35 7.65L44.4 7.95L42.8 8.55L41.85 9.65L41.7 9.8L41.75 9.9L41.6 10.9L41.95 11.05L41.6 11.8L41.7 11.9L41.8 11.85L42.95 9.2L43.2 9.2L42.15 11.75L42.6 11.5Q43.6 11.1 44.4 10.45L44.5 10.65L42.75 11.8L42 12.05L42 12.1L42.05 12.1L42.05 12.2L42.8 13.1L43.2 12.2L43.45 12.25L43 13.4L43.5 14.7L43.6 14.75L43.6 16.15L44.15 15.85L44.25 16.05L43.6 16.4L43.7 17.2L44.35 16.55L45.7 13.3L45.6 13.4L45.45 11.9L44.8 9.75L45.05 9.6L45.7 11.9L45.8 13.2Q46.35 11.6 46.5 10.05L46.85 10.1Q46.7 12.3 45.7 14.3L47.4 12.3L49.1 10.55L49.3 10.8L48 12.1L50.25 11.25L50.25 11.2Q53.05 9.1 54.8 8.85L54.9 9.15Q53.4 9.3 50.9 11L51.8 10.6L51.95 10.85L47.7 12.5L47.65 12.5L45.15 15.75Q46.6 14.55 47.6 14.1L49.3 13.1Q51.2 11.9 53.1 11.85L54.1 11.75L54.1 11.65Q54.55 11.65 55.45 10.1L55.55 10.05L55.75 10.2L55.65 10.25L54.6 11.65Q56.05 11.45 56.45 11.05L56.65 11.2Q55.9 11.9 53.1 12.05Q51.35 12.2 49.45 13.3L47.7 14.3Q46.1 15.1 44.65 16.55L43.85 18.55L43.5 19.7L43.5 19.75L42.95 22.8L44.15 21.25L44.2 21.05L44.4 21.2L44.65 21.45L45.45 21L47.7 19.15L49.75 17.1L49.85 16.9L50.15 16.55L50.45 16.15L50.7 16.3L50.65 16.35L53 16.1L54.2 15.15Q54.65 14.75 54.95 14.65L54.95 14.9L53.55 15.95L55.55 15.65L55.6 15.9L53.1 16.3L52.65 16.5L52.65 16.35L51.95 16.4L50.3 16.75L50 17.2L47.85 19.4Q47.1 19.8 46.25 20.7L44.7 21.75L44.65 21.75L44.6 21.95L44.85 21.85L47.35 21.5L48.7 21.15L49.5 19.95L49.85 20.15L49.15 21.05L50.1 20.85L51.95 20.7L54.8 20L54.9 20.2L52.5 20.8L52 20.85L50.1 21.15Q49.25 21.1 49 21.45L48.9 21.4L47.45 21.85L47.4 21.85L44.85 22.2L44.2 22.4L41.95 25.1L39.7 27.05L39.4 27.25L42.2 27.25L42.2 27.5L57.75 27.5L57.75 25.45L60 25.45L60 2.15L63.75 2.15L63.75 -1.1L68.55 -1.1Q71.95 -7.8 79.15 -8.85L79.15 -13.35L80.15 -13.35L80.15 -25.55L82.05 -25.55L82.05 -13.35L83.05 -13.35L83.05 -8.9Q90.75 -8 94.1 -1.1L99.45 -1.1L99.45 2.15L113.45 2.15L113.45 0.15L112 0.15L112 -0.2L113.45 -0.2L113.45 -0.8L111.25 -0.8L111.25 -1.6L113.45 -1.6L113.45 -3.6L114.15 -3.6L114.15 -1.6L116.55 -1.6L116.55 -0.8L114.15 -0.8L114.15 -0.2L115.8 -0.2L115.8 0.15L114.15 0.15L114.15 2.15L120.15 2.15L120.15 -4L121.3 -4L121.3 -9.15L122.85 -9.15L122.85 -4L123.55 -4L123.55 2.15L126.45 2.15L126.45 7.9L133.4 7.9L133.4 3.15L135.15 3.15L135.15 7.9L137.9 7.9L137.9 3.15L139.65 3.15L139.65 7.9L142.45 7.9L142.45 3.15L144.15 3.15L144.15 7.9L146.95 7.9L146.95 3.15L148.6 3.15L148.6 7.9L155.05 7.9L155.05 1.25L158.7 1.25L158.7 -2.4L163.1 -2.4L163.1 -11.25L162.35 -11.25L162.35 -13.65L160.55 -13.65L160.55 -13.2L157.7 -13.2L157.7 -13.65L157.3 -13.65L157.3 -14.1L157.7 -14.1L157.7 -15L157.3 -15L157.3 -15.55L157.7 -15.55L157.7 -15.95L160.55 -15.95L160.55 -15.55L162.35 -15.55L162.35 -16.4L163.1 -16.4L163.1 -19.65L163.05 -19.8L165.55 -22.4L165.55 -22.45L166.1 -22.45L166.1 -15.55L185.55 -15.55L185.55 -15L185.4 -15L185.4 -14.1L185.55 -14.1L185.55 -13.65L184.95 -13.65L184.95 -10.7L184.45 -10.7L184.45 -13.65L166.1 -13.65L166.1 -2.4L170.55 -2.4L170.55 7.9L175.05 7.9L175.05 14.05L180.05 14.05L180.05 0.65L181.95 0.65L181.95 -1.75L183.55 -1.75L183.55 0.65L185 0.65L185 1.9L186.8 1.9L186.8 0.85L188.25 0.85L188.25 1.9L190.2 1.9L190.2 -11.45L202.05 -11.45L202.05 14.05L206.1 14.05L206.1 11.2L214.65 11.2L214.65 1.9L218.05 1.9L218.05 7.25L228.1 7.25L228.1 23.7L234.35 23.7L234.35 21.05L230.7 21.05L241.7 10.05L252.75 21.05L249.35 21.05L249.35 23.7L266.85 23.7L266.85 33.55L271.7 33.55L271.7 31.9L274.75 31.9L274.75 33.55L278.65 33.55L278.65 31.9L281.75 31.9L281.75 33.55L285.6 33.55L285.6 31.9L288.75 31.9L288.75 33.55L292.8 33.55L292.8 21.4L295.85 21.4M185,5.35L186.8 5.35L186.8 4L185 4L185 5.35M188.25,5.35L190.2 5.35L190.2 4L188.25 4L188.25 5.35M185,2.3L185 3.6L186.8 3.6L186.8 2.3L185 2.3M188.25,3.6L190.2 3.6L190.2 2.3L188.25 2.3L188.25 3.6M193.5,5.2L198.7 5.2L198.7 0.05L193.5 0.05L193.5 5.2M198.7,-8.45L193.5 -8.45L193.5 -3.25L198.7 -3.25L198.7 -8.45M198.7,8.55L193.5 8.55L193.5 13.7L198.7 13.7L198.7 8.55M198.55,17.9L198.55 19.55L200.25 19.55L200.25 17.9L198.55 17.9M194.7,17.9L194.7 19.55L196.35 19.55L196.35 17.9L194.7 17.9M202.4,17.9L202.4 19.55L204.1 19.55L204.1 17.9L202.4 17.9M185,5.75L185 14.05L186.8 14.05L186.8 5.75L185 5.75M186.95,17.9L186.95 19.55L188.65 19.55L188.65 17.9L186.95 17.9M190.75,17.9L190.75 19.55L192.5 19.55L192.5 17.9L190.75 17.9M188.25,5.75L188.25 14.05L190.2 14.05L190.2 5.75L188.25 5.75M241.9,18.4Q239.7 18.4 239.75 20.6Q239.7 22.85 241.9 22.85Q242.85 22.85 243.45 22.2Q244.1 21.5 244.1 20.6Q244.1 19.65 243.45 19.05Q242.85 18.4 241.9 18.4M163.65,-16.4L165.2 -16.4L165.2 -15.55L165.55 -15.55L165.55 -18.1L163.65 -18.1L163.65 -16.4M160.55,-14.1L162.35 -14.1L162.35 -15L160.55 -15L160.55 -14.1M163.65,-9.55L165.55 -7.65L165.55 -10L164.3 -11.25L163.65 -11.25L163.65 -9.55M163.65,-2.4L164.2 -2.4L163.65 -3L163.65 -2.4M163.65,-3.6L164.85 -2.4L165.55 -2.4L165.55 -4L163.65 -5.95L163.65 -3.6M163.65,-6.6L165.55 -4.7L165.55 -7L163.65 -8.9L163.65 -6.6M183.8,-14.1L183.8 -15L182.7 -15L181.75 -14.1L183.8 -14.1M179.7,-15L178.85 -14.1L181.15 -14.1L182.1 -15L179.7 -15M176.15,-15L173.8 -15L172.85 -14.1L175.2 -14.1L176.15 -15M175.85,-14.1L178.15 -14.1L179.1 -15L176.7 -15L175.85 -14.1M169.9,-14.1L172.2 -14.1L173.15 -15L170.8 -15L169.9 -14.1M170.15,-15L166.1 -15L166.1 -14.1L169.2 -14.1L170.15 -15M165.2,-14.1L165.55 -14.1L165.55 -15L165.2 -15L165.2 -14.1M165.2,-13.65L165.2 -11.25L165 -11.25L165.55 -10.55L165.55 -13.65L165.2 -13.65M163.65,-19.8L163.65 -18.6L165.55 -18.6L165.55 -21.7L163.65 -19.8M162.2,0.6L162.2 5.75L167.4 5.75L167.4 0.6L162.2 0.6M111.35,5L111.35 10.2L116.5 10.2L116.5 5L111.35 5M141.1,11L141.1 12.65L142.85 12.65L142.85 11L141.1 11M135.35,11L135.35 12.65L137.05 12.65L137.05 11L135.35 11M129.55,11L129.55 12.65L131.3 12.65L131.3 11L129.55 11M120.3,10.4Q120.25 11.75 121.55 11.75Q122.85 11.75 122.85 10.4Q122.85 9.05 121.55 9.05Q120.25 9.05 120.3 10.4M121.55,8.15Q122.85 8.15 122.85 6.8Q122.85 5.45 121.55 5.5Q120.25 5.45 120.3 6.8Q120.25 8.15 121.55 8.15M121.55,13.1Q120.25 13.1 120.3 14.45Q120.25 15.75 121.55 15.75Q122.85 15.75 122.85 14.45Q122.85 13.1 121.55 13.1M169.95,12.65L171.7 12.65L171.7 11L169.95 11L169.95 12.65M164.2,12.65L165.9 12.65L165.9 11L164.2 11L164.2 12.65M154.35,11L152.65 11L152.65 12.65L154.35 12.65L154.35 11M158.4,12.65L160.15 12.65L160.15 11L158.4 11L158.4 12.65M148.6,12.65L148.6 11L146.85 11L146.85 12.65L148.6 12.65M42.75,13.4L41.85 12.3L41.55 13.2L41.5 16.65L42.05 15.75L42.25 15.9L41.15 17.55L43.4 16.3L43.35 14.85L42.75 13.4M43.4,16.65L42.35 17.2Q41.4 17.65 41 17.95L40.95 17.8L39.9 19.35L39.2 20.55L40.3 19.7L40.4 19.85L38.85 21.15L38.5 21.45Q37.55 22.25 36.95 22.35L36.45 22.45L36.4 22.6L36.2 23.5L35.95 25.1L35.95 25.15L36.25 26.55L36.7 27.5L36.85 27.5L36.85 27.25L37.4 27.25L40.1 25.5Q40.85 24.85 40.95 24.25L41.85 21.35L42.85 18.1L42.85 18.05L42.95 18.05L43.4 17.5L43.4 16.65M43.7,17.55L43.7 18.15L44 17.35L44.05 17.15L43.7 17.55M43.35,18.85L43.4 17.8L43.15 18.15L41.2 24.25L40.85 25L41.15 24.8L42.4 23.45L43.35 18.85M57.75,28.45L42.2 28.45L42.2 29.1L57.75 29.1L57.75 28.45M40.4,11L40.1 12.5L40.05 12.5L40.05 12.55L39.4 13.45L39.15 13.65L40.1 13.2L41.2 11.85L40.85 11.55L41 11.4L41.3 11.55L41.35 11.55L41.5 10.05L40.85 10.6L40.5 11.05L40.4 11M35.55,17.5L34.75 18.4Q34.4 18.65 34.45 19.6L34.55 21.8L34.55 21.85L34.4 22.45L34.5 22.6L35.75 24.4L35.85 23.5L36.3 21.7Q36.65 20.4 37.5 19.6L37.7 19.85Q36.85 20.7 36.65 21.75L36.5 22.15L36.9 22.05L38.3 21.25L38.65 20.95L39.1 20.6L38.95 20.6Q38.95 20.2 39.7 19.2L41.35 16.85L41.3 16.85L41.2 15.15L41.2 14.1L41.35 13.1L41.7 12.2L41.35 12.25L40.3 13.5Q39.3 14.15 37.7 14.5L37.05 15.4L36.25 16.05L35.55 17.5M27.45,10L27.35 10.85L28.2 12.2L28.1 11.8L28.1 11.75L27.9 10.1L27.5 9.55L27.45 10M31,22.2Q31.9 23.3 32.05 24.25L32.25 25.1L32.4 25.45L32.45 25.5L33 23.65L33.2 22.95L32.55 21.8L31.45 20.05L31 22.2M33.45,26.9L33.5 27.5L35.45 27.5Q35.15 26.15 34 24.35L33.45 26.9M33.8,29.1L35.7 29.1L35.55 28.45L33.65 28.45L33.8 29.1M32.55,28.45L19.7 28.45L19.7 29.1L32.6 29.1L32.55 28.45M41,31.1L37.05 31.1L36.9 33.85L37.95 35.95L38.35 33.45L38.7 33.55L38.5 34.45L41 32.15L41 31.1M41.85,31.4L42.25 31.1L41.35 31.1L41.35 31.9L41.85 31.4M38.5,34.85L38.2 36.8Q38 38.1 38.3 39.05L43.35 39.05L43.45 38.45L43.8 36.1L44.15 36.2L43.8 38.45L43.75 39.05L44.65 39.05L45.6 38.25L45.9 37.4L46.45 33.95L46.6 33.95L46.6 33.8L43.25 33.8L43.25 31.1L42.95 31.1Q42.5 31.3 42.15 31.65L39.55 33.95L38.5 34.95L38.5 34.85M36.05,31.1L34.1 31.1L34.3 32.1Q35.1 34.45 35.1 37.85L35.25 39.05L35.95 39.05L36.1 32.6L36.2 31.8L36.05 31.1M33.65,34.85L33.45 33.8L32.9 31.1L16.05 31.1L16.05 39.05L34.4 39.05L34.25 37.85Q33.85 36.85 31.6 36Q30.2 35.45 29.15 34.8L29 34.65L29.75 33.95L29.9 34.05L30.9 34.75Q32.75 35.45 33.25 35.3L33.65 34.85M37.9,36.75L36.85 34.45L36.75 39.05L37.95 39.05Q37.7 38.1 37.9 36.8L37.9 36.75M53.55,31.1L53.55 33.8L52.3 33.8L52.2 33.95L51.7 34.65L53.15 34.3Q54.4 33.65 55.3 34.45L55.1 34.65L53.3 34.6L51.35 35.05L51.25 35.2L51.25 39.05L57.75 39.05L57.75 31.1L53.55 31.1M46.15,37.75L46.6 37.45L46.6 35.25L46.25 37.45L46.15 37.75M88.05,6.2L85.3 6.2L85.3 9L88.05 9L88.05 6.2M83,6.2L80.3 6.2L80.3 9L83 9L83 6.2M85.3,15.9L85.3 18.7L88.05 18.7L88.05 15.9L85.3 15.9M85.3,13.85L88.05 13.85L88.05 11.05L85.3 11.05L85.3 13.85M83,15.9L80.3 15.9L80.3 18.7L83 18.7L83 15.9M78,6.2L75.25 6.2L75.25 9L78 9L78 6.2M75.25,13.85L78 13.85L78 11.05L75.25 11.05L75.25 13.85M75.25,15.9L75.25 18.7L78 18.7L78 15.9L75.25 15.9M0.3,2.45L4.45 2.45L4.45 -1.75L0.3 -1.75L0.3 2.45M10.95,-1.75L6.8 -1.75L6.8 2.45L10.95 2.45L10.95 -1.75M6.8,4.45L6.8 8.6L10.95 8.6L10.95 4.45L6.8 4.45M0.3,4.45L0.3 8.6L4.45 8.6L4.45 4.45L0.3 4.45M-27.35,11.65L-27.5 12.05L-27.65 14.9L-26.9 16.55L-25.6 18.4L-23.85 19.85L-23.8 19L-23.95 17.35L-24.45 15.45Q-24.75 14.5 -25.6 13.45L-25.3 13.2Q-24.35 14.3 -24.05 15.4L-23.6 17.35L-23.5 18.3Q-23.05 17.2 -22.2 16.35L-22.05 16.2L-22.25 15.55L-22.25 15.5L-22.15 13.1Q-22.15 12.15 -22.45 11.9L-23.3 10.85L-24.05 9.4L-24.9 8.65L-25.6 7.75L-26.65 7.4L-26.85 9Q-26.9 10.6 -27.35 11.65M-20.6,17.5L-20 19.5L-19.95 19.35L-19.8 19L-19.55 18.1Q-19.4 16.5 -17.2 14.65L-16.95 14.9Q-18.9 16.4 -19.2 18.15L-19.5 19.15L-19.6 19.5L-19.95 19.95L-20.05 22.4L-20.15 23.2L-18.5 24.85Q-18.15 25.4 -18.15 26.5Q-17.95 26.95 -17.9 27.5Q-17.15 26.35 -16.9 25.4L-16.55 24.25L-17.3 21L-17 20.8Q-16.55 21.55 -16.15 23.15L-16.1 23L-15.2 17.9Q-15.05 16.75 -15.45 14.85Q-16.05 12.3 -15.9 9.85Q-15.85 8.2 -16.15 6.35L-16.45 6.9L-16.55 9.2L-17.55 10.1Q-17.35 11.5 -17.7 11.85L-18.55 13.2Q-19.15 13.7 -20.05 15.5L-20.8 16.7L-20.6 17.5M-32.75,29.1L-26.9 29.1L-27.5 28.45L-32.75 28.45L-32.75 29.1M-22.95,20.7L-21.25 22.15L-21.05 20.95L-21.65 18.15L-22.95 20.7M-23.05,21L-24 26.15L-23.95 27.05L-23.85 27.5L-22.2 27.5L-21.25 22.5L-23.05 21M-27.05,28.45L-26.45 29L-26.6 28.45L-27.05 28.45M-26.1,29.1L-25.15 29.1L-24.8 28.45L-26.15 28.45L-26.1 29.1M-23.8,29.1L-22.45 29.1L-22.4 28.45L-23.8 28.45L-23.8 29.1M-21.25,29.1L-19.15 29.1L-18.55 28.45L-21.05 28.45L-21.25 29.1M-20.85,27.5L-18.2 27.5L-18.5 26.55L-18.5 26.5Q-18.5 25.55 -18.75 25L-20.15 23.6L-20.85 27.5M-49.5,29.1L-44.2 29.1L-44.35 28.95Q-43.45 28.15 -42.05 28.75L-41.05 29.1L-40.55 29.1L-41.05 28.45L-49.5 28.45L-49.5 29.1M-49.5,33.1L-52.05 33.1L-52.05 39.05L-29.5 39.05L-30.9 37.2L-31.15 36.85L-33.2 35.2L-34.8 35.65L-37.85 36L-37.85 35.6L-34.85 35.25L-33.55 34.95L-34.25 34.3L-35.45 34L-37.3 33.1L-37.1 32.75L-35.4 33.6L-35.05 33.75L-35.05 33.65L-36.65 32.3L-38.45 31.1L-49.5 31.1L-49.5 33.1M-53.55,33.1L-55.55 33.1L-55.55 39.05L-53.55 39.05L-53.55 33.1M-21.85,32.6Q-22.05 33.05 -22.05 37.1L-22.05 39.05L-20 39.05L-19.75 38.05Q-19.3 36.7 -18.35 36.05L-18 35.65L-17.35 33.8L-19.85 33.8L-19.85 31.1L-19.95 31.1Q-21.55 31.8 -21.85 32.6M-25.7,31.1L-25.8 31.35L-25.8 31.4Q-25.6 33.4 -26.15 35.05L-26.4 35.85L-26.4 36.65L-26.45 36.85L-25.4 37.75L-25.15 36.05L-24.95 35.8Q-24.45 33.8 -24.5 32.15L-24.5 31.65L-24.6 31.1L-25.7 31.1M-23.65,31.3Q-23.65 35.05 -24 36.8L-24.2 39.05L-23.45 39.05L-23.45 36.8L-22.65 31.1L-23.65 31.1L-23.65 31.3M-26.15,31.1L-32 31.1L-31.75 33.3Q-31.75 34.25 -31.25 34.75L-31.35 34.85L-26.8 36.75L-26.8 36.6L-26.7 35.85L-26.5 34.95Q-25.9 33.25 -26.15 31.45L-26.15 31.1M-25.85,39.05L-25.5 39.05L-25.45 38.4Q-25.8 37.65 -26.45 37.25L-26.4 39.05L-26.15 38.75L-25.95 38.3L-25.85 38.85L-25.85 39.05M-26.85,37.1L-31.75 35.05L-30.25 36.45Q-29.45 37.1 -28.05 39.05L-26.8 39.05L-26.8 37.1L-26.85 37.1M-19.35,39.05L-18.5 39.05L-17.75 38.3L-17.75 38.4L-17.4 38.4L-17.95 39.05L-16.95 39.05L-16.95 36.2L-17.65 36.25L-17.7 36.1L-17.75 36.2Q-18.35 36.35 -18.65 37.45L-19.35 39.05M-32.1,33.3L-32.4 31.1L-34.55 31.1L-34.35 32.1L-34 33L-32.6 34.3L-31.75 34.65L-32.1 33.3M-34.85,31.1L-35 31.1L-34.75 31.75L-34.85 31.1M-35.85,31.1L-35.4 31.95L-34.85 32.35L-35.35 31.1L-35.85 31.1M6.8,16.75L6.8 20.95L10.95 20.95L10.95 16.75L6.8 16.75M4.45,10.6L0.3 10.6L0.3 14.75L4.45 14.75L4.45 10.6M10.95,14.75L10.95 10.6L6.8 10.6L6.8 14.75L10.95 14.75M4.45,16.75L0.3 16.75L0.3 20.95L4.45 20.95L4.45 16.75M-15.95,23.9L-15.75 23.05L-15.85 23.05L-16 23.7L-15.95 23.9M-16.45,24.9L-17.35 27.25L-16.95 27L-16.35 25.45L-16.45 24.9M-16.2,26.8L-16.7 27.15L-16.9 27.5L-16.3 27.5L-16.2 27L-16.2 26.8M-17.1,28.45L-16.45 29.1L-16.35 29.1L-16.35 28.45L-17.1 28.45M-17.15,28.45L-17.5 28.45L-17.7 28.8L-17.75 28.95L-17.2 28.55L-17.15 28.45M-18.15,28.45L-18.65 29.1L-18.3 29.1L-18 28.7L-18 28.45L-18.15 28.45M-17.5,27.5L-17.3 27.5L-17.2 27.45L-17.35 27.3L-17.5 27.5M-15.75,29.1L-11.2 29.1L-10.8 28.45L-15.7 28.45L-15.75 29.1M-10.8,29.1L-6.4 29.1L-6.4 28.45L-10.4 28.45L-10.8 29.1M-6.4,31.1L-9.55 31.1L-9.55 33.8L-12.25 33.8L-12.25 36.1L-9.35 36.45L-9.4 36.8L-12.25 36.45L-12.25 39.05L-6.4 39.05L-6.4 34.45L-6.75 34.45L-6.4 34.4L-6.4 31.1M-16.95,35.85L-16.95 34.85L-17.4 35.95L-16.95 35.85M-89.45,-28L-88.4 -29.15L-91.15 -29.15L-92.25 -28L-89.45 -28M-91.9,-29.15L-94.75 -29.15L-95.8 -28L-93.05 -28L-91.9 -29.15M-98.25,-29.15L-99.4 -28L-96.55 -28L-95.5 -29.15L-98.25 -29.15M-82.7,-29.15L-84 -29.15L-85.15 -28L-82.7 -28L-82.7 -29.15M-84.8,-29.15L-87.6 -29.15L-88.65 -28L-85.85 -28L-84.8 -29.15M-86.05,-9.45L-82.75 -9.45L-82.75 -9.15L-80.55 -9.15L-80.55 -10.8L-86.05 -10.8L-86.05 -9.45M-82.75,-8.4L-82.75 -6.7L-80.55 -6.7L-80.55 -8.4L-82.75 -8.4M-80.55,-13.35L-86.8 -13.35L-86.8 -11.7L-80.55 -11.7L-80.55 -13.35M-92.5,-9.45L-90.3 -9.45L-90.3 -10.8L-92.5 -10.8L-92.5 -9.45M-91.7,-2.7L-90.3 -2.7L-90.3 -4.05L-91.7 -4.05L-91.7 -2.7M-91.7,-1.05L-91.7 0.35L-90.3 0.35L-90.3 -1.05L-91.7 -1.05M-96.9,-4.05L-98.25 -4.05L-98.25 -2.7L-96.9 -2.7L-96.9 -4.05M-98.25,3.35L-96.9 3.35L-96.9 1.95L-98.25 1.95L-98.25 3.35M-98.25,5L-98.25 6.4L-96.9 6.4L-96.9 5L-98.25 5M-90.3,1.95L-91.7 1.95L-91.7 3.35L-90.3 3.35L-90.3 1.95M-91.7,5L-91.7 6.4L-90.3 6.4L-90.3 5L-91.7 5M-80.55,-5.85L-82.75 -5.85L-82.75 -4.2L-80.55 -4.2L-80.55 -5.85M-82.75,-1.75L-80.55 -1.75L-80.55 -3.4L-82.75 -3.4L-82.75 -1.75M-82.75,-0.95L-82.75 3.6L-80.55 3.6L-80.55 -0.95L-82.75 -0.95M-78.35,-13.35L-78.35 -11.7L-75.05 -11.7L-75.05 -13.35L-78.35 -13.35M-78.35,-9.15L-75.05 -9.15L-75.05 -10.8L-78.35 -10.8L-78.35 -9.15M-78.35,-8.4L-78.35 -6.7L-75.05 -6.7L-75.05 -8.4L-78.35 -8.4M-75.05,-5.85L-78.35 -5.85L-78.35 -4.2L-75.05 -4.2L-75.05 -5.85M-78.35,-1.75L-75.05 -1.75L-75.05 -3.4L-78.35 -3.4L-78.35 -1.75M-78.35,-0.95L-78.35 3.6L-75.05 3.6L-75.05 -0.95L-78.35 -0.95M-106.9,-32.85L-106.9 -30.7L-105.05 -30.7L-105.05 -29.75L-104.55 -29.75L-104.55 -32.85L-106.9 -32.85M-106.9,-34.85L-106.9 -33.4L-104.55 -33.4L-104.55 -37.2L-106.9 -34.85M-110.6,-28L-108.4 -28L-108.4 -29.15L-110.6 -29.15L-110.6 -28M-103.9,-28L-100.15 -28L-99.1 -29.15L-103.9 -29.15L-103.9 -28M-105.05,-29.15L-105.05 -28L-104.55 -28L-104.55 -29.15L-105.05 -29.15M-105.05,-27.4L-105.05 -24.55L-105.25 -24.55L-104.55 -23.85L-104.55 -27.4L-105.05 -27.4M-106.9,-24.55L-106.9 -22.6L-104.55 -20.25L-104.55 -23.05L-106.05 -24.55L-106.9 -24.55M-106.9,-21.85L-106.9 -19L-104.55 -16.65L-104.55 -19.5L-106.9 -21.85M-122.2,-1.35L-120.75 -1.35L-120.75 -2.75L-122.2 -2.75L-122.2 -1.35M-122.2,0.05L-122.2 1.45L-120.75 1.45L-120.75 0.05L-122.2 0.05M-120.75,4.15L-120.75 2.75L-122.2 2.75L-122.2 4.15L-120.75 4.15M-106.9,-18.25L-106.9 -15.45L-104.55 -13.15L-104.55 -15.95L-106.9 -18.25M-104.55,-12.65L-104.65 -12.5L-106.9 -14.7L-106.9 -9.45L-104.55 -9.45L-104.55 -12.65M-106.9,0.85L-101.75 0.85L-101.75 -4.35L-106.9 -4.35L-106.9 0.85M-122.2,6.95L-120.75 6.95L-120.75 5.55L-122.2 5.55L-122.2 6.95M-122.2,8.25L-122.2 9.75L-120.75 9.75L-120.75 8.25L-122.2 8.25M-122.2,11.05L-122.2 12.45L-120.75 12.45L-120.75 11.05L-122.2 11.05M-120.75,13.85L-122.2 13.85L-122.2 15.2L-120.75 15.2L-120.75 13.85M-90.3,9.4L-90.3 8L-91.7 8L-91.7 9.4L-90.3 9.4M-96.9,9.4L-96.9 8L-98.25 8L-98.25 9.4L-96.9 9.4M-155.85,5.5L-155.85 7.4L-153.95 7.4L-153.95 5.5L-155.85 5.5M-152.6,1.45Q-152.65 2.75 -151.3 2.75Q-149.95 2.75 -149.95 1.45Q-149.95 0.1 -151.3 0.1Q-152.65 0.1 -152.6 1.45M-152.4,5.5L-152.4 7.4L-150.5 7.4L-150.5 5.5L-152.4 5.5M-159.3,5.5L-159.3 7.4L-157.45 7.4L-157.45 5.5L-159.3 5.5M-145.45,5.5L-145.45 7.4L-143.55 7.4L-143.55 5.5L-145.45 5.5M-148.95,5.5L-148.95 7.4L-147 7.4L-147 5.5L-148.95 5.5M-189.6,-8.25Q-189.6 -7.2 -188.55 -7.2Q-187.5 -7.2 -187.5 -8.25Q-187.5 -9.3 -188.55 -9.3Q-189.6 -9.3 -189.6 -8.25M-189.6,-4.5Q-189.6 -3.5 -188.55 -3.5Q-187.5 -3.5 -187.5 -4.5Q-187.5 -5.6 -188.55 -5.6Q-189.6 -5.6 -189.6 -4.5M-189.6,-0.8Q-189.6 0.25 -188.55 0.25Q-187.5 0.25 -187.5 -0.8Q-187.5 -1.9 -188.55 -1.85Q-189.6 -1.9 -189.6 -0.8M-188.55,3.95Q-187.5 3.95 -187.5 2.9Q-187.5 1.85 -188.55 1.85Q-189.6 1.85 -189.6 2.9Q-189.6 3.95 -188.55 3.95M-188.55,9.35Q-189.6 9.35 -189.6 10.4Q-189.6 11.45 -188.55 11.45Q-187.5 11.45 -187.5 10.4Q-187.5 9.35 -188.55 9.35M-188.55,5.6Q-189.6 5.6 -189.6 6.7Q-189.6 7.65 -188.55 7.65Q-187.5 7.65 -187.5 6.7Q-187.5 5.6 -188.55 5.6M-220.4,7.65Q-220.4 9.5 -218.5 9.55Q-216.6 9.5 -216.6 7.65Q-216.6 5.75 -218.5 5.75Q-220.4 5.75 -220.4 7.65M-143.55,8.85L-145.45 8.85L-145.45 10.75L-143.55 10.75L-143.55 8.85M-147,8.85L-148.95 8.85L-148.95 10.75L-147 10.75L-147 8.85M-147,12.2L-148.95 12.2L-148.95 14.1L-147 14.1L-147 12.2M-145.45,14.1L-143.55 14.1L-143.55 12.2L-145.45 12.2L-145.45 14.1M-148.95,17.4L-147 17.4L-147 15.55L-148.95 15.55L-148.95 17.4M-145.45,17.4L-143.55 17.4L-143.55 15.55L-145.45 15.55L-145.45 17.4M-152.4,10.75L-150.5 10.75L-150.5 8.85L-152.4 8.85L-152.4 10.75M-157.45,12.2L-159.3 12.2L-159.3 14.1L-157.45 14.1L-157.45 12.2M-159.3,17.4L-157.45 17.4L-157.45 15.55L-159.3 15.55L-159.3 17.4M-155.85,17.4L-153.95 17.4L-153.95 15.55L-155.85 15.55L-155.85 17.4M-150.5,12.2L-152.4 12.2L-152.4 14.1L-150.5 14.1L-150.5 12.2M-150.5,15.55L-152.4 15.55L-152.4 17.4L-150.5 17.4L-150.5 15.55M-182.25,5.2L-182.25 10.4L-177.05 10.4L-177.05 5.2L-182.25 5.2M-242.95,-2.3L-242.95 3.6L-241.3 3.6L-241.3 -2.3L-242.95 -2.3M-228.75,6.9L-231.85 6.9L-231.85 10L-228.75 10L-228.75 6.9M-228.75,11.45L-231.85 11.45L-231.85 14.5L-228.75 14.5L-228.75 11.45M-233.55,6.9L-236.65 6.9L-236.65 10L-233.55 10L-233.55 6.9M-236.65,11.45L-236.65 14.5L-233.55 14.5L-233.55 11.45L-236.65 11.45M-236.65,16.05L-236.65 19.05L-233.55 19.05L-233.55 16.05L-236.65 16.05M-233.55,20.55L-236.65 20.55L-236.65 23.65L-233.55 23.65L-233.55 20.55M-231.85,23.65L-228.75 23.65L-228.75 20.55L-231.85 20.55L-231.85 23.65M-231.85,19.05L-228.75 19.05L-228.75 16.05L-231.85 16.05L-231.85 19.05" />
</g>
</svg>
