<svg xmlns:dc="http://purl.org/dc/elements/1.1/" xmlns:cc="http://creativecommons.org/ns#" xmlns:rdf="http://www.w3.org/1999/02/22-rdf-syntax-ns#" xmlns:svg="http://www.w3.org/2000/svg" xmlns="http://www.w3.org/2000/svg" xml:space="preserve" id="svg2" version="1.1" viewBox="41.45 120.8 1040.1 552.28"><metadata id="metadata8"><rdf:RDF><cc:Work rdf:about=""><dc:format>image/svg+xml</dc:format><dc:type rdf:resource="http://purl.org/dc/dcmitype/StillImage"/></cc:Work></rdf:RDF></metadata><defs id="defs6"/><g transform="matrix(1.3333333,0,0,-1.3333333,0,793.70133)" id="g10"><g transform="translate(662.0842,422.7397)" id="g12"><path id="path14" style="fill:#858585;fill-opacity:1;fill-rule:evenodd;stroke:none" d="m 0,0 -0.66,-1.87 1.65,-1.1 1.86,1.1 -0.66,2.31 z"/></g><g transform="translate(504.9442,372.8597)" id="g16"><path id="path18" style="fill:#858585;fill-opacity:1;fill-rule:evenodd;stroke:none" d="M 0,0 3.01,-2.39 4.4,-0.21 4.86,1.6 3.18,2.64 1.17,2.94 Z"/></g><g transform="translate(499.0842,365.7797)" id="g20"><path id="path22" style="fill:#858585;fill-opacity:1;fill-rule:evenodd;stroke:none" d="M 0,0 0.96,-1.22 4.31,0.84 3.56,2.85 1.47,2.93 0.3,1.13 Z"/></g><g transform="translate(573.2242,396.9297)" id="g24"><path id="path26" style="fill:#858585;fill-opacity:1;fill-rule:evenodd;stroke:none" d="M 0,0 5.05,-0.66 5.27,-3.19 3.3,-3.74 0.99,-2.31 Z"/></g><g transform="translate(586.5142,405.2697)" id="g28"><path id="path30" style="fill:#858585;fill-opacity:1;fill-rule:evenodd;stroke:none" d="M 0,0 0.88,-4.06 H 2.97 L 3.41,-0.43 1.32,1.32 Z"/></g><g transform="translate(591.1242,401.8697)" id="g32"><path id="path34" style="fill:#858585;fill-opacity:1;fill-rule:evenodd;stroke:none" d="M 0,0 V -4.61 L 5.16,-3.52 10,-0.99 8.35,2.75 5.16,3.19 2.75,3.73 0.99,1.1 Z"/></g><g transform="translate(592.7742,427.5697)" id="g36"><path id="path38" style="fill:#858585;fill-opacity:1;fill-rule:evenodd;stroke:none" d="M 0,0 1.54,-3.29 11.42,-3.4 14.28,1.87 12.41,5.93 10.33,3.62 6.26,3.95 5.16,2.09 H 2.97 l -0.33,-2.2 z"/></g><g transform="translate(583.6542,422.7397)" id="g40"><path id="path42" style="fill:#858585;fill-opacity:1;fill-rule:evenodd;stroke:none" d="M 0,0 2.31,-3.52 6.6,-4.39 6.71,0.55 5.28,2.97 0.22,3.29 -2.41,1.43 -6.47,2.09 -6.8,-0.66 l 2.41,-2.53 -1.31,-1.53 -3.85,3.18 -4.62,-0.44 -0.32,-3.73 0.44,-3.85 2.08,-2.63 0.77,-2.97 4.28,-1.21 3.96,0.33 -0.33,4.18 2.86,-0.33 2.19,3.62 2.64,-0.55 1.76,1.98 -1.76,1.76 -3.84,1.1 -3.08,3.62 z"/></g><g transform="translate(564.3242,413.5097)" id="g44"><path id="path46" style="fill:#858585;fill-opacity:1;fill-rule:evenodd;stroke:none" d="M 0,0 0.66,-2.96 3.3,-6.04 4.95,-5.38 2.97,-1.75 Z"/></g><g transform="translate(678.2942,420.0497)" id="g48"><path id="path50" style="fill:#858585;fill-opacity:1;fill-rule:evenodd;stroke:none" d="m 0,0 -1.33,-2.58 -7.18,-4.05 -5.22,4.96 -5.22,0.52 -7.44,-4.83 -5.09,-6.27 -1.83,-6.39 -3.39,-1.05 -4.18,2.09 -4.05,-0.39 -2.08,-2.74 -1.83,1.57 -1.7,-1.83 -2.08,1.96 2.99,3 -7.04,0.52 -4.05,-3.52 2.22,-7.57 -4.05,-3.92 v 5.87 h -2.74 l -2.74,-2.47 -0.65,3 4.05,3.65 -4.31,-0.26 -12.79,-6.53 2.47,-3 -3.65,-3.52 1.44,-2.61 2.61,1.3 0.26,-3.78 3.13,-3.66 -4.83,-1.17 -1.43,-1.96 1.3,-3.13 -3.91,-0.66 -5.23,1.57 -1.56,-5.87 -8.88,1.56 v -13.05 l -6.26,1.04 -9.67,8.75 3.53,2.48 -5.87,8.74 -3.79,1.83 -5.74,-1.96 -6.4,2.49 -0.91,-9.93 -11.62,-4.96 -4.44,3.01 0.66,2.35 -11.88,0.13 -3.14,-4.18 -0.78,-2.74 -0.78,4.04 -2.22,1.96 -2.61,-2.74 -3.62,-1.81 -0.2,-2.49 1.69,-2.25 0.03,-0.04 0.02,-0.06 0.76,-4.02 5.6,-7.91 0.04,-0.07 v -0.07 -5.15 l 2.85,-3.43 0.16,-0.19 -0.19,-0.15 -6.52,-5.18 -0.37,-3 -0.01,-0.06 -0.03,-0.05 -1.53,-2.29 -1.15,-5.58 -0.05,-0.22 -0.22,0.03 -3.2,0.38 -5.15,-4.21 -0.03,-0.01 -0.02,-0.01 -1.73,-0.9 4.09,-6.25 0.03,-0.06 0.01,-0.06 1.39,-17.48 0.01,-0.11 -0.07,-0.07 -3.6,-3.98 2.37,-1.83 0.13,-0.09 -0.03,-0.15 -0.97,-4.65 2.1,-2.29 0.06,-0.07 v -0.1 -3.25 l 2.48,-1.71 0.16,-0.11 -0.07,-0.18 -1.19,-3.17 -0.02,-0.05 -0.02,-0.03 -3.73,-4.51 -0.36,-3.23 h 6.08 0.09 l 0.07,-0.06 2.64,-2.07 2.83,1.88 0.19,0.13 0.14,-0.18 1.59,-1.98 0.13,-0.16 -0.02,-0.02 2.09,-3.15 0.13,-0.2 -0.21,-0.14 -2.36,-1.5 v -2.79 l 2.62,-0.2 2.17,1.52 0.23,0.16 0.12,-0.25 2.7,-5.17 0.04,-0.05 -0.01,-0.07 -0.22,-6.15 3.47,-1.95 0.16,-0.09 -0.04,-0.18 -1.56,-6.44 1.95,-4.32 4.39,-1.32 0.26,-0.08 -0.11,-0.25 -3.35,-7.83 -0.67,-9.75 3.38,-3.59 3.65,2.79 0.06,0.05 h 0.08 l 5.48,0.22 1.96,3.48 0.16,0.28 0.22,-0.22 2.97,-2.97 3.85,4.5 6.06,13.02 0.05,0.11 0.13,0.02 4.05,0.68 0.07,0.01 0.06,-0.03 7.87,-3.15 0.11,-0.04 0.03,-0.1 1.72,-5.15 4.7,2.14 0.12,0.06 0.12,-0.08 2.92,-2.02 0.06,-0.04 0.03,-0.07 5.29,-12.01 6.89,-12.76 4.33,2.84 0.02,0.01 0.02,0.01 4.5,1.8 0.13,0.05 0.11,-0.09 3.44,-2.79 1.87,1.66 0.17,0.15 0.16,-0.15 2.75,-2.54 2.53,2.53 0.08,0.08 0.1,-0.01 6.3,-0.22 0.08,-0.01 0.06,-0.04 3.94,-3.07 7.75,2.88 0.13,0.04 0.11,-0.08 2.58,-2.16 10.66,4.89 0.07,0.03 0.08,-0.01 3.08,-0.66 3.34,1.25 -0.41,2.5 -0.03,0.18 0.15,0.08 8.25,4.29 -2.06,5.81 -0.05,0.14 0.1,0.1 2.77,2.97 -1.15,2.87 -5.27,3.45 -0.19,0.12 0.11,0.19 2.77,5.36 -5.16,3.57 -0.22,0.16 0.17,0.2 2.41,2.8 v 11.82 0.17 l 0.15,0.06 10.13,3.85 0.39,4.57 0.02,0.21 0.21,0.01 6,0.4 1.37,3.71 -0.2,3.85 -0.01,0.16 0.15,0.07 2.89,1.35 -2.18,7.72 -4.03,2.83 -0.15,0.1 0.05,0.16 2.65,9.37 -3.67,9.78 -0.05,0.13 0.08,0.11 2.06,2.66 0.11,0.14 0.16,-0.05 7.12,-2.44 4.55,0.98 1.59,2.78 0.06,0.11 0.12,0.01 5.38,0.8 0.96,3.46 -8.96,18.6 -0.04,0.07 0.02,0.08 0.91,4.55 0.02,0.09 0.08,0.06 6.01,4.24 -2.27,4.36 -0.08,0.16 0.13,0.13 5.82,5.45 0.06,0.06 0.08,0.01 5.18,0.53 2.98,3.33 0.52,5.8 -3.36,3.01 -0.07,0.07 -0.01,0.1 -0.18,3.75 -2.15,3.22 -0.11,0.17 0.15,0.14 2.56,2.39 -2.76,3.28 -0.15,0.18 0.17,0.15 6.73,6.18 0.03,0.03 0.04,0.02 3.03,1.25 2.24,3.28 -4.24,8.82 H 9.17 9.12 l -0.05,0.02 -4.18,1.82 -0.09,0.04 -0.04,0.1 -2.18,5.64 -0.05,0.13 0.09,0.11 8.49,9.93 v 4.89 z"/></g><g transform="translate(778.3642,417.9497)" id="g52"><path id="path54" style="fill:#858585;fill-opacity:1;fill-rule:evenodd;stroke:none" d="m 0,0 -1.28,14.13 -3.92,2.22 9.27,6.4 -1.3,4.31 -17.23,1.43 -2.09,-2.74 -4.7,-0.39 -0.52,-3.65 -3.79,0.26 v 5.09 l 4.31,1.43 1.7,3.53 -0.92,9.26 -1.7,0.66 -2.09,-1.31 -0.12,3.39 -4.05,-1.56 -2.74,3.13 1.04,5.09 3.39,-3 1.96,1.57 2.88,-3.14 1.69,3.92 -0.39,4.7 3.13,2.61 5.48,-0.52 9.14,6.91 -2.22,2.62 4.57,-0.66 -0.13,4.44 -4.96,-0.91 -1.43,3.13 -6.66,1.31 2.61,3.26 -3.39,2.48 3.13,2.22 -3.92,5.09 -11.09,-6.53 -0.66,-5.35 -3,-3.91 7.44,-3.01 -4.04,-1.83 -12.01,3.27 -13.97,-9.27 -20.88,-11.35 -5.62,-9.14 0.53,-2.74 -3.79,-1.05 -5.35,-4.83 3.78,-4.7 3.4,1.05 5.09,-2.88 -0.52,-5.09 -4.7,-0.52 -3.14,-1.82 -6.65,4.17 V 12.7 l -6.79,-5.09 -2.62,-5.08 11.27,-8.45 0.09,-0.07 v -0.12 -5.09 -0.09 l -0.05,-0.07 -8.46,-9.9 2.1,-5.4 4.04,-1.76 h 5.41 0.15 l 0.06,-0.14 2.13,-4.43 3.51,-0.52 0.12,-0.02 0.06,-0.11 2.25,-3.98 4.7,2.27 0.09,0.04 0.09,-0.03 4.42,-1.42 3.35,3 0.06,0.06 0.09,0.01 5.18,0.35 3.84,4.03 -0.7,3.88 -0.04,0.21 0.21,0.06 3.87,1.23 1.06,3.7 0.04,0.16 0.17,0.01 3.3,0.35 1.04,3.13 0.04,0.13 0.13,0.03 6.08,1.43 1.59,2.81 0.06,0.12 0.13,0.01 9.1,0.54 0.18,0.01 0.06,-0.17 2.1,-5.78 6.33,1.93 0.04,0.01 h 0.04 l 6.91,-0.17 5.58,16.01 0.09,0.27 0.25,-0.13 3.37,-1.78 z"/></g><g transform="translate(772.9442,359.7797)" id="g56"><path id="path58" style="fill:#858585;fill-opacity:1;fill-rule:evenodd;stroke:none" d="m 0,0 -1.52,-4.57 5.79,-6.5 0.81,9.34 -3.15,1.42 z"/></g><g transform="translate(705.9742,291.2897)" id="g60"><path id="path62" style="fill:#858585;fill-opacity:1;fill-rule:evenodd;stroke:none" d="m 0,0 3.49,2.3 2.35,1.96 3.27,0.78 -1.05,6.66 5.75,1.83 4.43,3.91 4.05,0.13 -3,-4.3 2.87,-2.49 4.18,4.7 1.04,7.44 3.79,1.44 3,3.92 -3.13,2.35 -2.74,-3.4 -2.88,2.74 -0.78,13.45 -2.48,7.96 0.78,5.87 4.83,6.92 2.74,0.13 1.31,3.92 5.61,-7.7 3.92,0.65 0.26,2.87 -0.91,5.88 -1,4.13 -3.77,2.13 -0.1,0.05 -0.02,0.11 -0.71,3.77 -2.43,2.26 -3.92,-0.36 -0.19,-0.02 -0.06,0.18 -2.34,6.1 -3.35,0.71 -0.09,0.02 -0.06,0.08 -5.37,7.81 -3.8,-3.97 L 13.42,92.85 13.33,92.84 8.14,92.49 4.75,89.45 4.64,89.36 4.51,89.4 0.06,90.83 -4.76,88.5 l -0.21,-0.1 -0.11,0.2 -2.31,4.08 -3.06,0.46 1.98,-4.13 0.06,-0.13 -0.08,-0.11 -2.36,-3.46 -0.04,-0.06 -0.07,-0.03 -3.05,-1.25 -6.53,-6 2.76,-3.28 0.15,-0.17 -0.17,-0.16 -2.58,-2.41 2.07,-3.1 0.04,-0.05 v -0.07 l 0.18,-3.72 3.38,-3.02 0.09,-0.08 -0.01,-0.13 -0.55,-6 V 55.7 l -0.06,-0.06 -3.09,-3.45 -0.06,-0.07 -0.09,-0.01 -5.2,-0.54 -5.62,-5.27 2.28,-4.39 0.09,-0.18 -0.17,-0.13 -6.1,-4.3 -0.88,-4.38 8.85,-18.35 4.08,2.72 0.1,0.06 0.11,-0.04 9.24,-3.07 0.13,-0.05 0.03,-0.14 1.03,-5.13 0.01,-0.08 -0.04,-0.08 -2.2,-4 1.67,-3.32 3.67,2.7 0.06,0.05 h 0.08 4.72 0.14 l 0.07,-0.12 z"/></g><g transform="translate(713.1042,132.9997)" id="g64"><path id="path66" style="fill:#858585;fill-opacity:1;fill-rule:evenodd;stroke:none" d="m 0,0 -0.5,-15.23 2.74,-4.7 -10.71,-0.92 -3.52,-7.7 9.92,-10.18 0.26,-3.79 5.48,5.22 9.4,-0.13 6.79,5.49 4.05,8.09 1.95,22.19 2.75,11.62 -1.83,13.59 -2.68,0.76 -0.15,0.04 -0.02,0.15 -0.66,3.25 -4.46,3.19 -4.99,-3.75 2.96,-3.21 4.73,-0.4 0.26,-0.02 -0.04,-0.25 -1.07,-7.36 -0.03,-0.21 h -0.2 L 17.07,15.61 17.58,10.92 17.6,10.77 17.48,10.69 12.65,7.48 12.6,7.44 H 12.54 L 4.62,6.91 2.63,4.31 4.17,1.23 4.31,0.95 4.01,0.89 Z"/></g><g transform="translate(708.7342,149.4197)" id="g68"><path id="path70" style="fill:#858585;fill-opacity:1;fill-rule:evenodd;stroke:none" d="m 0,0 3.47,-5.68 -1.3,-4.18 2.12,-6.08 3.68,0.81 -1.47,2.93 -0.07,0.14 0.1,0.12 2.14,2.81 0.07,0.09 0.1,0.01 7.97,0.53 4.64,3.09 -0.52,4.81 -0.03,0.26 0.27,0.01 3.41,0.13 1,6.9 -4.56,0.38 -0.09,0.01 -0.07,0.07 -3.21,3.48 -0.18,0.2 0.21,0.15 5.36,4.02 0.14,0.11 0.14,-0.11 4.69,-3.34 0.08,-0.06 0.02,-0.09 0.64,-3.2 2.38,-0.68 1.19,15.4 -1.69,4.83 -7.57,15.4 -2.48,3 -2.22,10.84 -1.51,3.6 -0.53,0.58 -5.66,2.34 -1.96,2.35 1.69,3.4 -4.17,1.69 -8.75,1.57 -6.79,-3.53 -2.35,-10.31 -2.87,3.66 -3.26,-4.18 -2.74,7.96 -5.74,-3.52 -4.84,0.78 0.26,4.57 6.27,15.66 1.57,15.67 1.82,7.57 -1.56,6.26 2.09,5.62 -0.92,6 13.19,12.92 4.17,-0.78 0.4,1.57 -1.18,1.83 1.84,1.21 -2.27,3.97 h -4.5 l -3.84,-2.83 -0.23,-0.16 -0.13,0.25 -1.85,3.7 -0.05,0.11 0.06,0.11 2.21,4.03 -0.98,4.91 -8.99,3 -4.14,-2.76 -1,-3.61 -0.04,-0.15 -0.16,-0.03 -5.43,-0.8 -1.58,-2.77 -0.05,-0.1 -0.11,-0.02 -4.72,-1.02 -0.07,-0.02 -0.06,0.02 -7.02,2.41 -1.87,-2.42 3.65,-9.73 0.03,-0.08 -0.02,-0.07 -2.63,-9.28 3.97,-2.78 0.07,-0.05 0.02,-0.08 2.26,-8.01 0.06,-0.2 -0.19,-0.08 -2.93,-1.37 0.2,-3.74 v -0.05 l -0.02,-0.04 -1.44,-3.91 -0.05,-0.15 -0.16,-0.01 -5.95,-0.39 -0.39,-4.52 -0.01,-0.15 -0.15,-0.05 -10.11,-3.84 V 87.1 87.01 l -0.06,-0.07 -2.28,-2.67 5.11,-3.54 0.18,-0.13 -0.1,-0.19 -2.77,-5.35 5.15,-3.37 0.06,-0.04 0.03,-0.07 1.24,-3.08 0.05,-0.14 -0.1,-0.12 -2.78,-2.97 2,-5.61 8.18,4.26 0.16,0.09 0.13,-0.14 2.7,-2.93 0.11,-0.11 -0.07,-0.15 -4.02,-8.71 0.45,-4.21 0.01,-0.16 -0.13,-0.08 -3.02,-1.72 0.2,-3.44 h 6.74 0.13 l 0.07,-0.11 3.08,-4.61 3.37,0.21 5.5,5.06 0.89,3.76 0.04,0.18 h 0.19 4.13 l 1.28,2.57 0.08,0.16 0.17,-0.03 2.93,-0.45 0.14,-0.02 0.05,-0.15 2.7,-8.32 0.05,-0.14 -0.11,-0.1 -1.8,-1.8 -0.05,-0.06 -0.08,-0.01 -6.66,-1.07 1.67,-3.54 0.06,-0.14 -0.11,-0.12 -2.65,-2.87 -0.66,-3.76 -0.01,-0.06 -0.04,-0.05 -3.92,-4.58 1.67,-2.09 0.12,-0.15 -0.12,-0.14 -2.64,-3.54 v -4.27 l 7.06,-3.53 0.05,-0.03 0.04,-0.04 5.68,-7.88 3.56,3.38 0.07,0.07 0.1,-0.01 7.63,-0.13 h 0.08 L -12.8,3.9 -9.43,1.17 0.75,4.61 1.17,4.75 1.06,4.32 Z"/></g><g transform="translate(679.8542,142.3397)" id="g72"><path id="path74" style="fill:#858585;fill-opacity:1;fill-rule:evenodd;stroke:none" d="m 0,0 3.9,-6.17 4.18,-3.65 8.87,4.3 1.18,3.66 6.65,7.44 3.64,1.66 0.95,3.84 L 19.48,7.75 19.35,7.7 19.25,7.79 15.84,10.55 8.39,10.68 4.73,7.2 Z"/></g><g transform="translate(608.8141,165.5297)" id="g76"><path id="path78" style="fill:#858585;fill-opacity:1;fill-rule:evenodd;stroke:none" d="m 0,0 8.89,4.58 6.79,-2.35 8.22,1.3 12.01,-11.88 14.88,-15.4 5.88,2.35 3.65,-1.7 2.61,1.31 4.96,-1.57 2.69,0.35 4.7,7.17 -5.71,7.92 -7.14,3.57 -0.14,0.07 v 0.15 4.49 0.08 l 0.05,0.07 2.58,3.45 -1.68,2.1 -0.12,0.16 0.13,0.15 4,4.67 0.67,3.76 0.01,0.07 0.05,0.05 2.58,2.81 -1.72,3.67 -0.14,0.29 0.32,0.05 6.89,1.12 1.64,1.64 -2.61,8.03 -2.6,0.4 -1.27,-2.54 -0.06,-0.13 H 70.85 66.78 L 65.92,26.62 65.9,26.55 65.85,26.5 60.22,21.32 60.16,21.27 60.08,21.26 56.48,21.03 h -0.14 l -0.08,0.11 -3.08,4.62 h -6.84 -0.23 l -0.01,0.23 -0.23,3.82 -0.01,0.15 0.13,0.08 3.02,1.72 -0.44,4.11 v 0.07 l 0.02,0.06 3.98,8.62 -2.46,2.67 -16.55,-8.6 0.42,-2.53 0.04,-0.2 -0.19,-0.06 -3.6,-1.35 -0.07,-0.03 -0.06,0.02 -3.08,0.65 -10.72,-4.91 -0.14,-0.06 -0.11,0.1 -2.59,2.16 -7.74,-2.88 -0.13,-0.05 -0.11,0.08 -3.98,3.11 -6.12,0.21 -2.62,-2.62 -0.17,-0.17 -0.17,0.16 -2.76,2.55 -1.86,-1.65 -0.15,-0.14 -0.16,0.13 -3.49,2.83 -4.34,-1.73 -4.23,-2.77 5.34,-3.56 0.21,-0.14 -0.14,-0.2 -1.6,-2.23 2.47,-2.46 4.45,2.48 0.21,0.11 0.13,-0.21 2.13,-3.77 3.41,0.81 0.28,0.07 0.02,-0.29 0.5,-6.71 3.49,-1.99 0.23,-0.13 -0.15,-0.22 -1.96,-2.78 z"/></g><g transform="translate(725.5842,210.1297)" id="g80"><path id="path82" style="fill:#858585;fill-opacity:1;fill-rule:evenodd;stroke:none" d="m 0,0 -0.19,0.44 7.7,-4.18 2.48,-6.52 3.79,-4.83 4.56,-7.31 3.27,-5.35 3.78,-2.87 1.18,-3.4 1.04,-3 4.7,-2.22 0.66,-4.7 4.82,-6.13 0.4,5.35 -0.66,4.05 3.79,0.26 1.43,0.65 3.53,-1.83 -2.87,6 h -4.18 l -4.44,1.96 -5.09,3.66 -3.26,8.35 -1.83,5.35 3.91,2.22 7.32,0.39 -16.45,11.1 -11.62,10.44 -5.35,10.05 -7.31,5.09 -3.39,4.31 -2.35,-1.04 -0.52,-2.48 4.3,-3.01 2.35,-3.52 -1.3,-1.7 -2.09,0.53 -0.65,-3.01 4.17,-3.13 4.18,-9.53 -0.34,0.14 z"/></g><g transform="translate(101.1442,267.8597)" id="g84"><path id="path86" style="fill:#858585;fill-opacity:1;fill-rule:evenodd;stroke:none" d="m 0,0 1.09,-2.07 -0.18,-4.81 3.32,-1.78 0.02,-0.01 2.4,-1.54 2.22,1.54 0.07,0.05 0.08,-0.01 3.37,-0.18 3.54,2.16 0.38,2.7 0.04,0.23 0.24,-0.03 3.95,-0.53 2.09,0.66 0.19,0.06 0.1,-0.19 1.55,-3.12 3.52,-1.25 0.78,0.7 0.24,3.92 -2.26,1.7 -0.09,0.06 -0.01,0.11 -0.16,2.54 -1.44,1.35 -2.19,1.6 -0.11,0.09 0.01,0.13 0.25,3.85 -4.38,3.39 -0.07,0.06 -0.02,0.1 -0.4,2.58 -1.66,0.79 -0.14,0.07 v 0.15 1.63 l -0.66,1.18 -2.49,0.15 -0.44,-1.02 -0.05,-0.13 -0.13,-0.02 -1.02,-0.17 -0.13,-0.02 -0.09,0.11 -0.69,0.84 H 9.58 L 7.95,16.15 V 13.37 13.3 L 7.91,13.23 6.95,11.9 7.77,11.28 7.86,11.22 7.87,11.1 7.95,9.75 7.97,9.48 7.7,9.49 5.9,9.57 5.18,8.34 5.67,5.89 5.69,5.76 5.6,5.67 Z"/></g><g transform="translate(92.6342,294.2297)" id="g88"><path id="path90" style="fill:#858585;fill-opacity:1;fill-rule:evenodd;stroke:none" d="m 0,0 -1.88,-2.34 -0.92,-1.43 0.4,-1.96 1.95,-0.91 -0.26,-3.01 4.96,-3.13 0.13,-5.74 3.9,-7.4 5.4,5.47 -0.49,2.41 -0.01,0.09 0.05,0.08 0.84,1.44 0.07,0.13 0.15,-0.01 1.67,-0.07 -0.06,0.97 -0.92,0.7 -0.19,0.14 0.14,0.19 1.05,1.46 v 2.71 L 12.38,-6.53 8.82,-5.78 8.78,-5.77 8.74,-5.75 6.2,-4.05 6.13,-4 6.1,-3.92 5.47,-1.78 4.18,-1.56 2.91,-2.28 2.76,-2.37 2.63,-2.26 Z"/></g><g transform="translate(96.0442,306.9197)" id="g92"><path id="path94" style="fill:#858585;fill-opacity:1;fill-rule:evenodd;stroke:none" d="m 0,0 -2.16,-0.93 -1.04,-2.09 -1.57,-0.39 -0.13,-2.61 2.22,-1.31 -0.54,-4.87 2.63,-2.27 1.2,0.68 0.08,0.04 0.08,-0.01 1.52,-0.25 0.15,-0.03 0.04,-0.15 0.65,-2.2 2.43,-1.62 3.58,-0.75 0.08,-0.01 0.05,-0.06 3.55,-3.64 1.6,1.45 0.07,0.07 h 0.1 1.26 0.12 l 0.07,-0.09 0.67,-0.82 0.75,0.12 0.4,0.94 -1.61,2.17 -0.04,0.06 -0.01,0.07 -0.15,2.12 -1.71,0.54 -0.1,0.03 -0.04,0.1 -0.51,1.1 -0.02,0.05 v 0.05 1.78 l -0.8,1.04 -0.05,0.06 v 0.09 3.81 l -5.71,7.46 z"/></g><g transform="translate(104.1342,324.3597)" id="g96"><path id="path98" style="fill:#858585;fill-opacity:1;fill-rule:evenodd;stroke:none" d="m 0,0 -3.59,0.3 -2.61,2.48 0.26,2.35 -2.48,0.52 -1.44,-3.53 -5.22,-4.43 0.39,-2.88 2.74,0.14 2.09,-1.7 0.79,-3.66 2.34,0.26 2.75,-0.52 v -1.82 l -3.41,-4.49 6.46,-0.24 8.05,5.89 -0.64,1.04 -0.04,0.06 v 0.06 1.3 0.11 l 0.08,0.07 0.95,0.96 0.02,0.01 0.03,0.02 1.37,0.81 -0.16,1.08 -1.62,0.12 -0.89,-0.7 -0.13,-0.1 -0.14,0.08 -1.44,0.82 -0.06,0.04 -0.03,0.06 -0.89,1.71 -0.03,0.05 v 0.06 L 3.43,-2.1 v 0.07 l 0.04,0.06 0.83,1.44 -3.86,0.25 H 0.37 l -0.05,0.05 z"/></g><g transform="translate(115.4842,346.4597)" id="g100"><path id="path102" style="fill:#858585;fill-opacity:1;fill-rule:evenodd;stroke:none" d="m 0,0 -0.58,-1.05 -4.31,-2.48 -2.22,-3.52 -2.35,-4.83 -0.26,-3.92 0.65,-2.35 -1.7,-2.09 -0.1,-1.61 0.06,-0.05 4.12,-0.27 1.66,0.73 0.04,0.02 h 0.06 l 3.26,-0.06 1.77,1.64 0.08,0.07 h 0.1 l 2.39,-0.14 0.17,-0.01 0.05,-0.16 1.01,-3.47 0.9,0.53 0.07,0.04 0.08,-0.01 1.79,-0.28 0.1,-0.01 0.06,-0.09 0.87,-1.25 4.66,0.46 2.79,1.79 3.08,4.43 0.12,1.07 -2.12,2.59 -0.05,0.05 v 0.07 l -0.33,2.35 -5.23,0.93 -0.05,0.01 -0.05,0.03 -2.53,1.85 -0.04,0.04 -0.03,0.05 -3.35,6.29 -0.01,0.01 v 0.01 L 3.57,-0.07 2.56,0.46 0.53,-0.06 0.48,-0.07 H 0.43 Z"/></g><g transform="translate(103.6242,306.8397)" id="g104"><path id="path106" style="fill:#858585;fill-opacity:1;fill-rule:evenodd;stroke:none" d="m 0,0 5.68,-7.42 0.05,-0.07 v -0.08 -3.81 l 0.79,-1.04 0.05,-0.07 v -0.08 -1.81 l 0.44,-0.95 1.73,-0.55 2.63,-0.13 0.82,1.44 0.02,0.05 0.04,0.02 4.99,4.05 0.51,4.09 -2.16,1.97 -0.04,0.03 -0.02,0.05 -1.09,2.39 -0.03,0.05 v 0.06 l 0.14,4.16 -6.58,3.49 z"/></g><g transform="translate(121.0542,295.9197)" id="g108"><path id="path110" style="fill:#858585;fill-opacity:1;fill-rule:evenodd;stroke:none" d="m 0,0 -4.84,-3.92 -0.87,-1.54 -0.07,-0.13 -0.15,0.01 -2.54,0.12 0.14,-1.94 1.58,-2.14 2.68,-0.16 0.13,-0.01 0.06,-0.11 0.76,-1.36 0.04,-0.05 v -0.07 -1.54 l 1.63,-0.78 0.12,-0.05 0.02,-0.13 0.41,-2.61 4.28,-3.33 2.08,0.96 0.55,1.29 -0.33,2.09 -0.6,1.27 -0.05,0.11 0.06,0.11 0.89,1.57 0.04,0.07 0.07,0.03 3.66,1.7 2.16,1.96 0.06,2.38 -0.51,1.61 -1.93,1.52 -0.05,0.05 -0.02,0.06 -0.64,1.71 -1.83,0.18 -2.89,-1.34 -0.06,-0.03 -0.06,0.01 -2.05,0.2 -0.1,0.01 -0.07,0.08 z"/></g><g transform="translate(133.4542,287.5997)" id="g112"><path id="path114" style="fill:#858585;fill-opacity:1;fill-rule:evenodd;stroke:none" d="m 0,0 -0.01,-0.38 v -0.1 l -0.08,-0.07 -2.26,-2.05 -0.03,-0.03 -0.03,-0.02 -3.62,-1.67 -0.79,-1.4 0.56,-1.19 0.01,-0.03 0.01,-0.03 0.34,-2.19 0.01,-0.07 -0.03,-0.07 -0.61,-1.43 -0.04,-0.09 -0.08,-0.04 -2.17,-1 -0.23,-3.7 2.08,-1.53 0.01,-0.01 0.02,-0.01 1.52,-1.44 0.07,-0.07 0.01,-0.09 0.16,-2.51 2.19,-1.65 3.21,0.56 6.41,3.31 0.82,1.12 0.06,5.33 v 0.02 0.02 l 0.62,3.62 0.01,0.07 0.04,0.05 2.81,3.33 -2.25,2.5 L 7.41,-3.79 7.37,-3.81 7.34,-3.82 6.18,-4.16 6.08,-4.19 5.99,-4.14 4.21,-3.11 4.15,-3.08 4.12,-3.02 2.54,-0.13 Z"/></g><g transform="translate(118.6542,309.1897)" id="g116"><path id="path118" style="fill:#858585;fill-opacity:1;fill-rule:evenodd;stroke:none" d="m 0,0 -0.13,-4.12 1.05,-2.29 2.22,-2.03 0.1,-0.08 -0.02,-0.13 -0.53,-4.2 1.78,-2.17 1.89,-0.19 2.88,1.34 0.06,0.03 0.07,-0.01 1.83,-0.18 0.16,1.07 0.02,0.06 0.03,0.05 1.3,1.78 0.01,0.01 0.01,0.01 2.6,2.8 v 1.75 0.11 l 0.07,0.07 1.56,1.56 -0.32,3.19 L 14.76,-0.4 14.7,-0.37 14.67,-0.3 13.85,1.4 9.87,1.21 8.92,0.06 8.78,-0.1 8.6,0 5.14,2.11 4.17,2.41 Z"/></g><g transform="translate(134.3442,300.6097)" id="g120"><path id="path122" style="fill:#858585;fill-opacity:1;fill-rule:evenodd;stroke:none" d="m 0,0 -2.6,-2.79 -1.26,-1.72 -0.18,-1.18 0.64,-1.73 1.93,-1.53 0.06,-0.04 0.02,-0.07 0.55,-1.71 0.01,-0.05 v -0.04 l -0.05,-1.67 2.69,-0.13 0.14,-0.01 0.06,-0.12 1.61,-2.95 1.63,-0.94 1.03,0.3 1.48,0.94 0.18,0.11 0.13,-0.15 2.49,-2.76 1.68,-0.58 1.51,0.06 5,4.46 0.01,0.01 0.01,0.01 2.65,1.88 -0.62,1.67 -1.02,2.79 -5.12,8.62 -3.12,0.13 -1.09,-0.96 -0.14,-0.12 -0.16,0.1 -1.23,0.82 V 0.66 L 7.7,1.51 7.09,1.01 7.04,0.97 6.99,0.96 4.8,0.41 4.72,0.39 4.64,0.43 3.42,0.98 2.58,0.2 2.52,0.14 2.43,0.13 Z"/></g><g transform="translate(132.5342,311.0797)" id="g124"><path id="path126" style="fill:#858585;fill-opacity:1;fill-rule:evenodd;stroke:none" d="m 0,0 0.74,0.93 1.19,1.71 v 4.03 l -1.86,1.02 -0.05,0.03 -0.04,0.05 -1.44,2.26 -0.02,0.05 -0.01,0.05 -0.35,2.3 -2.56,-1.65 -0.05,-0.03 -0.06,-0.01 -4.86,-0.48 -0.14,-0.01 -0.08,0.12 -0.9,1.28 -1.59,0.24 -1.09,-0.64 -0.27,-0.15 -0.09,0.29 -1.04,3.6 -2.13,0.12 -1.77,-1.63 -0.07,-0.07 h -0.1 l -3.3,0.07 -1.59,-0.7 -0.95,-1.65 0.06,-1.45 0.84,-1.6 1.23,-0.71 0.83,0.66 0.07,0.06 0.1,-0.01 1.91,-0.14 0.2,-0.01 0.03,-0.2 0.2,-1.43 0.02,-0.16 -0.14,-0.09 -1.47,-0.87 -0.87,-0.87 V 3.18 l 0.68,-1.11 6.67,-3.54 4.26,2.47 0.09,0.05 0.11,-0.03 1.09,-0.34 0.03,-0.01 0.02,-0.02 3.32,-2.01 0.89,1.07 0.07,0.08 0.11,0.01 z"/></g><g transform="translate(131.1242,323.8497)" id="g128"><path id="path130" style="fill:#858585;fill-opacity:1;fill-rule:evenodd;stroke:none" d="M 0,0 0.39,-2.52 1.77,-4.68 3.7,-5.75 3.83,-5.82 v -0.14 -4.24 -0.08 l -0.05,-0.06 -1.23,-1.78 -0.01,-0.01 -0.73,-0.91 0.8,-1.65 1.92,-1.19 0.1,-0.07 0.01,-0.12 0.35,-3.42 L 5,-19.6 4.92,-19.68 3.35,-21.26 v -1.49 l 2.18,0.12 0.9,0.83 0.12,0.11 0.14,-0.06 1.3,-0.59 2.05,0.52 0.71,0.58 0.14,0.12 0.15,-0.11 1.37,-0.95 1.08,-0.72 1.02,0.9 0.07,0.07 0.1,-0.01 3.21,-0.13 1.22,1.85 0.82,2.35 -0.77,0.71 -0.02,0.02 -0.01,0.01 -1.44,1.85 -0.02,0.03 -0.01,0.04 -1.17,3.56 -0.02,0.08 0.02,0.07 0.82,2.53 0.02,0.05 0.03,0.04 2.67,3.08 0.01,0.01 0.01,0.01 1.65,1.52 0.37,1.86 -2.1,2.49 -5.02,-0.07 H 14.87 L 14.81,0.06 9.27,3.62 9.15,3.7 9.16,3.84 9.28,5.94 8.63,6.27 8.07,5.71 8.01,5.65 7.93,5.64 3.19,4.98 3.14,4.55 3.13,4.49 3.1,4.44 Z"/></g><g transform="translate(152.8442,318.9397)" id="g132"><path id="path134" style="fill:#858585;fill-opacity:1;fill-rule:evenodd;stroke:none" d="m 0,0 -1.33,-1.22 -2.63,-3.03 -0.78,-2.41 1.12,-3.44 1.4,-1.81 0.88,-0.8 0.11,-0.11 -0.05,-0.15 -0.89,-2.53 -0.01,-0.03 -0.01,-0.03 -1.22,-1.85 5,-8.43 3.48,2.09 0.06,0.03 h 0.06 l 4.42,0.15 4.87,2.93 -1.02,2.85 -4.76,6.1 -2.35,1.03 -0.05,0.02 -0.04,0.03 -1.8,1.96 -0.14,0.15 0.12,0.16 1.33,1.77 0.55,2.23 -1.1,1.1 L 2.83,-5.2 2.66,-5.35 2.5,-5.18 0.24,-2.77 0.18,-2.71 0.17,-2.62 Z"/></g><g transform="translate(159.2842,315.1697)" id="g136"><path id="path138" style="fill:#858585;fill-opacity:1;fill-rule:evenodd;stroke:none" d="m 0,0 0.33,-0.32 0.09,-0.1 -0.03,-0.13 -0.6,-2.41 -0.02,-0.05 -0.02,-0.04 -1.24,-1.65 1.64,-1.77 2.36,-1.03 0.06,-0.03 0.03,-0.05 4.83,-6.17 0.02,-0.04 0.01,-0.03 1.03,-2.87 1.57,0.31 1.14,1.64 0.06,0.1 h 0.12 l 2.92,0.23 0.1,0.01 0.08,-0.08 1.14,-1.07 1.83,1.04 0.53,6.35 -2.88,1.58 -0.11,0.06 -0.01,0.14 -0.15,2.61 -1.33,1.19 -2.12,-0.71 -0.1,-0.03 -0.09,0.05 -7.02,3.73 z"/></g><g transform="translate(166.4242,314.5997)" id="g140"><path id="path142" style="fill:#858585;fill-opacity:1;fill-rule:evenodd;stroke:none" d="m 0,0 4.19,-2.22 2.16,0.72 0.13,0.04 0.11,-0.09 1.5,-1.36 0.08,-0.06 v -0.1 l 0.15,-2.58 2.89,-1.6 0.14,-0.07 -0.01,-0.16 -0.54,-6.36 8.64,-0.08 1.06,0.71 0.07,0.04 h 0.07 l 2.84,-0.08 h 0.17 l 0.06,-0.16 0.78,-2.22 2.3,-1 0.04,-0.02 0.04,-0.03 1.96,-1.99 3.19,3.25 0.07,0.07 h 0.1 l 7.75,-0.15 0.14,4.88 0.01,0.09 0.06,0.07 1.5,1.64 -1.7,1.7 -4.09,-1.03 -0.09,-0.02 -0.09,0.05 -6.17,3.62 -0.06,0.03 -0.03,0.06 L 25.68,2.46 20.06,5.87 11.47,6.31 8.52,4.25 8.46,4.21 8.39,4.2 5.05,4.06 4.07,2.51 4.04,2.46 3.99,2.43 Z"/></g><g transform="translate(153.5242,321.8097)" id="g144"><path id="path146" style="fill:#858585;fill-opacity:1;fill-rule:evenodd;stroke:none" d="M 0,0 3.69,1.67 3.18,3.41 3.17,3.46 3.18,3.51 4.32,9.77 4.35,9.98 4.57,9.97 7.76,9.75 11.8,13.68 11.27,18.35 7.32,18.33 7.3,18.07 6.94,18.38 2.59,22.26 -0.02,22.11 -0.11,22.1 l -0.07,0.06 -3.12,2.55 -0.07,0.05 -0.02,0.08 -0.55,2.29 -2.32,1.66 -0.85,-0.66 -0.4,-2.12 -0.03,-0.22 -0.22,0.02 -5.75,0.49 -0.08,0.01 -0.06,0.05 -1.92,1.69 -5.61,1.46 -0.04,0.02 -0.04,0.02 -2.95,2.14 -0.02,0.01 -0.01,0.01 -1.56,1.57 -1.52,-1.51 -0.88,-3.7 -0.01,-0.04 -0.03,-0.04 -1.66,-2.56 -0.05,-0.09 -0.1,-0.02 -3.9,-0.75 0.98,-2.31 3.32,-6.24 2.44,-1.78 5.35,-0.95 0.18,-0.03 0.02,-0.18 0.34,-2.46 2.14,-2.62 0.07,-0.08 -0.01,-0.1 -0.04,-0.3 4.54,0.63 0.63,0.63 0.12,0.12 0.16,-0.08 0.95,-0.48 0.15,-0.07 -0.01,-0.16 -0.13,-2.12 5.36,-3.44 5.06,0.07 h 0.12 l 0.07,-0.09 z"/></g><g transform="translate(177.4342,321.1797)" id="g148"><path id="path150" style="fill:#858585;fill-opacity:1;fill-rule:evenodd;stroke:none" d="m 0,0 -3.15,3.02 -0.1,0.1 0.03,0.14 1.22,4.43 -2.34,2.87 -2.04,-0.11 h -0.08 l -0.07,0.04 -5.29,3.42 -4.07,-3.96 -0.08,-0.07 -0.1,0.01 -3.08,0.21 -1.09,-5.98 0.55,-1.88 0.06,-0.2 -0.19,-0.09 -3.94,-1.78 -0.38,-1.9 0.2,-3.01 2.05,-2.19 2.38,1.97 0.17,0.14 0.16,-0.16 0.59,-0.59 4.64,0.51 0.07,0.01 0.07,-0.03 2.3,-1.23 4.19,2.54 1.02,1.62 0.07,0.1 0.13,0.01 3.39,0.14 z"/></g><g transform="translate(171.5642,227.7597)" id="g152"><path id="path154" style="fill:#858585;fill-opacity:1;fill-rule:evenodd;stroke:none" d="m 0,0 -0.14,-2.96 1.56,-3.78 1.83,0.39 1.3,1.17 2.75,-1.3 -0.13,-1.83 -0.79,-1.7 0.92,-1.04 2.61,-0.92 1.04,-3.65 1.05,-4.57 -1.18,-2.87 1.18,-2.35 3,1.82 1.3,-0.39 0.92,-1.95 0.65,-3.4 1.96,-1.43 2.35,1.56 2.22,-0.13 4.17,-1.83 -0.13,-1.95 0.91,-1.57 2.09,-0.39 1.7,1.83 1.83,-1.83 2.35,-1.44 -0.52,-3.65 0.52,-2.09 2.35,-2.61 1.95,-0.65 1.96,1.17 1.57,-0.52 1.17,-2.35 4.83,-1.57 2.09,1.57 2.09,3 -3.69,8.09 -0.33,0.22 -0.07,0.05 -0.02,0.08 -0.81,2.42 -0.06,0.16 0.14,0.1 2,1.57 0.49,1.46 -0.99,2.14 -5.18,1.59 -2.41,-0.64 -1.24,-2.94 -0.07,-0.16 -0.18,0.02 -3.13,0.3 -0.08,0.01 -0.06,0.06 -2.85,2.85 -5.26,1.2 -0.11,0.02 -0.05,0.1 -1.15,2.21 -0.07,0.16 0.11,0.12 2.06,2.19 -1.29,1.36 -0.08,0.08 0.01,0.1 0.07,1.37 0.01,0.17 0.17,0.05 1.89,0.56 0.2,3.22 -2.7,-0.14 -1.32,-0.87 -0.33,-0.22 -0.05,0.39 -0.45,3.81 -0.03,0.19 0.18,0.06 1.23,0.48 0.13,2.26 -1.22,1.37 -0.07,0.07 v 0.1 l 0.15,5.32 -1.47,2.07 -0.05,0.06 v 0.08 7.11 l -1.42,3.15 -0.04,0.08 0.02,0.07 0.66,2.85 -1.88,2.12 -0.08,-0.33 -0.01,-0.01 -0.97,-3.22 V 12.91 L 23.56,12.89 22.82,11.47 22.78,11.4 22.72,11.37 17.17,8.26 15.78,5.71 15.74,5.62 15.64,5.59 11.83,4.39 H 11.81 11.79 L 9.84,4.09 5.93,0.7 5.87,0.65 5.79,0.64 0.14,0.2 Z"/></g><g transform="translate(144.1242,230.0397)" id="g156"><path id="path158" style="fill:#858585;fill-opacity:1;fill-rule:evenodd;stroke:none" d="m 0,0 2.49,-2.37 -0.26,-2.61 -0.65,-2.09 1.44,-2.61 2.87,1.31 1.43,2.87 1.7,1.82 4.05,-0.78 2.22,1.83 1.56,0.13 1.18,-0.91 4.04,0.26 3.01,0.78 2.01,0.45 0.13,0.16 0.07,1.77 -0.22,1.5 -1.98,2.86 -0.05,0.08 v 0.08 l 0.3,3.5 -2.26,2.84 -0.04,0.04 -0.01,0.05 -0.82,3.22 -0.01,0.02 v 0.02 l -0.14,1.86 -1.86,0.62 -0.02,0.01 -0.02,0.01 -5.53,2.99 -0.13,0.06 v 0.14 l -0.07,3.02 -5.41,0.94 -0.05,0.01 -0.03,0.02 -5.76,3.36 -0.12,0.07 v 0.14 1.88 l -0.81,1.41 -2.79,0.29 -0.12,0.01 -0.06,0.1 -4.1,6.45 -5.44,-2.81 -0.04,-0.02 -0.03,-0.01 -3.16,-0.54 -0.24,-3.96 -0.01,-0.1 -0.07,-0.07 -0.88,-0.78 0.25,-3.15 1.64,-2.14 2.45,-0.51 0.07,-0.02 0.05,-0.05 4.41,-4.27 0.07,-0.07 V 19 15.8 15.71 l -0.06,-0.07 -1.95,-2.21 -0.11,-2.08 1.57,-0.11 1.82,0.78 0.32,0.14 0.02,-0.36 0.13,-3.53 1.1,-1.6 2.58,-0.51 0.19,-0.04 v -0.2 z"/></g><g transform="translate(166.6742,246.1397)" id="g160"><path id="path162" style="fill:#858585;fill-opacity:1;fill-rule:evenodd;stroke:none" d="m 0,0 0.14,-1.83 0.8,-3.14 2.29,-2.87 0.06,-0.08 -0.01,-0.1 -0.29,-3.5 1.97,-2.85 0.03,-0.04 0.01,-0.06 0.22,-1.57 v -0.02 -0.02 l -0.06,-1.6 5.41,0.42 3.9,3.39 0.05,0.05 0.07,0.01 2,0.29 3.71,1.16 1.37,2.53 0.03,0.07 0.06,0.03 5.55,3.11 0.7,1.33 0.97,3.19 0.34,1.46 -2.76,4 L 25.38,4.41 24.11,3.54 24.07,3.52 24.02,3.51 22.9,3.28 22.75,3.25 22.66,3.38 20.41,6.61 19.73,6.11 16.9,3.13 16.87,3.1 16.85,3.09 15.2,2.12 15.11,2.06 15.02,2.09 12.92,2.61 12.87,2.63 12.82,2.67 9.62,5.5 7.45,7.08 5.46,6.87 2.13,6.43 0.81,4.56 0.75,3.74 1.8,3.21 1.96,3.13 1.93,2.96 1.56,0.79 1.53,0.66 1.41,0.6 Z"/></g><g transform="translate(159.0342,253.0697)" id="g164"><path id="path166" style="fill:#858585;fill-opacity:1;fill-rule:evenodd;stroke:none" d="m 0,0 0.07,-2.97 5.4,-2.91 1.9,-0.63 1.37,0.58 0.32,1.86 -1.03,0.52 -0.15,0.07 0.01,0.16 0.08,1.05 v 0.07 l 0.04,0.05 1.42,2.02 0.06,0.09 0.11,0.01 3.44,0.45 2.1,0.23 h 0.09 l 0.08,-0.05 2.24,-1.65 h 0.01 l 0.01,-0.01 3.17,-2.8 1.94,-0.49 1.53,0.91 2.82,2.96 0.01,0.02 0.02,0.01 0.69,0.52 -2.08,2.58 -0.13,0.15 0.13,0.16 0.91,1.04 -0.2,2.23 -4.2,0.29 -0.12,0.01 -0.06,0.09 -2.41,3.42 -3.02,0.14 -0.15,0.01 -0.06,0.14 -1.11,2.74 L 11.95,17 11.5,16.45 10.91,13.52 10.9,13.47 10.88,13.43 10.13,12.31 10.03,12.15 9.85,12.22 4.79,13.97 V 8.71 8.61 L 4.72,8.55 3.64,7.32 4.61,5.45 4.66,5.36 4.62,5.26 4.17,3.99 4.16,3.94 4.11,3.89 Z"/></g><g transform="translate(148.0242,281.3697)" id="g168"><path id="path170" style="fill:#858585;fill-opacity:1;fill-rule:evenodd;stroke:none" d="m 0,0 -1.47,-0.06 -0.04,-0.01 -0.05,0.02 -1.62,0.56 -2.79,-3.31 -0.6,-3.55 -0.07,-5.38 v -0.08 l -0.05,-0.06 -0.89,-1.23 -0.03,-0.05 -0.05,-0.03 -0.62,-0.32 4.01,-6.31 2.8,-0.29 0.12,-0.01 0.06,-0.11 0.9,-1.57 0.03,-0.06 v -0.06 -1.81 l 5.6,-3.27 5.45,-0.95 4.06,3.84 0.39,1.12 -1,1.93 -0.07,0.15 0.11,0.12 1.13,1.28 v 5.29 l -1.94,0.13 -0.14,0.01 -0.07,0.13 -1.36,2.95 -3.13,0.56 -1.04,-0.9 -0.21,-0.19 -0.15,0.25 L 5.32,-8.05 5.29,-8 v 0.05 L 5.01,-4.36 H 1.72 1.55 l -0.06,0.17 z"/></g><g transform="translate(156.0342,287.7997)" id="g172"><path id="path174" style="fill:#858585;fill-opacity:1;fill-rule:evenodd;stroke:none" d="m 0,0 -2.63,-1.86 -4.93,-4.4 1.44,-4.04 h 3.34 0.23 l 0.02,-0.22 0.29,-3.76 1.77,-2.92 0.9,0.78 0.09,0.08 0.11,-0.02 3.37,-0.6 0.12,-0.02 0.05,-0.12 1.36,-2.93 1.77,-0.13 v 0.09 l 0.32,-0.12 5.21,-1.8 0.62,0.92 0.59,2.95 0.01,0.05 0.04,0.05 0.66,0.81 1.08,1.8 0.06,1.29 -1.44,0.82 -0.1,0.06 -0.02,0.12 -0.21,1.52 -0.88,0.5 -0.48,-0.77 -0.07,-0.11 h -0.13 l -3.5,-0.15 -0.39,-0.97 -0.08,-0.18 -0.19,0.03 -1.79,0.3 -0.12,0.02 -0.06,0.1 -1.87,3.52 -0.02,0.04 v 0.05 l -0.52,5.15 z"/></g><g transform="translate(172.4142,273.6897)" id="g176"><path id="path178" style="fill:#858585;fill-opacity:1;fill-rule:evenodd;stroke:none" d="m 0,0 -0.07,-1.38 v -0.06 l -0.03,-0.05 -1.03,-1.73 3.4,-4.05 0.02,-0.03 0.02,-0.04 0.48,-1.18 2.52,0.73 h 0.01 l 0.02,0.01 3.33,0.42 0.35,2.58 0.02,0.12 0.1,0.06 1.72,0.97 0.03,0.02 0.03,0.01 3.43,0.85 L 14.7,0.12 13.76,5.18 7.24,7.28 3.5,6.22 3.15,2.35 3.14,2.24 3.05,2.17 Z"/></g><g transform="translate(154.6442,292.6697)" id="g180"><path id="path182" style="fill:#858585;fill-opacity:1;fill-rule:evenodd;stroke:none" d="m 0,0 0.96,-2.62 0.67,-1.8 4.19,-4.24 0.06,-0.06 0.01,-0.09 0.51,-5.18 1.8,-3.37 1.48,-0.25 0.37,0.94 0.06,0.15 h 0.16 l 3.53,0.15 0.54,0.86 0.12,0.2 0.2,-0.12 1.2,-0.67 0.1,-0.06 0.02,-0.12 0.21,-1.52 1.33,-0.77 2.92,2.09 0.37,3.93 0.01,0.17 0.16,0.04 3.79,1.08 0.18,5.66 0.01,0.22 0.23,0.02 3.42,0.14 1.84,1.48 0.14,0.1 0.14,-0.09 3.69,-2.31 2.92,4.08 0.14,0.2 0.2,-0.15 3.46,-2.5 2.42,1.06 1.05,1.25 -2.05,2.68 -4.23,4.29 -2.35,1.03 -0.09,0.05 -0.04,0.1 -0.76,2.16 -2.6,0.06 -1.06,-0.7 -0.06,-0.04 H 31.29 L 22.39,7.6 20.35,6.44 20.19,6.35 20.06,6.47 18.87,7.59 16.17,7.39 15.04,5.76 14.99,5.68 14.89,5.66 13.06,5.3 8.01,2.25 7.96,2.22 H 7.89 L 3.47,2.07 Z"/></g><g transform="translate(188.9142,286.1497)" id="g184"><path id="path186" style="fill:#858585;fill-opacity:1;fill-rule:evenodd;stroke:none" d="M 0,0 -3.65,2.29 -5.42,0.88 -5.48,0.83 -5.56,0.82 -8.84,0.68 l -0.17,-5.43 6.56,-2.12 0.13,-0.04 0.03,-0.14 0.97,-5.24 0.01,-0.04 v -0.03 l -0.33,-2.66 1.77,0.7 0.02,0.01 h 0.03 l 5.49,0.76 0.05,0.01 0.05,-0.02 3.89,-1.21 0.09,-0.03 0.05,-0.08 1.21,-2.03 1.99,1.85 -0.15,4.34 -0.88,2.13 -2.66,2.96 -6.85,1.2 -0.06,0.01 -0.05,0.04 -1.6,1.3 -0.06,0.05 -0.02,0.08 z"/></g><g transform="translate(201.9142,270.4397)" id="g188"><path id="path190" style="fill:#858585;fill-opacity:1;fill-rule:evenodd;stroke:none" d="m 0,0 -1.88,-1.76 -0.22,-0.2 -0.15,0.25 -1.32,2.21 -3.75,1.17 -5.4,-0.75 -1.98,-0.78 -0.01,-0.02 -0.16,-0.04 -3.56,-0.89 -1.58,-0.9 -0.36,-2.65 -0.02,-0.18 -0.19,-0.03 -3.49,-0.44 -2.46,-0.71 0.4,-0.99 2.99,-0.14 0.12,-0.01 0.06,-0.1 2.4,-3.41 4.3,-0.29 0.21,-0.02 0.02,-0.21 0.22,-2.54 0.01,-0.1 -0.07,-0.08 -0.84,-0.97 1.97,-2.43 0.02,0.01 0.14,-0.2 2.3,-3.31 0.92,0.18 1.38,0.95 0.16,0.1 0.14,-0.12 1.35,-1.2 0.01,-0.02 0.02,-0.02 2.84,-4.12 0.07,-0.08 -0.03,-0.11 -0.16,-0.66 2.2,-2.47 0.08,-0.09 -0.03,-0.12 -0.67,-2.89 1.35,-2.99 h 0.6 l 0.85,1.92 1.07,2.36 0.07,0.15 0.16,-0.01 1.83,-0.08 h 0.06 l 0.06,-0.03 2.39,-1.48 0.58,0.8 -0.43,2.64 -1.7,1.7 -0.09,0.08 0.02,0.12 0.38,2.67 0.04,0.24 0.23,-0.03 4.44,-0.53 3.62,1.16 0.47,2.96 -1.28,0.19 -0.09,0.01 -0.06,0.07 -0.84,0.99 -0.17,0.2 0.21,0.16 1.9,1.38 0.1,0.65 -1.65,0.19 -0.18,0.03 -0.03,0.16 -0.23,1.07 -0.02,0.09 0.04,0.08 0.97,1.72 -0.62,0.47 -3.22,-1.76 -0.08,-0.04 -0.08,0.02 -3.81,0.76 -0.1,0.02 -0.06,0.09 -1.6,2.59 -0.01,0.03 -0.01,0.02 -0.99,3.12 -0.01,0.04 v 0.04 z"/></g><g transform="translate(202.9842,261.7297)" id="g192"><path id="path194" style="fill:#858585;fill-opacity:1;fill-rule:evenodd;stroke:none" d="m 0,0 0.46,-1.45 1.53,-2.48 3.62,-0.72 3.27,1.79 0.14,0.07 0.12,-0.09 0.92,-0.69 0.17,-0.13 -0.11,-0.18 -1.02,-1.83 0.17,-0.8 1.74,-0.21 0.25,-0.03 -0.04,-0.25 -0.15,-0.99 -0.02,-0.1 -0.08,-0.06 -1.77,-1.29 0.61,-0.72 1.41,-0.22 h 2.26 l 2.28,2.08 0.08,5.23 v 0.25 l 0.26,-0.02 2.09,-0.14 2.17,2.39 1.36,3.54 0.02,0.04 0.03,0.04 2.1,2.25 2.43,6.26 -1.23,0.95 -0.01,0.02 -0.02,0.02 -1.43,1.65 -1.92,-0.36 -0.12,-0.02 -0.09,0.08 -2.53,2.38 -3.93,0.14 -0.07,-1.36 V 15.02 L 14.72,13.12 14.71,13.02 14.64,12.96 11.82,10.6 11.7,10.5 11.56,10.57 9.32,11.61 7.58,11.74 5.8,5.31 5.76,5.16 5.61,5.14 1.79,4.55 Z"/></g><g transform="translate(219.0842,253.0797)" id="g196"><path id="path198" style="fill:#858585;fill-opacity:1;fill-rule:evenodd;stroke:none" d="m 0,0 -2.37,-2.15 -0.07,-0.06 h -0.09 -2.16 l -0.5,-3.15 -0.02,-0.14 -0.14,-0.05 -3.81,-1.22 -0.05,-0.02 -0.05,0.01 -4.26,0.51 -0.33,-2.32 1.67,-1.66 0.05,-0.05 0.01,-0.09 0.46,-2.81 0.02,-0.1 -0.06,-0.08 -0.76,-1.07 -0.14,-0.18 -0.19,0.11 -2.54,1.57 -1.6,0.07 -1,-2.21 -0.91,-2.06 -0.06,-0.14 h -0.16 -0.67 v -6.84 l 1.48,-2.07 0.04,-0.07 v -0.08 l -0.15,-5.31 1.23,-1.37 0.07,-0.08 -0.01,-0.1 -0.15,-2.52 -0.01,-0.15 -0.14,-0.06 -1.2,-0.46 0.39,-3.23 1.04,0.7 0.06,0.03 h 0.07 l 3.04,0.16 0.27,0.01 -0.01,-0.27 -0.23,-3.66 -0.01,-0.16 -0.17,-0.05 -1.89,-0.56 -0.06,-1.1 1.38,-1.45 0.15,-0.16 -0.15,-0.17 -2.1,-2.24 1.02,-1.95 5.22,-1.2 0.07,-0.01 0.05,-0.05 2.83,-2.84 2.86,-0.27 1.22,2.88 0.05,0.11 0.12,0.03 2.43,0.64 0.36,2.2 0.3,2.29 0.02,0.17 0.17,0.03 3.11,0.73 0.36,2.5 v 0.04 l 0.03,0.05 2.59,4.41 0.03,0.06 0.06,0.03 4.34,2.44 0.11,0.06 0.12,-0.06 2.16,-1.11 h 1.05 l 0.79,2.79 0.03,0.13 0.13,0.04 2.17,0.67 1.19,0.95 -1.67,1.74 -0.98,-0.46 -1.59,-0.84 -0.1,-0.04 -0.09,0.03 -6.93,2.28 -0.04,0.02 -0.04,0.03 -1.6,1.29 -0.04,0.04 -0.03,0.05 -1.83,4.11 -0.03,0.09 0.03,0.09 0.83,2.44 0.03,0.08 0.08,0.05 3.27,1.98 0.07,0.04 0.08,-0.01 1.83,-0.15 0.1,-0.01 0.07,-0.09 1.45,-1.9 0.04,-0.06 0.01,-0.08 0.07,-3.16 1.32,-1.06 1.69,0.78 0.06,0.03 0.06,-0.01 1.6,-0.15 0.07,-0.01 0.05,-0.04 1.07,-0.76 0.01,-0.01 0.02,-0.01 2.46,-2.39 1.14,0.64 0.82,1.63 -1.51,2.01 -0.04,0.05 -0.01,0.06 -0.23,1.6 -0.01,0.08 0.04,0.07 1.58,2.93 0.34,2.38 -1.28,0.2 H 20.4 l -0.03,0.01 -4.49,1.99 -0.03,0.01 -0.03,0.02 -1.9,1.52 -0.06,0.05 -0.02,0.07 -0.69,2.14 -1.83,-0.48 -0.16,-0.04 -0.1,0.13 -0.84,1.15 -0.03,0.05 -0.02,0.05 -0.3,1.99 -0.27,1.2 -2.06,0.5 -0.17,0.04 -0.01,0.18 -0.22,2.68 -4.81,0.22 H 2.1 v 0.24 3.56 z"/></g><g transform="translate(233.9042,294.3897)" id="g200"><path id="path202" style="fill:#858585;fill-opacity:1;fill-rule:evenodd;stroke:none" d="m 0,0 -3.21,-1.47 -0.1,-0.04 -0.09,0.03 -9.14,3.53 -3.09,-3.46 -0.15,-0.17 -0.18,0.14 -1.45,1.16 -0.1,0.08 v 0.11 5.48 l -0.75,1.79 -0.06,0.14 0.1,0.12 7.32,8.18 -0.3,3.54 -2.13,2.58 -2.88,-0.46 -4.15,-2.71 -0.06,-0.05 -0.08,0.01 -3.71,0.15 -0.51,-1.3 2.62,-2.47 0.18,-0.17 -0.17,-0.18 -3.23,-3.33 -1.59,-1.74 -0.15,-5.03 -0.01,-0.24 h -0.24 l -7.88,0.15 -3.12,-3.18 1.96,-2 0.01,-0.01 0.01,-0.01 2.19,-2.85 0.11,-0.15 -0.12,-0.15 -1.22,-1.45 -0.04,-0.04 -0.05,-0.02 -2.59,-1.15 -0.12,-0.05 -0.12,0.08 -3.38,2.44 -2.84,-3.97 0.64,-2.86 1.49,-1.2 6.87,-1.21 0.08,-0.01 0.06,-0.07 2.74,-3.04 0.02,-0.03 0.02,-0.04 0.91,-2.21 0.02,-0.04 v -0.05 l 0.16,-4.49 v -0.11 l 0.07,-7.55 0.28,-0.87 1.61,4.12 0.05,0.13 0.14,0.02 3.81,0.58 1.79,6.48 0.05,0.19 0.2,-0.02 1.98,-0.15 h 0.04 l 0.04,-0.02 2.15,-1 2.62,2.2 0.22,1.8 0.08,1.59 v 0.24 l 0.25,-0.01 4.26,-0.15 h 0.09 l 0.07,-0.07 2.5,-2.35 1.93,0.36 0.14,0.03 0.09,-0.11 1.51,-1.73 1.17,-0.92 2.01,2.26 1.56,2.11 -1.78,1.56 -0.08,0.07 v 0.11 2.55 0.16 l 0.15,0.06 6.76,2.85 -0.23,3.64 z"/></g><g transform="translate(384.8242,367.0097)" id="g204"><path id="path206" style="fill:#858585;fill-opacity:1;fill-rule:evenodd;stroke:none" d="M 0,0 1.82,-0.2 2.15,1.01 0.94,2.36 -0.54,1.89 Z"/></g><g transform="translate(395.6942,356.0097)" id="g208"><path id="path210" style="fill:#858585;fill-opacity:1;fill-rule:evenodd;stroke:none" d="m 0,0 -2.63,-0.16 -1.31,-4.7 -4.31,3.92 -1.17,-4.05 4.57,-4.96 0.26,-4.3 -8.36,7.44 -0.26,4.7 3.53,4.3 0.52,6.92 -1.44,-0.65 -1.69,-4.7 -2.61,-2.35 -2.74,-0.78 -2.61,-3.92 0.13,-10.31 -6.4,-10.05 0.39,-6.14 h 6.53 l 5.35,-6.39 v -6.14 l -3.79,-4.57 1.05,-2.09 3,-1.69 -5.61,-1.31 -1.57,5.88 4.18,7.31 -1.83,5.48 -6.39,0.91 -3.53,-3.39 -0.39,-7.7 -5.87,-6.01 -5.36,-1.95 -3.65,-3.92 -12.27,7.57 v 3.66 l 8.22,-3.79 4.31,1.7 6.92,4.43 4.7,9.4 -0.78,5.09 7.96,18.93 0.91,3.26 -0.91,4.31 5.22,4.96 1.04,6.92 -4.04,5.35 4.15,0.54 -0.61,5.04 -4.12,0.31 -0.3,-3.67 0.88,-2.22 -2.62,1.04 -3.91,-3 -4.7,-6 -3.66,-3.53 -5.48,-1.3 -2.87,-2.74 2.87,-3.79 -3.13,-5.61 -4.31,-1.31 -0.13,-1.95 3.79,-3.92 -1.31,-3.65 0.65,-2.35 1.44,-2.09 -4.83,-4.44 -1.57,2.48 -1.3,5.61 -5.1,8.18 -2.92,-2.43 1.72,-3.05 0.06,-0.12 -0.06,-0.12 -3.58,-6.35 1.38,-4.54 0.03,-0.1 -0.06,-0.1 -2.21,-3.42 -0.05,-0.07 -0.08,-0.03 -3.56,-1.19 -2.38,-2.77 -0.06,-0.08 h -0.11 l -8.98,-0.4 -4.58,-3.78 -0.06,-0.05 h -0.09 l -2.94,-0.05 -0.26,-7.64 v -0.07 l -0.05,-0.06 -3.51,-4.95 2.28,-4.81 8.65,-0.65 0.07,-0.01 0.06,-0.04 4.14,-3.2 0.09,-0.07 v -0.12 l 0.13,-4.16 1.46,-1.34 9.91,-0.53 h 0.11 l 0.06,-0.09 3.07,-3.86 0.05,-0.07 0.01,-0.08 0.26,-6.32 1.68,-2.2 0.06,-0.07 v -0.09 l -0.13,-4.14 h 6.55 0.09 l 0.07,-0.07 5.97,-5.44 8.22,-3.58 0.08,-0.03 0.03,-0.07 3.04,-5.01 5.37,-3.27 5.45,-0.52 4.45,3.27 0.17,0.13 0.14,-0.14 4.06,-3.8 4.17,0.13 h 0.13 l 0.08,-0.11 3.13,-4.56 1.62,-0.13 0.09,-0.01 0.06,-0.06 3.01,-3.01 6.21,7.9 0.39,5.09 0.01,0.07 0.04,0.06 4.11,5.68 -0.76,4.57 -4.69,3.52 -0.12,0.09 0.02,0.15 1.18,6.65 -3.12,4.29 -0.06,0.07 0.01,0.1 0.99,9.24 -3.92,5.09 -0.07,0.1 0.04,0.12 1.56,4.68 -1.56,3.69 -0.11,0.26 0.27,0.08 5.05,1.35 2.14,5.43 -1.12,6.39 -5.28,1.32 -0.08,0.02 -0.05,0.07 -4.86,6.4 -0.07,0.1 0.03,0.11 0.97,3.88 0.03,0.11 0.11,0.05 7.26,3.25 0.73,2.91 -3.07,6.52 -0.03,0.06 0.01,0.08 0.78,4.27 0.03,0.17 0.17,0.03 3.18,0.53 -2.97,6.3 -0.02,0.04 -0.01,0.04 z"/></g><g transform="translate(286.9342,200.5897)" id="g212"><path id="path214" style="fill:#858585;fill-opacity:1;fill-rule:evenodd;stroke:none" d="m 0,0 3.66,0.06 3,-5.09 2.43,-0.38 0.07,0.08 0.8,2.13 0.02,0.06 0.04,0.03 4.29,4.02 0.66,3.05 0.01,0.07 0.05,0.04 2.58,2.86 0.09,0.1 0.14,-0.03 3.23,-0.65 0.84,1.32 0.51,2.33 -0.88,2.41 -2.75,1.05 -0.12,0.05 -0.03,0.11 -0.41,1.5 -0.03,0.12 0.08,0.1 1.31,1.57 0.4,4 0.01,0.09 0.06,0.06 4.62,4.48 0.17,0.16 0.17,-0.16 2.58,-2.59 0.14,-0.14 -0.11,-0.17 -1.41,-2 1.8,-0.33 0.05,-0.01 0.04,-0.03 4.68,-3.34 3.56,0.53 0.09,0.01 0.07,-0.04 3.34,-1.87 3.26,-0.13 4.4,3.02 -7.87,5.9 -0.05,0.04 -0.02,0.05 -3.8,7.47 -0.01,0.01 -2.8,6.27 -2.19,0.52 h -0.02 l -0.02,0.01 -4.62,1.9 -0.04,0.01 -0.03,0.04 -2.32,2.19 -0.68,-1.83 -0.06,-0.16 H 22.8 L 19.12,41 18.24,40 18.21,39.97 18.17,39.95 15.87,38.72 15.79,38.69 15.7,38.7 13.91,39.09 12.78,38.21 12.71,38.15 H 12.63 10.32 10.27 L 10.22,38.18 7.31,39.44 6.05,37.06 6,36.96 5.89,36.94 1.76,36.13 l -2.66,-4.6 -0.08,-0.12 -0.14,0.01 -7.37,0.24 -2,-4.25 0.12,-4.14 0.01,-0.18 -0.19,-0.06 -1.95,-0.54 -0.68,-3.28 1.68,-3.87 v -0.02 l 0.01,-0.02 0.68,-2.56 3.1,-0.94 0.05,-0.02 0.04,-0.04 2.87,-2.6 0.08,-0.07 V 8.97 L -4.58,6.29 -0.35,2.6 -0.28,2.53 -0.27,2.44 0,0.02 Z"/></g><g transform="translate(252.0442,205.0997)" id="g216"><path id="path218" style="fill:#858585;fill-opacity:1;fill-rule:evenodd;stroke:none" d="m 0,0 7.35,-1.71 4.18,-2.61 2.48,1.96 3.66,-1.96 12.27,-2.35 4.46,2.04 v 0.1 l -0.26,2.31 -4.23,3.71 -0.08,0.07 v 0.1 l -0.09,2.68 -2.75,2.49 -3.18,0.98 -0.13,0.04 -0.03,0.13 -0.72,2.67 -1.69,3.93 -0.03,0.07 0.01,0.07 0.68,3.32 -3.49,1.65 -2.58,-1.29 -0.18,-0.08 -0.12,0.15 -2.11,2.72 L 8.9,22.76 3.76,21.19 4.03,19.74 V 19.72 19.69 L 3.94,15.03 V 14.91 L 3.85,14.84 -3.15,9.61 -3.31,7.09 1.94,3.94 2.14,3.82 2.03,3.61 Z"/></g><g transform="translate(223.1842,192.2897)" id="g220"><path id="path222" style="fill:#858585;fill-opacity:1;fill-rule:evenodd;stroke:none" d="m 0,0 1.49,1.97 4.96,0.39 0.39,3.52 2.35,1.31 2.48,-0.13 3.01,-2.35 1.82,1.69 -2.22,3.66 -1.04,3.65 2.48,2.61 2.22,0.66 3.39,-3.66 7.04,-0.44 v 0.02 l 0.01,0.04 0.02,0.04 1.95,3.48 -5.18,3.1 -0.13,0.08 0.01,0.15 0.18,2.77 0.01,0.12 0.09,0.06 6.99,5.23 0.09,4.52 -0.61,3.21 -1.87,1.79 -1.01,-0.62 -0.08,-0.05 -0.11,0.03 -1.79,0.44 -0.05,0.02 -0.05,0.04 -7.43,6.37 -1.3,-0.33 -0.36,-2.5 v -0.04 l -0.02,-0.04 -1.57,-2.9 0.21,-1.46 1.57,-2.09 0.09,-0.11 -0.07,-0.14 -0.92,-1.83 -0.03,-0.06 -0.07,-0.04 -1.37,-0.76 -0.15,-0.09 -0.13,0.13 -2.58,2.5 -1,0.71 -1.47,0.14 L 8.47,34 8.34,33.94 8.22,34.03 6.7,35.25 6.61,35.32 v 0.11 l -0.08,3.2 -1.33,1.75 -1.64,0.14 -3.14,-1.89 -0.77,-2.27 1.76,-3.97 1.52,-1.23 6.79,-2.24 1.51,0.79 0.01,0.01 1.14,0.53 0.16,0.07 0.12,-0.12 1.98,-2.06 0.19,-0.19 -0.21,-0.17 -1.45,-1.14 -0.04,-0.03 -0.04,-0.01 -2.08,-0.65 -0.8,-2.84 -0.05,-0.18 H 9.97 8.68 8.62 L 8.57,22.96 6.47,24.04 2.3,21.7 -0.23,17.38 -0.6,14.76 -0.63,14.6 -0.79,14.56 -3.9,13.84 -4.18,11.72 V 11.71 L -4.53,9.56 0.61,7.99 0.72,7.95 0.76,7.85 1.84,5.52 1.88,5.44 1.85,5.35 1.31,3.73 1.29,3.66 1.23,3.62 -0.7,2.11 Z"/></g><g transform="translate(275.2842,286.8797)" id="g224"><path id="path226" style="fill:#858585;fill-opacity:1;fill-rule:evenodd;stroke:none" d="m 0,0 -1.28,-2.19 -0.91,-2.09 -0.02,-0.03 -0.01,-0.02 -4.2,-5.55 -0.01,-0.01 -0.01,-0.02 -6.29,-6.16 -0.03,-0.03 -0.04,-0.02 -5.29,-2.41 -0.12,-2.37 1.7,-3.28 0.08,-0.14 -0.11,-0.12 -2.3,-2.66 -0.36,-3.5 v -0.07 l -0.05,-0.06 -1.48,-1.85 -0.07,-0.08 -0.11,-0.01 -4.99,-0.24 -0.7,-3.15 -0.03,-0.1 -0.08,-0.05 -2.1,-1.36 -0.17,-0.11 -0.14,0.15 -2.01,2.23 -2.78,-4.41 -0.07,-0.1 -0.11,-0.01 -4.59,-0.49 -3.94,-4.65 0.7,-2.17 1.82,-1.45 4.44,-1.96 1.44,-0.21 1.53,0.38 0.12,0.03 0.09,-0.08 7.49,-6.42 1.64,-0.41 1.08,0.67 0.16,0.09 0.14,-0.13 2.06,-1.97 0.06,-0.06 0.01,-0.07 0.26,-1.39 5.17,1.58 0.08,0.02 0.07,-0.02 4.67,-1.62 0.06,-0.02 0.05,-0.06 2.03,-2.62 2.51,1.25 0.11,0.06 0.11,-0.05 3.68,-1.76 1.83,0.51 -0.12,4.01 v 0.06 l 0.03,0.05 2.09,4.44 0.07,0.14 h 0.16 l 7.38,-0.24 2.56,4.42 -1.89,2.84 -0.04,0.07 0.01,0.09 0.24,2.71 v 0.01 l 0.72,4.91 -5.05,3.24 -0.07,0.05 -0.02,0.07 -0.87,2.22 -0.05,0.13 0.09,0.11 2.89,3.49 -0.6,2.97 -0.98,5.31 -0.02,0.1 0.06,0.08 2.42,3.39 -0.12,3.95 -2.79,6.66 -4.74,2.8 -0.09,0.05 -0.02,0.11 -0.73,3.26 z"/></g><g transform="translate(307.7842,315.3997)" id="g228"><path id="path230" style="fill:#858585;fill-opacity:1;fill-rule:evenodd;stroke:none" d="m 0,0 -2.83,-0.04 -4.08,-3.61 -0.06,-0.06 h -0.08 l -3.68,-0.19 -0.15,-0.01 -0.07,0.12 -1.2,1.89 -5.94,-5.29 -0.95,-3.41 -0.02,-0.07 -0.05,-0.05 -6.27,-5.59 -6.87,-11.78 1.46,-1.48 0.04,-0.05 0.02,-0.07 0.72,-3.22 4.72,-2.79 0.07,-0.04 0.03,-0.07 2.84,-6.79 0.01,-0.04 v -0.04 l 0.13,-4.08 v -0.08 l -0.05,-0.06 -2.41,-3.37 0.97,-5.2 0.62,-3.09 0.02,-0.11 -0.07,-0.09 -2.87,-3.47 0.78,-2.01 5.11,-3.29 0.14,-0.08 -0.03,-0.16 -0.74,-5.06 -0.23,-2.61 1.83,-2.75 3.97,0.77 1.3,2.48 0.11,0.2 0.21,-0.09 3.07,-1.34 h 2.18 l 1.15,0.9 0.09,0.07 0.11,-0.02 1.82,-0.39 2.19,1.16 0.92,1.05 0.07,0.09 0.12,-0.01 3.63,-0.13 0.75,2.01 0.13,0.34 0.26,-0.25 2.55,-2.41 4.55,-1.87 2.3,-0.55 0.11,-0.02 0.05,-0.11 2.85,-6.37 3.78,-7.42 7.97,-5.98 4.38,2.51 0.52,2.69 0.01,0.1 0.09,0.06 2.67,1.73 0.07,0.05 0.09,-0.01 3.13,-0.38 2.74,8.74 0.02,0.07 0.06,0.05 3.87,2.93 0.1,0.08 0.11,-0.04 4.14,-1.2 0.03,-0.01 0.03,-0.02 5.54,-3.69 8.46,-0.13 h 0.08 l 0.06,-0.05 5.87,-4.31 7.06,4.06 0.14,0.07 0.13,-0.09 3.65,-2.61 4.14,0.52 4.54,1.95 0.82,2.11 -5.15,2.96 -0.13,0.07 v 0.14 6.43 l -3.06,3.06 -1.64,0.13 -0.12,0.01 -0.07,0.1 -3.12,4.55 -4.13,-0.13 h -0.1 l -0.07,0.07 -3.99,3.73 -4.37,-3.22 -0.07,-0.05 h -0.1 l -5.59,0.54 h -0.06 l -0.05,0.03 -5.46,3.34 -0.06,0.03 -0.02,0.05 -3.03,5 -8.19,3.56 -0.04,0.02 -0.03,0.03 -5.93,5.4 h -6.7 -0.25 v 0.25 l 0.14,4.31 -1.69,2.2 -0.04,0.06 v 0.08 l -0.27,6.32 -2.95,3.71 -9.88,0.53 h -0.09 l -0.06,0.06 -1.6,1.47 -0.08,0.07 v 0.1 l -0.13,4.15 -3.99,3.09 -8.72,0.66 -0.14,0.01 -0.06,0.12 -2.4,5.07 -0.06,0.13 0.08,0.11 3.56,5.01 z"/></g><g transform="translate(137.6142,370.7697)" id="g232"><path id="path234" style="fill:#858585;fill-opacity:1;fill-rule:evenodd;stroke:none" d="m 0,0 -1.18,-0.94 -0.71,-1.86 0.15,-6.13 v -0.18 l -0.17,-0.05 -4.53,-1.46 -0.27,-2.11 -0.03,-0.19 -0.2,-0.02 -1.48,-0.14 -0.41,-1.49 -0.02,-0.07 -0.04,-0.04 -0.66,-0.66 1.55,-1.55 2.9,-2.1 5.61,-1.47 0.06,-0.01 0.04,-0.04 1.91,-1.67 5.45,-0.47 0.37,2 0.01,0.09 0.08,0.06 1.07,0.82 0.14,0.11 0.14,-0.1 2.55,-1.81 0.07,-0.05 0.02,-0.09 0.56,-2.3 2.98,-2.44 2.61,0.16 h 0.1 l 0.08,-0.07 4.07,-3.63 0.2,1.87 -0.71,2.28 -1.85,2.02 -0.13,0.13 0.1,0.16 1.76,2.73 -0.31,2.99 -1.62,3.17 -0.04,0.07 0.01,0.09 0.44,2.21 -1.54,0.21 -0.17,0.02 -0.04,0.16 -0.36,1.47 -2.77,0.07 -0.14,0.01 -0.07,0.12 -0.82,1.48 -0.06,0.11 0.06,0.12 0.7,1.33 -0.14,1.75 -2.14,0.71 -0.64,-0.84 -0.08,-0.11 -0.14,0.01 -1.47,0.17 H 10.77 L 10.71,-5.33 9.24,-4.01 6.89,-4.33 6.72,-4.35 6.64,-4.2 5.29,-1.8 3.74,-1.07 1.06,-2.41 0.8,-2.54 0.71,-2.26 Z"/></g><g transform="translate(165.8142,335.5397)" id="g236"><path id="path238" style="fill:#858585;fill-opacity:1;fill-rule:evenodd;stroke:none" d="m 0,0 5.29,-3.42 2.08,0.11 0.13,0.01 0.07,-0.1 2.51,-3.07 0.07,-0.09 -0.03,-0.12 -1.21,-4.41 3.2,-3.06 8.65,-0.44 0.06,-0.01 0.05,-0.03 5.72,-3.47 0.06,-0.03 0.03,-0.06 3.74,-6.87 6.03,-3.53 4.13,1.03 0.13,0.03 0.1,-0.09 1.78,-1.79 2.89,2.98 -2.57,2.42 -0.12,0.11 0.06,0.16 0.65,1.61 0.06,0.16 0.17,-0.01 3.8,-0.16 4.02,2.63 v 2.79 l -2.77,1.39 -0.19,0.1 0.07,0.2 0.88,2.34 -2.57,0.87 -1.69,-0.77 -0.24,-0.11 -0.09,0.24 -2.04,5.18 -5.01,0.15 -0.1,0.01 -0.07,0.08 -3.21,3.68 -3.03,1.92 -0.02,0.02 -0.02,0.01 -2.91,2.75 -0.01,0.01 -8.56,9.69 -0.07,0.08 0.01,0.11 0.65,4.84 0.01,0.08 0.05,0.05 3.15,3.6 -2.08,0.69 -0.17,0.06 v 0.17 3.31 L 18.95,24 17.22,22.34 17.14,22.27 h -0.1 l -3.61,0.16 -0.1,0.01 -0.07,0.07 -1.69,1.78 L 9.95,24.33 7.56,23.53 3.71,20.63 1.19,15.34 1.12,15.19 0.95,15.2 -3.25,15.52 -5.59,14.27 -7.26,11.69 -5.5,9.77 -5.46,9.73 -5.44,9.68 -4.71,7.29 -4.69,7.24 -4.7,7.2 -4.91,5.08 -0.8,5.11 h 0.22 l 0.02,-0.22 z"/></g><g transform="translate(136.8742,382.7697)" id="g240"><path id="path242" style="fill:#858585;fill-opacity:1;fill-rule:evenodd;stroke:none" d="m 0,0 -2.53,-0.29 -4.04,-3.13 -2.35,-3.26 -4.57,0.26 -2.74,-4.57 -3.26,-0.39 -0.13,-3.53 -4.83,-3.13 0.26,-4.57 1.96,-2.48 -2.22,-2.74 0.52,-2.22 3.13,-0.78 0.65,-3.27 -0.99,-1.76 0.21,-0.03 2.07,0.54 0.09,0.02 0.08,-0.04 1.09,-0.58 4.01,0.77 1.57,2.44 0.9,3.73 0.01,0.07 0.05,0.04 2.52,2.52 0.43,1.59 0.05,0.17 0.17,0.01 1.46,0.13 0.28,2.07 0.01,0.16 0.15,0.04 4.5,1.45 -0.15,6 v 0.05 l 0.02,0.04 0.75,1.96 0.03,0.06 0.05,0.04 1.45,1.16 1.45,4.5 -1.9,3.07 -0.04,0.05 v 0.06 z"/></g><g transform="translate(161.6342,389.1697)" id="g244"><path id="path246" style="fill:#858585;fill-opacity:1;fill-rule:evenodd;stroke:none" d="m 0,0 -4.31,-0.16 -5.35,-1.96 -0.26,-4.31 0.52,-1.96 -1.57,-1.3 -1.18,3 -2.08,0.13 -3.27,3.14 -4.04,-2.62 -2.73,-0.31 0.17,-3.73 1.92,-3.11 0.06,-0.1 -0.04,-0.1 -1.48,-4.6 0.71,-2.26 2.54,1.27 0.1,0.05 0.11,-0.05 1.72,-0.82 0.07,-0.03 0.04,-0.07 1.31,-2.32 2.3,0.31 0.11,0.01 0.09,-0.08 1.5,-1.34 1.26,-0.14 0.65,0.88 0.11,0.13 0.17,-0.05 2.46,-0.82 0.15,-0.05 0.01,-0.16 0.17,-1.98 v -0.07 l -0.03,-0.06 -0.68,-1.28 0.69,-1.25 2.82,-0.07 0.18,-0.01 0.05,-0.18 0.37,-1.48 1.64,-0.23 0.25,-0.03 -0.05,-0.25 -0.47,-2.39 1.6,-3.13 0.02,-0.04 v -0.04 l 0.29,-2.77 2.15,1.15 0.06,0.03 H 0.9 l 4.1,-0.32 2.47,5.19 0.03,0.05 0.05,0.04 3.94,2.96 0.03,0.02 0.03,0.02 2.47,0.82 0.03,0.01 h 0.05 l 3.44,-0.08 1.79,1.44 -3.32,4.34 -2.13,0.4 -0.14,0.02 -0.05,0.15 -1,3.34 -1.33,-0.13 -0.22,-2.02 -0.04,-0.27 -0.26,0.06 -1.07,0.25 -0.1,0.02 -0.05,0.09 -0.81,1.4 -1.05,-0.31 -0.15,-2.38 -0.02,-0.28 -0.28,0.06 -1.48,0.33 -0.11,0.02 -0.05,0.11 -0.84,1.75 -4.11,-0.08 H 0.59 l -0.07,0.11 -1.65,2.44 h -3.89 -0.12 l -0.07,0.09 -1.07,1.31 -0.12,0.16 0.12,0.15 6.67,8.07 z"/></g><g transform="translate(219.1542,405.4197)" id="g248"><path id="path250" style="fill:#858585;fill-opacity:1;fill-rule:evenodd;stroke:none" d="M 0,0 1.08,6.69 2.65,4.47 2,-0.23 3.96,-4.4 l 0.52,-6.92 2.74,-4.18 0.65,-4.31 10.18,-6.13 6.27,1.17 4.7,6.4 1.3,6.79 -2.09,8.09 0.27,11.75 -1.31,4.31 -3.26,5.22 -0.52,4.04 1.43,0.92 1.96,-2.74 1.96,1.3 -1.83,3.53 -6.92,4.7 -9.92,0.91 L 8.13,29.01 3.17,26.14 3.3,22.23 -0.09,16.74 -6.75,16.61 -8.97,13.82 -4.09,7.33 -4.03,7.24 -4.05,7.14 -4.82,3.28 -0.79,1.27 -0.73,1.24 -0.69,1.17 Z"/></g><g transform="translate(206.9842,378.2497)" id="g252"><path id="path254" style="fill:#858585;fill-opacity:1;fill-rule:evenodd;stroke:none" d="m 0,0 -0.32,2.14 0.39,1.83 -1.7,2.35 1.57,2.87 4.83,6.01 4.05,1.3 2.35,4.05 0.88,5.87 -0.95,1.61 -4.14,2.07 -0.16,0.09 0.04,0.18 0.78,3.93 -4.73,6.3 -5.56,-7 -2.87,0.13 -3.66,-2.48 -2.61,0.13 -1.04,-2.61 -1.18,-2.22 -2.08,-1.56 1.17,-2.22 -1.44,-1.44 -4.83,0.78 -1.3,-4.56 -0.91,-6.92 -2.88,-1.18 -12.79,1.7 -5.77,-0.21 0.17,-3.73 3.13,0.62 0.04,0.01 0.04,-0.01 4.1,-0.57 0.11,-0.02 0.06,-0.08 1.64,-2.31 0.04,-0.06 V 4.71 L -35.61,1.83 V 1.74 l -0.06,-0.06 -1.41,-1.65 0.16,-3.2 v -0.02 -0.02 l -0.41,-2.8 -0.02,-0.1 -0.08,-0.05 -2.08,-1.61 -0.59,-1.56 0.81,-1.69 1.08,-0.25 0.14,2.27 0.02,0.17 0.16,0.05 1.4,0.41 0.18,0.05 0.09,-0.16 0.85,-1.47 0.7,-0.17 0.22,1.95 0.02,0.2 0.2,0.02 1.72,0.16 0.2,0.02 0.05,-0.19 1.03,-3.39 2.07,-0.39 0.09,-0.01 0.06,-0.08 3.25,-4.25 0.49,1.34 -0.32,4.06 -0.01,0.07 0.03,0.06 1.48,2.88 0.01,0.03 0.03,0.02 5.33,5.76 0.1,0.1 0.14,-0.03 3.11,-0.74 0.11,-0.03 0.05,-0.09 0.98,-1.81 0.04,-0.07 -0.01,-0.08 -0.49,-3.13 -0.01,-0.08 -0.06,-0.05 -2.3,-2.22 -3.89,-4.39 -1.04,-3.74 2.59,0.03 h 0.24 v -0.25 -3.37 l 2.11,-0.7 1.5,1.66 0.08,0.07 h 0.1 1.91 l 0.76,3.53 0.02,0.06 0.04,0.05 3.59,3.74 -0.87,1.46 h -0.01 l -1.13,1.94 -0.05,0.09 0.03,0.1 0.81,2.9 0.02,0.06 0.04,0.05 3.5,3.5 0.31,1.86 0.04,0.26 0.26,-0.07 2.4,-0.64 1.49,-0.3 1.84,2 0.03,0.04 0.05,0.01 z"/></g><g transform="translate(261.9542,351.8097)" id="g256"><path id="path258" style="fill:#858585;fill-opacity:1;fill-rule:evenodd;stroke:none" d="m 0,0 -4.82,-6.21 1.68,-2.6 0.08,-0.12 -0.06,-0.13 -1.09,-2.02 0.79,-3.3 0.04,-0.17 -0.16,-0.1 -3.07,-1.77 -0.13,-0.08 -0.12,0.08 -3.97,2.55 -3.8,-0.16 -0.2,-0.01 -0.05,0.2 -0.62,2.82 -9.58,7.37 -1.06,-1.59 2.67,-4.39 0.05,-0.08 -0.02,-0.09 -0.81,-3.72 -0.02,-0.07 -0.05,-0.05 -2.28,-2.29 1.03,-1.77 0.03,-0.05 v -0.06 l 0.16,-1.93 0.03,-0.25 -0.26,-0.01 -3.76,-0.16 -2.95,-3.89 -0.15,-2.34 3.55,-1.48 1.5,1.81 0.05,0.05 0.06,0.02 3.39,1.13 0.2,0.07 0.1,-0.19 2.09,-4.2 0.09,-0.18 -0.15,-0.12 -7.83,-6.23 -0.15,-3.44 -0.01,-0.11 -0.09,-0.07 -2.74,-2.1 -0.11,-0.08 -0.13,0.05 -3.42,1.4 -2.46,-2 -7.27,-8.13 0.71,-1.7 0.02,-0.05 v -0.05 -5.4 l 1.18,-0.95 3.04,3.42 0.12,0.12 0.15,-0.06 9.21,-3.55 3.21,1.47 1.8,4.46 0.07,0.17 0.18,-0.02 6.1,-0.58 0.09,-0.01 0.07,-0.07 4.52,-5.1 4.96,-2.57 6.95,-0.76 2.74,1.51 0.14,0.08 0.13,-0.11 7.5,-6.15 4.62,-0.65 8.34,14.3 0.02,0.03 0.03,0.02 6.24,5.57 0.95,3.42 0.02,0.07 0.06,0.05 6.2,5.52 0.21,0.19 0.15,-0.24 1.28,-2.01 3.46,0.18 4.07,3.61 0.07,0.06 h 0.09 l 6.26,0.1 4.57,3.78 0.06,0.05 h 0.08 l 8.96,0.4 2.35,2.74 0.05,0.05 0.06,0.02 3.54,1.18 2.11,3.26 -1.37,4.53 -0.04,0.1 0.06,0.09 1.64,2.92 -1.72,0.32 -1.12,-1.69 -0.07,-0.1 h -0.13 -2.12 l -2.75,-2.56 -0.1,-0.09 -0.13,0.03 -3.28,0.78 -2.52,-2.91 -0.07,-0.08 -0.09,-0.01 -7.46,-0.6 -0.09,-0.01 -0.07,0.05 -32.33,23.1 -3.11,-0.97 -0.05,-0.02 -0.05,0.01 z"/></g><g transform="translate(309.6642,383.6597)" id="g260"><path id="path262" style="fill:#858585;fill-opacity:1;fill-rule:evenodd;stroke:none" d="M 0,0 1.68,1.22 V 3.97 L -0.31,4.42 Z"/></g><g transform="translate(336.5442,344.4897)" id="g264"><path id="path266" style="fill:#858585;fill-opacity:1;fill-rule:evenodd;stroke:none" d="m 0,0 -2.48,4.58 -6.53,7.05 h -4.96 l -0.65,-2.88 -0.13,-4.3 -3.53,-2.09 -1.96,0.39 -1.3,-1.96 -2.48,1.96 2.87,2.61 v 2.87 l -9.27,0.13 -4.56,3.4 -7.05,-0.66 -2.48,3.4 4.17,0.39 2.22,4.31 -5.61,1.3 -2.61,-3.13 -1.31,2.35 -14.35,3.52 -1.83,-1.83 -2.09,1.96 -7.57,-4.44 -3.92,3.79 1.18,3.39 -1.18,3.4 4.7,1.56 4.31,-3 2.09,3.39 -0.13,6.14 -5.75,6.26 -1.69,-6.13 -7.84,-5.09 -0.65,-3.91 -3.74,-3.38 1.47,-7.83 4.11,-6.16 3.76,-0.47 0.11,-0.02 0.06,-0.09 2.04,-2.98 13.94,-1.49 3.18,0.99 0.11,0.04 0.1,-0.07 32.36,-23.12 7.27,0.59 2.55,2.95 0.1,0.11 0.14,-0.04 3.3,-0.77 2.73,2.53 0.07,0.06 h 0.09 2.09 l 1.13,1.71 0.09,0.13 0.16,-0.03 2.04,-0.37 1.67,2.95 -1.75,3.11 -0.1,0.17 0.15,0.13 z"/></g><g transform="translate(325.0742,358.0197)" id="g268"><path id="path270" style="fill:#858585;fill-opacity:1;fill-rule:evenodd;stroke:none" d="m 0,0 -2.9,-0.31 -2.28,3.82 0.6,3.51 3.67,0.91 1.07,-3.96 z"/></g><g transform="translate(280.2642,375.9997)" id="g272"><path id="path274" style="fill:#858585;fill-opacity:1;fill-rule:evenodd;stroke:none" d="M 0,0 2.25,-2.95 7.54,-3.09 8.15,-1.12 7.82,1.83 5.01,4.88 0.99,3.47 Z"/></g><g transform="translate(319.5842,372.0597)" id="g276"><path id="path278" style="fill:#858585;fill-opacity:1;fill-rule:evenodd;stroke:none" d="m 0,0 1.22,11.6 0.92,4.42 3.81,4.12 4.58,1.53 1.83,2.59 -1.07,3.21 3.36,-2.14 3.05,0.31 0.77,2.29 1.98,-0.16 0.15,2.29 2.44,-0.91 0.46,2.29 1.83,-1.99 1.38,1.83 0.45,2.75 2.6,-1.83 1.68,1.52 3.51,-0.76 2.9,3.36 22.28,0.46 5.34,2.9 0.61,3.97 -2.29,2.74 -5.34,-1.37 -0.92,-1.98 -9.15,0.76 -3.97,3.36 -3.51,-1.99 -3.51,1.53 -4.43,-2.9 H 29.3 L 27.47,42.27 25.03,44.87 23.81,39.52 21.06,39.37 20.75,37.24 13.89,35.1 11.45,36.17 9.92,34.34 11.9,32.35 9.15,29.76 4.73,31.59 4.12,28.23 0.91,28.38 0.76,25.79 -3.66,23.5 l -2.75,0.92 -3.05,-2.29 -0.15,-3.36 2.89,-2.9 0.16,-4.43 -2.75,-2.74 2.14,-4.73 2.44,-0.31 0.15,-2.13 2.75,-0.62 z"/></g><g transform="translate(250.0142,369.4497)" id="g280"><path id="path282" style="fill:#858585;fill-opacity:1;fill-rule:evenodd;stroke:none" d="m 0,0 -3.93,-3.55 -1.83,3.4 2.61,0.52 -3.26,6.13 -4.96,-0.78 -4.96,1.7 -6.14,-0.92 -3.39,-8.48 -2.48,1.44 -3.52,8.22 0.52,6.4 -5.74,-0.66 -1.57,-5.48 2.48,-3 -2.35,-3.13 -3.79,2.09 -0.65,4.4 -0.11,-0.05 -1.91,-2.07 -0.09,-0.1 -0.14,0.03 -1.61,0.32 h -0.01 l -2.17,0.58 -0.28,-1.67 -0.01,-0.08 -0.06,-0.05 -3.5,-3.51 -0.76,-2.75 1.07,-1.84 0.97,-1.62 0.09,-0.16 -0.12,-0.13 -3.67,-3.82 -0.79,-3.65 -0.04,-0.19 h -0.2 -1.99 l -1.54,-1.7 -0.01,-0.01 -3.33,-3.8 -0.62,-4.66 8.47,-9.6 2.89,-2.72 3.04,-1.92 0.03,-0.02 0.03,-0.03 3.16,-3.63 5.06,-0.16 0.16,-0.01 0.05,-0.15 2.01,-5.08 1.54,0.7 0.09,0.04 0.09,-0.04 2.91,-0.96 0.23,-0.08 -0.08,-0.24 -0.9,-2.38 2.71,-1.35 0.14,-0.07 v -0.15 -2.78 l 2.79,0.44 0.13,0.02 0.09,-0.11 2.26,-2.74 0.05,-0.06 0.01,-0.08 0.28,-3.25 2.23,1.81 0.11,0.09 0.13,-0.06 3.42,-1.4 2.55,1.95 0.15,3.44 0.01,0.11 0.09,0.07 7.75,6.17 -1.91,3.83 -3.13,-1.04 -1.57,-1.88 -0.11,-0.14 -0.17,0.07 -3.87,1.61 -0.16,0.07 0.01,0.17 0.16,2.58 v 0.08 l 0.05,0.06 3.07,4.03 0.07,0.09 0.11,0.01 3.62,0.15 -0.14,1.63 -1.1,1.89 -0.09,0.16 0.13,0.13 2.37,2.38 0.77,3.54 -2.69,4.44 -0.08,0.13 0.08,0.13 1.29,1.94 0.15,0.22 0.2,-0.16 9.85,-7.59 0.07,-0.06 0.02,-0.08 0.6,-2.71 3.68,0.15 0.07,0.01 0.07,-0.04 3.91,-2.51 2.78,1.61 -0.77,3.22 -0.02,0.09 0.05,0.08 1.06,1.97 -1.7,2.63 -0.09,0.14 0.1,0.14 4.9,6.31 -1.94,2.83 -3.76,0.48 -0.11,0.01 -0.07,0.09 -4.19,6.3 -0.03,0.04 -0.01,0.05 z"/></g><g transform="translate(102.0342,260.4397)" id="g284"><path id="path286" style="fill:#db2226;fill-opacity:1;fill-rule:evenodd;stroke:none" d="m 0,0 -0.06,-1.31 -4.04,0.13 -1.57,-2.35 -2.09,-0.26 -2.48,-4.44 -4.18,-1.57 -3,4.44 -7.05,0.92 -3.26,-3.4 7.05,-4.17 -2.09,-1.44 -3.65,2.22 -2.1,-1.65 1.25,-2.47 h 2.57 0.12 l 0.07,-0.09 3.08,-3.81 0.1,-0.12 -0.07,-0.14 -2.28,-4.4 2.98,-3.68 0.1,-0.12 -0.07,-0.14 -0.71,-1.41 -0.17,-2.93 1.75,-2.15 1.63,1.86 0.11,0.13 0.16,-0.06 2.71,-1.02 0.98,1.64 0.11,0.18 0.19,-0.08 2.18,-0.9 0.15,-0.06 v -0.17 -3.29 l 2.58,-1.2 0.14,-0.07 v -0.15 -3.19 l 1.33,-2.17 3.17,0.33 1.02,1.88 0.07,0.13 h 0.15 5.15 l 3.12,3.46 -0.15,1.7 -2.89,0.34 -0.2,0.02 -0.02,0.2 -0.17,2.47 -2.68,3.75 -0.07,0.1 0.03,0.11 1.42,5.15 -1.75,2.63 -0.14,0.21 0.22,0.13 3.81,2.18 0.16,0.09 0.13,-0.13 1.38,-1.37 2.65,0.16 1.53,3.08 -0.53,5.18 -0.02,0.15 0.13,0.08 4.04,2.64 -0.69,6.36 L 8.19,-1.7 5.9,-3.28 5.77,-3.37 5.63,-3.29 3.09,-1.66 Z"/></g><g transform="translate(129.2842,221.7797)" id="g288"><path id="path290" style="fill:#db2226;fill-opacity:1;fill-rule:evenodd;stroke:none" d="m 0,0 4.41,1.45 0.65,3.4 3.79,2.09 4.05,1.04 1.45,0.44 -0.13,5.55 -2.48,0.5 -0.1,0.02 -0.05,0.08 -1.2,1.74 -0.04,0.06 -0.01,0.07 -0.12,3.25 L 8.68,19.03 8.62,19 8.57,19.01 6.7,19.14 l -0.24,0.02 0.01,0.24 0.13,2.4 0.01,0.09 0.05,0.06 1.95,2.2 v 3.01 l -4.29,4.16 -2.46,0.52 -0.09,0.02 -0.06,0.07 -1.73,2.27 -0.05,0.05 -0.01,0.07 -0.25,3.19 -3.59,1.28 -0.09,0.03 -0.05,0.09 -1.51,3.02 -1.93,-0.61 -0.06,-0.01 -0.05,0.01 -3.77,0.5 -0.37,-2.57 -0.01,-0.11 -0.1,-0.06 -3.57,-2.18 0.71,-6.55 0.02,-0.15 -0.13,-0.09 -4.05,-2.63 0.53,-5.11 0.01,-0.07 -0.03,-0.07 -1.63,-3.26 -0.06,-0.13 -0.15,-0.01 -2.9,-0.18 h -0.1 l -0.08,0.08 -1.32,1.31 -3.42,-1.95 1.67,-2.5 0.06,-0.09 -0.03,-0.11 -1.42,-5.15 2.59,-3.62 6.41,-0.7 0.66,1.82 0.06,0.17 0.19,-0.01 2.17,-0.18 0.18,-0.02 0.04,-0.18 0.69,-3.27 2.46,-0.33 2.19,1.38 0.08,0.05 0.1,-0.02 7.74,-1.6 0.11,-0.02 0.06,-0.1 z"/></g><g transform="translate(110.2842,191.9597)" id="g292"><path id="path294" style="fill:#db2226;fill-opacity:1;fill-rule:evenodd;stroke:none" d="m 0,0 4.09,-1.49 10.97,0.26 -0.92,4.31 2.75,0.52 2.09,11.75 -1.83,2.48 -2.75,0.65 0.4,2.22 3.39,3.13 -3.02,4.2 1.45,0.76 1.92,0.85 -1.93,3.46 -7.55,1.55 -2,-1.26 L 8.44,29.76 8.46,29.7 8.45,29.63 7.01,22.83 8.78,19.64 8.84,19.55 8.8,19.45 7.01,14.25 7.72,11.06 7.79,10.73 7.46,10.76 4.26,11.12 2.57,10.38 2.38,10.3 2.27,10.47 1.12,12.2 0.08,10.96 1.76,6.96 1.83,6.79 1.69,6.68 -0.58,4.81 -0.6,4.79 -0.62,4.78 -2.65,3.71 Z"/></g><g transform="translate(101.6942,190.2897)" id="g296"><path id="path298" style="fill:#db2226;fill-opacity:1;fill-rule:evenodd;stroke:none" d="m 0,0 4.07,-0.08 3.89,1.79 -2.57,3.61 -0.16,0.23 0.24,0.13 2.25,1.19 2.12,1.74 -1.67,3.97 -0.06,0.14 0.1,0.11 1.33,1.6 0.21,0.25 0.18,-0.27 1.22,-1.83 1.56,0.68 0.06,0.03 0.07,-0.01 2.92,-0.33 -0.65,2.94 -0.01,0.06 0.02,0.07 1.78,5.15 -1.76,3.17 -0.05,0.08 0.02,0.09 1.44,6.82 -1.38,3.6 -2.57,0.35 -0.17,0.02 -0.04,0.17 L 11.7,38.74 9.89,38.89 9.23,37.07 9.17,36.89 8.98,36.91 2.56,37.6 2.71,35.56 5.59,35.22 5.78,35.19 5.8,35 5.98,33 5.99,32.9 5.92,32.82 2.66,29.19 2.59,29.11 H 2.48 -2.64 l -1.02,-1.87 -0.06,-0.11 -0.13,-0.01 -3.44,-0.36 -0.15,-0.02 -0.08,0.13 -1.45,2.36 -0.04,0.06 v 0.06 3.12 l -2.58,1.2 -0.14,0.06 v 0.16 3.28 l -1.83,0.76 -0.98,-1.63 -0.1,-0.17 -0.19,0.07 -2.75,1.03 -1.57,-1.81 1.78,-2.17 1.85,0.33 0.15,0.03 0.1,-0.13 1.21,-1.74 2.46,-0.7 0.12,-0.03 0.04,-0.12 1.08,-2.88 2.53,-4.33 0.04,-0.08 -0.01,-0.09 -0.71,-4.26 2.68,-4.83 0.01,-0.03 0.01,-0.03 0.91,-3.81 v -0.03 -0.03 l -0.17,-3.88 4.09,-4.1 0.04,-0.03 0.02,-0.05 z"/></g><g transform="translate(76.4742,176.7197)" id="g300"><path id="path302" style="fill:#858585;fill-opacity:1;fill-rule:evenodd;stroke:none" d="m 0,0 -1.39,-1.39 0.27,-3.92 3.65,-5.22 -0.26,-5.48 -0.66,-2.61 3.27,-4.05 1.57,0.66 0.91,1.56 1.96,-1.04 2.09,-0.66 2.48,1.57 v 6.92 l 1.69,9.79 6.27,6 0.52,6.27 -0.65,2.74 3.03,2.29 -0.89,2.34 -3.98,3.99 -1.46,-1.14 -0.07,-0.05 H 18.26 L 14,18.75 11.68,16.93 12.5,15.29 12.6,15.09 12.41,14.98 10.35,13.7 12.97,9.97 15.77,9.44 15.93,9.41 15.96,9.26 16.87,5.82 16.93,5.61 16.73,5.53 14.55,4.63 14.5,4.6 14.44,4.61 12.24,4.78 9.42,-0.7 9.28,-0.97 9.05,-0.77 6.87,1.07 5.58,-0.39 5.5,-0.48 5.37,-0.47 Z"/></g><g transform="translate(75.3342,181.6097)" id="g304"><path id="path306" style="fill:#858585;fill-opacity:1;fill-rule:evenodd;stroke:none" d="m 0,0 0.93,-2.5 0.39,-1.91 5.11,-0.45 1.37,1.54 0.16,0.18 0.18,-0.16 2.13,-1.8 2.76,5.35 0.07,0.15 0.16,-0.02 2.3,-0.17 1.93,0.8 L 16.67,4.1 13.92,4.62 13.83,4.63 13.77,4.72 10.03,10.06 7.12,10.23 5.73,9.61 7.31,3.65 7.37,3.45 7.18,3.36 Z"/></g><g transform="translate(73.5942,184.1197)" id="g308"><path id="path310" style="fill:#858585;fill-opacity:1;fill-rule:evenodd;stroke:none" d="M 0,0 0.06,-1.09 1.44,-2.11 8.53,1.21 7.02,6.9 5.74,6.34 4.52,2.45 4.5,2.38 4.44,2.34 2.62,0.89 2.59,0.86 2.55,0.85 Z"/></g><g transform="translate(68.1042,192.3397)" id="g312"><path id="path314" style="fill:#858585;fill-opacity:1;fill-rule:evenodd;stroke:none" d="m 0,0 0.19,-4.48 5.23,-2.48 0.04,-0.76 2.38,0.79 1.73,1.38 1.23,3.92 0.04,0.1 0.1,0.04 2.91,1.3 L 11.57,1.64 10.71,0.17 10.62,0.01 10.44,0.06 4.53,1.49 0.1,0.07 Z"/></g><g transform="translate(64.2442,201.3397)" id="g316"><path id="path318" style="fill:#858585;fill-opacity:1;fill-rule:evenodd;stroke:none" d="m 0,0 2.75,-3.04 0.13,-4.17 0.83,-1.3 0.02,0.02 0.04,0.01 4.53,1.45 0.07,0.02 0.07,-0.01 5.8,-1.41 1.85,3.19 -0.82,2.63 h -2.72 -0.1 L 12.38,-2.54 7.01,2.29 3.2,2.47 Z"/></g><g transform="translate(57.5242,213.8497)" id="g320"><path id="path322" style="fill:#858585;fill-opacity:1;fill-rule:evenodd;stroke:none" d="m 0,0 3.21,-5.37 v -3.26 l 3.19,-3.52 3.29,2.54 0.07,0.06 h 0.09 l 3.73,-0.17 -0.17,3.9 -0.01,0.14 0.11,0.07 2,1.33 L 12.66,1.1 11.69,-0.84 11.61,-0.99 11.45,-0.97 8,-0.61 7.9,-0.6 7.83,-0.51 5.94,2.06 Z"/></g><g transform="translate(56.3642,219.4397)" id="g324"><path id="path326" style="fill:#db2226;fill-opacity:1;fill-rule:evenodd;stroke:none" d="m 0,0 -0.18,3.08 v 0.46 h 0.46 l 3.19,0.32 v 1.92 0.24 l 0.1,0.07 0.1,0.08 3.52,2.7 -2.29,1.44 -2.91,3.44 -0.07,0.08 -0.06,0.09 v 0.3 l 0.37,2.72 v 0.59 l 0.28,-0.09 0.28,-0.1 2.54,-0.91 h 0.16 v -0.07 -0.07 l 2,-3.22 h 3.27 v -0.46 l 0.17,-2.87 2,-1.68 0.09,-0.08 0.1,-0.07 V 7.67 l -0.18,-4 V 3.52 3.46 3.4 L 10.03,-0.41 9.67,-0.88 9.31,-1.36 9.24,-0.77 9.17,-0.18 8.73,3.13 4.19,-1.87 4.06,-2.01 3.94,-2.14 3.78,-2.06 3.62,-1.99 0.17,-0.36 0.04,-0.29 -0.09,-0.23 v 0.29 z m -4.91,28.72 0.27,-4.56 -1.44,-1.7 0.65,-2 2.09,-1.57 -0.13,-3.26 1.2,-5.22 -0.4,-4.83 -0.91,-8 1,-1.36 2.08,0.92 1.38,-2.3 6.2,2.15 0.17,0.06 0.11,-0.15 1.96,-2.68 3.17,-0.33 2.24,4.56 v 0.08 h 0.09 l 2.44,1 -0.92,1.38 -0.08,0.12 0.06,0.13 1.41,2.55 -1.48,1.32 -0.2,0.17 0.19,0.18 1.78,1.84 0.17,1.54 V 8.9 l 0.12,0.06 2,0.9 0.2,0.1 0.11,-0.2 1.31,-2.29 1.68,1.39 0.18,3 v 0.05 l 0.7,1.31 -3,3.69 -0.1,0.12 0.07,0.14 2.27,4.39 -2.91,3.59 H 18.1 l -0.07,0.14 -1.58,3.13 -4.78,4.34 -0.65,-6.26 -2.61,1.3 -5,-0.26 -1.79,-2.32 -3.65,6.13 z"/></g><g transform="translate(80.2042,227.8297)" id="g328"><path id="path330" style="fill:#858585;fill-opacity:1;fill-rule:evenodd;stroke:none" d="m 0,0 -1.81,-1.48 -0.22,-0.18 -0.14,0.24 -1.34,2.35 -1.67,-0.76 -0.16,-1.49 -0.01,-0.09 -0.07,-0.06 -1.63,-1.63 1.44,-1.28 0.15,-0.12 -0.09,-0.17 -1.39,-2.6 1.01,-1.51 0.17,-0.25 -0.28,-0.1 -2.63,-1.06 -1.09,-2.16 3.12,-5.88 0.1,-0.19 -0.18,-0.12 -2.06,-1.37 0.17,-3.94 5.29,-4.76 h 2.81 0.18 l 0.05,-0.17 0.91,-2.9 0.03,-0.1 -0.05,-0.1 -0.9,-1.54 2.59,-2.08 3.01,-0.18 0.11,-0.01 0.07,-0.1 0.86,-1.22 1.89,1.17 -0.81,1.62 -0.09,0.18 0.16,0.12 2.54,1.99 0.07,0.06 0.09,-0.01 4.26,-0.17 1.47,1.14 0.18,3.85 -0.9,3.74 -2.7,4.86 -0.04,0.08 0.01,0.08 0.72,4.27 -2.5,4.27 -0.01,0.02 -0.01,0.02 -1.04,2.78 -2.42,0.7 L 7.14,-6.22 7.09,-6.15 5.91,-4.46 4.06,-4.8 3.92,-4.82 3.83,-4.71 Z"/></g><g transform="translate(56.6642,222.5497)" id="g332"><path id="path334" style="fill:#db2226;fill-opacity:1;fill-rule:evenodd;stroke:none" d="m 0,0 0.18,-3.08 3.45,-1.64 4.9,5.41 0.36,0.4 0.06,-0.53 0.48,-3.83 2.9,3.81 0.18,3.99 -2.09,1.74 -0.08,0.07 -0.01,0.11 -0.17,2.97 H 7.21 7.07 L 7,9.54 4.9,12.87 2.36,13.77 2,11.05 4.9,7.61 7.49,5.99 7.8,5.8 7.51,5.59 3.63,2.72 V 0.58 0.36 L 3.41,0.34 Z"/></g><g transform="translate(464.2342,127.0597)" id="g336"><path id="path338" style="fill:#858585;fill-opacity:1;fill-rule:evenodd;stroke:none" d="m 0,0 11.06,-4.46 10.18,-2.36 2.09,-8.09 7.44,-3.92 5.22,0.14 7.44,4.43 5.75,-1.82 6,0.39 1.57,-2.74 3.45,-0.15 1.13,4.19 0.03,0.1 0.1,0.05 3.31,1.73 -3.55,3.88 -0.18,0.19 0.2,0.16 3.47,2.8 -1.32,3.95 -0.1,0.32 h 0.33 6.59 l 4.03,3.37 0.09,0.06 0.1,-0.01 3.62,-0.49 6.77,8.95 0.06,0.09 0.11,0.01 4.32,0.33 1.31,2.12 0.04,0.07 0.08,0.03 3.7,1.51 2.82,3.49 0.33,3.72 -2.96,1.97 -0.11,0.07 v 0.13 3.59 0.13 l 0.09,0.07 6.46,4.92 2.19,5.08 0.05,0.1 0.09,0.03 5.65,1.99 -0.32,4.51 -3.47,3.14 -3.87,0.67 -0.14,0.03 -0.05,0.13 -3.23,9.7 -2,1.84 -0.16,0.14 0.12,0.18 2,2.83 -0.28,2.78 -2.36,-2.67 -0.09,-0.1 -0.13,0.03 -2.01,0.3 -1.15,-4.4 L 91.88,59.09 91.74,59.05 80.96,56.15 80.8,56.1 80.71,56.24 78.9,58.7 H 76.45 76.4 l -0.06,0.03 -2.33,1.25 -1.27,-3.01 -0.04,-0.1 -0.1,-0.04 -5.14,-1.71 -0.08,-0.02 -0.08,0.02 -2.64,0.94 -0.63,-2.98 -0.04,-0.17 -0.17,-0.02 -5.22,-0.66 0.45,-2.57 3.19,-2.68 0.18,-0.15 -0.16,-0.19 -2.68,-3.19 -0.5,-4.83 1.73,-4.08 0.28,0.82 1.06,6.64 0.01,0.04 0.02,0.04 1.73,3.07 0.08,0.14 0.16,-0.02 2.27,-0.27 0.18,-0.02 0.03,-0.18 0.4,-2.53 0.01,-0.05 -0.01,-0.03 -1.06,-5.97 0.39,-5.81 0.93,-3.18 0.02,-0.07 -0.03,-0.08 -1.2,-3.07 -0.02,-0.05 -0.04,-0.04 -1.84,-1.7 -0.59,-1.08 0.63,-2.03 0.03,-0.08 -0.04,-0.08 -0.8,-2 L 63.37,16.83 63.25,16.8 61.29,16.31 61.17,14.09 61.16,14.03 61.13,13.98 58.6,9.85 58.55,9.77 58.46,9.74 54.67,8.57 52.19,5.16 52.11,5.05 51.97,5.06 49.13,5.31 48.37,1 48.36,0.93 48.31,0.88 l -2.13,-2.4 -0.04,-0.04 -0.05,-0.02 -6.82,-3.02 -0.91,-3.09 -0.03,-0.12 -0.12,-0.04 -4.4,-1.47 -0.25,-0.08 -0.06,0.25 -0.63,2.52 -4.65,0.9 -0.17,0.04 -0.02,0.17 -0.4,3.4 L 24.42,2 H 20.14 20.05 L 19.99,2.05 11.06,9.12 11.03,9.14 11.01,9.16 8.22,12.97 3.75,9.78 3.68,9.73 H 3.61 L 1.05,9.79 1.18,9.23 1.21,9.1 1.12,9 -0.25,7.63 0.25,5.64 0.28,5.51 0.19,5.41 -1.7,3.27 Z"/></g><g transform="translate(401.0642,108.1797)" id="g340"><path id="path342" style="fill:#858585;fill-opacity:1;fill-rule:evenodd;stroke:none" d="m 0,0 16.8,6.32 6,0.39 1.05,-1.56 9,-1.96 0.66,-4.05 3.39,-1.69 9.53,-1.05 3.79,-0.52 1.95,-1.83 3,1.05 2.75,2.35 1.95,4.82 -3.26,3.92 0.39,6 2.09,0.66 0.13,2.74 2.74,0.13 0.77,2.94 -1.76,3.42 -0.08,0.15 0.11,0.12 1.91,2.17 -0.5,2.01 -0.03,0.13 0.09,0.1 1.38,1.37 -0.33,1.4 -3.92,-0.25 -0.09,-0.01 -0.07,0.05 -9.83,6.86 -0.59,-2.71 -0.04,-0.18 -0.17,-0.01 -11.96,-1.06 -0.76,-3.16 -0.03,-0.14 -0.14,-0.04 -2.33,-0.61 0.24,-2.19 0.02,-0.15 -0.13,-0.08 -3.23,-2.06 -0.12,-2.15 -0.01,-0.18 -0.18,-0.04 -2.21,-0.52 -3.95,-3.29 -0.09,-0.07 -0.1,0.01 -9.2,1.2 -0.06,0.01 -0.05,0.03 -5.64,3.98 -2.6,0.2 L 4.59,18.54 4.53,18.4 4.38,18.38 -2.16,17.96 -1.75,13.45 2.17,6.49 2.28,6.3 2.09,6.17 -0.62,4.29 Z"/></g><g transform="translate(393.0342,132.5597)" id="g344"><path id="path346" style="fill:#858585;fill-opacity:1;fill-rule:evenodd;stroke:none" d="M 0,0 2.89,1 5.06,2.1 8.65,5.69 7.83,7.95 V 8.1 l 0.64,2.57 -0.91,3.44 v 0.12 l 0.07,0.09 2.39,3 1.22,3.67 -3.5,1.24 H 7.63 v 0.12 l -0.65,2.19 v 0.12 l 0.08,0.09 2.76,3.61 -1.48,3.59 V 32.1 L 9,34.95 v 0.11 l 0.06,0.04 3.67,1.73 1.82,1.82 -3.86,7.5 v 0.16 l 0.56,2.61 -4.19,-1.82 h -0.2 l -5.41,2.38 -6.18,-0.85 -2.35,-2.77 -0.07,-0.09 h -6.48 l -0.13,-17.13 2.24,0.43 h 0.24 v -0.25 l 0.43,-3.42 3.23,-3.44 v -0.05 l 1.07,-3 3,-2.14 0.21,-0.16 -0.17,-0.2 -2.27,-2.68 1.83,-2 0.09,-0.1 V 11.51 L -4.73,8.01 V 7.91 H -4.82 L -7.12,6.44 -7.31,2.34 -2,2.18 h 0.11 l 0.07,-0.08 1.77,-2 z m -28.23,-11.09 0.45,-4.49 4.18,-2.35 0.13,-4.44 4.18,-0.91 1.69,-2.09 4.66,2.47 0.92,-3.26 3,-4.44 4.7,-0.52 1.43,3.13 6.27,0.26 4.15,3.09 -0.67,4.62 v 0.12 l 0.12,0.08 2.66,1.84 -3.83,6.82 v 0.05 l -0.4,4.38 -3.35,-2.54 -0.2,-0.14 -0.14,0.19 -3.07,3.93 -0.07,0.1 v 0.11 l 1.06,4.7 -1.72,2 -5.22,0.15 V 1.7 h -0.18 l -3.29,-0.66 h -0.11 l -0.06,0.06 -2.71,2.13 -0.18,-2.18 V 0.94 l -2.65,-4 -0.08,-0.12 h -0.15 l -4.76,0.43 -3.82,-1.27 -1.53,-2.11 2.37,-1.19 0.1,-0.05 v -0.11 l 0.66,-2.84 0.06,-0.27 h -0.31 l -4.32,-0.5 z"/></g><g transform="translate(331.8042,160.2997)" id="g348"><path id="path350" style="fill:#858585;fill-opacity:1;fill-rule:evenodd;stroke:none" d="m 0,0 6.3,-30.27 3.4,0.53 2.35,3.39 2.22,-0.91 0.65,-3.53 7.18,-3.91 5.61,2.08 3,-1.3 2.15,-4.44 4.14,0.48 -0.57,2.47 -2.52,1.26 -0.26,0.13 0.17,0.23 1.75,2.41 0.04,0.06 0.08,0.03 3.94,1.31 0.05,0.02 0.05,-0.01 4.66,-0.42 2.52,3.76 0.21,2.57 0.04,0.45 0.35,-0.28 2.98,-2.34 2.99,0.6 0.2,4.4 0.01,0.13 0.11,0.07 2.32,1.48 0.82,3.28 -1.88,2.09 -0.14,0.16 0.14,0.16 2.23,2.65 -2.85,2.03 -0.06,0.04 -0.03,0.08 -1.07,3.01 -3.25,3.47 -0.05,0.06 -0.01,0.07 -0.41,3.26 -2.27,-0.29 -2.93,-2.66 -0.08,-0.07 -0.1,0.01 -5.61,0.53 -1.69,-1.3 -0.15,-0.11 -0.15,0.11 -1.73,1.36 -4.87,-4.73 -0.17,-0.17 -0.17,0.17 -3.8,3.66 -0.05,0.05 -0.02,0.07 L 25.1,0.24 21.98,4.4 9.11,-0.02 9.03,-0.05 8.94,-0.01 6.21,1.16 4.97,0.28 4.83,0.19 4.7,0.28 2.65,1.55 Z"/></g><g transform="translate(321.9542,173.1297)" id="g352"><path id="path354" style="fill:#858585;fill-opacity:1;fill-rule:evenodd;stroke:none" d="m 0,0 6.76,-0.15 -2.75,-2.87 5.66,-9.35 2.71,1.59 0.13,0.07 0.12,-0.07 2.04,-1.28 1.22,0.86 0.12,0.08 0.12,-0.05 2.76,-1.19 12.95,4.45 0.17,0.06 0.1,-0.14 3.26,-4.35 0.03,-0.04 0.01,-0.05 0.67,-2.78 3.58,-3.45 4.85,4.72 0.15,0.15 0.17,-0.13 1.75,-1.38 1.62,1.24 0.08,0.06 0.09,-0.01 5.59,-0.53 2.83,2.57 0.14,17.3 H 54.68 L 51.49,2.67 51.3,2.51 l -0.16,0.2 -1.36,1.77 -0.05,0.07 0.01,0.09 0.39,6.54 -9.39,0.26 -0.14,0.01 -0.07,0.12 -1.69,3.13 -4.88,-0.14 h -0.19 l -0.05,0.18 -0.94,3.49 -3.06,3.99 -16.43,7.82 v -5.32 -0.14 l -0.12,-0.07 -3.1,-1.81 0.9,-3.49 0.09,-0.32 -0.34,0.02 L 6.7,19.18 3.58,17.87 1.75,14.61 2.15,5.18 2.16,5.13 2.14,5.07 Z"/></g><g transform="translate(296.5342,195.0597)" id="g356"><path id="path358" style="fill:#858585;fill-opacity:1;fill-rule:evenodd;stroke:none" d="m 0,0 1.89,-0.54 0.13,-3.4 -1.17,-1.3 0.78,-2.35 -2.61,-3 0.52,-2.22 5.62,-1.31 0.26,-3 2.74,-0.13 2.09,-0.52 2.08,-2.35 -3,-2.48 v -2.09 l 3,0.91 2.62,-1.43 2.34,0.52 1.96,1.69 5.63,1.03 2.21,5.25 -0.41,9.45 v 0.07 l 0.03,0.06 1.9,3.39 0.05,0.08 0.07,0.03 3.26,1.36 0.06,0.02 0.05,-0.01 3.74,-0.24 -0.87,3.34 -0.04,0.17 0.16,0.1 3.13,1.83 v 13.2 l -2.24,2.38 -0.15,0.15 0.14,0.17 2.38,2.91 -0.21,1.8 -4.42,-3.03 -0.07,-0.05 -0.08,0.01 -3.4,0.13 -0.05,0.01 -0.06,0.03 -3.31,1.85 -3.59,-0.53 -0.1,-0.01 -0.08,0.06 -4.71,3.36 -2.11,0.4 -0.38,0.07 0.22,0.31 1.51,2.14 -2.26,2.26 -4.39,-4.25 -0.39,-3.99 -0.01,-0.07 -0.05,-0.05 -1.28,-1.54 0.35,-1.25 2.73,-1.04 0.11,-0.04 0.03,-0.11 0.96,-2.58 0.02,-0.06 L 13.31,15.5 12.77,13.05 12.76,13.01 12.74,12.98 11.79,11.48 11.7,11.34 11.54,11.37 8.27,12.03 5.83,9.33 5.17,6.27 5.15,6.19 5.1,6.14 0.79,2.1 Z"/></g><g transform="translate(387.6542,229.5197)" id="g360"><path id="path362" style="fill:#858585;fill-opacity:1;fill-rule:evenodd;stroke:none" d="m 0,0 -3.53,2.53 -7.06,-4.06 -0.14,-0.08 -0.13,0.1 -5.94,4.35 -8.45,0.13 -0.07,0.01 -0.06,0.03 -5.57,3.72 -3.97,1.15 -3.71,-2.81 -2.78,-8.86 -0.06,-0.19 -0.2,0.02 -3.24,0.4 -2.51,-1.63 -0.51,-2.7 -0.02,-0.11 -0.1,-0.06 -4.48,-2.56 0.25,-2.15 0.02,-0.1 -0.07,-0.08 -2.31,-2.82 2.16,-2.29 0.07,-0.07 v -0.1 -7.58 l 16.7,-7.95 0.05,-0.03 0.04,-0.04 3.12,-4.08 0.03,-0.03 0.01,-0.05 0.9,-3.35 4.83,0.13 0.15,0.01 0.07,-0.13 1.7,-3.14 9.5,-0.27 h 0.25 l -0.01,-0.25 -0.41,-6.7 1.15,-1.49 3.07,2.55 0.07,0.06 h 0.08 2.58 0.25 l 6.25,-0.04 2.33,2.76 0.06,0.08 0.09,0.01 6.35,0.87 0.07,0.01 0.06,-0.03 5.37,-2.36 4.36,1.87 0.22,4.44 v 0.11 l 0.09,0.07 4.53,3.46 0.57,2.1 -3.93,1.24 -0.06,0.02 -0.04,0.04 -2.85,2.85 -0.06,0.06 v 0.08 l -0.44,3.72 -0.02,0.13 0.1,0.08 4.96,4.31 0.19,2.52 -3.27,0.41 -0.13,0.01 -0.06,0.12 -3.66,7.55 -12.57,1.95 -0.21,0.03 v 0.2 3.51 0.08 l 0.06,0.07 1.67,2.09 z"/></g><g transform="translate(403.8642,168.0497)" id="g364"><path id="path366" style="fill:#858585;fill-opacity:1;fill-rule:evenodd;stroke:none" d="m 0,0 -1.51,-0.71 -0.61,-2.65 1.5,-3.65 0.05,-0.13 -0.08,-0.11 -2.77,-3.62 0.59,-1.96 3.6,-1.27 0.22,-0.08 -0.07,-0.22 -1.32,-3.94 -0.01,-0.04 -0.02,-0.03 -2.34,-2.98 0.85,-3.38 0.01,-0.06 -0.01,-0.06 -0.64,-2.55 0.85,-2.34 0.05,-0.15 -0.11,-0.1 -3.72,-3.72 -0.02,-0.03 -0.04,-0.02 -2.19,-1.09 -0.02,-0.01 -0.01,-0.01 -2.93,-1.05 -1.04,-4.57 2.84,-3.66 3.53,2.7 0.35,0.27 0.02,-0.2 6.39,0.41 1.7,4.45 0.06,0.17 0.18,-0.02 2.68,-0.2 1.9,4 0.04,0.09 0.09,0.04 3.41,1.28 1.03,2.26 v 2.58 0.14 l 0.13,0.07 3.14,1.68 -0.2,2.66 -1.3,3.91 -0.01,0.02 v 0.01 l -0.65,3.67 -2.82,4.34 -0.07,0.11 0.05,0.12 1.23,2.66 L 9.82,-5.6 6.19,-6.03 H 6.17 6.16 2.22 2.05 l -0.06,0.16 z"/></g><g transform="translate(446.6442,451.4997)" id="g368"><path id="path370" style="fill:#858585;fill-opacity:1;fill-rule:evenodd;stroke:none" d="M 0,0 4.89,-0.89 3.74,2.77 0.33,2.69 Z"/></g><g transform="translate(450.7142,442.2997)" id="g372"><path id="path374" style="fill:#858585;fill-opacity:1;fill-rule:evenodd;stroke:none" d="M 0,0 2.69,3.59 2.03,6.76 4.64,8.47 7.24,11.08 10.18,8.47 11.8,3.83 12.78,1.79 10.09,0.33 V -2.2 L 3.42,-5.21 0,-2.11 Z"/></g><g transform="translate(448.2742,438.3097)" id="g376"><path id="path378" style="fill:#858585;fill-opacity:1;fill-rule:evenodd;stroke:none" d="M 0,0 5.13,-1.95 4.39,-4.39 2.03,-5.7 l -3.42,2.37 -0.57,2.28 z"/></g><g transform="translate(452.8342,430.1697)" id="g380"><path id="path382" style="fill:#858585;fill-opacity:1;fill-rule:evenodd;stroke:none" d="M 0,0 2.28,5.62 8.54,8.71 9.68,4.4 11.31,4.89 11.56,6.76 14.4,3.99 14.16,0.33 12.05,-3.09 13.83,-5.21 13.35,-8.38 11.07,-9.6 6.43,-6.43 2.28,-2.85 -0.09,-1.79 Z"/></g><g transform="translate(469.1942,426.9997)" id="g384"><path id="path386" style="fill:#858585;fill-opacity:1;fill-rule:evenodd;stroke:none" d="m 0,0 -0.57,-7.33 -2.77,-5.05 1.06,-3.82 4.56,3.66 4.8,0.33 2.52,2.52 0.33,5.86 -2.68,3.42 -2.29,-2.28 -1.22,1.3 0.17,3.5 z"/></g><g transform="translate(482.6242,416.4097)" id="g388"><path id="path390" style="fill:#858585;fill-opacity:1;fill-rule:evenodd;stroke:none" d="M 0,0 0.41,-1.95 3.99,-2.76 3.83,-1.38 0.24,0.82 Z"/></g><g transform="translate(486.0942,139.8797)" id="g392"><path id="path394" style="fill:#858585;fill-opacity:1;fill-rule:evenodd;stroke:none" d="m 0,0 -0.46,2.41 v 0.21 l 0.21,0.06 2.33,0.74 -1,3.52 -0.06,0.21 0.21,0.08 2.78,1 0.21,0.08 0.1,-0.19 2.17,-4.34 5.4,3.22 0.19,0.11 0.13,-0.18 1.87,-2.61 1.6,-1.46 2.09,0.78 h 3.06 L 20.9,3.52 22.34,1.25 22.43,1.1 22.32,0.97 16.68,-6.22 16.54,-6.4 16.35,-6.27 12.94,-3.87 8.75,-4.26 H 8.6 l -2.45,1.54 -2.93,2.13 -3,0.26 H 0 v 0.18 z M 23.58,120.24 22,118.49 21.94,118.43 h -0.07 l -3.76,-0.79 -3.39,-1.51 0.18,-3.77 1,-2.54 v -0.19 l -1.9,-4.25 1.91,-3.07 v -0.11 l 0.4,-4.57 V 97.5 l -3,-5.77 v -0.06 h -0.06 l -5,-3.06 1.86,-3.17 L 10.2,85.3 10.1,85.18 8,82.29 9.12,78.56 13.37,77.21 13.5,77.16 v -0.13 l 0.6,-2.79 v -0.12 l -0.08,-0.09 -3.12,-3.32 -0.18,-2.3 2,-0.54 h 0.13 v -0.09 l 1,-3 0.05,-0.14 -0.11,-0.11 -2.29,-2.4 -1,-3.51 -0.09,-0.31 -0.27,0.16 -4.37,2.59 H 5.7 v 0.07 l -2.08,4.54 -4,-1.83 L -0.96,60 V 59.92 L -1,59.78 -9.87,50.12 -9.49,45.73 v -0.18 l -0.16,-0.06 -2.39,-1 -0.21,-0.09 -0.1,0.21 -3.41,7.39 -2.34,-3.06 -0.06,-0.09 h -0.12 l -9.2,-0.4 -3.67,-6.67 4.09,-6.43 0.06,-0.09 v -0.09 l -0.8,-3.58 V 31.42 H -28 l -4,-0.58 -2.3,-4.41 -0.79,-11.87 v -0.25 h -0.25 L -39.25,14.7 -42,13.41 v -2.33 l 6.69,-6 10.05,-7 4,0.26 h 0.2 v -0.2 l 0.16,-0.68 2.59,-0.06 4.6,3.28 0.2,0.14 0.14,-0.19 2.91,-4 8.84,-7 h 4.43 l 0.07,-0.1 3.34,-4.26 v -0.13 l 0.38,-3.28 4.62,-0.9 h 0.15 v -0.18 l 0.6,-2.41 4,1.34 0.81,2.77 h -4.36 l -0.07,0.14 -0.93,2 -0.1,0.19 0.19,0.11 2,1.21 h 0.05 l 2.75,0.39 5.51,3.81 2,3 4.08,3.69 0.92,2.74 2.4,4.13 2.92,4.51 2.52,6.9 1.89,5.54 -2,4.64 v 0.3 l 0.51,5 v 0.06 l 2.58,3.07 -3.07,2.58 -0.07,0.06 v 0.08 l -0.51,2.91 -0.05,0.26 h 0.26 l 5.3,0.66 0.65,3.08 0.05,0.27 0.26,-0.09 2.84,-1 4.94,1.65 1.33,3.15 0.1,0.24 0.24,-0.12 2.51,-1.34 h 2.63 l 0.07,-0.1 1.79,-2.43 10.48,2.83 1.16,4.48 0.06,0.21 h 0.21 l 2.1,-0.32 2.65,3 0.36,0.41 0.06,-0.55 0.32,-3.24 6.39,-1 3.76,2.62 0.16,4.87 -4,2.84 -0.09,0.07 v 0.11 l -0.34,6.16 v 0.13 l 0.1,0.08 2.23,1.71 0.06,0.05 h 0.08 l 5.45,0.16 -5.11,11.63 -2.76,1.9 -4.62,-2.14 -0.25,-0.11 -0.08,0.26 -1.76,5.28 -7.71,3.08 -3.85,-0.63 -6,-12.94 -4.05,-4.72 -0.17,-0.2 -0.19,0.18 -2.92,2.92 -1.86,-3.31 -0.07,-0.12 h -0.14 l -5.54,-0.22 -3.76,-2.88 -0.18,-0.13 -0.15,0.16 -3.6,3.82 -0.07,0.08 v 0.11 l 0.67,9.89 v 0.08 L 39.21,88 35,89.27 h -0.11 v 0.1 l -2,4.49 v 0.16 l 1.53,6.35 -3.42,1.93 -0.13,0.07 v 0.15 l 0.13,6.26 -2.54,4.87 -2,-1.42 -0.07,-0.05 H 26.3 l -2.92,0.22 h -0.23 v 3.5 l 0.12,0.07 2.26,1.45 -1.87,2.84 z"/></g><g transform="translate(486.1342,142.1597)" id="g396"><path id="path398" style="fill:#858585;fill-opacity:1;fill-rule:nonzero;stroke:none" d="m 0,0 0.38,-2.01 2.83,-0.23 0.06,-0.01 h 0.07 l 0.06,-0.05 0.05,-0.03 2.93,-2.13 2.37,-1.5 4.1,0.39 h 0.09 l 0.09,0.01 0.07,-0.05 0.08,-0.05 3.22,-2.27 5.37,6.83 -1.27,2.02 H 17.78 L 15.73,0.15 15.59,0.1 15.46,0.05 15.35,0.15 15.24,0.25 13.64,1.71 13.62,1.73 13.6,1.75 13.58,1.77 13.57,1.79 11.83,4.23 6.61,1.12 6.39,0.99 6.17,0.86 6.05,1.09 5.93,1.32 3.86,5.46 1.49,4.57 2.44,1.27 2.5,1.04 2.57,0.82 2.34,0.75 2.12,0.67 Z"/></g><g transform="translate(554.4341,123.7297)" id="g400"><path id="path402" style="fill:#858585;fill-opacity:1;fill-rule:evenodd;stroke:none" d="m 0,0 1.2,3.08 v 0.27 h 0.29 l 6.75,0.82 1.94,4 0.14,0.29 0.14,0.3 0.24,-0.22 0.25,-0.23 1.54,-1.41 1.62,3.81 v 0.12 0.12 h 0.25 l 3.42,0.69 h 0.39 0.08 l 0.08,-0.05 4.11,-2.56 0.14,-0.09 0.14,-0.09 V 8.52 L 22.07,5.98 V 5.67 H 21.76 L 19.76,5.2 23.19,2.05 23.45,1.81 23.71,1.57 23.39,1.42 23.07,1.26 8.86,-5.58 8.74,-5.64 8.62,-5.7 8.51,-5.63 8.4,-5.56 l -8.21,5.13 -0.18,0.11 -0.17,0.11 0.08,0.18 0.07,0.19 z m -29.5,-15.27 2.18,-0.09 2.22,-4.18 17.1,-1.57 11.48,6.92 3.64,0.12 1.18,3.79 5.61,5.22 7.83,0.39 2.35,-2.22 3.26,3 13.86,-2.18 2,5.36 4.7,3.26 -2,4.83 2.09,13.05 3.52,3.5 -2.35,6.26 -5,0.52 3.53,6.53 6.21,4.32 -5.62,8.43 -0.09,0.14 0.09,0.14 1.9,2.69 -3.36,1.92 -0.11,0.06 v 0.13 l -0.49,6.56 -3.32,-0.79 h -0.18 l -0.09,0.16 -2.1,3.73 -4.42,-2.5 -0.16,-0.08 -0.13,0.13 -2.71,2.73 -0.14,0.15 0.11,0.17 1.57,2.19 -5.44,3.62 v 0.06 l -6.94,12.87 -5.62,-0.14 -2.06,-1.59 0.33,-5.91 4,-2.84 0.11,-0.08 v -0.13 l -0.17,-5.13 v -0.12 l -0.1,-0.08 -3.94,-2.73 -0.08,-0.06 h -0.09 l -6.53,1 -1.84,-2.61 1.85,-1.7 v -0.06 l 3.21,-9.62 3.79,-0.66 h 0.12 l 3.59,-3.25 0.07,-0.07 v -0.1 l 0.35,-4.79 v -0.18 l -0.18,-0.06 -5.72,-2 -2.18,-5 V 36.1 L 4.78,31.22 v -3.35 l 3,-2 0.12,-0.08 V 25.65 L 7.56,21.71 V 21.58 L 4.66,17.93 0.97,16.42 -0.36,14.26 -0.42,14.15 h -0.13 l -4.34,-0.34 -6.77,-9 -0.09,-0.11 h -0.14 l -3.66,0.49 -4,-3.35 -0.07,-0.06 h -6.42 l 1.26,-3.78 0.05,-0.16 -0.13,-0.11 -3.43,-2.8 3.41,-4.05 0.21,-0.23 -0.28,-0.15 -3.5,-1.83 -1.07,-4 z"/></g><g transform="translate(556.0842,126.6297)" id="g404"><path id="path406" style="fill:#858585;fill-opacity:1;fill-rule:nonzero;stroke:none" d="m 0,0 -1.2,-3.07 8.22,-5.14 14.2,6.85 -3.77,3.45 -0.34,0.31 0.45,0.11 2.46,0.58 0.51,2.73 -4.1,2.57 L 13.01,7.71 11.26,3.57 11.12,3.26 10.87,3.49 9.07,5.14 7.08,0.98 7.02,0.86 6.88,0.84 Z"/></g><g transform="translate(505.2642,260.3097)" id="g408"><path id="path410" style="fill:#858585;fill-opacity:1;fill-rule:nonzero;stroke:none" d="M 0,0 -0.14,-0.09 -0.28,0.02 -3,2.15 h -6.54 l 0.03,0.27 0.39,3.58 0.01,0.07 0.05,0.05 3.75,4.54 1.11,2.97 -2.43,1.68 -0.1,0.07 v 3.41 l -2.13,2.31 -0.08,0.1 0.03,0.12 0.96,4.62 -2.46,1.89 -0.21,0.16 0.18,0.2 3.7,4.09 -1.38,17.32 -4.33,6.67 2.17,1.11 5.22,4.26 0.08,0.06 0.1,-0.01 3.08,-0.36 1.11,5.41 0.01,0.05 0.03,0.03 1.52,2.28 0.38,3.05 0.01,0.1 0.08,0.06 6.4,5.08 -2.75,3.3 -0.06,0.07 v 5.25 l -5.58,7.89 -0.03,0.04 -0.01,0.06 -0.76,4.02 -1.72,2.28 -0.05,0.07 0.01,0.09 0.18,2.29 -3.44,-1.72 -3.92,-3.01 -5.35,-1.56 -2.09,-3.66 0.13,5.22 10.84,11.23 6,10.83 2.74,9.66 -8.35,9.53 -7.83,0.26 -2.74,-3.91 -3.14,-0.53 2.35,6.66 -6.4,0.79 2.09,3 -3.91,3.26 -3.53,-1.31 -5.61,-8.35 1.31,-4.96 -6.01,-0.39 0.13,-1.57 2.22,-3.26 -4.31,0.91 -2.22,-2.08 -4.96,0.91 -0.65,2.22 -7.05,-0.13 0.13,-4.05 -8.48,-1.17 -5.74,-4.57 -4.44,-0.13 -3.27,-2.88 -1.43,-5.87 2.74,-4.96 -4.18,-1.04 -11.09,1.82 -6.4,0.13 -1.96,-3.52 -0.26,-9.14 4.05,-3.91 1.96,-4.57 h -5.62 l -4.83,9.01 -3.54,-0.21 0.04,-0.46 3.09,-6.56 0.14,-0.29 -0.32,-0.05 -3.32,-0.55 -0.73,-4.03 3.07,-6.52 0.03,-0.08 -0.02,-0.09 -0.77,-3.1 -0.03,-0.11 -0.11,-0.05 -7.26,-3.25 -0.92,-3.65 4.73,-6.25 5.35,-1.33 0.15,-0.04 0.03,-0.16 1.17,-6.69 -0.34,-0.87 v 0.01 l -1.89,-4.8 -0.05,-0.11 -0.12,-0.04 -4.89,-1.31 1.48,-3.52 0.03,-0.08 -0.02,-0.09 -1.55,-4.65 3.89,-5.06 0.06,-0.08 -0.01,-0.1 -0.98,-9.24 3.12,-4.3 0.06,-0.08 -0.01,-0.1 -1.17,-6.61 4.65,-3.49 0.08,-0.06 0.01,-0.1 0.8,-4.76 0.01,-0.1 -0.06,-0.09 -4.13,-5.7 -0.39,-5.1 -0.01,-0.07 -0.04,-0.06 -6.38,-8.11 v -6.3 l 5.21,-3 0.18,-0.1 -0.08,-0.19 -0.93,-2.4 -0.04,-0.1 -0.09,-0.04 -4.67,-2 -0.03,-0.01 -0.03,-0.01 -3.98,-0.49 1.72,-6.09 0.04,-0.12 -0.08,-0.1 -1.7,-2.12 v -3.21 l 12.49,-1.94 0.12,-0.02 0.06,-0.11 3.66,-7.54 3.37,-0.42 0.23,-0.03 -0.02,-0.23 -0.22,-2.84 v -0.1 l -0.08,-0.07 -4.93,-4.29 0.41,-3.51 2.74,-2.75 4.1,-1.29 0.23,-0.07 -0.07,-0.22 -0.65,-2.41 -0.02,-0.08 -0.07,-0.05 -4.51,-3.44 -0.21,-4.48 -0.01,-0.15 -0.02,-0.01 -0.61,-2.86 3.9,-7.58 0.08,-0.16 -0.13,-0.12 -1.97,-1.97 -0.02,-0.03 -0.04,-0.02 -1.67,-0.78 1.95,-5.76 h 3.76 l 3.7,0.44 0.09,0.01 0.07,-0.05 2.41,-1.53 0.18,-0.11 -0.09,-0.2 -1.26,-2.72 2.77,-4.26 0.03,-0.05 0.01,-0.04 0.65,-3.71 1.31,-3.92 0.01,-0.03 v -0.03 l 0.22,-2.84 0.01,-0.16 -0.14,-0.08 -3.15,-1.68 v -2.53 l -0.02,-0.05 -1.1,-2.4 -0.04,-0.1 -0.09,-0.03 -3.41,-1.28 -1.84,-3.88 5.48,-3.87 9.04,-1.18 3.91,3.27 0.05,0.04 0.05,0.01 2.09,0.49 0.13,2.09 v 0.12 l 0.11,0.07 3.2,2.05 -0.25,2.25 -0.02,0.2 0.2,0.06 2.4,0.63 0.76,3.19 0.04,0.17 0.17,0.02 11.96,1.05 0.59,2.75 -6.67,5.98 -0.08,0.07 v 2.84 l 0.14,0.07 2.98,1.39 0.06,0.03 0.06,-0.01 3.73,-0.37 0.78,11.67 v 0.05 l 0.03,0.05 2.38,4.57 0.06,0.11 0.12,0.02 4.01,0.57 0.73,3.31 -4.11,6.47 -0.08,0.12 0.07,0.13 3.77,6.96 0.07,0.12 h 0.14 l 9.22,0.39 2.51,3.29 0.25,0.32 0.17,-0.36 3.48,-7.54 2,0.84 -0.38,4.39 -0.01,0.11 0.07,0.07 8.89,9.68 0.58,3.86 -0.02,0.13 4.76,2.19 0.1,-0.23 2.15,-4.69 4.04,-2.39 0.91,3.27 0.01,0.07 0.05,0.04 2.27,2.28 -0.9,2.72 -2.06,0.56 -0.19,0.05 0.01,0.2 0.2,2.58 0.01,0.09 0.06,0.06 3.09,3.29 -0.54,2.52 -4.24,1.35 -0.12,0.03 -0.04,0.12 -1.19,3.98 -0.04,0.11 0.08,0.1 2.09,2.85 -1.91,3.24 -0.12,0.21 0.2,0.12 5.11,3.15 2.92,5.64 -0.39,4.44 -1.95,3.13 -0.07,0.11 0.05,0.12 1.95,4.28 -0.96,2.49 -0.01,0.03 -0.01,0.04 -0.19,3.97 -0.01,0.17 0.15,0.07 3.57,1.58 0.03,0.02 h 0.03 l 3.69,0.78 1.6,1.78 -1.32,1.65 z"/></g><g transform="translate(811.1542,266.3097)" id="g412"><path id="path414" style="fill:#858585;fill-opacity:1;fill-rule:nonzero;stroke:none" d="m 0,0 -1.05,13.05 -1.43,6.01 -4.31,4.3 0.39,6.4 2.22,1.83 -7.44,8.61 0.13,6.01 3.13,3.39 -0.78,3.4 -6.27,1.82 -6.39,11.36 1.57,1.04 1.95,-2.74 3.13,1.96 -4.82,4.57 -2.61,-1.44 -4.17,2.71 -0.07,-0.08 -2.16,5.07 h -4.31 l -0.52,-3 -2.74,0.26 -8.88,17.76 0.53,5.61 3.52,0.78 -2.61,10.44 5.61,-4.43 0.13,12.53 4.44,4.57 6.66,0.12 -3.79,9.27 -1.81,19.97 -4.3,-1.31 -0.1,-0.03 -0.09,0.05 -3.2,1.69 -5.55,-15.92 -0.06,-0.17 h -0.17 l -7.06,0.19 -6.51,-1.99 -0.22,-0.07 -0.07,0.22 -2.12,5.83 -8.78,-0.53 -1.58,-2.79 -0.05,-0.1 -0.1,-0.02 -6.06,-1.43 -1.04,-3.14 -0.05,-0.15 -0.16,-0.02 -3.29,-0.34 -1.04,-3.66 -0.04,-0.13 -0.13,-0.04 -3.79,-1.21 0.68,-3.73 5.45,-7.94 3.39,-0.71 0.13,-0.03 0.05,-0.12 2.31,-6.06 3.85,0.35 0.11,0.01 0.08,-0.07 2.57,-2.39 0.05,-0.05 0.02,-0.08 0.71,-3.73 3.54,-2 2.45,2.28 -6.65,7.97 1.56,5.22 6.4,2.22 -3.4,-5.09 0.79,-3.92 5.09,-3.52 2.35,-0.13 -0.13,-3.66 2.22,-0.52 -2.09,-10.44 2.35,-3.92 0.78,-12.14 1.83,-7.83 2.48,-7.83 -2.87,-3.14 0.91,-3 -1.57,-2.09 4.05,-4.7 0.65,-7.44 5.56,-6.27 6.58,-7.43 z"/></g><g transform="translate(268.9142,285.2497)" id="g416"><path id="path418" style="fill:#858585;fill-opacity:1;fill-rule:nonzero;stroke:none" d="m 0,0 -0.07,0.01 -0.05,0.04 -7.43,6.1 -2.66,-1.48 -0.07,-0.03 -0.08,0.01 -7.32,0.83 0.01,0.05 -4.88,2.53 -0.04,0.02 -0.03,0.04 -4.49,5.06 -5.83,0.55 -1.72,-4.25 4.12,-5.44 0.04,-0.06 V 3.9 l 0.25,-3.88 0.01,-0.17 -0.16,-0.07 -6.77,-2.85 v -2.28 l 1.86,-1.63 0.17,-0.14 -2.13,-2.85 -0.01,0.02 -1.85,-2.08 -2.5,-6.43 -0.01,-0.04 -0.03,-0.04 -2.1,-2.25 -1.36,-3.53 -0.01,-0.05 -0.03,-0.03 -2.29,-2.51 -0.08,-0.09 -0.12,0.01 -1.95,0.13 -0.07,-4.82 2.19,0.07 0.25,0.01 v -3.83 l 4.79,-0.22 0.22,-0.01 0.01,-0.21 0.22,-2.72 2.03,-0.49 0.15,-0.04 0.03,-0.15 0.31,-1.37 v -0.01 l 0.3,-1.92 0.7,-0.97 1.82,0.48 4.04,4.77 0.06,0.08 h 0.1 l 4.57,0.48 2.89,4.59 0.18,0.28 0.21,-0.24 2.08,-2.32 1.84,1.19 0.72,3.24 0.04,0.18 0.19,0.01 5.07,0.24 1.37,1.71 0.36,3.5 0.01,0.08 0.05,0.06 2.23,2.59 -1.65,3.18 -0.03,0.06 0.01,0.06 0.12,2.59 0.01,0.15 0.13,0.06 5.39,2.45 6.25,6.13 4.16,5.52 0.78,1.78 z"/></g><g transform="translate(49.4542,252.1397)" id="g420"><path id="path422" style="fill:#858585;fill-opacity:1;fill-rule:nonzero;stroke:none" d="m 0,0 2.8,3.27 -6.31,8.3 3.74,10.64 -2.69,2.22 -2.34,-1.64 -9.23,6.32 -1.17,-1.87 0.35,-7.49 -3.51,-3.74 0.94,-5.14 6.07,0.35 6.79,-8.54 z"/></g></g></svg>