<?xml version="1.0" encoding="utf-8"?>
<svg version="1.1" id="Layer_1"
xmlns="http://www.w3.org/2000/svg"
xmlns:xlink="http://www.w3.org/1999/xlink"
xmlns:author="http://www.sothink.com"
width="500px" height="548px"
xml:space="preserve">
<g id="PathID_38" transform="matrix(0.0352941, 0, 0, 0.0352941, 48, 37.8)">
<path style="fill:#000000;fill-opacity:1" d="M355 206l-114.5 0q-87 -103.5 -136.5 -219q-50 -115.5 -50 -273q0 -154 49.5 -271q49 -117.5 137 -221l114.5 0l0 5q-40.5 36.5 -77 84.5q-37 47.5 -68.5 111q-30 61.5 -48.5 135.5q-19 74 -19 156q0 85.5 18.5 156.5q18 71 49 135q30 61.5 68.5 111.5q38.5 49.5 77 84l0 5" />
</g>
<g id="PathID_39" transform="matrix(0.0352941, 0, 0, 0.0352941, 96, 37.8)">
<path style="fill:#000000;fill-opacity:1" d="M338 -286q0 154.5 -49.5 271.5q-49.5 117 -137 220.5l-114.5 0l0 -5q38.5 -34.5 77.5 -84.5q39 -50.5 68 -111q31 -64.5 49.5 -136q18 -72 18 -155.5q0 -82.5 -18.5 -156q-18.5 -73.5 -49 -135.5q-30.5 -62 -69 -111.5q-38.5 -49.5 -76.5 -84l0 -5l114.5 0q87 103.5 137 220q49.5 116.5 49.5 272" />
</g>
<g id="PathID_40" transform="matrix(0.0352941, 0, 0, 0.0352941, 144, 37.8)">
<path style="fill:#000000;fill-opacity:1" d="M250 -142.5l-140 327.5l-73 0l88 -327.5l125 0" />
</g>
<g id="PathID_41" transform="matrix(0.0352941, 0, 0, 0.0352941, 192, 37.8)">
<path style="fill:#000000;fill-opacity:1" d="M327 -280.5l-282 0l0 -90.5l282 0l0 90.5" />
</g>
<g id="PathID_42" transform="matrix(0.0352941, 0, 0, 0.0352941, 240, 37.8)">
<path style="fill:#000000;fill-opacity:1" d="M214.5 0l-119.5 0l0 -142.5l119.5 0l0 142.5" />
</g>
<g id="PathID_43" transform="matrix(0.0352941, 0, 0, 0.0352941, 288, 37.8)">
<path style="fill:#000000;fill-opacity:1" d="M517.5 -372.5q0 200.5 -58 294.5q-58.5 93.5 -180 93.5q-123 0 -180.5 -95.5q-57.5 -95.5 -57.5 -291.5q0 -201.5 58.5 -294.5q58 -93.5 179.5 -93.5q123 0 180.5 96.5q57.5 96.5 57.5 290.5M389.5 -145.5q14.5 -37 20.5 -93.5q6 -56.5 6 -133.5q0 -76.5 -6 -133q-6 -56.5 -21 -94q-15 -38 -41 -57.5q-26.5 -20 -68.5 -20q-41.5 0 -68 20q-27 19.5 -42.5 58.5q-15 38 -20.5 96q-5.5 58 -5.5 131q0 78 5 130.5q4.5 52.5 20.5 94q14.5 38.5 41.5 59.5q26.5 20.5 69.5 20.5q41.5 0 68.5 -19.5q26.5 -20 41.5 -59" />
</g>
<g id="PathID_44" transform="matrix(0.0352941, 0, 0, 0.0352941, 336, 37.8)">
<path style="fill:#000000;fill-opacity:1" d="M476 0l-363 0l0 -76l135 0l0 -499l-135 0l0 -68q76.5 0 113 -21.5q36 -22 40.5 -82.5l77.5 0l0 671l132 0l0 76" />
</g>
<g id="PathID_45" transform="matrix(0.0352941, 0, 0, 0.0352941, 384, 37.8)">
<path style="fill:#000000;fill-opacity:1" d="M514 0l-459.5 0l0 -104.5q49.5 -47 93.5 -90q44 -43 86 -89.5q85 -93.5 116 -149.5q31 -56.5 31 -116.5q0 -31 -9.5 -54.5q-10 -23.5 -27 -39q-17.5 -15 -40.5 -22.5q-23 -7.5 -50.5 -7.5q-26.5 0 -53.5 7q-27.5 6.5 -52.5 16.5q-21 8.5 -40.5 20.5q-19.5 12 -31.5 20.5l-5.5 0l0 -106q31 -15.5 86.5 -30q55 -15 104.5 -15q104 0 163 55.5q59 55 59 149.5q0 43.5 -10 80.5q-10.5 37 -28.5 68.5q-18.5 32.5 -44.5 64.5q-26 32 -55 63q-47 51 -104.5 106q-58 55 -92.5 87l366 0l0 85.5" />
</g>
<g id="PathID_46" transform="matrix(0.0352941, 0, 0, 0.0352941, 432, 37.8)">
<path style="fill:#000000;fill-opacity:1" d="M255.5 -673.5q-27 0 -54 6.5q-27 6.5 -53 17q-24 10 -41.5 21q-18 11 -32 20.5l-6 0l0 -105.5q32.5 -17.5 88.5 -31.5q55.5 -14.5 106 -14.5q50.5 0 88.5 10.5q37.5 10 68 31.5q33 24 50 58q16.5 34 16.5 79.5q0 61.5 -40.5 108q-40.5 46.5 -97 59l0 7q23.5 4.5 50.5 15.5q26.5 11 49.5 32.5q23 21.5 37.5 55.5q14.5 33.5 14.5 82q0 50.5 -17 93q-17.5 42 -49 74.5q-32.5 34 -78.5 51.5q-46 17.5 -104.5 17.5q-56 0 -111 -13.5q-55 -13.5 -92.5 -32.5l0 -105.5l7 0q31.5 23 84.5 44q53 21 106 21q30.5 0 61.5 -9.5q30.5 -10 51 -32q20 -22 30.5 -48.5q10.5 -26.5 10.5 -67q0 -40.5 -11.5 -66.5q-12 -26 -33 -41q-21 -15 -49.5 -20.5q-29 -6 -62.5 -6l-42.5 0l0 -83l33 0q67.5 0 110 -32q42 -32 42 -93q0 -28 -11 -48q-11 -20.5 -28 -32.5q-19 -13 -42 -18q-23 -5 -49 -5" />
</g>
<g id="PathID_47" transform="matrix(0.0352941, 0, 0, 0.0352941, 0, 84)">
<path style="fill:#000000;fill-opacity:1" d="M533.5 -256l-88.5 0l0 256l-96 0l0 -256l-329 0l0 -105l333 -383.5l92 0l0 408.5l88.5 0l0 80M349 -336l0 -291l-251 291l251 0" />
</g>
<g id="PathID_48" transform="matrix(0.0352941, 0, 0, 0.0352941, 48, 84)">
<path style="fill:#000000;fill-opacity:1" d="M525.5 -241.5q0 57.5 -19 106q-19 48.5 -51 81q-33.5 34.5 -75 52.5q-41.5 17.5 -91.5 17.5q-50.5 0 -91.5 -17q-41.5 -17 -73 -50.5q-38.5 -40.5 -60 -108q-22 -68 -22 -167q0 -97 20 -175q20 -78.5 61.5 -136.5q40.5 -56.5 104.5 -88q64 -32 148 -32q25 0 46.5 2.5q21.5 2.5 38 8l0 95.5l-4.5 0q-13.5 -7.5 -39 -13.5q-25.5 -6.5 -54.5 -6.5q-93 0 -150 63q-57.5 62.5 -68 186q35.5 -25 73 -38.5q37.5 -13.5 82 -13.5q43.5 0 76.5 9q32.5 8.5 68 35q41 31 61 78.5q20 47.5 20 111.5M424 -237.5q0 -46 -12 -77q-12 -31 -39 -53q-19.5 -16 -44 -21q-25 -5 -51 -5q-35 0 -68 10.5q-33 10.5 -65 30.5q-1 11 -1.5 21.5q-0.5 10 -0.5 25.5q0 77.5 15.5 125q15 47.5 37.5 72q21.5 23.5 44.5 33q22.5 9.5 49 9.5q60 0 97.5 -43q37 -43 37 -128.5" />
</g>
<g id="PathID_49" transform="matrix(0.0352941, 0, 0, 0.0352941, 96, 84)">
<path style="fill:#000000;fill-opacity:1" d="M522 -633l-322 633l-106.5 0l341 -657l-385 0l0 -87.5l472.5 0l0 111.5" />
</g>
<g id="PathID_50" transform="matrix(0.0352941, 0, 0, 0.0352941, 144, 84)">
<path style="fill:#000000;fill-opacity:1" d="M405.5 -571q0 -50 -33.5 -83.5q-33.5 -33.5 -93 -33.5q-54.5 0 -89 30q-35 30 -35 81q0 37 18 62.5q17.5 25.5 53 46q15.5 8.5 47.5 23.5q31.5 15 57.5 23.5q43.5 -33.5 59 -68.5q15.5 -35.5 15.5 -81M419.5 -198q0 -46 -18 -73q-18 -27 -69.5 -55q-17 -9.5 -45 -20.5q-28.5 -11 -64 -26q-41.5 27.5 -63.5 68q-22 40 -22 91.5q0 67.5 41 111.5q40.5 44 102 44q63 0 101 -37.5q38 -38 38 -103M279.5 17q-55.5 0 -101 -16.5q-45.5 -16.5 -77.5 -47.5q-31.5 -30 -47.5 -71q-16.5 -41.5 -16.5 -87.5q0 -60.5 32.5 -111q32 -51 93.5 -81l0 -3q-55 -32 -81.5 -70q-26.5 -38 -26.5 -95q0 -84 63.5 -140q63.5 -56 161 -56q101.5 0 163 53.5q61 53 61 136q0 50 -29 99q-29.5 49 -84.5 76.5l0 3q65 30.5 98.5 74q33.5 43.5 33.5 112q0 95.5 -69 160q-69.5 64.5 -173.5 64.5" />
</g>
<g id="PathID_51" transform="matrix(0.0352941, 0, 0, 0.0352941, 192, 84)">
<path style="fill:#000000;fill-opacity:1" d="M241 -416l-119.5 0l0 -142.5l119.5 0l0 142.5M241 0l-119.5 0l0 -142.5l119.5 0l0 142.5" />
</g>
<g id="PathID_52" transform="matrix(0.0352941, 0, 0, 0.0352941, 240, 84)">
<path style="fill:#000000;fill-opacity:1" d="M-5 0l251 -744.5l122 0l251 744.5l-104.5 0l-67.5 -208l-284.5 0l-67.5 208l-100 0M419.5 -292.5l-115 -351l-114.5 351l229.5 0" />
</g>
<g id="PathID_53" transform="matrix(0.0352941, 0, 0, 0.0352941, 288, 84)">
<path style="fill:#000000;fill-opacity:1" d="M580.5 -228.5q0 55.5 -21 98q-21 42.5 -56.5 70q-42 33 -90 47q-48 13.5 -124 13.5l-213.5 0l0 -744.5l197.5 0q79.5 0 119.5 5.5q39.5 5 76 24.5q40 21.5 58.5 56.5q18.5 34.5 18.5 81.5q0 52.5 -27.5 94q-28 41.5 -77 65l0 4q66.5 18 103 66q36.5 47.5 36.5 119M442.5 -562.5q0 -27 -9 -46.5q-9 -20 -29 -31.5q-24 -13.5 -53.5 -16.5q-29.5 -3 -81.5 -3l-95 0l0 218l112.5 0q46.5 0 68.5 -4.5q22 -5 45.5 -20q22.5 -14.5 32 -38q9.5 -23.5 9.5 -58M477.5 -224.5q0 -42 -12 -69q-12 -27.5 -48.5 -46.5q-23.5 -12.5 -51 -16q-28 -3.5 -79 -3.5l-112.5 0l0 275l80.5 0q65 0 102.5 -6q37.5 -6 66 -25.5q28 -19.5 41 -44q13 -25 13 -64.5" />
</g>
<g id="PathID_54" transform="matrix(0.0352941, 0, 0, 0.0352941, 336, 84)">
<path style="fill:#000000;fill-opacity:1" d="M366.5 13.5q-73 0 -134 -24.5q-61.5 -24.5 -106 -73q-44.5 -48.5 -69 -121q-24.5 -72.5 -24.5 -166.5q0 -93.5 24 -163q23.5 -69.5 69 -121q44.5 -50 105.5 -76q61 -26.5 136.5 -26.5q37.5 0 70.5 5.5q32.5 5.5 60.5 14q24 7.5 49.5 19q25 11 49.5 24.5l0 119.5l-8 0q-13 -12 -33.5 -29q-20.5 -17 -50 -33.5q-28.5 -15.5 -62 -25.5q-33.5 -10 -77.5 -10q-47.5 0 -90 19.5q-42.5 19.5 -74.5 57.5q-31.5 38 -49 95.5q-17.5 57.5 -17.5 129.5q0 76.5 18.5 132q18.5 55 50.5 93q31 37 73 56q42 18.5 89 18.5q43 0 79.5 -10.5q36.5 -10.5 65 -26.5q27.5 -15.5 47.5 -31.5q20 -16.5 31.5 -28l7.5 0l0 118q-24.5 11.5 -46 22q-22 10.5 -53 20.5q-32.5 10.5 -60 16q-28 5.5 -72.5 5.5" />
</g>
<g id="PathID_55" transform="matrix(0.0352941, 0, 0, 0.0352941, 384, 84)">
<path style="fill:#000000;fill-opacity:1" d="M75.5 0l0 -744.5l465.5 0l0 88l-366.5 0l0 204l341.5 0l0 88l-341.5 0l0 276.5l366.5 0l0 88l-465.5 0" />
</g>
<g id="PathID_56" transform="matrix(0.0352941, 0, 0, 0.0352941, 432, 84)">
<path style="fill:#000000;fill-opacity:1" d="M387 14.5q-79 0 -144.5 -24q-65.5 -24 -112.5 -73q-47 -49.5 -72 -122.5q-25 -73 -25 -168q0 -90 25.5 -161q25 -71.5 72 -122q45.5 -49 112 -75.5q66.5 -26.5 145.5 -26.5q37.5 0 72 5.5q34.5 5.5 66 15q25 7.5 56 21q30.5 13 49.5 22.5l0 119.5l-8.5 0q-18.5 -16.5 -38 -31q-20 -15 -56 -32q-30 -15 -69 -25q-39 -10 -84 -10q-107.5 0 -173.5 81q-66.5 81 -66.5 215.5q0 75 17.5 131q17.5 56 50.5 95q32 38.5 77.5 59q45 20 101.5 20q42 0 83.5 -6q41.5 -6 70 -18l0 -192.5l-172 0l0 -87l270 0l0 325q-19 8.5 -50.5 21.5q-32 13 -59.5 20.5q-36.5 11 -66 16.5q-29.5 5.5 -71.5 5.5" />
</g>
<g id="PathID_57" transform="matrix(0.0352941, 0, 0, 0.0352941, 0, 132)">
<path style="fill:#000000;fill-opacity:1" d="M616 0l-99 0l0 -364.5l-342.5 0l0 364.5l-99 0l0 -744.5l99 0l0 292l342.5 0l0 -292l99 0l0 744.5" />
</g>
<g id="PathID_58" transform="matrix(0.0352941, 0, 0, 0.0352941, 48, 132)">
<path style="fill:#000000;fill-opacity:1" d="M335.5 0l-289 0l0 -76l95 0l0 -592.5l-95 0l0 -76l289 0l0 76l-95 0l0 592.5l95 0l0 76" />
</g>
<g id="PathID_59" transform="matrix(0.0352941, 0, 0, 0.0352941, 96, 132)">
<path style="fill:#000000;fill-opacity:1" d="M618 0l-128.5 0l-271.5 -346.5l-43.5 49l0 297.5l-99 0l0 -744.5l99 0l0 342.5l305 -342.5l120.5 0l-308 332.5l326 412" />
</g>
<g id="PathID_60" transform="matrix(0.0352941, 0, 0, 0.0352941, 144, 132)">
<path style="fill:#000000;fill-opacity:1" d="M507 0l-431.5 0l0 -744.5l99 0l0 656.5l332.5 0l0 88" />
</g>
<g id="PathID_61" transform="matrix(0.0352941, 0, 0, 0.0352941, 192, 132)">
<path style="fill:#000000;fill-opacity:1" d="M713.5 0l-99 0l0 -641.5l-194 436.5l-60 0l-192.5 -436.5l0 641.5l-92.5 0l0 -744.5l135 0l186 414.5l179.5 -414.5l137.5 0l0 744.5" />
</g>
<g id="PathID_62" transform="matrix(0.0352941, 0, 0, 0.0352941, 240, 132)">
<path style="fill:#000000;fill-opacity:1" d="M283 13.5q-81 0 -137.5 -16.5q-57 -17 -107 -41.5l0 -124l7 0q49 46 111 71.5q62 25 119.5 25q82 0 124 -34q42 -34.5 42 -90.5q0 -44.5 -22 -72.5q-22 -28 -70 -41.5q-34.5 -10 -63 -16.5q-28.5 -6.5 -71.5 -17.5q-38.5 -10 -69 -25.5q-30.5 -15.5 -54 -40.5q-23 -24.5 -35.5 -57.5q-13 -33.5 -13 -77q0 -90.5 70.5 -151.5q70.5 -61.5 180 -61.5q62.5 0 118.5 12.5q55.5 12.5 103 35.5l0 118.5l-7.5 0q-35.5 -32.5 -91 -56.5q-55.5 -24.5 -116.5 -24.5q-69 0 -111.5 32.5q-42.5 32 -42.5 84.5q0 47.5 25 75.5q25 28 72.5 41q31.5 8.5 77 19.5q45.5 10.5 75.5 19.5q77 23.5 112.5 71q35.5 47.5 35.5 117q0 43.5 -17.5 86q-18 42.5 -50 72q-36 32.5 -81 50q-45.5 17.5 -113.5 17.5" />
</g>
<g id="PathID_63" transform="matrix(0.0352941, 0, 0, 0.0352941, 288, 132)">
<path style="fill:#000000;fill-opacity:1" d="M380 -137.5l0 -155q-33.5 3 -84.5 8.5q-51.5 5 -83 14.5q-37.5 11.5 -62 35.5q-24.5 23.5 -24.5 66q0 48 27 72.5q27 24.5 79 24.5q44.5 0 80.5 -19q36 -19.5 67.5 -47.5M380 -59.5q-11.5 8.5 -30.5 24q-19.5 15 -37.5 24q-25 13 -48 20q-23.5 7 -65.5 7q-34.5 0 -65.5 -13q-31 -13 -54.5 -36.5q-22.5 -23 -36 -56.5q-13.5 -34 -13.5 -71.5q0 -58 24.5 -98.5q24.5 -41 77.5 -65q47 -21.5 111 -29.5q64 -8.5 138 -12.5l0 -18q0 -33 -10 -53q-10 -20.5 -28 -31.5q-18 -11.5 -44 -15q-26 -4 -53.5 -4q-32.5 0 -76.5 10q-44 9.5 -88 28l-5.5 0l0 -95.5q26 -7.5 74.5 -16.5q48.5 -9 96 -9q57.5 0 97 9q39.5 9 71 32.5q30.5 23 45.5 59.5q15 36.5 15 89l0 382l-93.5 0l0 -59.5" />
</g>
<g id="PathID_64" transform="matrix(0.0352941, 0, 0, 0.0352941, 336, 132)">
<path style="fill:#000000;fill-opacity:1" d="M439.5 -281q0 -100 -30.5 -151.5q-30.5 -52 -98 -52q-38.5 0 -77.5 18q-39.5 18 -71.5 45.5l0 320q35.5 17.5 63 25q27.5 7 60.5 7q72 0 113 -51q41 -51 41 -161M536.5 -288.5q0 137 -66.5 220.5q-66.5 83.5 -166.5 83.5q-45.5 0 -77.5 -11q-32.5 -11.5 -64 -30.5l-6 26l-88 0l0 -778l94 0l0 278q35.5 -32 77 -53q41.5 -21 94 -21q94.5 0 149 76q54.5 75.5 54.5 209.5" />
</g>
<g id="PathID_65" transform="matrix(0.0352941, 0, 0, 0.0352941, 384, 132)">
<path style="fill:#000000;fill-opacity:1" d="M290 12.5q-57.5 0 -105.5 -17.5q-48 -18 -82.5 -54q-34.5 -36 -53.5 -90.5q-19 -55 -19 -129q0 -73.5 20 -127q19.5 -53.5 52.5 -90q33 -36.5 82.5 -56q49 -20 105.5 -20q46 0 89 13q42.5 13 76 30l0 105.5l-5.5 0q-10 -8.5 -25.5 -19.5q-16 -11 -38.5 -22.5q-19.5 -10 -46 -17.5q-26.5 -7.5 -51 -7.5q-73 0 -117 55.5q-44.5 55 -44.5 156q0 99 43 154.5q42.5 55 118.5 55q46 0 87.5 -19q41.5 -19 73.5 -49l5.5 0l0 105.5q-14 6.5 -35 16q-21 9 -38 13.5q-24 7 -43 11q-19 3.5 -49 3.5" />
</g>
<g id="PathID_66" transform="matrix(0.0352941, 0, 0, 0.0352941, 432, 132)">
<path style="fill:#000000;fill-opacity:1" d="M310.5 13q-133.5 0 -207 -75q-74 -75.5 -74 -214q0 -136.5 71.5 -217q71.5 -81 187 -81q52 0 92 15q40 15 70 47q30 32 46 78.5q16 46 16 113l0 51l-387 0q0 97.5 49 149q49 51.5 135.5 51.5q31 0 61 -7q29.5 -7 53.5 -18q25.5 -11.5 43 -22q17.5 -11 29 -20.5l5.5 0l0 102.5q-16.5 6.5 -41 16.5q-24.5 9.5 -44 15q-27.5 7.5 -49.5 11.5q-22.5 4 -56.5 4M420.5 -341.5q-1 -38 -9 -65.5q-8 -27.5 -23 -46.5q-16.5 -21 -42 -32q-26 -11 -64 -11q-37.5 0 -63.5 11.5q-26.5 11 -48 32.5q-21 22 -32 49q-11 26.5 -14 62l295.5 0" />
</g>
<g id="PathID_67" transform="matrix(0.0352941, 0, 0, 0.0352941, 0, 180)">
<path style="fill:#000000;fill-opacity:1" d="M507 0l-94 0l0 -318q0 -38.5 -3.5 -71.5q-4 -33.5 -14.5 -53.5q-11.5 -21 -32 -31q-20.5 -10.5 -56 -10.5q-35 0 -72 19q-37.5 18.5 -73 48.5l0 417l-94 0l0 -778l94 0l0 281.5q42 -37.5 83 -57.5q41 -20 86.5 -20q82.5 0 129 54.5q46.5 54 46.5 157l0 362.5" />
</g>
<g id="PathID_68" transform="matrix(0.0352941, 0, 0, 0.0352941, 48, 180)">
<path style="fill:#000000;fill-opacity:1" d="M164 0l-94 0l0 -558.5l94 0l0 558.5M170.5 -652l-107 0l0 -97.5l107 0l0 97.5" />
</g>
<g id="PathID_69" transform="matrix(0.0352941, 0, 0, 0.0352941, 96, 180)">
<path style="fill:#000000;fill-opacity:1" d="M531 0l-123.5 0l-208.5 -269.5l-37 36l0 233.5l-94 0l0 -778l94 0l0 455.5l221 -236l117 0l-229.5 233.5l260.5 325" />
</g>
<g id="PathID_70" transform="matrix(0.0352941, 0, 0, 0.0352941, 144, 180)">
<path style="fill:#000000;fill-opacity:1" d="M164 0l-94 0l0 -778l94 0l0 778" />
</g>
<g id="PathID_71" transform="matrix(0.0352941, 0, 0, 0.0352941, 192, 180)">
<path style="fill:#000000;fill-opacity:1" d="M702 0l0 -323q0 -38.5 -3 -71q-3 -33 -12.5 -51.5q-10 -20 -28.5 -29.5q-18.5 -9.5 -50 -9.5q-29 0 -62 18q-33.5 17.5 -69 51q0.5 8.5 1.5 20.5q0.5 11.5 0.5 27.5l0 367.5l-94 0l0 -323q0 -38.5 -3 -71q-3 -33 -12.5 -51.5q-10 -20 -28.5 -29.5q-18.5 -9.5 -50 -9.5q-30.5 0 -64 19q-33.5 19 -65 48.5l0 417l-94 0l0 -558.5l94 0l0 62q37 -37 73.5 -57q36 -20.5 79.5 -20.5q49.5 0 88 22.5q38 22.5 58 74q42.5 -47.5 83 -72q40.5 -24.5 88 -24.5q36 0 65.5 11.5q29.5 11 51.5 36q22.5 25.5 35 63.5q12 38 12 95.5l0 367.5l-94 0" />
</g>
<g id="PathID_72" transform="matrix(0.0352941, 0, 0, 0.0352941, 240, 180)">
<path style="fill:#000000;fill-opacity:1" d="M507 0l-94 0l0 -318q0 -38.5 -3.5 -71.5q-4 -33.5 -14.5 -53.5q-11.5 -21 -32 -31q-20.5 -10.5 -56 -10.5q-35 0 -72 19q-37.5 18.5 -73 48.5l0 417l-94 0l0 -558.5l94 0l0 62q42 -37.5 83 -57.5q41 -20 86.5 -20q82.5 0 129 54.5q46.5 54 46.5 157l0 362.5" />
</g>
<g id="PathID_73" transform="matrix(0.0352941, 0, 0, 0.0352941, 288, 180)">
<path style="fill:#000000;fill-opacity:1" d="M536.5 -294q0 139.5 -66.5 222.5q-67 82.5 -169 82.5q-41.5 0 -73.5 -9.5q-32 -9.5 -65.5 -29.5l0 234l-94 0l0 -764.5l94 0l0 58.5q35 -31.5 78 -52.5q42.5 -21.5 93 -21.5q96 0 150 76q53.5 76 53.5 204M439.5 -283.5q0 -95.5 -30.5 -148q-30.5 -53 -99 -53q-40 0 -77 18q-37.5 17.5 -71 45.5l0 316.5q37 18 63.5 24.5q26 6.5 60 6.5q73 0 113.5 -53.5q40.5 -53.5 40.5 -156.5" />
</g>
<g id="PathID_74" transform="matrix(0.0352941, 0, 0, 0.0352941, 336, 180)">
<path style="fill:#000000;fill-opacity:1" d="M364 -457.5l-5 0q-10.5 -3 -22 -3.5q-12 -1 -28.5 -1q-38 0 -75.5 16.5q-37.5 16.5 -71 49l0 396.5l-94 0l0 -558.5l94 0l0 83q51.5 -45.5 90 -64q38 -19 74 -19q14.5 0 22 1q7 0.5 16 2l0 98" />
</g>
<g id="PathID_75" transform="matrix(0.0352941, 0, 0, 0.0352941, 384, 180)">
<path style="fill:#000000;fill-opacity:1" d="M219 13.5q-56 0 -104.5 -15q-49 -15 -81 -32l0 -105.5l5 0q12 9.5 28.5 21q16 11.5 43 24q24 11 53 19.5q28.5 8.5 59.5 8.5q22.5 0 48 -5q25.5 -5.5 38 -13.5q17.5 -11.5 25.5 -24.5q7.5 -13 7.5 -39q0 -33.5 -18 -50.5q-18.5 -17 -65 -28.5q-18 -4.5 -47 -10.5q-29 -6 -53.5 -13q-64 -18.5 -93 -57q-29 -39 -29 -94q0 -75.5 57 -123q57 -47.5 151.5 -47.5q46.5 0 93.5 11.5q47 11.5 79 29l0 100.5l-5 0q-36 -28.5 -80 -45q-44.5 -16.5 -89.5 -16.5q-46.5 0 -78.5 19.5q-32 19.5 -32 59q0 35 19 52.5q19 17 61 28q21 5.5 47 11q25.5 5 54 12q62 15.5 93.5 51.5q31 36 31 98q0 36 -14 68.5q-14.5 32 -42 55q-30 25 -67.5 38q-38 13 -95 13" />
</g>
<g id="PathID_76" transform="matrix(0.0352941, 0, 0, 0.0352941, 432, 180)">
<path style="fill:#000000;fill-opacity:1" d="M237 11q-77 0 -120 -43.5q-43 -44 -43 -138.5l0 -309.5l-63.5 0l0 -78l63.5 0l0 -160.5l94 0l0 160.5l173 0l0 78l-173 0l0 265.5q0 42.5 1.5 65.5q1.5 23 11.5 43q8.5 17.5 27.5 26.5q19 8.5 51.5 8.5q23 0 44.5 -6.5q21.5 -7 31 -11.5l5.5 0l0 84.5q-26.5 7.5 -53.5 12q-27.5 4 -50.5 4" />
</g>
<g id="PathID_77" transform="matrix(0.0352941, 0, 0, 0.0352941, 0, 228)">
<path style="fill:#000000;fill-opacity:1" d="M503 0l-94 0l0 -62q-43.5 38 -82.5 58q-39 19.5 -87 19.5q-36.5 0 -68.5 -12q-32.5 -12 -56.5 -38q-24 -26 -37 -65.5q-13.5 -39.5 -13.5 -96l0 -362.5l94 0l0 318q0 44.5 3.5 74q3 29 14.5 51q11.5 21.5 31.5 31.5q19.5 10 56.5 10q34.5 0 73.5 -19.5q39 -19.5 71.5 -48l0 -417l94 0l0 558.5" />
</g>
<g id="PathID_78" transform="matrix(0.0352941, 0, 0, 0.0352941, 48, 228)">
<path style="fill:#000000;fill-opacity:1" d="M507 -558.5l-300.5 764.5l-100.5 0l100 -233l-203 -531.5l101.5 0l152.5 413.5l152 -413.5l98 0" />
</g>
<g id="PathID_79" transform="matrix(0.0352941, 0, 0, 0.0352941, 96, 228)">
<path style="fill:#000000;fill-opacity:1" d="" />
</g>
<g id="PathID_80" transform="matrix(0.0352941, 0, 0, 0.0352941, 144, 228)">
<path style="fill:#000000;fill-opacity:1" d="M-5 0l251 -744.5l122 0l251 744.5l-104.5 0l-67.5 -208l-284.5 0l-67.5 208l-100 0M419.5 -292.5l-115 -351l-114.5 351l229.5 0" />
</g>
<g id="PathID_81" transform="matrix(0.0352941, 0, 0, 0.0352941, 192, 228)">
<path style="fill:#000000;fill-opacity:1" d="M582.5 -230.5q0 54 -21 98q-21 44 -56.5 71.5q-42 33 -90 47q-48 14 -124 14l-215.5 0l0 -744.5l453.5 0l0 88l-354.5 0l0 204l119.5 0q76 0 124 9q48 8.5 90.5 41.5q38 29.5 56 73q18 43.5 18 98.5M479 -228.5q0 -37.5 -12 -66q-12.5 -28.5 -39 -46q-27.5 -18.5 -63.5 -22.5q-36 -4 -101.5 -4l-88.5 0l0 282.5l86 0q66.5 0 102.5 -6.5q35.5 -6.5 62.5 -25q28 -19.5 41 -45.5q12.5 -26.5 12.5 -67" />
</g>
<g id="PathID_82" transform="matrix(0.0352941, 0, 0, 0.0352941, 240, 228)">
<path style="fill:#000000;fill-opacity:1" d="M580.5 -228.5q0 55.5 -21 98q-21 42.5 -56.5 70q-42 33 -90 47q-48 13.5 -124 13.5l-213.5 0l0 -744.5l197.5 0q79.5 0 119.5 5.5q39.5 5 76 24.5q40 21.5 58.5 56.5q18.5 34.5 18.5 81.5q0 52.5 -27.5 94q-28 41.5 -77 65l0 4q66.5 18 103 66q36.5 47.5 36.5 119M442.5 -562.5q0 -27 -9 -46.5q-9 -20 -29 -31.5q-24 -13.5 -53.5 -16.5q-29.5 -3 -81.5 -3l-95 0l0 218l112.5 0q46.5 0 68.5 -4.5q22 -5 45.5 -20q22.5 -14.5 32 -38q9.5 -23.5 9.5 -58M477.5 -224.5q0 -42 -12 -69q-12 -27.5 -48.5 -46.5q-23.5 -12.5 -51 -16q-28 -3.5 -79 -3.5l-112.5 0l0 275l80.5 0q65 0 102.5 -6q37.5 -6 66 -25.5q28 -19.5 41 -44q13 -25 13 -64.5" />
</g>
<g id="PathID_83" transform="matrix(0.0352941, 0, 0, 0.0352941, 288, 228)">
<path style="fill:#000000;fill-opacity:1" d="M680 168.5l-94 0l0 -170.5l-483 0l0 170.5l-94 0l0 -256.5l40.5 0q65 -106.5 105 -279q39.5 -173 39.5 -377.5l415.5 0l0 656.5l70.5 0l0 256.5M510.5 -88l0 -570.5l-223.5 0q-7 180.5 -45 327.5q-38 147 -97 243l365.5 0" />
</g>
<g id="PathID_84" transform="matrix(0.0352941, 0, 0, 0.0352941, 336, 228)">
<path style="fill:#000000;fill-opacity:1" d="M922 0l-122 0l-248 -342.5l-48 0l0 342.5l-98 0l0 -342.5l-49 0l-248 342.5l-116 0l281 -384q-32.5 -21 -56.5 -53q-24.5 -32 -47.5 -105.5q-20 -64.5 -42.5 -89q-23 -24.5 -87 -24.5l-20 0l0 -88.5l25.5 0q83.5 0 129.5 32q45.5 32 76 118q7.5 22 15 43q7.5 21 13 34q22 53.5 53 79.5q30.5 25.5 73.5 29.5l0 -336l98 0l0 337q46 -4.5 77.5 -29q31 -25 54 -81q9 -22.5 16.5 -42.5q7 -20.5 11.5 -34.5q30 -85.5 76.5 -117.5q46.5 -32.5 129 -32.5l25.5 0l0 88.5l-20 0q-64 0 -87 25q-23.5 24.5 -43.5 88.5q-21 66.5 -48 99.5q-27 33 -58.5 53l284.5 390" />
</g>
<g id="PathID_85" transform="matrix(0.0352941, 0, 0, 0.0352941, 384, 228)">
<path style="fill:#000000;fill-opacity:1" d="M460.5 -359q25 21.5 41.5 54q16 32 16 83q0 50 -20 93q-20 42.5 -55 74.5q-36 33 -89 50.5q-53 17.5 -118 17.5q-69.5 0 -127.5 -13.5q-58 -14 -93 -29l0 -111l7 0q40 26.5 97.5 47q57 20 114.5 20q36.5 0 73 -9.5q36 -10 60.5 -32q24.5 -22 36 -47.5q11.5 -26 11.5 -65q0 -38 -13.5 -64q-14 -26 -39 -42q-24.5 -16 -58.5 -22.5q-34.5 -7 -73.5 -7l-78 0l0 -83l68 0q79 0 127 -31.5q48 -31.5 48 -92q0 -27.5 -11.5 -47q-12 -20 -33.5 -32.5q-23.5 -13.5 -49 -18q-26 -5 -56.5 -5q-32 0 -63 7.5q-31 7 -58.5 17.5q-26 10.5 -45.5 22q-19.5 11.5 -32 19l-6.5 0l0 -109.5q34 -16 92.5 -29.5q58.5 -13.5 115.5 -13.5q57.5 0 99 10q41.5 9.5 76 31.5q37.5 24.5 56.5 58q18.5 33 18.5 79q0 60.5 -40 105.5q-40.5 45 -105.5 59l0 7.5q25 4.5 54.5 16q29 11.5 53.5 32.5" />
</g>
<g id="PathID_86" transform="matrix(0.0352941, 0, 0, 0.0352941, 432, 228)">
<path style="fill:#000000;fill-opacity:1" d="M626 0l-126 0l-263 -341l-62.5 0l0 341l-99 0l0 -744.5l99 0l0 335.5q58.5 -2 93 -29.5q34 -27.5 55.5 -79q9 -22.5 16.5 -42.5q7 -20.5 11.5 -34.5q30 -85.5 76.5 -117.5q46.5 -32.5 129 -32.5l30.5 0l0 88.5l-25 0q-61 0 -85.5 24q-24.5 23.5 -45 89.5q-20.5 66 -46 97q-25.5 30.5 -61.5 54l302 391.5" />
</g>
<g id="PathID_87" transform="matrix(0.0352941, 0, 0, 0.0352941, 0, 276)">
<path style="fill:#000000;fill-opacity:1" d="M618.5 0l-99 0l0 -656.5l-251 0q-1.5 56.5 -4 110.5q-2.5 53.5 -4 96q-4 105.5 -12.5 174.5q-9 69 -23 115.5q-13.5 45.5 -31.5 73.5q-18.5 28 -40 47q-22.5 20.5 -48 31q-26 10 -60 10q-10.5 0 -21 -0.5q-11 -1 -17 -1l0 -96l7 0q5 0.5 8.5 1q3.5 0.5 10.5 0.5q18 0 33.5 -5.5q15.5 -5.5 26.5 -17q34 -33.5 50 -119q15.5 -86 22 -231q2.5 -49 5 -129.5q2.5 -80.5 4.5 -148l443.5 0l0 744.5" />
</g>
<g id="PathID_88" transform="matrix(0.0352941, 0, 0, 0.0352941, 48, 276)">
<path style="fill:#000000;fill-opacity:1" d="M713.5 0l-99 0l0 -641.5l-194 436.5l-60 0l-192.5 -436.5l0 641.5l-92.5 0l0 -744.5l135 0l186 414.5l179.5 -414.5l137.5 0l0 744.5" />
</g>
<g id="PathID_89" transform="matrix(0.0352941, 0, 0, 0.0352941, 96, 276)">
<path style="fill:#000000;fill-opacity:1" d="M616 0l-99 0l0 -364.5l-342.5 0l0 364.5l-99 0l0 -744.5l99 0l0 292l342.5 0l0 -292l99 0l0 744.5" />
</g>
<g id="PathID_90" transform="matrix(0.0352941, 0, 0, 0.0352941, 144, 276)">
<path style="fill:#000000;fill-opacity:1" d="M602 -659q42.5 49 66 121.5q23.5 72.5 23.5 165.5q0 90.5 -23 163.5q-23 73 -66.5 122.5q-45.5 52 -106 77q-61 24.5 -134 24.5q-75.5 0 -136 -25.5q-60.5 -25.5 -104 -76q-43 -49.5 -66 -122q-23 -72.5 -23 -164q0 -94 23.5 -165q23 -71 66 -122q43 -49.5 104 -75q60.5 -26 135.5 -26q76 0 137 26.5q61 26.5 103 74.5M588.5 -372q0 -74 -16 -131q-16 -57 -45 -94.5q-29.5 -38.5 -71 -57.5q-42 -19.5 -94 -19.5q-54 0 -94 19q-40.5 18.5 -71.5 58q-29.5 38 -45 95.5q-16 57.5 -16 130q0 146.5 61.5 224.5q61.5 77.5 165 77.5q103.5 0 165 -77.5q61 -78 61 -224.5" />
</g>
<g id="PathID_91" transform="matrix(0.0352941, 0, 0, 0.0352941, 192, 276)">
<path style="fill:#000000;fill-opacity:1" d="M616 0l-99 0l0 -656.5l-342.5 0l0 656.5l-99 0l0 -744.5l540.5 0l0 744.5" />
</g>
<g id="PathID_92" transform="matrix(0.0352941, 0, 0, 0.0352941, 240, 276)">
<path style="fill:#000000;fill-opacity:1" d="M545.5 -520q0 48.5 -17 92q-17.5 43 -48 73.5q-38.5 38 -90.5 57.5q-52 19.5 -131.5 19.5l-84 0l0 277.5l-99 0l0 -744.5l187 0q66 0 112.5 11q46.5 11 82 35.5q41.5 28.5 65 72.5q23.5 43.5 23.5 105.5M442.5 -517.5q0 -38.5 -13 -67q-13.5 -28.5 -40.5 -46.5q-23.5 -15.5 -54.5 -22q-31.5 -6.5 -78 -6.5l-82 0l0 297.5l67.5 0q60 0 97 -9.5q37 -10 61.5 -35q22 -22.5 32 -49q10 -26.5 10 -62" />
</g>
<g id="PathID_93" transform="matrix(0.0352941, 0, 0, 0.0352941, 288, 276)">
<path style="fill:#000000;fill-opacity:1" d="M366.5 13.5q-73 0 -134 -24.5q-61.5 -24.5 -106 -73q-44.5 -48.5 -69 -121q-24.5 -72.5 -24.5 -166.5q0 -93.5 24 -163q23.5 -69.5 69 -121q44.5 -50 105.5 -76q61 -26.5 136.5 -26.5q37.5 0 70.5 5.5q32.5 5.5 60.5 14q24 7.5 49.5 19q25 11 49.5 24.5l0 119.5l-8 0q-13 -12 -33.5 -29q-20.5 -17 -50 -33.5q-28.5 -15.5 -62 -25.5q-33.5 -10 -77.5 -10q-47.5 0 -90 19.5q-42.5 19.5 -74.5 57.5q-31.5 38 -49 95.5q-17.5 57.5 -17.5 129.5q0 76.5 18.5 132q18.5 55 50.5 93q31 37 73 56q42 18.5 89 18.5q43 0 79.5 -10.5q36.5 -10.5 65 -26.5q27.5 -15.5 47.5 -31.5q20 -16.5 31.5 -28l7.5 0l0 118q-24.5 11.5 -46 22q-22 10.5 -53 20.5q-32.5 10.5 -60 16q-28 5.5 -72.5 5.5" />
</g>
<g id="PathID_94" transform="matrix(0.0352941, 0, 0, 0.0352941, 336, 276)">
<path style="fill:#000000;fill-opacity:1" d="M249.5 0l0 -656.5l-250 0l0 -88l599 0l0 88l-250 0l0 656.5l-99 0" />
</g>
<g id="PathID_95" transform="matrix(0.0352941, 0, 0, 0.0352941, 384, 276)">
<path style="fill:#000000;fill-opacity:1" d="M595.5 -744.5l-270 627q-17 39.5 -38 63.5q-21.5 24 -44.5 36q-23 12.5 -45 16.5q-22.5 4 -45 4q-20 0 -47 -1q-27 -1 -34.5 -1.5l0 -92.5l7 0q7.5 1 23 2.5q15 1 38.5 1q11 0 26 -1q15 -1.5 27.5 -7.5q14.5 -7 27.5 -18.5q12.5 -12 23 -37.5l17 -39.5l-261.5 -551.5l109.5 0l202 438l182.5 -438l102 0" />
</g>
<g id="PathID_96" transform="matrix(0.0352941, 0, 0, 0.0352941, 432, 276)">
<path style="fill:#000000;fill-opacity:1" d="M733.5 -380q0 69.5 -21 123q-21 53 -58.5 89.5q-40.5 40 -99.5 62q-59 21.5 -122 23l0 90.5l-98.5 0l0 -90.5q-62.5 -2 -121.5 -22.5q-59 -20.5 -100.5 -61.5q-37.5 -36.5 -58 -90.5q-21 -54 -21 -123q0 -65 20 -116.5q20 -52 56 -89.5q38.5 -40 96.5 -63q58 -23 128.5 -25l0 -82.5l98.5 0l0 82.5q70.5 1.5 129 25q58.5 23 97 62.5q36 37 55.5 88.5q19.5 51.5 19.5 118M630.5 -384q0 -49.5 -14 -90q-14 -41 -41.5 -69.5q-26 -27 -60.5 -40q-34.5 -13 -82 -14l0 440q45 -1 80.5 -14.5q35 -14 58 -37q30.5 -30 45 -73q14.5 -43 14.5 -102M334 -157.5l0 -440q-47.5 0.5 -82 14q-34.5 13.5 -60.5 40q-27.5 28 -41.5 69.5q-14 41.5 -14 90q0 59 14.5 102.5q14.5 43 45 72.5q23 22 58.5 36.5q35 14.5 80 15" />
</g>
<g id="PathID_97" transform="matrix(0.0352941, 0, 0, 0.0352941, 0, 324)">
<path style="fill:#000000;fill-opacity:1" d="M590.5 0l-113.5 0l-181.5 -298l-184.5 298l-107 0l236.5 -372.5l-229.5 -372l113 0l178 292.5l180.5 -292.5l107.5 0l-233 367l233.5 377.5" />
</g>
<g id="PathID_98" transform="matrix(0.0352941, 0, 0, 0.0352941, 48, 324)">
<path style="fill:#000000;fill-opacity:1" d="M681.5 168.5l-94 0l0 -168.5l-512 0l0 -744.5l99 0l0 657.5l337.5 0l0 -657.5l99 0l0 657.5l70.5 0l0 255.5" />
</g>
<g id="PathID_99" transform="matrix(0.0352941, 0, 0, 0.0352941, 96, 324)">
<path style="fill:#000000;fill-opacity:1" d="M575.5 0l-99 0l0 -315q-61 20 -108.5 30q-47.5 10 -99.5 10q-48 0 -88 -11.5q-40 -12 -70.5 -38q-30 -26 -46.5 -67q-17 -41 -17 -97l0 -256l99 0l0 206.5q0 47 3.5 74.5q3.5 27 20 52q14.5 22 43 34q28.5 11.5 76 11.5q42.5 0 96 -9.5q53.5 -10 92.5 -24.5l0 -344.5l99 0l0 744.5" />
</g>
<g id="PathID_100" transform="matrix(0.0352941, 0, 0, 0.0352941, 144, 324)">
<path style="fill:#000000;fill-opacity:1" d="M941 -372q0 184 -89 286q-89 101.5 -237 101.5q-148 0 -234 -99q-86.5 -99 -89.5 -276.5l-117 0l0 360l-99 0l0 -744.5l99 0l0 298l122 0q18 -150 102 -231.5q84 -82 216.5 -82q148 0 237 101.5q89 101 89 286.5M838 -372q0 -148 -60 -225q-60.5 -77.5 -162.5 -77.5q-103.5 0 -163.5 77.5q-60.5 77 -60.5 225q0 146.5 60.5 224.5q60.5 77.5 163.5 77.5q102 0 162.5 -77.5q60 -77.5 60 -224.5" />
</g>
<g id="PathID_101" transform="matrix(0.0352941, 0, 0, 0.0352941, 192, 324)">
<path style="fill:#000000;fill-opacity:1" d="M550.5 0l-99 0l0 -296l-112.5 0l-222.5 296l-119 0l239 -311q-75 -25.5 -116 -78.5q-41.5 -53.5 -41.5 -143q0 -57 24 -98q23.5 -41.5 62.5 -69q35.5 -25 83 -35q47.5 -10 105 -10l197 0l0 744.5M451.5 -378.5l0 -281l-103 0q-43 0 -69 5.5q-26 5.5 -47.5 20q-23 15.5 -36 43.5q-13 28 -13 61.5q0 40 9.5 66.5q9 26.5 29.5 47q22.5 22 55 29.5q32.5 7.5 75.5 7.5l99 0" />
</g>
<g id="PathID_102" transform="matrix(0.0352941, 0, 0, 0.0352941, 240, 324)">
<path style="fill:#000000;fill-opacity:1" d="M380 -137.5l0 -155q-33.5 3 -84.5 8.5q-51.5 5 -83 14.5q-37.5 11.5 -62 35.5q-24.5 23.5 -24.5 66q0 48 27 72.5q27 24.5 79 24.5q44.5 0 80.5 -19q36 -19.5 67.5 -47.5M380 -59.5q-11.5 8.5 -30.5 24q-19.5 15 -37.5 24q-25 13 -48 20q-23.5 7 -65.5 7q-34.5 0 -65.5 -13q-31 -13 -54.5 -36.5q-22.5 -23 -36 -56.5q-13.5 -34 -13.5 -71.5q0 -58 24.5 -98.5q24.5 -41 77.5 -65q47 -21.5 111 -29.5q64 -8.5 138 -12.5l0 -18q0 -33 -10 -53q-10 -20.5 -28 -31.5q-18 -11.5 -44 -15q-26 -4 -53.5 -4q-32.5 0 -76.5 10q-44 9.5 -88 28l-5.5 0l0 -95.5q26 -7.5 74.5 -16.5q48.5 -9 96 -9q57.5 0 97 9q39.5 9 71 32.5q30.5 23 45.5 59.5q15 36.5 15 89l0 382l-93.5 0l0 -59.5" />
</g>
<g id="PathID_103" transform="matrix(0.0352941, 0, 0, 0.0352941, 288, 324)">
<path style="fill:#000000;fill-opacity:1" d="M464 -476q32.5 33 50.5 84q18 50.5 18 117.5q0 64.5 -20.5 119.5q-20.5 54.5 -55.5 92q-36 39 -79.5 59q-44 19.5 -95.5 19.5q-52.5 0 -96 -18q-44 -18.5 -75 -56.5q-38.5 -47.5 -57.5 -119q-19.5 -71.5 -19.5 -177q0 -37.5 3.5 -76q3 -39 14 -93q10 -48 27 -89q17 -41.5 44.5 -70q35.5 -37 93 -59q57 -22 151.5 -30.5q33.5 -3 72 -5.5q38 -3 58 -4.5l0 86.5q-26 1.5 -55.5 4q-29.5 2 -67.5 5q-50.5 4 -105.5 18q-55 13.5 -83 42.5q-21 21.5 -33.5 61.5q-12.5 40 -17.5 89q37 -26.5 79.5 -44.5q42 -18.5 91 -18.5q45.5 0 86.5 15.5q41 15 72.5 47.5M437 -269q0 -89 -40 -136.5q-40 -47.5 -114 -47.5q-40.5 0 -78.5 13.5q-38 13.5 -71.5 36q-1 12.5 -2 30q-1 17 -1 31q0 87 14 141.5q14 54.5 39 85.5q22.5 28 47.5 39q25 10.5 54.5 10.5q72 0 112 -54.5q40 -54.5 40 -148.5" />
</g>
<g id="PathID_104" transform="matrix(0.0352941, 0, 0, 0.0352941, 336, 324)">
<path style="fill:#000000;fill-opacity:1" d="M506 -169q0 40.5 -15.5 72q-15.5 31 -42.5 52q-34 26.5 -71 36q-37.5 9 -89.5 9l-219.5 0l0 -558.5l205 0q61.5 0 90 4q28.5 3.5 56.5 19q29.5 16 43.5 42.5q14 26.5 14 63q0 40 -22 72q-22 31.5 -58.5 49l2.5 3.5q45.5 11.5 76.5 46.5q30.5 35 30.5 90M380.5 -415.5q0 -19 -6 -33q-6.5 -14 -22 -22q-18 -9.5 -40 -11q-22.5 -2 -62 -2l-89.5 0l0 153l108 0q34.5 0 49 -3q14.5 -3.5 32 -14q16.5 -10 23.5 -27q7 -17 7 -41M409 -168.5q0 -28.5 -8 -45.5q-8.5 -17.5 -36.5 -31q-17.5 -8.5 -37.5 -10.5q-20 -2 -55.5 -2l-110.5 0l0 182.5l81.5 0q50.5 0 78.5 -4q28 -4 48 -16q21 -13 30.5 -30q9.5 -17 9.5 -43.5" />
</g>
<g id="PathID_105" transform="matrix(0.0352941, 0, 0, 0.0352941, 384, 324)">
<path style="fill:#000000;fill-opacity:1" d="M423 -476l-261 0l0 476l-94 0l0 -558.5l355 0l0 82.5" />
</g>
<g id="PathID_106" transform="matrix(0.0352941, 0, 0, 0.0352941, 432, 324)">
<path style="fill:#000000;fill-opacity:1" d="M547 134l-87.5 0l0 -135.5l-368 0l0 135.5l-87.5 0l0 -214l37 0q47.5 -78 78 -203.5q30 -126 30 -275l342.5 0l0 478.5l55.5 0l0 214M397.5 -80l0 -399.5l-160 0q-6.5 125 -34 228.5q-28 103 -70 171l264 0" />
</g>
<g id="PathID_107" transform="matrix(0.0352941, 0, 0, 0.0352941, 0, 372)">
<path style="fill:#000000;fill-opacity:1" d="M310.5 13q-133.5 0 -207 -75q-74 -75.5 -74 -214q0 -136.5 71.5 -217q71.5 -81 187 -81q52 0 92 15q40 15 70 47q30 32 46 78.5q16 46 16 113l0 51l-387 0q0 97.5 49 149q49 51.5 135.5 51.5q31 0 61 -7q29.5 -7 53.5 -18q25.5 -11.5 43 -22q17.5 -11 29 -20.5l5.5 0l0 102.5q-16.5 6.5 -41 16.5q-24.5 9.5 -44 15q-27.5 7.5 -49.5 11.5q-22.5 4 -56.5 4M420.5 -341.5q-1 -38 -9 -65.5q-8 -27.5 -23 -46.5q-16.5 -21 -42 -32q-26 -11 -64 -11q-37.5 0 -63.5 11.5q-26.5 11 -48 32.5q-21 22 -32 49q-11 26.5 -14 62l295.5 0" />
</g>
<g id="PathID_108" transform="matrix(0.0352941, 0, 0, 0.0352941, 48, 372)">
<path style="fill:#000000;fill-opacity:1" d="M746 0l-113.5 0l-175.5 -257l-36.5 0l0 257l-93 0l0 -257l-36.5 0l-178.5 257l-108.5 0l210.5 -292.5q-24.5 -13 -43.5 -37.5q-19 -25 -34 -72q-13.5 -42.5 -32 -59q-18.5 -16.5 -60.5 -16.5l-21.5 0l0 -81l25.5 0q61.5 0 101.5 25q39.5 25 62 87.5q4.5 13 11.5 30q6.5 16.5 11.5 28q16.5 38 38.5 55q22 17 54 19l0 -244.5l93 0l0 244.5q32 -2.5 55 -19.5q22.5 -17 38.5 -54.5q5.5 -12.5 12.5 -29q6.5 -16.5 10.5 -29q22 -61.5 61 -87q39 -25.5 101.5 -25.5l25.5 0l0 81l-21.5 0q-39.5 0 -59 16.5q-20 16 -33.5 59q-14 43.5 -33 68.5q-19 25 -42 38l210 295.5" />
</g>
<g id="PathID_109" transform="matrix(0.0352941, 0, 0, 0.0352941, 96, 372)">
<path style="fill:#000000;fill-opacity:1" d="M438 -154.5q0 47 -20.5 79.5q-20.5 32.5 -52.5 51.5q-30.5 18.5 -69.5 27.5q-39 9 -78 9q-55 0 -104 -10.5q-49 -11 -97.5 -34.5l0 -104l6 0q34 31.5 85.5 50q51 18 102 18q22 0 47.5 -4.5q25 -5 42.5 -15q23 -14 33 -30q9.5 -16 9.5 -44q0 -30 -11 -48q-11.5 -18.5 -31 -27.5q-19.5 -9 -43.5 -11q-24.5 -2.5 -51.5 -2.5l-66 0l0 -81l50.5 0q19 0 47.5 -1q28.5 -1.5 45.5 -8q21.5 -8 34.5 -22.5q13 -15 13 -50q0 -24.5 -11 -39.5q-11 -15 -27.5 -23.5q-17 -9 -37 -12q-20 -3.5 -38.5 -3.5q-47.5 0 -91 13.5q-44 13 -75.5 39l-6 0l0 -101.5q36 -12.5 80 -22q43.5 -9.5 87.5 -9.5q35.5 0 72.5 7.5q36.5 7 69.5 24.5q31 17 52 47q21 29.5 21 72.5q0 45.5 -25.5 80q-26 34 -68.5 45l0 3.5q46.5 16 76.5 49q29.5 33 29.5 88.5" />
</g>
<g id="PathID_110" transform="matrix(0.0352941, 0, 0, 0.0352941, 144, 372)">
<path style="fill:#000000;fill-opacity:1" d="M509 0l-93 0l0 -416.5l-263 416.5l-85 0l0 -558.5l93 0l0 410l260 -410l88 0l0 558.5" />
</g>
<g id="PathID_111" transform="matrix(0.0352941, 0, 0, 0.0352941, 192, 372)">
<path style="fill:#000000;fill-opacity:1" d="M509 0l-93 0l0 -416.5l-263 416.5l-85 0l0 -558.5l93 0l0 410l260 -410l88 0l0 558.5M467 -818q0 43 -10.5 78.5q-10.5 35 -30 59q-22.5 26.5 -51 40q-28.5 13 -73 13q-41 0 -71.5 -13.5q-31 -14 -52 -39.5q-20.5 -25 -31 -60q-10.5 -35 -10.5 -77.5l81 0q0 67.5 21 97.5q21 29.5 63 29.5q39.5 0 61.5 -29q22 -29.5 22 -98l81 0" />
</g>
<g id="PathID_112" transform="matrix(0.0352941, 0, 0, 0.0352941, 240, 372)">
<path style="fill:#000000;fill-opacity:1" d="M517.5 0l-117 0l-191.5 -257.5l-47 0l0 257.5l-94 0l0 -558.5l94 0l0 243q36.5 -0.5 62.5 -15q25.5 -15 43.5 -57.5q5.5 -12.5 12.5 -29q6.5 -16.5 10.5 -29q22 -61.5 61 -87q39 -25.5 101.5 -25.5l25.5 0l0 81l-21.5 0q-39.5 0 -59 16.5q-20 16 -33.5 59q-14 43.5 -33 68q-19 24 -42 37l227.5 297" />
</g>
<g id="PathID_113" transform="matrix(0.0352941, 0, 0, 0.0352941, 288, 372)">
<path style="fill:#000000;fill-opacity:1" d="M500.5 0l-94 0l0 -479.5l-192 0q-1.5 41.5 -3 80q-1.5 38 -3 69q-3 78.5 -10 131.5q-7.5 53 -18.5 85q-11 33 -24 51.5q-13.5 18.5 -30 33.5q-17 15 -36.5 22.5q-19.5 7.5 -44 7.5q-8 0 -20.5 -0.5q-12.5 -0.5 -17.5 -0.5l0 -82l5 0q3.5 0 7.5 0.5q3.5 0.5 8.5 0.5q12 0 23.5 -3.5q11.5 -3.5 20.5 -13q25 -24.5 36.5 -85.5q11.5 -61.5 16.5 -171.5q2 -41 4 -97q1.5 -56 3 -107l368 0l0 558.5" />
</g>
<g id="PathID_114" transform="matrix(0.0352941, 0, 0, 0.0352941, 336, 372)">
<path style="fill:#000000;fill-opacity:1" d="M586 0l-93 0l0 -439l-134 285l-70 0l-133 -285l0 439l-88 0l0 -558.5l113.5 0l147 310l142 -310l115.5 0l0 558.5" />
</g>
<g id="PathID_115" transform="matrix(0.0352941, 0, 0, 0.0352941, 384, 372)">
<path style="fill:#000000;fill-opacity:1" d="M509 0l-94 0l0 -251.5l-253 0l0 251.5l-94 0l0 -558.5l94 0l0 226l253 0l0 -226l94 0l0 558.5" />
</g>
<g id="PathID_116" transform="matrix(0.0352941, 0, 0, 0.0352941, 432, 372)">
<path style="fill:#000000;fill-opacity:1" d="M527.5 -279q0 141 -68 218q-68 76.5 -181 76.5q-116.5 0 -183 -79q-67 -79.5 -67 -215.5q0 -140 69 -217.5q68.5 -77.5 181 -77.5q113 0 181 77.5q68 77 68 217.5M430.5 -279q0 -108.5 -39.5 -161q-39.5 -53 -112.5 -53q-73.5 0 -113 53q-40 52.5 -40 161q0 105 40 159.5q39.5 54 113 54q72.5 0 112.5 -53q39.5 -53.5 39.5 -160.5" />
</g>
<g id="PathID_117" transform="matrix(0.0352941, 0, 0, 0.0352941, 0, 420)">
<path style="fill:#000000;fill-opacity:1" d="M509 0l-94 0l0 -477.5l-253 0l0 477.5l-94 0l0 -558.5l441 0l0 558.5" />
</g>
<g id="PathID_118" transform="matrix(0.0352941, 0, 0, 0.0352941, 48, 420)">
<path style="fill:#000000;fill-opacity:1" d="M536.5 -294q0 139.5 -66.5 222.5q-67 82.5 -169 82.5q-41.5 0 -73.5 -9.5q-32 -9.5 -65.5 -29.5l0 234l-94 0l0 -764.5l94 0l0 58.5q35 -31.5 78 -52.5q42.5 -21.5 93 -21.5q96 0 150 76q53.5 76 53.5 204M439.5 -283.5q0 -95.5 -30.5 -148q-30.5 -53 -99 -53q-40 0 -77 18q-37.5 17.5 -71 45.5l0 316.5q37 18 63.5 24.5q26 6.5 60 6.5q73 0 113.5 -53.5q40.5 -53.5 40.5 -156.5" />
</g>
<g id="PathID_119" transform="matrix(0.0352941, 0, 0, 0.0352941, 96, 420)">
<path style="fill:#000000;fill-opacity:1" d="M290 12.5q-57.5 0 -105.5 -17.5q-48 -18 -82.5 -54q-34.5 -36 -53.5 -90.5q-19 -55 -19 -129q0 -73.5 20 -127q19.5 -53.5 52.5 -90q33 -36.5 82.5 -56q49 -20 105.5 -20q46 0 89 13q42.5 13 76 30l0 105.5l-5.5 0q-10 -8.5 -25.5 -19.5q-16 -11 -38.5 -22.5q-19.5 -10 -46 -17.5q-26.5 -7.5 -51 -7.5q-73 0 -117 55.5q-44.5 55 -44.5 156q0 99 43 154.5q42.5 55 118.5 55q46 0 87.5 -19q41.5 -19 73.5 -49l5.5 0l0 105.5q-14 6.5 -35 16q-21 9 -38 13.5q-24 7 -43 11q-19 3.5 -49 3.5" />
</g>
<g id="PathID_120" transform="matrix(0.0352941, 0, 0, 0.0352941, 144, 420)">
<path style="fill:#000000;fill-opacity:1" d="M476 -476l-190 0l0 476l-94 0l0 -476l-190 0l0 -82.5l474 0l0 82.5" />
</g>
<g id="PathID_121" transform="matrix(0.0352941, 0, 0, 0.0352941, 192, 420)">
<path style="fill:#000000;fill-opacity:1" d="M507 -558.5l-300.5 764.5l-100.5 0l100 -233l-203 -531.5l101.5 0l152.5 413.5l152 -413.5l98 0" />
</g>
<g id="PathID_122" transform="matrix(0.0352941, 0, 0, 0.0352941, 240, 420)">
<path style="fill:#000000;fill-opacity:1" d="M747 -294q0 74.5 -18 132q-18.5 57 -48.5 94q-30.5 37.5 -69 57q-38.5 19 -80.5 19q-31.5 0 -55 -12q-24 -12 -40.5 -20.5l0 230.5l-93 0l0 -230.5q-29.5 15.5 -47 24q-17.5 8.5 -57.5 8.5q-94 0 -150.5 -76q-56.5 -76.5 -56.5 -209.5q0 -70 18 -125q18 -55 49.5 -93.5q29 -35.5 67.5 -55q38 -20 79.5 -20q29.5 0 53.5 10.5q23.5 10 43.5 23l0 -240.5l93 0l0 240.5q22 -13.5 50.5 -23.5q28.5 -10 58.5 -10q94 0 148.5 75.5q54 75 54 201.5M650.5 -283.5q0 -95.5 -32 -151q-32.5 -55.5 -95.5 -55.5q-26 0 -45.5 7q-20 6.5 -42 14.5l0 372.5q22 10.5 36 17q13.5 6.5 40 6.5q65 0 102 -53.5q37 -53.5 37 -157.5M342.5 -96l0 -372.5q-18 -8.5 -36 -15q-18 -6.5 -40 -6.5q-64 0 -101.5 50.5q-37.5 50.5 -37.5 157.5q0 97.5 34 153.5q33.5 56 96.5 56q25 0 45 -7.5q20 -7.5 39.5 -16" />
</g>
<g id="PathID_123" transform="matrix(0.0352941, 0, 0, 0.0352941, 288, 420)">
<path style="fill:#000000;fill-opacity:1" d="M502 0l-115.5 0l-135.5 -211l-139.5 211l-106.5 0l194 -277l-192 -281.5l115.5 0l134.5 209l138 -209l107 0l-193 275l193 283.5" />
</g>
<g id="PathID_124" transform="matrix(0.0352941, 0, 0, 0.0352941, 336, 420)">
<path style="fill:#000000;fill-opacity:1" d="M561 134l-87.5 0l0 -134l-405.5 0l0 -558.5l94 0l0 477.5l249.5 0l0 -477.5l94 0l0 477.5l55.5 0l0 215" />
</g>
<g id="PathID_125" transform="matrix(0.0352941, 0, 0, 0.0352941, 384, 420)">
<path style="fill:#000000;fill-opacity:1" d="M488 0l-94 0l0 -218q-44 14.5 -85.5 22.5q-41.5 8 -82 8q-35.5 0 -69 -9q-34 -9.5 -58.5 -30.5q-24.5 -21 -37.5 -53.5q-13.5 -33 -13.5 -77.5l0 -200.5l94 0l0 151.5q0 37 3 59q3 21.5 16.5 42q11.5 17.5 35 27q23 9.5 61 9.5q33 0 71 -6.5q37.5 -6.5 65.5 -15.5l0 -267l94 0l0 558.5" />
</g>
<g id="PathID_126" transform="matrix(0.0352941, 0, 0, 0.0352941, 432, 420)">
<path style="fill:#000000;fill-opacity:1" d="M729 0l-661 0l0 -558.5l94 0l0 479l189.5 0l0 -479l94 0l0 479l189.5 0l0 -479l94 0l0 558.5" />
</g>
<g id="PathID_127" transform="matrix(0.0352941, 0, 0, 0.0352941, 0, 468)">
<path style="fill:#000000;fill-opacity:1" d="M784.5 134l-87.5 0l0 -134l-629 0l0 -558.5l94 0l0 479l189.5 0l0 -479l94 0l0 479l189.5 0l0 -479l94 0l0 479l55.5 0l0 213.5" />
</g>
<g id="PathID_128" transform="matrix(0.0352941, 0, 0, 0.0352941, 48, 468)">
<path style="fill:#000000;fill-opacity:1" d="M482.5 -173q0 40.5 -16 73.5q-16.5 33 -44.5 53.5q-33 25 -70.5 35.5q-37.5 10.5 -96.5 10.5l-187 0l0 -558.5l94 0l0 217.5l95.5 0q63 0 98 6.5q34.5 6.5 69 32q29 21.5 43.5 55q14.5 33.5 14.5 74.5M385.5 -171.5q0 -25.5 -8.5 -44.5q-9 -19.5 -29 -31.5q-21 -12.5 -47.5 -15q-27 -2.5 -77 -2.5l-61.5 0l0 190l59.5 0q50 0 77.5 -4q27.5 -4.5 47.5 -16.5q20.5 -13 30 -30.5q9 -18 9 -45.5M641.5 0l-94 0l0 -558.5l94 0l0 558.5" />
</g>
<g id="PathID_129" transform="matrix(0.0352941, 0, 0, 0.0352941, 96, 468)">
<path style="fill:#000000;fill-opacity:1" d="M491 -173q0 40.5 -16 73.5q-16.5 33 -44.5 53.5q-33 25 -70.5 35.5q-37.5 10.5 -96.5 10.5l-195.5 0l0 -558.5l94 0l0 217.5l104 0q63 0 98 6.5q34.5 6.5 69 32q29 21.5 43.5 55q14.5 33.5 14.5 74.5M394 -171.5q0 -25.5 -8.5 -44.5q-9 -19.5 -29 -31.5q-21 -12.5 -47.5 -15q-27 -2.5 -77 -2.5l-70 0l0 190l68 0q50 0 77.5 -4q27.5 -4.5 47.5 -16.5q20.5 -13 30 -30.5q9 -18 9 -45.5" />
</g>
<g id="PathID_130" transform="matrix(0.0352941, 0, 0, 0.0352941, 144, 468)">
<path style="fill:#000000;fill-opacity:1" d="M21 -128l6 0q11 9.5 27.5 20q16 10 38 19q24 10 46 15.5q22 5.5 54 5.5q72 0 115.5 -48.5q43.5 -48.5 50 -140.5l-254 0l0 -75.5l253.5 0q-9 -79.5 -52 -119q-43.5 -39.5 -107.5 -39.5q-28.5 0 -53 6.5q-24.5 6 -47.5 16.5q-19 9 -33.5 19.5q-15 10.5 -28.5 21.5l-6 0l0 -103q26.5 -11.5 75 -26.5q48 -15 91.5 -15q56.5 0 103.5 17q47 17 81 52q34.5 36 53 87.5q18 51 18 124.5q0 140 -71.5 221.5q-72 81.5 -194 81.5q-45.5 0 -88.5 -11.5q-43.5 -12 -76.5 -26l0 -103" />
</g>
<g id="PathID_131" transform="matrix(0.0352941, 0, 0, 0.0352941, 192, 468)">
<path style="fill:#000000;fill-opacity:1" d="M751.5 -279q0 140.5 -67.5 217.5q-68 77 -179.5 77q-109.5 0 -173.5 -72q-64.5 -72.5 -70.5 -197.5l-98.5 0l0 254l-94 0l0 -558.5l94 0l0 227.5l100.5 0q11.5 -114 76 -178.5q64.5 -64.5 166 -64.5q117.5 0 182.5 80q64.5 80 64.5 215M654.5 -279q0 -107 -39 -160.5q-39.5 -53.5 -111 -53.5q-72.5 0 -111.5 54q-39.5 54 -39.5 160q0 105 39.5 159.5q39.5 54 111.5 54q71.5 0 111 -52.5q39 -53 39 -161" />
</g>
<g id="PathID_132" transform="matrix(0.0352941, 0, 0, 0.0352941, 240, 468)">
<path style="fill:#000000;fill-opacity:1" d="M472.5 0l-94 0l0 -221.5l-93 0l-165.5 221.5l-109.5 0l179.5 -230q-69.5 -20.5 -101.5 -61q-32.5 -40.5 -32.5 -108.5q0 -41.5 18.5 -72.5q18 -31.5 49 -53q25 -17 63 -25q38 -8.5 85 -8.5l201 0l0 558.5M378.5 -295.5l0 -188l-102 0q-32.5 0 -51 3.5q-19 3.5 -36.5 13.5q-18 11 -27 30q-9.5 18.5 -9.5 40q0 27.5 6.5 45q6 17 22.5 31.5q17.5 15 43 20q25 4.5 55 4.5l99 0" />
</g>
<g id="PathID_133" transform="matrix(0.0352941, 0, 0, 0.0352941, 288, 468)">
<path style="fill:#000000;fill-opacity:1" d="M561 -286l-563 0l0 -80l563 0l0 80" />
</g>
</svg>
