<?xml version="1.0" encoding="utf-8"?>
<svg version="1.1" id="Layer_1"
xmlns="http://www.w3.org/2000/svg"
xmlns:xlink="http://www.w3.org/1999/xlink"
xmlns:author="http://www.sothink.com"
width="356px" height="404px"
xml:space="preserve">
<g id="PathID_1" transform="matrix(0.0352941, 0, 0, 0.0352941, 48, 37.8)">
<path style="fill:#000000;fill-opacity:1" d="M589.5 0l-492 0l0 -130l157 0l0 -393.5l-157 0l0 -121.5q34.5 0 68.5 -4.5q34 -4.5 54.5 -14.5q24 -12 37.5 -32q13 -20.5 15 -50.5l163 0l0 616.5l153.5 0l0 130" />
</g>
<g id="PathID_2" transform="matrix(0.0352941, 0, 0, 0.0352941, 96, 37.8)">
<path style="fill:#000000;fill-opacity:1" d="M622.5 0l-547 0l0 -121.5q69.5 -55 125 -104q55 -49 97 -93q54.5 -57.5 79 -101q24.5 -43.5 24.5 -89.5q0 -52 -31 -79.5q-31 -28 -86.5 -28q-28.5 0 -53.5 7q-25.5 7 -51.5 18q-25.5 11.5 -43.5 23.5q-18 12 -27 18l-14.5 0l0 -162.5q31.5 -15 98.5 -30.5q67 -16 129 -16q132.5 0 201 59q68 59 68 166q0 66 -31 129.5q-31 63 -103 135.5q-45 44.5 -87.5 79.5q-42.5 34.5 -61.5 49l315.5 0l0 140.5" />
</g>
<g id="PathID_3" transform="matrix(0.0352941, 0, 0, 0.0352941, 144, 37.8)">
<path style="fill:#000000;fill-opacity:1" d="M274.5 -365l-177 0l0 -196.5l177 0l0 196.5M274.5 0l-177 0l0 -196.5l177 0l0 196.5" />
</g>
<g id="PathID_4" transform="matrix(0.0352941, 0, 0, 0.0352941, 192, 37.8)">
<path style="fill:#000000;fill-opacity:1" d="" />
</g>
<g id="PathID_5" transform="matrix(0.0352941, 0, 0, 0.0352941, 240, 37.8)">
<path style="fill:#000000;fill-opacity:1" d="M672.5 -228q0 55.5 -21 97.5q-21 42 -56.5 69.5q-42 33 -92 47q-50.5 14 -128 14l-298 0l0 -744.5l263 0q82 0 124.5 6.5q42 6 79 26q40 21.5 60 57.5q19.5 36 19.5 83q0 54.5 -27 97q-27.5 42.5 -75.5 62.5l0 4q69 14.5 110.5 59.5q41.5 44.5 41.5 120.5M433 -534q0 -18 -9 -37q-9.5 -19 -29 -27.5q-18.5 -8 -43.5 -8.5q-25.5 -1 -75.5 -1l-13 0l0 157.5l23.5 0q48 0 67.5 -1q19 -1 39.5 -10.5q22.5 -10.5 31 -29q8.5 -18.5 8.5 -43M480 -231.5q0 -34.5 -14 -54q-14 -19.5 -42 -29.5q-17 -6.5 -46.5 -7q-30 -1 -80 -1l-34.5 0l0 186.5l10 0q73 0 101 -1q28 -1 57 -13.5q25.5 -11 37.5 -32q11.5 -21.5 11.5 -48.5" />
</g>
<g id="PathID_6" transform="matrix(0.0352941, 0, 0, 0.0352941, 288, 37.8)">
<path style="fill:#000000;fill-opacity:1" d="M579 -602.5l-315 0l0 602.5l-187 0l0 -744.5l502 0l0 142" />
</g>
<g id="PathID_7" transform="matrix(0.0352941, 0, 0, 0.0352941, 0, 84)">
<path style="fill:#000000;fill-opacity:1" d="M720 0l-184 0l0 -490.5l-286 490.5l-173 0l0 -744.5l184 0l0 443.5l264.5 -443.5l194.5 0l0 744.5" />
</g>
<g id="PathID_8" transform="matrix(0.0352941, 0, 0, 0.0352941, 48, 84)">
<path style="fill:#000000;fill-opacity:1" d="M733.5 0l-223 0l-199.5 -300.5l-47 0l0 300.5l-187 0l0 -744.5l187 0l0 303.5q44 -2 66 -19.5q21.5 -17.5 51.5 -77q8.5 -17.5 20 -41.5q11 -24 19.5 -42q32.5 -67.5 79.5 -96q46.5 -29 123 -29q25 0 41.5 1q16.5 0.5 25.5 0.5l0 159.5l-43 0q-32 0 -55.5 20q-24 19.5 -48.5 78.5q-19.5 47 -36.5 71.5q-17.5 24 -32.5 32.5l259 382.5" />
</g>
<g id="PathID_9" transform="matrix(0.0352941, 0, 0, 0.0352941, 96, 84)">
<path style="fill:#000000;fill-opacity:1" d="M705.5 0l-187 0l0 -602.5l-254.5 0l0 602.5l-187 0l0 -744.5l628.5 0l0 744.5" />
</g>
<g id="PathID_10" transform="matrix(0.0352941, 0, 0, 0.0352941, 144, 84)">
<path style="fill:#000000;fill-opacity:1" d="M650 -509.5q0 52 -16.5 99q-16.5 47 -47.5 78.5q-19 19.5 -41.5 36q-23 16.5 -50.5 28q-27.5 11.5 -59.5 18q-32.5 6.5 -72.5 6.5l-98 0l0 243.5l-187 0l0 -744.5l289 0q64.5 0 111.5 12q46.5 11.5 84.5 37q42 28 65 75q23 46.5 23 111M458 -505q0 -31.5 -15 -54q-15 -23 -36 -31.5q-26.5 -11.5 -50.5 -13q-24.5 -2 -66 -2l-26.5 0l0 223l13 0q26.5 0 50 -0.5q23.5 -0.5 41 -3.5q15 -2.5 32 -9.5q16.5 -7.5 25.5 -16.5q19 -18.5 26 -38.5q6.5 -20 6.5 -54" />
</g>
<g id="PathID_11" transform="matrix(0.0352941, 0, 0, 0.0352941, 192, 84)">
<path style="fill:#000000;fill-opacity:1" d="M376.5 -146.5l0 -117q-44.5 4.5 -72 8q-27.5 3 -54 12.5q-23 8 -35.5 24.5q-13 16 -13 43q0 39.5 21.5 54.5q21 14.5 62.5 14.5q23 0 47 -10.5q24 -10.5 43.5 -29.5M376.5 -59.5q-18 15 -32 27q-14.5 12 -38.5 24q-23.5 11.5 -45.5 17.5q-22.5 6 -62.5 6q-74.5 0 -123.5 -50q-49.5 -50 -49.5 -126q0 -62.5 25 -101q25 -38.5 72 -61q47.5 -23 113.5 -32q66 -9 142 -14l0 -3q0 -46.5 -34 -64q-34.5 -18 -103 -18q-31 0 -72.5 11.5q-41.5 11 -81 28.5l-15 0l0 -135.5q26 -7.5 84 -17.5q58 -10.5 117 -10.5q145 0 211.5 48.5q66 48 66 147l0 382l-174 0l0 -59.5" />
</g>
<g id="PathID_12" transform="matrix(0.0352941, 0, 0, 0.0352941, 240, 84)">
<path style="fill:#000000;fill-opacity:1" d="M548 -472.5q32 32.5 50.5 80.5q18.5 47.5 18.5 118.5q0 131.5 -78 211.5q-78.5 79.5 -211.5 79.5q-146 0 -217 -94.5q-71 -94.5 -71 -283q0 -36 3.5 -73q3.5 -37.5 16 -90.5q10.5 -44 30.5 -87.5q19.5 -44 47 -72q31 -32 84.5 -55q53.5 -23.5 150 -33q45.5 -4.5 108 -7.5q62.5 -3 99.5 -4l0 131.5q-31.5 1.5 -57.5 3q-26.5 1 -60.5 3.5q-21 1.5 -55 5q-34 3 -58 7.5q-29 6 -53.5 18.5q-25 12.5 -41 33q-12 15.5 -19.5 41.5q-8 25.5 -11.5 63q37 -26.5 78 -42.5q41 -16 88.5 -16q47 0 88 15.5q41 15.5 71.5 46.5M401.5 -139.5q16 -19.5 26 -47.5q9.5 -28.5 9.5 -80.5q0 -60.5 -31 -97q-31 -37 -82 -37q-23.5 0 -49.5 6q-26 6 -54.5 22q0 5 0 14.5q-0.5 9 -0.5 16.5q0 72.5 4.5 110q4.5 37.5 20 69.5q13 27 35 41q22 14 51 14q16.5 0 37 -7.5q20 -7.5 34.5 -24" />
</g>
<g id="PathID_13" transform="matrix(0.0352941, 0, 0, 0.0352941, 288, 84)">
<path style="fill:#000000;fill-opacity:1" d="M595 -169.5q0 40.5 -16 72q-16 31.5 -43 52.5q-34 26.5 -71.5 36q-38 9 -90 9l-307.5 0l0 -561.5l293 0q61.5 0 90.5 4q29 4 57 19.5q29.5 16 44 42.5q14.5 26.5 14.5 63q0 42 -22.5 73q-22.5 31 -56.5 47.5l0 5.5q46.5 11.5 77.5 46.5q30.5 34.5 30.5 90.5M391.5 -392q0 -32.5 -18.5 -45q-19 -12.5 -60 -12.5l-72.5 0l0 112l75.5 0q36.5 0 56 -14.5q19.5 -14.5 19.5 -40M416.5 -175q0 -36.5 -20.5 -51q-20.5 -15 -61 -15l-94.5 0l0 128.5l97.5 0q37 0 58 -16.5q20.5 -17 20.5 -46" />
</g>
<g id="PathID_14" transform="matrix(0.0352941, 0, 0, 0.0352941, 0, 132)">
<path style="fill:#000000;fill-opacity:1" d="M505.5 -438.5l-263.5 0l0 438.5l-175 0l0 -561.5l438.5 0l0 123" />
</g>
<g id="PathID_15" transform="matrix(0.0352941, 0, 0, 0.0352941, 48, 132)">
<path style="fill:#000000;fill-opacity:1" d="M640.5 139l-155.5 0l0 -141l-325 0l0 141l-155.5 0l0 -265l40.5 0q38 -79 61 -193q22.5 -114 22.5 -242.5l456.5 0l0 435.5l55.5 0l0 265M411 -126l0 -312l-123.5 0q-8.5 93.5 -28.5 173.5q-20.5 79.5 -49 138.5l201 0" />
</g>
<g id="PathID_16" transform="matrix(0.0352941, 0, 0, 0.0352941, 96, 132)">
<path style="fill:#000000;fill-opacity:1" d="M354.5 15q-159 0 -243.5 -76q-85 -76 -85 -216.5q0 -137.5 79 -219.5q79 -82 221 -82q129 0 194 69.5q65 69.5 65 199l0 63l-383.5 0q2.5 39 16.5 65.5q14 26 37 41.5q22.5 15.5 52.5 22.5q30 6.5 65.5 6.5q30.5 0 60 -6.5q29.5 -7 54 -18q21.5 -9.5 40 -20.5q18 -11 29.5 -19.5l18.5 0l0 144.5q-21.5 8.5 -39 16q-18 7 -49 14.5q-28.5 7.5 -58.5 12q-30.5 4 -74 4M412.5 -353q-1.5 -55.5 -25.5 -84.5q-24.5 -29 -74.5 -29q-51 0 -79.5 30.5q-29 30.5 -32 83l211.5 0" />
</g>
<g id="PathID_17" transform="matrix(0.0352941, 0, 0, 0.0352941, 144, 132)">
<path style="fill:#000000;fill-opacity:1" d="M509 -159q0 48.5 -22 82.5q-22.5 34 -60 54.5q-36 19.5 -83 28.5q-47.5 9 -101.5 9q-69 0 -124.5 -13q-55.5 -13 -103.5 -30.5l0 -135l18.5 0q37.5 22 83.5 37.5q45.5 15.5 93 15.5q17.5 0 42.5 -2.5q25 -2.5 39 -8.5q21.5 -8.5 30.5 -20.5q9 -12.5 9 -31.5q0 -21 -10 -33q-10 -12.5 -27.5 -18.5q-17.5 -6 -40.5 -7q-23 -1.5 -50 -1.5l-65.5 0l0 -112l50 0q19 0 46 -0.5q27 -1 43 -5.5q20.5 -5.5 32 -15.5q11.5 -10.5 11.5 -33q0 -16 -9.5 -26q-10 -10.5 -26 -16.5q-13.5 -5 -31.5 -7.5q-18 -2.5 -38 -2.5q-36.5 0 -78 12q-41.5 12 -75.5 30l-18.5 0l0 -133q28.5 -9 88.5 -21.5q59.5 -13 116 -13q50.5 0 93 7.5q42.5 7.5 80 26.5q35 18 56.5 48q21.5 30 21.5 73.5q0 44.5 -28.5 80q-28.5 35.5 -69.5 48l0 4.5q52 14.5 80.5 48.5q28.5 33.5 28.5 82" />
</g>
<g id="PathID_18" transform="matrix(0.0352941, 0, 0, 0.0352941, 192, 132)">
<path style="fill:#000000;fill-opacity:1" d="M600.5 0l-172 0l0 -341l-215 341l-146.5 0l0 -561.5l172 0l0 305l197 -305l164.5 0l0 561.5" />
</g>
<g id="PathID_19" transform="matrix(0.0352941, 0, 0, 0.0352941, 240, 132)">
<path style="fill:#000000;fill-opacity:1" d="M621.5 0l-201.5 0l-133 -222.5l-45 0l0 222.5l-175 0l0 -561.5l175 0l0 225.5q37 -0.5 55.5 -10.5q18 -10.5 39.5 -54.5q7 -15 15 -33q8 -18 14.5 -32q26.5 -55.5 65.5 -76q38.5 -20.5 94 -20.5q19.5 0 37 0.5q17.5 0.5 25 0.5l0 150l-34 0q-16 0 -28.5 6.5q-13 6 -22.5 15.5q-9.5 10 -14 20q-5 10 -9.5 19.5q-11.5 27 -17 38.5q-5.5 11.5 -19.5 22.5l178.5 289" />
</g>
<g id="PathID_20" transform="matrix(0.0352941, 0, 0, 0.0352941, 288, 132)">
<path style="fill:#000000;fill-opacity:1" d="M602.5 0l-175 0l0 -438l-137.5 0q-1.5 36 -2 58q-1 22 -2 49.5q-3.5 80.5 -13.5 131.5q-10 50.5 -25.5 83q-15 32.5 -30.5 51q-16 18 -34.5 34q-17.5 15 -49.5 25q-32 9.5 -58.5 9.5q-22.5 0 -44.5 -1.5q-22.5 -2 -27 -2l0 -142l5 0q2 0 7 0.5q4.5 0.5 9 0.5q12 0 25 -2.5q13 -3 21.5 -11.5q34.5 -35 44.5 -93.5q9.5 -58.5 13 -131q2 -39.5 4 -88q2 -49 3 -94l468 0l0 561.5" />
</g>
<g id="PathID_21" transform="matrix(0.0352941, 0, 0, 0.0352941, 0, 180)">
<path style="fill:#000000;fill-opacity:1" d="M708 0l-172 0l0 -352.5l-114 234l-74 0l-114 -234l0 352.5l-167 0l0 -561.5l190.5 0l130 260l130 -260l190.5 0l0 561.5" />
</g>
<g id="PathID_22" transform="matrix(0.0352941, 0, 0, 0.0352941, 48, 180)">
<path style="fill:#000000;fill-opacity:1" d="M598 0l-175 0l0 -240.5l-181 0l0 240.5l-175 0l0 -561.5l175 0l0 194.5l181 0l0 -194.5l175 0l0 561.5" />
</g>
<g id="PathID_23" transform="matrix(0.0352941, 0, 0, 0.0352941, 96, 180)">
<path style="fill:#000000;fill-opacity:1" d="M606 -280.5q0 138.5 -75.5 218.5q-76 79.5 -214.5 79.5q-137.5 0 -213.5 -79.5q-76.5 -80 -76.5 -218.5q0 -140 76.5 -219q76 -79.5 213.5 -79.5q138 0 214 80q76 79.5 76 218.5M426.5 -279.5q0 -50 -8 -83q-8.5 -33.5 -23 -53.5q-15.5 -21 -35 -29q-19.5 -8.5 -44.5 -8.5q-23.5 0 -42.5 7.5q-19 7 -35 27.5q-15 19.5 -24 53.5q-9 34 -9 85.5q0 51.5 8.5 83.5q8.5 31.5 22 50.5q14 19.5 35 28.5q21 9 46.5 9q21 0 43 -9q21.5 -9 34.5 -27q15.5 -21.5 23.5 -51.5q8 -30.5 8 -84" />
</g>
<g id="PathID_24" transform="matrix(0.0352941, 0, 0, 0.0352941, 144, 180)">
<path style="fill:#000000;fill-opacity:1" d="M595 0l-175 0l0 -437.5l-178 0l0 437.5l-175 0l0 -561.5l528 0l0 561.5" />
</g>
<g id="PathID_25" transform="matrix(0.0352941, 0, 0, 0.0352941, 192, 180)">
<path style="fill:#000000;fill-opacity:1" d="M617.5 -288.5q0 134.5 -68 217q-68.5 82.5 -168.5 82.5q-42 0 -73 -9.5q-31 -9.5 -66 -29.5l0 234l-175 0l0 -767.5l175 0l0 58.5q38.5 -33 78.5 -53.5q40 -20.5 92.5 -20.5q97.5 0 151 77.5q53.5 77.5 53.5 211M438.5 -285q0 -82 -25 -119q-25.5 -37 -79 -37q-23.5 0 -46.5 7.5q-23.5 7.5 -46 22.5l0 282.5q14 6 31 8.5q16.5 2.5 39.5 2.5q64 0 95 -41.5q31 -42 31 -126" />
</g>
<g id="PathID_26" transform="matrix(0.0352941, 0, 0, 0.0352941, 240, 180)">
<path style="fill:#000000;fill-opacity:1" d="M342.5 15q-69.5 0 -127 -17.5q-58 -17.5 -100.5 -54q-42 -36.5 -65.5 -91.5q-23.5 -55.5 -23.5 -130.5q0 -80.5 25.5 -137q25.5 -56.5 69 -93q42 -35 99 -51.5q56.5 -17 118 -17q46.5 0 93 11q46.5 10.5 93.5 34l0 150l-22.5 0q-10.5 -10 -25.5 -22q-15.5 -12 -33.5 -22q-19 -10.5 -43 -17.5q-24 -7.5 -53.5 -7.5q-67 0 -103.5 47q-37 46.5 -37 125.5q0 84.5 39.5 126q39 41.5 104 41.5q33 0 58 -7.5q25 -7.5 43 -18q17.5 -10.5 30 -21.5q12.5 -11.5 21.5 -20.5l22.5 0l0 150q-15 6.5 -34.5 15q-20 8.5 -40.5 14q-25.5 7 -47.5 11q-22.5 3.5 -59 3.5" />
</g>
<g id="PathID_27" transform="matrix(0.0352941, 0, 0, 0.0352941, 288, 180)">
<path style="fill:#000000;fill-opacity:1" d="M528 -439.5l-174 0l0 439.5l-175 0l0 -439.5l-174 0l0 -122l523 0l0 122" />
</g>
<g id="PathID_28" transform="matrix(0.0352941, 0, 0, 0.0352941, 0, 228)">
<path style="fill:#000000;fill-opacity:1" d="M591 -561.5l-283.5 767.5l-188 0l85 -219.5l-206 -548l184 0l118 352l110.5 -352l180 0" />
</g>
<g id="PathID_29" transform="matrix(0.0352941, 0, 0, 0.0352941, 48, 228)">
<path style="fill:#000000;fill-opacity:1" d="M882 -293.5q0 141 -64 221q-64.5 80 -171.5 80q-38 0 -63 -9.5q-25.5 -9.5 -42.5 -18.5l0 226.5l-173 0l0 -227q-22.5 13.5 -48.5 21q-26 7.5 -66 7.5q-106.5 0 -166.5 -75q-60 -75.5 -60 -209.5q0 -133.5 65.5 -214q65 -80.5 167.5 -80.5q38.5 0 64.5 9.5q25.5 9 43.5 20l0 -236l173 0l0 235.5q20 -10.5 51.5 -19.5q31.5 -9.5 68.5 -9.5q107 0 164 72.5q57 72.5 57 205.5M706 -284q0 -83 -29.5 -121.5q-30 -39 -93.5 -39q-12 0 -21.5 1q-10 1 -20.5 3.5l0 317q10.5 2 20.5 3q9.5 1 20.5 1q63 0 93.5 -41q30.5 -41 30.5 -124M368 -123l0 -317.5q-9 -2 -21 -3q-12 -1 -21 -1q-63 0 -93 41q-30 41 -30 124q0 83 30.5 122q30 38.5 93.5 38.5q9 0 21.5 -1q12 -1.5 19.5 -3" />
</g>
<g id="PathID_30" transform="matrix(0.0352941, 0, 0, 0.0352941, 96, 228)">
<path style="fill:#000000;fill-opacity:1" d="M621 0l-205 0l-107 -161.5l-110 161.5l-201 0l206.5 -280.5l-203 -281l205 0l105 158.5l105.5 -158.5l201.5 0l-203.5 276.5l206 285" />
</g>
<g id="PathID_31" transform="matrix(0.0352941, 0, 0, 0.0352941, 144, 228)">
<path style="fill:#000000;fill-opacity:1" d="M649.5 139l-155.5 0l0 -139l-427 0l0 -561.5l175 0l0 438l177 0l0 -438l175 0l0 438l55.5 0l0 262.5" />
</g>
<g id="PathID_32" transform="matrix(0.0352941, 0, 0, 0.0352941, 192, 228)">
<path style="fill:#000000;fill-opacity:1" d="M563.5 0l-175 0l0 -193q-36.5 8.5 -78.5 15.5q-42.5 6.5 -85 6.5q-38 0 -70.5 -9.5q-33 -9.5 -57.5 -31q-24.5 -20.5 -38 -53.5q-14 -33 -14 -78.5l0 -218l176 0l0 128q0 34.5 3 58q3 23.5 14.5 41.5q11 17 33 26q21.5 9 60.5 9q10.5 0 28 -1q17.5 -1.5 28.5 -3.5l0 -258l175 0l0 561.5" />
</g>
<g id="PathID_33" transform="matrix(0.0352941, 0, 0, 0.0352941, 240, 228)">
<path style="fill:#000000;fill-opacity:1" d="M878.5 0l-811.5 0l0 -561.5l174.5 0l0 440l144 0l0 -440l174.5 0l0 440l144 0l0 -440l174.5 0l0 561.5" />
</g>
<g id="PathID_34" transform="matrix(0.0352941, 0, 0, 0.0352941, 288, 228)">
<path style="fill:#000000;fill-opacity:1" d="M566.5 -188.5q0 43 -17 79.5q-17 36 -44.5 59q-34 27.5 -70 39q-36.5 11 -98 11l-270 0l0 -561.5l174.5 0l0 189.5l96 0q60.5 0 98 8.5q37 8.5 70.5 33.5q29.5 22 45 59.5q15.5 37.5 15.5 82M374 -140q8.5 -11 11.5 -22.5q3 -12 3 -24.5q0 -36 -21.5 -53.5q-21.5 -17.5 -62 -17.5l-63.5 0l0 144.5l63.5 0q27 0 44 -7.5q17 -8 25 -19M798.5 0l-175 0l0 -561.5l175 0l0 561.5" />
</g>
<g id="PathID_35" transform="matrix(0.0352941, 0, 0, 0.0352941, 0, 276)">
<path style="fill:#000000;fill-opacity:1" d="M572.5 -188.5q0 43 -17 79.5q-17 36 -44.5 59q-34 27.5 -70 39q-36.5 11 -98 11l-276 0l0 -561.5l174.5 0l0 189.5l102 0q60.5 0 98 8.5q37 8.5 70.5 33.5q29.5 22 45 59.5q15.5 37.5 15.5 82M380 -140q8.5 -11 11.5 -22.5q3 -12 3 -24.5q0 -36 -21.5 -53.5q-21.5 -17.5 -62 -17.5l-69.5 0l0 144.5l69.5 0q27 0 44 -7.5q17 -8 25 -19" />
</g>
<g id="PathID_36" transform="matrix(0.0352941, 0, 0, 0.0352941, 48, 276)">
<path style="fill:#000000;fill-opacity:1" d="M919 -280.5q0 138.5 -75 218.5q-75 79.5 -210.5 79.5q-124.5 0 -197.5 -68q-73 -68 -84 -190.5l-110 0l0 241l-175 0l0 -561.5l175 0l0 195l117 0q20 -100.5 91 -156.5q71 -56 183.5 -56q136.5 0 211 80q74.5 80 74.5 218.5M708.5 -144q17.5 -24.5 24.5 -57q6.5 -33 6.5 -78.5q0 -91 -27 -132.5q-27.5 -41.5 -81.5 -41.5q-23 0 -41.5 7.5q-18.5 7 -34.5 27.5q-15 19.5 -23.5 53.5q-9 34 -9 85.5q0 86 27 129q26.5 42.5 83 42.5q22 0 42.5 -8.5q20.5 -8.5 33.5 -27.5" />
</g>
<g id="PathID_37" transform="matrix(0.0352941, 0, 0, 0.0352941, 96, 276)">
<path style="fill:#000000;fill-opacity:1" d="M556.5 0l-174.5 0l0 -195l-53 0l-134.5 195l-196 0l161 -220q-60 -27.5 -87.5 -66.5q-27.5 -39.5 -27.5 -105q0 -46.5 18.5 -78q18 -32 49 -54q27.5 -19 65 -28.5q37 -9.5 83 -9.5l296.5 0l0 561.5M382 -305l0 -140l-80.5 0q-37 0 -57.5 17q-21 16.5 -21 48.5q0 39.5 20.5 57q20.5 17.5 61 17.5l77.5 0" />
</g>
</svg>
