<svg xmlns:dc="http://purl.org/dc/elements/1.1/" xmlns:cc="http://creativecommons.org/ns#" xmlns:rdf="http://www.w3.org/1999/02/22-rdf-syntax-ns#" xmlns:svg="http://www.w3.org/2000/svg" xmlns="http://www.w3.org/2000/svg" xml:space="preserve" id="svg2" version="1.1" viewBox="1003.5 509.3 444.82 552.28"><metadata id="metadata8"><rdf:RDF><cc:Work rdf:about=""><dc:format>image/svg+xml</dc:format><dc:type rdf:resource="http://purl.org/dc/dcmitype/StillImage"/></cc:Work></rdf:RDF></metadata><defs id="defs6"/><g transform="matrix(1.3333333,0,0,-1.3333333,0,1440)" id="g10"><g transform="translate(967.8809,342.7731)" id="g12"><path id="path14" style="fill:#9f9fa0;fill-opacity:1;fill-rule:evenodd;stroke:none" d="m 0,0 3.48,-5.68 -1.3,-4.18 2.12,-6.08 3.67,0.81 -1.46,2.94 -0.07,0.13 0.09,0.12 2.14,2.81 0.07,0.09 0.11,0.01 7.96,0.53 4.65,3.09 -0.52,4.81 -0.03,0.26 0.26,0.01 3.41,0.13 1.01,6.9 -4.57,0.38 -0.09,0.01 -0.06,0.07 -3.22,3.48 -0.18,0.2 0.22,0.16 5.35,4.01 0.14,0.11 0.15,-0.1 4.68,-3.35 0.08,-0.06 0.02,-0.09 0.64,-3.2 2.39,-0.68 1.19,15.4 -1.7,4.83 -7.57,15.4 -2.48,3 -2.22,10.84 -1.51,3.6 -0.53,0.58 -5.66,2.34 -1.96,2.35 1.7,3.4 -4.18,1.69 -8.74,1.57 -6.79,-3.52 -2.35,-10.32 -2.87,3.66 -3.27,-4.18 -2.74,7.96 -5.74,-3.52 -4.83,0.78 0.26,4.57 6.27,15.66 1.56,15.67 1.83,7.57 -1.56,6.26 2.08,5.62 -0.91,6 13.18,12.92 4.18,-0.78 0.39,1.57 -1.17,1.83 1.84,1.21 -2.27,3.97 h -4.51 l -3.83,-2.82 -0.23,-0.17 -0.13,0.25 -1.85,3.7 -0.06,0.11 0.06,0.11 2.22,4.03 -0.99,4.91 -8.99,3 -4.13,-2.76 -1,-3.61 -0.05,-0.15 -0.15,-0.03 -5.43,-0.8 -1.58,-2.77 -0.06,-0.09 -0.1,-0.03 -4.73,-1.02 -0.06,-0.02 -0.07,0.02 -7.02,2.41 -1.86,-2.42 3.65,-9.73 0.02,-0.08 -0.02,-0.07 -2.62,-9.28 3.96,-2.78 0.08,-0.05 0.02,-0.08 2.26,-8.01 0.05,-0.2 -0.18,-0.08 -2.94,-1.37 0.2,-3.74 v -0.05 l -0.01,-0.04 -1.44,-3.91 -0.05,-0.14 -0.16,-0.02 -5.95,-0.39 -0.4,-4.52 -0.01,-0.15 -0.14,-0.05 -10.11,-3.84 V 87.1 87.01 l -0.06,-0.07 -2.29,-2.67 5.12,-3.54 0.17,-0.13 -0.09,-0.19 -2.78,-5.35 5.16,-3.37 0.06,-0.04 0.03,-0.07 1.23,-3.08 0.06,-0.14 -0.11,-0.12 -2.77,-2.97 1.99,-5.61 8.19,4.26 0.16,0.09 0.13,-0.14 2.7,-2.92 0.11,-0.12 -0.07,-0.15 -4.02,-8.71 0.44,-4.21 0.02,-0.16 -0.14,-0.08 -3.02,-1.72 0.2,-3.44 h 6.75 0.13 l 0.07,-0.11 3.07,-4.61 3.38,0.21 5.5,5.06 0.88,3.76 0.04,0.18 h 0.2 4.12 l 1.28,2.57 0.08,0.16 0.18,-0.03 2.92,-0.45 0.15,-0.02 0.04,-0.15 2.7,-8.32 0.05,-0.14 -0.11,-0.1 -1.79,-1.8 -0.06,-0.06 -0.08,-0.01 -6.65,-1.07 1.66,-3.53 0.07,-0.15 -0.11,-0.12 -2.65,-2.87 -0.66,-3.76 -0.02,-0.06 -0.04,-0.05 -3.92,-4.58 1.68,-2.09 0.11,-0.14 -0.11,-0.15 -2.65,-3.54 v -4.27 l 7.07,-3.53 0.05,-0.02 0.03,-0.05 5.69,-7.87 3.55,3.37 0.08,0.07 0.09,-0.01 7.63,-0.13 h 0.09 L -12.8,3.9 -9.42,1.17 0.76,4.61 1.18,4.75 1.07,4.32 Z"/></g><g transform="translate(984.7309,403.4831)" id="g16"><path id="path18" style="fill:#9f9fa0;fill-opacity:1;fill-rule:evenodd;stroke:none" d="m 0,0 -0.18,0.44 7.7,-4.18 2.48,-6.52 3.78,-4.83 4.57,-7.31 3.26,-5.35 3.79,-2.87 1.17,-3.4 1.05,-3 4.7,-2.22 0.65,-4.7 4.83,-6.13 0.39,5.35 -0.65,4.05 3.78,0.26 1.44,0.65 3.52,-1.83 -2.87,6.01 h -4.18 l -4.43,1.95 -5.09,3.66 -3.27,8.35 -1.83,5.36 3.92,2.21 7.31,0.39 -16.45,11.1 -11.61,10.44 -5.36,10.05 -7.31,5.09 -3.39,4.31 -2.35,-1.04 -0.52,-2.48 4.31,-3 2.35,-3.53 -1.31,-1.7 -2.09,0.53 -0.65,-3.01 4.18,-3.13 4.18,-9.53 -0.35,0.14 z"/></g><g transform="translate(832.3809,590.2831)" id="g20"><path id="path22" style="fill:#9f9fa0;fill-opacity:1;fill-rule:evenodd;stroke:none" d="M 0,0 5.05,-0.66 5.27,-3.19 3.29,-3.74 0.99,-2.31 Z"/></g><g transform="translate(845.6709,598.6331)" id="g24"><path id="path26" style="fill:#9f9fa0;fill-opacity:1;fill-rule:evenodd;stroke:none" d="M 0,0 0.88,-4.07 H 2.96 L 3.4,-0.44 1.31,1.31 Z"/></g><g transform="translate(850.2809,595.2231)" id="g28"><path id="path30" style="fill:#9f9fa0;fill-opacity:1;fill-rule:evenodd;stroke:none" d="m 0,0 v -4.61 l 5.16,1.1 4.83,2.52 L 8.35,2.75 5.16,3.19 2.74,3.74 0.99,1.1 Z"/></g><g transform="translate(851.9309,620.9231)" id="g32"><path id="path34" style="fill:#9f9fa0;fill-opacity:1;fill-rule:evenodd;stroke:none" d="M 0,0 1.54,-3.29 11.42,-3.4 14.28,1.87 12.41,5.93 10.32,3.63 6.26,3.96 5.16,2.09 h -2.2 l -0.33,-2.2 z"/></g><g transform="translate(848.0809,637.4031)" id="g36"><path id="path38" style="fill:#9f9fa0;fill-opacity:1;fill-rule:evenodd;stroke:none" d="m 0,0 -0.66,-2.42 1.98,-0.44 0.77,2.09 z"/></g><g transform="translate(842.8109,616.0931)" id="g40"><path id="path42" style="fill:#9f9fa0;fill-opacity:1;fill-rule:evenodd;stroke:none" d="M 0,0 2.31,-3.51 6.59,-4.39 6.7,0.55 5.27,2.97 0.22,3.29 -2.42,1.43 l -4.06,0.66 -0.33,-2.75 2.42,-2.53 -1.32,-1.53 -3.84,3.18 -4.62,-0.44 -0.33,-3.73 0.44,-3.85 2.09,-2.63 0.77,-2.97 4.28,-1.21 3.95,0.33 -0.32,4.18 2.85,-0.33 2.2,3.62 2.63,-0.55 1.76,1.98 -1.76,1.76 -3.84,1.1 -3.07,3.62 z"/></g><g transform="translate(823.4809,606.8631)" id="g44"><path id="path46" style="fill:#9f9fa0;fill-opacity:1;fill-rule:evenodd;stroke:none" d="m 0,0 0.66,-2.96 2.63,-3.08 1.65,0.66 -1.98,3.63 z"/></g><g transform="translate(937.4509,613.4031)" id="g48"><path id="path50" style="fill:#9f9fa0;fill-opacity:1;fill-rule:evenodd;stroke:none" d="m 0,0 -1.33,-2.58 -7.18,-4.05 -5.22,4.96 -5.22,0.52 -7.45,-4.83 -5.08,-6.26 -1.83,-6.4 -3.4,-1.04 -4.17,2.08 -4.05,-0.39 -2.09,-2.74 -1.83,1.57 -1.69,-1.83 -2.09,1.96 3,3 -7.05,0.52 -4.04,-3.52 2.21,-7.57 -4.04,-3.92 v 5.87 h -2.74 l -2.74,-2.47 -0.66,3 4.05,3.65 -4.31,-0.26 -12.79,-6.53 2.48,-3 -3.65,-3.52 1.43,-2.61 2.61,1.3 0.26,-3.78 3.14,-3.66 -4.84,-1.17 -1.43,-1.96 1.31,-3.13 -3.92,-0.66 -5.22,1.57 -1.57,-5.87 -8.88,1.56 v -13.05 l -6.26,1.04 -9.66,8.75 3.52,2.48 -5.87,8.75 -3.78,1.82 -5.75,-1.95 -6.39,2.48 -0.92,-9.93 -11.61,-4.96 -4.44,3.01 0.65,2.35 -11.88,0.13 -3.13,-4.18 -0.78,-2.74 -0.79,4.04 -2.22,1.96 -2.61,-2.74 -3.62,-1.81 -0.2,-2.48 1.69,-2.26 0.04,-0.04 0.01,-0.06 0.77,-4.02 5.59,-7.91 0.05,-0.07 v -0.07 -5.15 l 2.85,-3.43 0.16,-0.19 -0.19,-0.15 -6.52,-5.18 -0.38,-3 -0.01,-0.06 -0.03,-0.05 -1.53,-2.29 -1.15,-5.58 -0.05,-0.22 -0.21,0.03 -3.2,0.38 -5.16,-4.21 -0.02,-0.01 -0.02,-0.01 -1.74,-0.9 4.1,-6.25 0.03,-0.06 0.01,-0.06 1.39,-17.48 v -0.11 l -0.07,-0.07 -3.59,-3.98 2.37,-1.83 0.12,-0.09 -0.03,-0.15 -0.97,-4.65 2.1,-2.29 0.07,-0.07 v -0.1 -3.25 l 2.48,-1.71 0.15,-0.11 -0.06,-0.18 -1.2,-3.17 -0.01,-0.05 -0.03,-0.03 -3.73,-4.51 -0.36,-3.23 h 6.09 0.08 l 0.07,-0.06 2.64,-2.07 2.84,1.89 0.18,0.12 0.14,-0.18 1.59,-1.98 0.13,-0.16 -0.01,-0.02 2.08,-3.15 0.14,-0.2 -0.21,-0.14 -2.36,-1.5 v -2.79 l 2.61,-0.2 2.18,1.52 0.22,0.16 0.13,-0.24 2.7,-5.18 0.03,-0.05 v -0.07 l -0.22,-6.15 3.47,-1.95 0.16,-0.09 -0.04,-0.18 -1.56,-6.44 1.95,-4.32 4.39,-1.32 0.26,-0.08 -0.11,-0.25 -3.36,-7.83 -0.66,-9.75 3.37,-3.59 3.65,2.79 0.06,0.05 h 0.08 l 5.49,0.22 1.95,3.48 0.16,0.28 0.23,-0.22 2.96,-2.97 3.86,4.5 6.06,13.02 0.05,0.11 0.13,0.02 4.05,0.68 0.06,0.01 0.07,-0.03 7.87,-3.15 0.1,-0.04 0.04,-0.1 1.71,-5.15 4.71,2.14 0.12,0.06 0.11,-0.08 2.93,-2.02 0.05,-0.04 0.03,-0.07 5.3,-12.01 6.88,-12.76 4.33,2.84 0.02,0.01 0.03,0.01 4.5,1.8 0.13,0.05 0.11,-0.09 3.44,-2.79 1.86,1.66 0.17,0.15 0.16,-0.15 2.76,-2.54 2.53,2.53 0.07,0.08 0.11,-0.01 6.3,-0.22 0.08,-0.01 0.06,-0.04 3.94,-3.07 7.74,2.88 0.14,0.05 0.1,-0.09 2.59,-2.16 10.65,4.89 0.08,0.03 0.07,-0.01 3.08,-0.66 3.35,1.25 -0.42,2.5 -0.03,0.18 0.16,0.08 8.24,4.29 -2.06,5.81 -0.05,0.14 0.1,0.11 2.77,2.96 -1.14,2.87 -5.28,3.45 -0.18,0.12 0.1,0.19 2.78,5.36 -5.17,3.57 -0.22,0.16 0.18,0.2 2.4,2.81 v 11.81 0.17 l 0.16,0.06 10.12,3.85 0.4,4.57 0.02,0.21 0.21,0.01 6,0.4 1.36,3.71 -0.2,3.85 -0.01,0.16 0.15,0.07 2.89,1.35 -2.18,7.72 -4.03,2.83 -0.14,0.1 0.05,0.16 2.64,9.37 -3.66,9.78 -0.05,0.13 0.08,0.11 2.05,2.67 0.11,0.13 0.16,-0.05 7.13,-2.44 4.54,0.98 1.59,2.79 0.06,0.1 0.12,0.02 5.39,0.79 0.96,3.46 -8.97,18.6 -0.03,0.07 0.01,0.08 0.91,4.55 0.02,0.09 0.08,0.06 6.01,4.24 -2.26,4.36 -0.09,0.16 0.14,0.13 5.82,5.45 0.06,0.06 0.08,0.01 5.18,0.53 2.97,3.33 0.53,5.8 -3.36,3.01 -0.08,0.07 -0.01,0.1 -0.17,3.75 -2.15,3.22 -0.11,0.17 0.15,0.14 2.56,2.39 -2.76,3.28 -0.16,0.18 0.18,0.15 6.72,6.18 0.04,0.03 0.04,0.02 3.02,1.25 2.25,3.28 -4.24,8.82 H 9.17 9.12 l -0.05,0.02 -4.18,1.82 -0.1,0.04 -0.03,0.1 -2.19,5.64 -0.05,0.13 0.1,0.11 8.48,9.94 v 4.88 z"/></g><g transform="translate(950.6209,678.4431)" id="g52"><path id="path54" style="fill:#9f9fa0;fill-opacity:1;fill-rule:evenodd;stroke:none" d="M 0,0 5.63,-6.68 6.86,-5.44 8.4,2.25 10.24,5.84 8.19,8.61 3.07,8.2 0,3.59 Z"/></g><g transform="translate(1037.5109,611.3031)" id="g56"><path id="path58" style="fill:#9f9fa0;fill-opacity:1;fill-rule:evenodd;stroke:none" d="m 0,0 -1.28,14.13 -3.91,2.22 9.27,6.4 -1.31,4.31 -17.23,1.43 -2.09,-2.74 -4.7,-0.39 -0.52,-3.65 -3.78,0.26 v 5.09 l 4.3,1.43 1.7,3.53 -0.91,9.26 -1.7,0.66 -2.09,-1.31 -0.13,3.4 -4.05,-1.57 -2.74,3.13 1.05,5.09 3.39,-3 1.96,1.57 2.87,-3.14 1.7,3.92 -0.39,4.7 3.13,2.61 5.48,-0.52 9.14,6.92 -2.22,2.61 4.57,-0.66 -0.13,4.44 -4.96,-0.91 -1.44,3.13 -6.66,1.31 2.62,3.26 -3.4,2.48 3.13,2.22 -3.91,5.09 -11.1,-6.53 -0.65,-5.35 -3,-3.91 7.44,-3.01 -4.05,-1.82 -12.01,3.26 -13.96,-9.27 -20.89,-11.35 -5.61,-9.14 0.52,-2.74 -3.79,-1.05 -5.35,-4.83 3.79,-4.7 3.39,1.05 5.09,-2.87 -0.52,-5.09 -4.7,-0.53 -3.13,-1.82 -6.66,4.17 V 12.7 l -6.79,-5.09 -2.62,-5.08 11.27,-8.45 0.1,-0.07 v -0.12 -5.09 -0.09 l -0.06,-0.07 -8.45,-9.89 2.09,-5.41 4.04,-1.76 h 5.41 0.15 l 0.07,-0.14 2.13,-4.43 3.51,-0.52 0.11,-0.02 0.06,-0.11 2.25,-3.98 4.71,2.27 0.09,0.04 0.09,-0.03 4.41,-1.41 3.36,2.99 0.06,0.06 0.08,0.01 5.18,0.35 3.85,4.03 -0.7,3.88 -0.04,0.21 0.2,0.06 3.88,1.24 1.05,3.69 0.05,0.16 0.16,0.02 3.3,0.34 1.04,3.13 0.05,0.13 0.13,0.03 6.08,1.43 1.58,2.81 0.07,0.12 0.13,0.01 9.09,0.54 0.18,0.01 0.06,-0.17 2.11,-5.78 6.32,1.93 0.04,0.01 h 0.04 l 6.92,-0.17 5.58,16.01 0.09,0.27 0.25,-0.13 3.37,-1.77 z"/></g><g transform="translate(1080.2308,539.6231)" id="g60"><path id="path62" style="fill:#9f9fa0;fill-opacity:1;fill-rule:evenodd;stroke:none" d="M 0,0 2.04,-2.03 6,1.22 4.27,1.63 Z"/></g><g transform="translate(1063.2108,453.9231)" id="g64"><path id="path66" style="fill:#9f9fa0;fill-opacity:1;fill-rule:evenodd;stroke:none" d="M 0,0 0.32,-1.52 2.29,-2.79 3.24,-0.38 2.16,1.4 Z"/></g><g transform="translate(1069.4309,456.8431)" id="g68"><path id="path70" style="fill:#9f9fa0;fill-opacity:1;fill-rule:evenodd;stroke:none" d="M 0,0 -0.32,-1.46 1.84,-2.28 2.98,-1.01 0.89,0.82 Z"/></g><g transform="translate(1068.1008,453.6631)" id="g72"><path id="path74" style="fill:#9f9fa0;fill-opacity:1;fill-rule:evenodd;stroke:none" d="M 0,0 -0.51,-6.02 1.84,-9.07 4,-8.06 3.55,-2.09 1.84,-0.5 Z"/></g><g transform="translate(1071.4608,440.2731)" id="g76"><path id="path78" style="fill:#9f9fa0;fill-opacity:1;fill-rule:evenodd;stroke:none" d="m 0,0 -0.32,-2.22 1.02,-2.22 2.79,1.27 0.38,1.46 z"/></g><g transform="translate(1075.0509,422.6331)" id="g80"><path id="path82" style="fill:#9f9fa0;fill-opacity:1;fill-rule:evenodd;stroke:none" d="m 0,0 -1.04,-1.99 1.56,-2.25 1.91,1.81 -1.21,2.26 z"/></g><g transform="translate(1075.2308,411.4531)" id="g84"><path id="path86" style="fill:#9f9fa0;fill-opacity:1;fill-rule:evenodd;stroke:none" d="M 0,0 1.04,-1.73 2.51,-1.21 2.86,1.56 0.95,2 Z"/></g><g transform="translate(1076.5309,406.9531)" id="g88"><path id="path90" style="fill:#9f9fa0;fill-opacity:1;fill-rule:evenodd;stroke:none" d="m 0,0 -1.56,-1.65 1.21,-3.29 3.64,0.95 -1.21,3.38 z"/></g><g transform="translate(1074.1008,393.2631)" id="g92"><path id="path94" style="fill:#9f9fa0;fill-opacity:1;fill-rule:evenodd;stroke:none" d="m 0,0 -1.82,-1.82 0.09,-3.82 0.08,-3.98 0.09,-1.82 h 1.91 l 1.56,4.51 -0.35,4.41 z"/></g><g transform="translate(1068.6409,378.3531)" id="g96"><path id="path98" style="fill:#9f9fa0;fill-opacity:1;fill-rule:evenodd;stroke:none" d="m 0,0 1.91,-0.09 0.6,-2.51 -1.38,-2.16 -1.82,-2.6 -0.18,-2.86 -0.52,-3.55 -0.34,-2.69 -0.87,0.43 -0.69,4.68 -0.17,5.81 2.34,2.42 1.3,1.13 z"/></g><g transform="translate(1061.7709,347.3531)" id="g100"><path id="path102" style="fill:#9f9fa0;fill-opacity:1;fill-rule:evenodd;stroke:none" d="M 0,0 0.94,0.41 1.31,7.18 2.48,8.54 2.7,10.31 1.46,11.09 -0.45,10.19 -1.5,9.36 -0.56,6.39 -0.9,2.55 Z"/></g><g transform="translate(1068.9009,354.1631)" id="g104"><path id="path106" style="fill:#9f9fa0;fill-opacity:1;fill-rule:evenodd;stroke:none" d="M 0,0 0.64,-1.47 2.55,-0.79 2.14,1.24 1.09,2.71 0.04,1.69 Z"/></g><g transform="translate(1032.1008,553.1331)" id="g108"><path id="path110" style="fill:#9f9fa0;fill-opacity:1;fill-rule:evenodd;stroke:none" d="m 0,0 -1.53,-4.57 5.79,-6.5 0.81,9.34 -3.14,1.42 z"/></g><g transform="translate(1070.2809,536.0731)" id="g112"><path id="path114" style="fill:#9f9fa0;fill-opacity:1;fill-rule:evenodd;stroke:none" d="M 0,0 1.52,-2.34 7.31,-3.25 9.65,-2.04 8.23,0.4 3.96,0.91 Z"/></g><g transform="translate(965.1309,484.6431)" id="g116"><path id="path118" style="fill:#9f9fa0;fill-opacity:1;fill-rule:evenodd;stroke:none" d="m 0,0 3.49,2.3 2.35,1.96 3.26,0.78 -1.04,6.66 5.74,1.83 4.44,3.91 4.05,0.13 -3.01,-4.3 2.88,-2.49 4.17,4.7 1.05,7.44 3.78,1.44 3,3.92 -3.13,2.35 -2.74,-3.4 -2.87,2.74 -0.78,13.45 -2.48,7.96 0.78,5.88 4.83,6.91 2.74,0.13 1.31,3.92 5.61,-7.7 3.91,0.65 0.27,2.87 -0.92,5.88 -0.99,4.13 -3.77,2.13 -0.1,0.05 -0.02,0.12 -0.72,3.76 -2.43,2.26 -3.92,-0.36 -0.18,-0.01 -0.07,0.17 -2.33,6.1 -3.35,0.71 -0.1,0.02 -0.06,0.08 -5.37,7.81 -3.79,-3.97 -0.07,-0.07 H 13.33 L 8.14,92.49 4.74,89.45 4.64,89.36 4.51,89.4 0.05,90.83 -4.77,88.5 l -0.2,-0.09 -0.12,0.2 -2.3,4.07 -3.07,0.46 1.98,-4.13 0.07,-0.13 -0.08,-0.11 -2.37,-3.46 -0.04,-0.06 -0.07,-0.02 -3.05,-1.26 -6.52,-6 2.76,-3.28 0.15,-0.17 -0.17,-0.16 -2.58,-2.41 2.07,-3.1 0.04,-0.05 v -0.07 l 0.18,-3.72 3.37,-3.02 0.1,-0.08 -0.01,-0.12 -0.55,-6.01 -0.01,-0.08 -0.05,-0.06 -3.09,-3.45 -0.07,-0.07 -0.09,-0.01 -5.19,-0.54 -5.63,-5.27 2.28,-4.38 0.1,-0.19 -0.17,-0.13 -6.11,-4.3 -0.87,-4.38 8.84,-18.35 4.08,2.72 0.1,0.06 0.11,-0.03 9.24,-3.08 0.14,-0.05 0.03,-0.14 1.02,-5.13 0.02,-0.08 -0.04,-0.08 -2.2,-4 1.66,-3.32 3.67,2.7 0.07,0.05 h 0.07 4.73 0.14 l 0.07,-0.12 z"/></g><g transform="translate(972.2509,326.3531)" id="g120"><path id="path122" style="fill:#9f9fa0;fill-opacity:1;fill-rule:evenodd;stroke:none" d="m 0,0 -0.5,-15.23 2.74,-4.7 -10.7,-0.92 -3.52,-7.7 9.92,-10.18 0.26,-3.79 5.48,5.22 9.4,-0.13 6.78,5.49 4.05,8.09 1.96,22.19 2.74,11.62 -1.82,13.59 -2.68,0.76 -0.15,0.04 -0.03,0.15 -0.65,3.25 -4.46,3.19 -5,-3.75 2.97,-3.21 4.72,-0.4 0.26,-0.02 -0.03,-0.25 -1.08,-7.36 -0.03,-0.21 h -0.2 L 17.08,15.61 17.59,10.92 17.6,10.77 17.48,10.69 12.66,7.48 12.61,7.44 H 12.54 L 4.62,6.91 2.64,4.31 4.18,1.23 4.32,0.95 4.01,0.89 Z"/></g><g transform="translate(939.0009,335.6931)" id="g124"><path id="path126" style="fill:#9f9fa0;fill-opacity:1;fill-rule:evenodd;stroke:none" d="m 0,0 3.91,-6.17 4.17,-3.65 8.88,4.3 1.17,3.66 6.66,7.44 3.63,1.66 0.95,3.85 L 19.49,7.75 19.36,7.7 19.26,7.79 15.84,10.55 8.39,10.68 4.73,7.2 Z"/></g><g transform="translate(867.9609,358.8931)" id="g128"><path id="path130" style="fill:#9f9fa0;fill-opacity:1;fill-rule:evenodd;stroke:none" d="m 0,0 8.89,4.57 6.79,-2.35 8.23,1.3 12.01,-11.87 14.88,-15.41 5.87,2.35 3.66,-1.69 2.61,1.3 4.96,-1.57 2.68,0.35 4.71,7.17 -5.71,7.92 -7.15,3.57 -0.13,0.07 v 0.15 4.49 0.08 l 0.04,0.07 2.59,3.45 -1.68,2.1 -0.13,0.16 0.13,0.15 4.01,4.67 0.66,3.76 0.02,0.07 0.04,0.05 2.59,2.81 -1.73,3.67 -0.14,0.29 0.32,0.05 6.9,1.12 1.64,1.64 -2.61,8.03 -2.6,0.4 -1.27,-2.54 -0.07,-0.13 h -0.15 -4.08 l -0.86,-3.64 -0.01,-0.07 -0.06,-0.05 -5.62,-5.18 -0.06,-0.05 -0.09,-0.01 -3.6,-0.22 -0.14,-0.01 -0.08,0.12 -3.07,4.61 h -6.84 -0.23 l -0.02,0.23 -0.22,3.82 -0.01,0.15 0.13,0.08 3.01,1.72 -0.43,4.11 -0.01,0.07 0.03,0.06 3.98,8.62 -2.46,2.67 -16.55,-8.6 0.42,-2.53 0.03,-0.19 -0.19,-0.07 -3.59,-1.35 -0.07,-0.03 -0.07,0.02 -3.07,0.65 -10.72,-4.91 -0.14,-0.06 -0.12,0.1 -2.59,2.16 -7.74,-2.88 -0.13,-0.05 -0.1,0.09 -3.99,3.1 -6.11,0.21 -2.63,-2.62 -0.16,-0.17 -0.17,0.16 -2.76,2.55 -1.86,-1.65 -0.16,-0.14 -0.16,0.13 -3.49,2.83 -4.34,-1.73 -4.22,-2.77 5.34,-3.56 0.2,-0.14 -0.14,-0.2 -1.59,-2.23 2.46,-2.46 4.46,2.48 0.21,0.11 0.12,-0.21 2.13,-3.77 3.42,0.81 0.27,0.07 0.03,-0.29 0.5,-6.71 3.48,-1.99 0.23,-0.13 -0.15,-0.22 -1.96,-2.78 z"/></g><g transform="translate(1070.3009,459.6631)" id="g132"><path id="path134" style="fill:#9f9fa0;fill-opacity:1;fill-rule:nonzero;stroke:none" d="m 0,0 -1.04,13.05 -1.44,6.01 -4.3,4.3 0.39,6.4 2.22,1.83 -7.44,8.61 0.13,6.01 3.13,3.39 -0.78,3.4 -6.27,1.82 -6.4,11.36 1.57,1.04 1.96,-2.74 3.13,1.96 -4.83,4.57 -2.61,-1.44 -4.17,2.71 -0.07,-0.08 -2.15,5.07 h -4.31 l -0.52,-3 -2.75,0.26 -8.87,17.76 0.52,5.61 3.53,0.78 -2.62,10.44 5.62,-4.43 0.13,12.53 4.44,4.57 6.65,0.13 -3.78,9.26 -1.81,19.97 -4.31,-1.31 -0.09,-0.03 -0.09,0.05 -3.21,1.69 -5.54,-15.92 -0.06,-0.17 -0.18,0.01 -7.05,0.18 -6.51,-1.99 -0.22,-0.07 -0.08,0.22 -2.12,5.83 -8.78,-0.53 -1.57,-2.79 -0.05,-0.1 -0.11,-0.02 -6.05,-1.43 -1.05,-3.14 -0.05,-0.15 -0.15,-0.01 -3.3,-0.35 -1.04,-3.66 -0.04,-0.13 -0.12,-0.04 -3.8,-1.2 0.68,-3.74 5.46,-7.94 3.39,-0.71 0.13,-0.03 0.04,-0.12 2.32,-6.06 3.85,0.35 0.1,0.01 0.08,-0.07 2.57,-2.38 0.06,-0.06 0.01,-0.08 0.72,-3.73 3.54,-2 2.45,2.28 -6.66,7.97 1.57,5.22 6.39,2.22 -3.39,-5.09 0.78,-3.92 5.09,-3.52 2.35,-0.13 -0.13,-3.66 2.22,-0.52 -2.09,-10.44 2.35,-3.92 0.79,-12.14 1.82,-7.83 2.48,-7.83 -2.87,-3.14 0.91,-3 -1.56,-2.09 4.04,-4.7 0.66,-7.44 5.55,-6.27 6.59,-7.43 z"/></g></g></svg>