<svg xmlns:dc="http://purl.org/dc/elements/1.1/" xmlns:cc="http://creativecommons.org/ns#" xmlns:rdf="http://www.w3.org/1999/02/22-rdf-syntax-ns#" xmlns:svg="http://www.w3.org/2000/svg" xmlns="http://www.w3.org/2000/svg" xml:space="preserve" id="svg2" version="1.1" viewBox="1168.57 1121.93 58.28 99.67"><metadata id="metadata8"><rdf:RDF><cc:Work rdf:about=""><dc:format>image/svg+xml</dc:format><dc:type rdf:resource="http://purl.org/dc/dcmitype/StillImage"/></cc:Work></rdf:RDF></metadata><defs id="defs6"/><g transform="matrix(1.3333333,0,0,-1.3333333,0,1440)" id="g10"><g transform="translate(895.3821,186.4945)" id="g12"><path id="path14" style="fill:#9f9fa0;fill-opacity:1;fill-rule:evenodd;stroke:none" d="m 0,0 -1.39,-1.39 0.26,-3.92 3.66,-5.22 -0.27,-5.48 -0.65,-2.61 3.26,-4.05 1.57,0.66 0.91,1.56 1.96,-1.04 2.09,-0.66 2.48,1.57 v 6.92 l 1.7,9.79 6.26,6 0.53,6.27 -0.66,2.74 3.04,2.29 -0.89,2.34 -3.99,3.99 -1.46,-1.14 -0.07,-0.05 h -0.09 l -4.26,0.18 -2.31,-1.82 0.82,-1.64 0.09,-0.2 L 12.41,14.98 10.35,13.7 12.96,9.97 15.77,9.44 15.92,9.41 15.96,9.26 16.87,5.82 16.92,5.61 16.73,5.53 14.55,4.63 14.5,4.6 14.44,4.61 12.24,4.78 9.41,-0.7 9.27,-0.97 9.04,-0.77 6.86,1.07 5.57,-0.39 5.49,-0.48 5.37,-0.47 Z"/></g><g transform="translate(894.2421,191.3845)" id="g16"><path id="path18" style="fill:#9f9fa0;fill-opacity:1;fill-rule:evenodd;stroke:none" d="m 0,0 0.92,-2.5 0.39,-1.91 5.12,-0.45 1.37,1.54 0.16,0.18 0.18,-0.16 2.12,-1.8 2.76,5.35 0.08,0.15 0.16,-0.02 2.3,-0.17 1.92,0.8 -0.81,3.09 -2.75,0.52 -0.1,0.02 -0.06,0.08 -3.73,5.34 L 7.12,10.23 5.72,9.61 7.31,3.65 7.36,3.45 7.18,3.37 Z"/></g><g transform="translate(887.0021,202.1145)" id="g20"><path id="path22" style="fill:#9f9fa0;fill-opacity:1;fill-rule:evenodd;stroke:none" d="m 0,0 0.2,-4.48 5.22,-2.48 0.04,-0.76 2.39,0.79 1.72,1.38 1.24,3.92 0.03,0.1 0.1,0.04 2.91,1.3 L 11.57,1.65 10.72,0.17 10.63,0.01 10.45,0.06 4.53,1.49 0.1,0.07 Z"/></g><g transform="translate(883.152,211.1145)" id="g24"><path id="path26" style="fill:#9f9fa0;fill-opacity:1;fill-rule:evenodd;stroke:none" d="m 0,0 2.75,-3.04 0.13,-4.17 0.83,-1.3 0.02,0.02 0.04,0.01 4.53,1.45 0.06,0.02 0.07,-0.01 5.81,-1.41 1.85,3.19 -0.82,2.63 H 12.54 12.45 L 12.38,-2.54 7.01,2.29 3.19,2.47 Z"/></g><g transform="translate(876.4321,223.6245)" id="g28"><path id="path30" style="fill:#9f9fa0;fill-opacity:1;fill-rule:evenodd;stroke:none" d="m 0,0 3.2,-5.37 v -3.26 l 3.19,-3.52 3.3,2.55 0.07,0.05 h 0.09 l 3.72,-0.17 -0.17,3.9 -0.01,0.14 0.12,0.07 1.99,1.33 L 12.65,1.1 11.69,-0.84 11.61,-0.99 11.44,-0.97 8,-0.61 7.89,-0.6 7.83,-0.51 5.94,2.06 Z"/></g><g transform="translate(899.1021,237.6045)" id="g32"><path id="path34" style="fill:#9f9fa0;fill-opacity:1;fill-rule:evenodd;stroke:none" d="m 0,0 -1.8,-1.48 -0.22,-0.18 -0.15,0.24 -1.34,2.35 -1.66,-0.76 -0.17,-1.49 -0.01,-0.09 -0.06,-0.06 -1.63,-1.63 1.44,-1.28 0.14,-0.12 -0.09,-0.17 -1.38,-2.59 1.01,-1.51 0.16,-0.25 -0.28,-0.11 -2.63,-1.06 -1.08,-2.16 3.11,-5.88 0.11,-0.19 -0.19,-0.12 -2.06,-1.37 0.17,-3.94 5.3,-4.76 h 2.8 0.18 l 0.06,-0.17 0.9,-2.9 0.03,-0.1 -0.05,-0.1 -0.89,-1.54 2.59,-2.08 3,-0.18 0.12,-0.01 0.07,-0.09 0.85,-1.23 1.89,1.17 -0.8,1.62 -0.09,0.18 0.15,0.12 2.54,1.99 0.07,0.06 0.09,-0.01 4.26,-0.17 1.48,1.14 0.17,3.85 -0.89,3.74 -2.7,4.86 -0.04,0.08 0.01,0.08 0.71,4.27 -2.49,4.27 -0.01,0.02 -0.01,0.02 L 9.64,-6.93 7.22,-6.24 7.14,-6.22 7.09,-6.15 5.91,-4.46 4.07,-4.8 3.93,-4.82 3.84,-4.71 Z"/></g></g></svg>