<svg xmlns:dc="http://purl.org/dc/elements/1.1/" xmlns:cc="http://creativecommons.org/ns#" xmlns:rdf="http://www.w3.org/1999/02/22-rdf-syntax-ns#" xmlns:svg="http://www.w3.org/2000/svg" xmlns="http://www.w3.org/2000/svg" xml:space="preserve" id="svg2" version="1.1" viewBox="70.65 212.17 419.55 201.12"><metadata id="metadata8"><rdf:RDF><cc:Work rdf:about=""><dc:format>image/svg+xml</dc:format><dc:type rdf:resource="http://purl.org/dc/dcmitype/StillImage"/></cc:Work></rdf:RDF></metadata><defs id="defs6"/><g transform="matrix(1.3333333,0,0,-1.3333333,0,1440)" id="g10"><g transform="translate(119.6,855.75)" id="g12"><path id="path14" style="fill:#9f9fa0;fill-opacity:1;fill-rule:evenodd;stroke:none" d="m 0,0 -1.18,-0.94 -0.71,-1.85 0.14,-6.14 0.01,-0.18 -0.17,-0.05 -4.53,-1.46 -0.28,-2.11 -0.03,-0.19 -0.19,-0.02 -1.49,-0.14 -0.41,-1.49 -0.01,-0.06 -0.05,-0.05 -0.66,-0.66 1.55,-1.55 2.9,-2.1 5.62,-1.47 0.06,-0.01 0.04,-0.04 1.91,-1.67 5.44,-0.47 0.37,2 0.02,0.09 0.07,0.06 1.07,0.82 0.14,0.11 0.15,-0.1 2.54,-1.81 0.07,-0.05 0.03,-0.09 0.55,-2.3 2.98,-2.44 2.62,0.16 h 0.1 l 0.07,-0.06 4.08,-3.64 0.19,1.87 -0.71,2.28 -1.85,2.02 -0.12,0.13 0.1,0.16 1.76,2.73 -0.32,2.99 -1.62,3.17 -0.04,0.07 0.02,0.09 0.44,2.21 -1.55,0.21 -0.16,0.02 -0.04,0.16 -0.37,1.47 -2.77,0.07 -0.13,0.01 -0.07,0.12 -0.82,1.48 -0.07,0.11 0.07,0.12 0.7,1.33 -0.14,1.75 -2.15,0.71 -0.63,-0.84 -0.08,-0.11 -0.14,0.01 -1.48,0.17 -0.08,0.01 -0.05,0.05 L 9.23,-4.01 6.88,-4.32 6.72,-4.35 6.64,-4.2 5.28,-1.8 3.73,-1.07 1.05,-2.41 0.79,-2.54 0.71,-2.26 Z"/></g><g transform="translate(147.79,820.52)" id="g16"><path id="path18" style="fill:#9f9fa0;fill-opacity:1;fill-rule:evenodd;stroke:none" d="m 0,0 5.3,-3.42 2.08,0.11 0.12,0.01 0.08,-0.1 2.5,-3.07 0.08,-0.09 -0.03,-0.12 -1.22,-4.41 3.2,-3.06 8.65,-0.44 0.07,-0.01 0.05,-0.03 5.72,-3.46 0.06,-0.04 0.03,-0.06 3.73,-6.87 6.04,-3.53 4.12,1.03 0.14,0.03 0.09,-0.09 1.79,-1.79 2.88,2.98 -2.56,2.42 -0.12,0.11 0.06,0.16 0.64,1.61 0.07,0.16 0.17,-0.01 3.79,-0.16 4.03,2.64 v 2.78 l -2.77,1.39 -0.2,0.1 0.08,0.2 0.88,2.35 -2.58,0.86 -1.69,-0.77 -0.23,-0.11 -0.09,0.24 -2.04,5.18 -5.01,0.15 -0.11,0.01 -0.07,0.08 -3.2,3.68 -3.04,1.92 -0.02,0.02 -0.02,0.01 -2.9,2.75 h -0.01 l -0.01,0.01 -8.55,9.69 -0.08,0.08 0.02,0.11 0.64,4.84 0.01,0.08 0.05,0.05 3.15,3.6 -2.07,0.69 -0.17,0.06 v 0.17 3.31 L 18.96,24 17.22,22.34 17.15,22.27 h -0.1 l -3.62,0.17 H 13.34 L 13.27,22.51 11.58,24.29 9.96,24.33 7.57,23.53 3.71,20.63 1.19,15.34 1.12,15.19 0.96,15.2 -3.24,15.52 -5.58,14.27 -7.25,11.69 -5.49,9.77 -5.46,9.73 -5.44,9.68 -4.7,7.29 -4.69,7.25 V 7.2 L -4.91,5.08 -0.8,5.11 h 0.22 l 0.03,-0.22 z"/></g><g transform="translate(118.86,867.75)" id="g20"><path id="path22" style="fill:#9f9fa0;fill-opacity:1;fill-rule:evenodd;stroke:none" d="m 0,0 -2.53,-0.29 -4.05,-3.13 -2.35,-3.26 -4.56,0.26 -2.75,-4.57 -3.26,-0.39 -0.13,-3.53 -4.83,-3.13 0.26,-4.57 1.96,-2.48 -2.22,-2.74 0.52,-2.22 3.13,-0.78 0.66,-3.26 -0.99,-1.77 0.21,-0.03 2.07,0.54 0.09,0.02 0.08,-0.04 1.09,-0.58 4,0.77 1.58,2.44 0.89,3.73 0.02,0.07 0.05,0.04 2.51,2.52 0.44,1.59 0.04,0.17 0.17,0.01 1.46,0.14 0.28,2.06 0.02,0.16 0.15,0.04 4.5,1.45 -0.15,6 v 0.05 l 0.01,0.04 0.76,1.96 0.02,0.06 0.05,0.04 1.45,1.16 1.45,4.5 -1.9,3.07 -0.03,0.05 v 0.07 z"/></g><g transform="translate(143.62,874.15)" id="g24"><path id="path26" style="fill:#9f9fa0;fill-opacity:1;fill-rule:evenodd;stroke:none" d="m 0,0 -4.32,-0.16 -5.35,-1.96 -0.26,-4.31 0.52,-1.95 -1.56,-1.31 -1.18,3 -2.09,0.13 -3.26,3.14 -4.05,-2.61 -2.73,-0.32 0.17,-3.73 1.92,-3.11 0.06,-0.1 -0.03,-0.1 -1.48,-4.6 0.71,-2.26 2.53,1.27 0.11,0.05 0.11,-0.05 1.72,-0.82 0.07,-0.03 0.03,-0.07 1.32,-2.32 2.3,0.31 0.11,0.01 0.08,-0.07 1.5,-1.35 1.26,-0.14 0.66,0.88 0.1,0.14 0.17,-0.06 2.46,-0.82 0.16,-0.05 0.01,-0.16 0.16,-1.98 0.01,-0.07 -0.04,-0.06 -0.67,-1.28 0.69,-1.24 2.81,-0.08 0.19,-0.01 0.04,-0.18 0.37,-1.48 1.64,-0.23 0.26,-0.03 -0.05,-0.25 -0.48,-2.39 1.6,-3.13 0.03,-0.04 v -0.04 l 0.29,-2.77 2.14,1.15 0.07,0.03 H 0.9 l 4.1,-0.32 2.47,5.19 0.02,0.05 0.05,0.04 3.94,2.96 0.03,0.02 0.04,0.02 2.46,0.82 0.04,0.01 h 0.04 l 3.44,-0.08 1.8,1.44 -3.33,4.34 -2.12,0.4 -0.15,0.03 -0.04,0.14 -1.01,3.34 -1.33,-0.13 -0.22,-2.02 -0.03,-0.27 -0.27,0.06 -1.06,0.25 -0.11,0.02 -0.05,0.09 -0.81,1.4 -1.04,-0.31 -0.16,-2.38 -0.02,-0.28 -0.27,0.06 -1.48,0.33 -0.11,0.02 -0.06,0.11 -0.83,1.75 -4.11,-0.08 H 0.59 l -0.08,0.11 -1.65,2.44 h -3.89 -0.11 l -0.08,0.09 -1.06,1.32 -0.13,0.15 0.13,0.15 6.67,8.07 z"/></g><g transform="translate(201.13,890.4)" id="g28"><path id="path30" style="fill:#9f9fa0;fill-opacity:1;fill-rule:evenodd;stroke:none" d="M 0,0 1.09,6.69 2.66,4.48 2,-0.23 3.96,-4.4 l 0.52,-6.92 2.74,-4.18 0.66,-4.3 10.18,-6.14 6.26,1.17 4.7,6.4 1.31,6.79 -2.09,8.09 0.26,11.75 -1.3,4.31 -3.27,5.22 -0.52,4.05 1.44,0.91 1.95,-2.74 1.96,1.3 -1.83,3.53 -6.91,4.7 -9.92,0.91 -1.96,-1.44 -4.96,-2.87 0.13,-3.91 -3.4,-5.49 -6.65,-0.13 -2.22,-2.79 4.87,-6.49 0.07,-0.09 -0.03,-0.1 -0.77,-3.86 4.03,-2.01 0.07,-0.03 0.04,-0.07 z"/></g><g transform="translate(188.96,863.23)" id="g32"><path id="path34" style="fill:#9f9fa0;fill-opacity:1;fill-rule:evenodd;stroke:none" d="m 0,0 -0.32,2.14 0.4,1.83 -1.7,2.35 1.57,2.87 4.82,6.01 4.05,1.3 2.35,4.05 0.88,5.87 -0.95,1.62 -4.13,2.06 -0.17,0.09 0.04,0.18 0.79,3.93 -4.73,6.3 -5.57,-7 -2.87,0.13 -3.65,-2.48 -2.61,0.13 -1.05,-2.61 -1.17,-2.22 -2.09,-1.56 1.17,-2.22 -1.43,-1.44 -4.83,0.79 -1.31,-4.57 -0.91,-6.92 -2.87,-1.18 -12.79,1.7 -5.78,-0.21 0.18,-3.73 3.13,0.62 0.03,0.01 0.05,-0.01 4.1,-0.57 0.1,-0.02 0.06,-0.08 1.64,-2.3 0.05,-0.07 V 4.71 l -0.08,-2.88 -0.01,-0.09 -0.05,-0.06 -1.42,-1.65 0.16,-3.2 v -0.02 -0.02 l -0.41,-2.8 -0.01,-0.1 -0.08,-0.05 -2.08,-1.61 -0.6,-1.56 0.81,-1.69 1.09,-0.25 0.14,2.27 0.01,0.17 0.17,0.05 1.39,0.41 0.18,0.05 0.1,-0.16 0.85,-1.47 0.7,-0.16 0.21,1.94 0.02,0.2 0.2,0.02 1.73,0.16 0.19,0.02 0.06,-0.19 1.02,-3.39 2.07,-0.39 0.09,-0.01 0.06,-0.08 3.26,-4.25 0.49,1.34 -0.33,4.06 v 0.07 l 0.03,0.06 1.48,2.88 0.01,0.03 0.02,0.02 5.34,5.76 0.09,0.1 0.14,-0.03 3.12,-0.74 0.1,-0.02 0.05,-0.1 0.99,-1.81 0.04,-0.07 -0.01,-0.08 -0.5,-3.13 -0.01,-0.08 -0.06,-0.05 -2.29,-2.22 -3.89,-4.39 -1.05,-3.74 2.59,0.03 h 0.25 v -0.25 -3.37 l 2.1,-0.7 1.51,1.66 0.07,0.08 h 0.11 1.9 l 0.77,3.52 0.01,0.06 0.05,0.05 3.58,3.74 -0.87,1.46 -1.13,1.94 -0.05,0.09 0.02,0.1 0.81,2.9 0.02,0.06 0.04,0.05 3.5,3.5 0.31,1.86 0.05,0.26 0.25,-0.07 2.41,-0.64 1.48,-0.3 1.85,2 0.03,0.04 0.04,0.02 z"/></g><g transform="translate(243.93,836.79)" id="g36"><path id="path38" style="fill:#9f9fa0;fill-opacity:1;fill-rule:evenodd;stroke:none" d="m 0,0 -4.81,-6.21 1.68,-2.6 0.08,-0.12 -0.07,-0.13 -1.09,-2.02 0.79,-3.3 0.04,-0.17 -0.16,-0.1 -3.06,-1.77 -0.13,-0.08 -0.12,0.09 -3.98,2.54 -3.8,-0.16 -0.2,-0.01 -0.04,0.2 -0.63,2.82 -9.57,7.37 -1.06,-1.59 2.66,-4.39 0.05,-0.08 -0.02,-0.09 -0.8,-3.72 -0.02,-0.07 -0.05,-0.05 -2.29,-2.29 1.04,-1.77 0.02,-0.05 0.01,-0.06 0.16,-1.93 0.02,-0.25 -0.25,-0.01 -3.76,-0.16 -2.96,-3.89 -0.14,-2.34 3.55,-1.47 1.5,1.8 0.04,0.05 0.07,0.02 3.39,1.13 0.2,0.07 0.09,-0.19 2.1,-4.2 0.09,-0.17 -0.16,-0.13 -7.82,-6.22 -0.16,-3.45 v -0.11 l -0.09,-0.07 -2.75,-2.1 -0.11,-0.08 -0.13,0.05 -3.41,1.4 -2.46,-2 -7.28,-8.13 0.72,-1.7 0.02,-0.05 v -0.05 -5.4 l 1.18,-0.95 3.04,3.42 0.11,0.12 0.16,-0.06 9.2,-3.55 3.21,1.47 1.81,4.46 0.06,0.17 0.18,-0.02 6.11,-0.58 h 0.09 l 0.07,-0.08 4.52,-5.1 4.95,-2.57 6.95,-0.76 2.75,1.51 0.14,0.08 0.13,-0.11 7.5,-6.15 4.61,-0.65 8.35,14.3 0.02,0.03 0.03,0.02 6.24,5.57 0.95,3.42 0.02,0.07 0.05,0.05 6.2,5.52 0.21,0.19 0.16,-0.24 1.28,-2.01 3.45,0.18 4.08,3.61 0.07,0.06 h 0.08 l 6.27,0.1 4.56,3.78 0.07,0.05 h 0.08 l 8.96,0.4 2.35,2.74 0.04,0.05 0.07,0.02 3.54,1.18 2.11,3.26 -1.38,4.53 -0.03,0.1 0.05,0.09 1.65,2.92 -1.73,0.32 -1.12,-1.68 -0.07,-0.11 h -0.13 -2.12 l -2.75,-2.56 -0.09,-0.08 -0.13,0.03 -3.28,0.77 -2.52,-2.91 -0.07,-0.08 -0.1,-0.01 -7.45,-0.6 -0.09,-0.01 -0.07,0.05 -32.34,23.1 -3.11,-0.97 -0.04,-0.02 -0.05,0.01 z"/></g><g transform="translate(318.53,829.47)" id="g40"><path id="path42" style="fill:#9f9fa0;fill-opacity:1;fill-rule:evenodd;stroke:none" d="m 0,0 -2.49,4.58 -6.52,7.05 h -4.96 l -0.66,-2.88 -0.13,-4.3 -3.52,-2.09 -1.96,0.39 -1.3,-1.96 -2.48,1.96 2.87,2.61 v 2.87 l -9.27,0.13 -4.57,3.4 -7.05,-0.66 -2.48,3.4 4.18,0.39 2.22,4.31 -5.62,1.3 -2.61,-3.13 -1.3,2.35 -14.36,3.52 -1.83,-1.83 -2.09,1.96 -7.57,-4.43 -3.91,3.78 1.17,3.39 -1.17,3.4 4.7,1.56 4.3,-3 2.09,3.4 -0.13,6.13 -5.74,6.27 -1.7,-6.14 -7.83,-5.09 -0.65,-3.91 -3.74,-3.38 1.46,-7.83 4.11,-6.16 3.77,-0.47 0.11,-0.02 0.06,-0.09 2.03,-2.97 13.95,-1.5 3.17,0.99 0.12,0.04 0.1,-0.07 32.36,-23.12 7.26,0.59 2.56,2.95 0.09,0.11 0.15,-0.04 3.3,-0.77 2.72,2.53 0.07,0.06 h 0.1 2.08 l 1.14,1.71 0.09,0.13 0.15,-0.03 2.05,-0.37 1.66,2.95 -1.75,3.11 -0.09,0.17 0.15,0.13 z"/></g><g transform="translate(301.56,857.04)" id="g44"><path id="path46" style="fill:#9f9fa0;fill-opacity:1;fill-rule:evenodd;stroke:none" d="m 0,0 1.23,11.6 0.91,4.42 3.82,4.12 4.58,1.53 1.83,2.59 -1.07,3.21 3.35,-2.14 3.06,0.31 0.76,2.29 1.98,-0.16 0.16,2.29 2.44,-0.91 0.46,2.29 1.83,-1.99 1.37,1.83 0.46,2.75 2.59,-1.83 1.68,1.53 3.51,-0.77 2.9,3.36 22.28,0.46 5.34,2.9 0.61,3.97 -2.28,2.74 -5.35,-1.37 -0.91,-1.98 -9.16,0.76 -3.97,3.36 -3.51,-1.99 -3.51,1.53 -4.42,-2.9 h -3.66 l -1.83,-1.53 -2.45,2.6 -1.22,-5.35 -2.75,-0.15 -0.3,-2.13 -6.87,-2.14 -2.44,1.07 -1.53,-1.83 1.99,-1.99 -2.75,-2.59 -4.43,1.83 -0.61,-3.36 -3.2,0.15 -0.15,-2.59 -4.43,-2.29 -2.74,0.92 -3.06,-2.29 -0.15,-3.36 2.9,-2.9 0.15,-4.42 L -9.3,8.7 -7.17,3.97 -4.73,3.66 -4.57,1.53 -1.83,0.92 Z"/></g><g transform="translate(231.99,854.43)" id="g48"><path id="path50" style="fill:#9f9fa0;fill-opacity:1;fill-rule:evenodd;stroke:none" d="m 0,0 -3.93,-3.55 -1.82,3.4 2.61,0.52 -3.27,6.14 -4.96,-0.79 -4.96,1.7 -6.13,-0.91 -3.39,-8.49 -2.49,1.44 -3.52,8.22 0.52,6.4 -5.74,-0.66 -1.57,-5.48 2.48,-3 -2.35,-3.13 -3.78,2.09 -0.65,4.4 -0.12,-0.05 -1.9,-2.07 -0.1,-0.1 -0.13,0.03 -1.62,0.32 -0.01,0.01 -2.16,0.57 -0.28,-1.67 -0.01,-0.08 -0.06,-0.05 -3.51,-3.51 -0.76,-2.75 1.08,-1.84 0.97,-1.62 0.09,-0.15 -0.13,-0.14 -3.66,-3.82 -0.79,-3.65 -0.05,-0.19 h -0.19 -1.99 l -1.55,-1.7 -0.01,-0.01 -3.33,-3.8 -0.62,-4.66 8.48,-9.59 2.88,-2.73 3.05,-1.92 0.03,-0.02 0.02,-0.03 3.16,-3.63 5.06,-0.16 0.16,-0.01 0.06,-0.15 2,-5.08 1.55,0.7 0.08,0.04 0.09,-0.03 2.91,-0.97 0.24,-0.08 -0.09,-0.24 -0.89,-2.38 2.71,-1.35 0.13,-0.07 v -0.15 -2.78 l 2.79,0.44 0.14,0.02 0.09,-0.11 2.26,-2.74 0.04,-0.06 0.01,-0.08 0.28,-3.25 2.23,1.81 0.11,0.09 0.13,-0.06 3.43,-1.4 2.54,1.95 0.16,3.44 v 0.11 l 0.09,0.07 7.76,6.17 -1.92,3.83 -3.13,-1.04 -1.56,-1.88 -0.12,-0.14 -0.16,0.07 -3.88,1.61 -0.16,0.07 0.01,0.17 0.16,2.58 0.01,0.08 0.04,0.06 3.07,4.03 0.07,0.09 0.11,0.01 3.62,0.15 -0.13,1.63 -1.1,1.89 -0.1,0.16 0.13,0.13 2.37,2.38 0.78,3.55 -2.7,4.43 -0.08,0.13 0.09,0.13 1.29,1.94 0.14,0.22 0.21,-0.16 9.85,-7.59 0.07,-0.06 0.02,-0.08 0.6,-2.71 3.67,0.15 0.08,0.01 0.06,-0.04 3.91,-2.51 2.78,1.61 -0.76,3.22 -0.02,0.09 0.04,0.08 1.06,1.97 -1.69,2.63 -0.1,0.14 0.11,0.14 4.89,6.31 -1.93,2.83 -3.77,0.48 -0.11,0.01 -0.06,0.09 -4.2,6.3 -0.02,0.04 -0.01,0.05 z"/></g><g transform="translate(52.99,885.74)" id="g52"><path id="path54" style="fill:#9f9fa0;fill-opacity:1;fill-rule:evenodd;stroke:none" d="m 0,0 8.83,-19.09 5.49,2.86 0.48,10.51 -2.63,4.05 -1.19,-4.77 -2.63,1.67 -2.14,6.21 -2.63,-1.68 z"/></g></g></svg>