<svg xmlns:dc="http://purl.org/dc/elements/1.1/" xmlns:cc="http://creativecommons.org/ns#" xmlns:rdf="http://www.w3.org/1999/02/22-rdf-syntax-ns#" xmlns:svg="http://www.w3.org/2000/svg" xmlns="http://www.w3.org/2000/svg" xml:space="preserve" id="svg2" version="1.1" viewBox="993.42 854.47 417.15 470.47"><metadata id="metadata8"><rdf:RDF><cc:Work rdf:about=""><dc:format>image/svg+xml</dc:format><dc:type rdf:resource="http://purl.org/dc/dcmitype/StillImage"/></cc:Work></rdf:RDF></metadata><defs id="defs6"/><g transform="matrix(1.3333333,0,0,-1.3333333,0,1440)" id="g10"><g transform="translate(850.5771,93.048)" id="g12"><path id="path14" style="fill:#9f9fa0;fill-opacity:1;fill-rule:evenodd;stroke:none" d="m 0,0 16.79,6.31 6.01,0.39 1.04,-1.56 9.01,-1.96 0.65,-4.05 3.4,-1.69 9.52,-1.05 3.79,-0.52 1.96,-1.83 3,1.05 2.74,2.35 1.96,4.82 -3.26,3.92 0.39,6 2.09,0.66 0.13,2.74 2.74,0.13 0.76,2.94 -1.76,3.42 -0.08,0.15 0.11,0.12 1.92,2.17 -0.5,2.01 -0.04,0.13 0.1,0.1 1.37,1.37 -0.32,1.4 -3.93,-0.25 -0.08,-0.01 -0.07,0.05 -9.83,6.86 -0.59,-2.71 -0.04,-0.18 -0.18,-0.01 -11.96,-1.06 -0.75,-3.15 -0.04,-0.15 -0.14,-0.04 -2.33,-0.61 0.25,-2.19 0.01,-0.15 -0.12,-0.08 -3.23,-2.06 -0.13,-2.15 -0.01,-0.18 -0.18,-0.04 -2.21,-0.52 -3.95,-3.29 -0.08,-0.07 -0.11,0.01 -9.19,1.2 -0.06,0.01 -0.05,0.03 -5.65,3.98 -2.6,0.2 L 4.59,18.53 4.53,18.39 4.37,18.37 -2.16,17.95 -1.75,13.44 2.16,6.48 2.27,6.29 2.09,6.16 -0.63,4.28 Z"/></g><g transform="translate(842.5372,117.418)" id="g16"><path id="path18" style="fill:#9f9fa0;fill-opacity:1;fill-rule:evenodd;stroke:none" d="M 0,0 2.89,1.04 5.02,2.1 8.61,5.69 7.79,7.95 7.76,8.02 l 0.02,0.07 0.64,2.57 -0.86,3.44 -0.03,0.12 0.07,0.09 2.38,3.03 1.22,3.67 -3.5,1.24 -0.12,0.04 -0.04,0.12 -0.66,2.19 -0.04,0.12 0.07,0.1 2.76,3.61 -1.48,3.59 -0.03,0.07 0.02,0.07 0.66,2.84 0.03,0.12 0.11,0.05 3.68,1.73 1.82,1.81 -3.86,7.5 -0.04,0.08 0.02,0.08 0.56,2.6 L 7,47.19 6.9,47.15 6.8,47.19 1.39,49.57 -4.8,48.72 -7.15,45.95 -7.22,45.86 h -0.11 l -6.36,0.03 -0.13,-17.13 2.31,0.3 0.24,0.03 0.03,-0.24 0.43,-3.42 3.23,-3.44 0.04,-0.04 0.02,-0.04 1.07,-2.99 3,-2.14 0.21,-0.15 -0.17,-0.2 -2.27,-2.68 1.83,-2.03 0.09,-0.1 L -3.79,11.49 -4.66,7.99 -4.68,7.9 -4.76,7.85 -7.06,6.38 -7.25,2.28 -1.94,2.12 h 0.11 l 0.07,-0.08 z m -28.23,-11.09 0.46,-4.49 4.18,-2.35 0.13,-4.44 4.18,-0.91 1.7,-2.09 4.7,2.48 0.91,-3.26 3,-4.44 4.7,-0.52 1.43,3.13 6.27,0.26 4.15,3.09 -0.68,4.62 -0.02,0.15 0.12,0.09 2.66,1.84 -3.83,6.81 -0.03,0.04 v 0.05 l -0.4,4.38 -3.37,-2.58 -0.19,-0.15 -0.15,0.19 -3.06,3.94 -0.07,0.09 0.03,0.11 1.07,4.7 -1.72,1.96 -5.22,0.15 V 1.69 l -0.19,-0.04 -3.28,-0.66 -0.11,-0.02 -0.09,0.07 -2.71,2.13 -0.18,-2.18 -0.01,-0.06 -0.03,-0.05 -2.63,-3.94 -0.08,-0.12 -0.14,0.01 -4.76,0.43 -3.82,-1.27 -1.54,-2.12 2.37,-1.19 0.1,-0.05 0.03,-0.11 0.66,-2.84 0.06,-0.26 -0.27,-0.03 z"/></g><g transform="translate(781.3072,145.1579)" id="g20"><path id="path22" style="fill:#9f9fa0;fill-opacity:1;fill-rule:evenodd;stroke:none" d="m 0,0 6.31,-30.26 3.39,0.52 2.35,3.39 2.22,-0.91 0.66,-3.53 7.17,-3.91 5.62,2.09 3,-1.31 2.15,-4.44 4.13,0.48 -0.57,2.47 -2.52,1.26 -0.26,0.13 0.17,0.23 1.75,2.41 0.05,0.06 0.07,0.03 3.94,1.31 0.05,0.02 0.05,-0.01 4.67,-0.42 2.51,3.77 0.22,2.56 0.03,0.45 0.36,-0.28 2.97,-2.34 2.99,0.6 0.21,4.4 0.01,0.13 0.1,0.07 2.33,1.48 0.82,3.28 -1.88,2.09 -0.15,0.16 0.14,0.16 2.24,2.65 -2.85,2.03 -0.06,0.04 -0.03,0.08 -1.08,3.01 -3.24,3.47 -0.06,0.06 -0.01,0.07 -0.41,3.26 -2.26,-0.29 -2.93,-2.66 -0.08,-0.07 -0.11,0.01 -5.6,0.53 -1.69,-1.3 -0.15,-0.11 -0.15,0.11 -1.74,1.36 -4.87,-4.73 -0.17,-0.17 -0.16,0.17 -3.81,3.66 -0.05,0.05 -0.01,0.07 -0.67,2.8 L 21.99,4.4 9.12,-0.02 9.03,-0.05 8.95,-0.01 6.22,1.16 4.97,0.28 4.84,0.19 4.7,0.28 2.65,1.56 Z"/></g><g transform="translate(771.4672,157.9879)" id="g24"><path id="path26" style="fill:#9f9fa0;fill-opacity:1;fill-rule:evenodd;stroke:none" d="m 0,0 6.75,-0.15 -2.74,-2.87 5.66,-9.35 2.71,1.59 0.12,0.07 0.13,-0.07 2.03,-1.28 1.23,0.86 0.11,0.08 0.12,-0.05 2.77,-1.19 12.95,4.45 0.16,0.06 0.11,-0.14 3.26,-4.35 0.03,-0.04 0.01,-0.05 0.66,-2.78 3.58,-3.45 4.86,4.72 0.15,0.15 0.17,-0.13 1.75,-1.38 1.61,1.24 0.08,0.06 0.1,-0.01 5.59,-0.53 2.83,2.57 0.13,17.3 h -2.24 l -3.19,-2.66 -0.2,-0.16 -0.15,0.2 -1.36,1.77 -0.06,0.07 0.01,0.09 0.39,6.54 -9.39,0.26 -0.14,0.01 -0.06,0.12 -1.7,3.13 -4.87,-0.14 h -0.19 l -0.05,0.18 -0.94,3.49 -3.06,3.99 -16.44,7.82 v -5.32 -0.14 l -0.12,-0.07 -3.1,-1.81 0.91,-3.49 0.08,-0.32 -0.33,0.02 L 6.7,19.18 3.57,17.87 1.75,14.61 2.15,5.18 V 5.13 L 2.13,5.07 Z"/></g><g transform="translate(746.0472,179.9179)" id="g28"><path id="path30" style="fill:#9f9fa0;fill-opacity:1;fill-rule:evenodd;stroke:none" d="m 0,0 1.89,-0.54 0.13,-3.4 -1.18,-1.3 0.79,-2.35 -2.61,-3 0.52,-2.22 5.61,-1.31 0.26,-3 2.74,-0.13 2.09,-0.52 2.09,-2.35 -3,-2.48 v -2.09 l 3,0.91 2.61,-1.43 2.35,0.52 1.96,1.69 5.62,1.03 2.21,5.25 -0.4,9.45 v 0.07 l 0.03,0.06 1.9,3.39 0.04,0.08 0.08,0.03 3.26,1.36 0.05,0.02 h 0.06 l 3.73,-0.25 -0.86,3.34 -0.05,0.17 0.16,0.1 3.14,1.83 v 13.2 l -2.24,2.38 -0.15,0.15 0.14,0.17 2.37,2.91 -0.21,1.8 -4.42,-3.03 -0.06,-0.05 -0.08,0.01 -3.4,0.14 h -0.06 l -0.05,0.03 -3.32,1.86 -3.59,-0.54 -0.09,-0.01 -0.08,0.06 -4.71,3.36 -2.12,0.4 -0.37,0.07 0.22,0.31 1.51,2.14 -2.27,2.26 -4.38,-4.25 -0.4,-3.98 -0.01,-0.08 -0.04,-0.05 -1.28,-1.54 0.34,-1.25 2.74,-1.04 0.1,-0.04 0.04,-0.11 0.95,-2.58 0.02,-0.06 -0.01,-0.07 -0.54,-2.44 -0.01,-0.05 -0.03,-0.03 -0.95,-1.5 -0.09,-0.14 -0.16,0.04 L 8.27,12.03 5.83,9.33 5.16,6.27 5.15,6.19 5.09,6.14 0.79,2.11 Z"/></g><g transform="translate(837.1672,214.3779)" id="g32"><path id="path34" style="fill:#9f9fa0;fill-opacity:1;fill-rule:evenodd;stroke:none" d="m 0,0 -3.54,2.53 -7.06,-4.06 -0.14,-0.07 -0.12,0.09 -5.94,4.35 -8.45,0.13 -0.08,0.01 -0.05,0.03 -5.57,3.72 -3.98,1.15 -3.71,-2.81 -2.77,-8.86 -0.06,-0.19 -0.2,0.02 -3.25,0.4 -2.5,-1.63 -0.51,-2.7 -0.03,-0.11 -0.09,-0.06 -4.48,-2.56 0.25,-2.15 0.01,-0.1 -0.07,-0.08 -2.3,-2.82 2.16,-2.29 0.06,-0.07 v -0.1 -7.58 l 16.7,-7.95 0.05,-0.02 0.04,-0.05 3.12,-4.07 0.03,-0.04 0.02,-0.05 0.9,-3.34 4.83,0.13 h 0.15 l 0.07,-0.13 1.7,-3.14 9.5,-0.26 0.25,-0.01 -0.02,-0.25 -0.4,-6.7 1.15,-1.49 3.06,2.55 0.07,0.06 h 0.09 2.58 0.24 l 6.25,-0.03 2.34,2.75 0.06,0.08 0.09,0.01 6.34,0.87 0.07,0.01 0.06,-0.03 5.38,-2.36 4.36,1.87 0.21,4.44 0.01,0.12 0.08,0.06 4.54,3.46 0.57,2.1 -3.94,1.24 -0.05,0.02 -0.05,0.04 -2.84,2.85 -0.06,0.06 -0.01,0.08 -0.44,3.72 -0.01,0.13 0.1,0.08 4.95,4.31 0.2,2.52 -3.27,0.41 -0.14,0.01 -0.05,0.12 -3.67,7.55 -12.56,1.95 -0.21,0.03 v 0.21 3.5 0.08 l 0.05,0.07 1.67,2.09 z"/></g><g transform="translate(853.3672,152.9079)" id="g36"><path id="path38" style="fill:#9f9fa0;fill-opacity:1;fill-rule:evenodd;stroke:none" d="m 0,0 -1.5,-0.71 -0.62,-2.65 1.51,-3.65 0.05,-0.13 -0.09,-0.11 -2.77,-3.62 0.59,-1.95 3.6,-1.28 0.23,-0.08 -0.08,-0.22 -1.31,-3.94 -0.01,-0.04 -0.03,-0.03 -2.33,-2.98 0.84,-3.38 0.02,-0.06 -0.02,-0.06 -0.63,-2.55 0.84,-2.34 0.06,-0.15 -0.11,-0.1 -3.72,-3.72 -0.03,-0.03 -0.03,-0.02 -2.19,-1.09 -0.02,-0.01 -0.01,-0.01 -2.94,-1.05 -1.04,-4.57 2.85,-3.65 3.53,2.69 0.35,0.27 0.02,-0.2 6.39,0.41 1.69,4.45 0.07,0.17 0.18,-0.02 2.68,-0.2 1.89,4 0.05,0.09 0.09,0.04 3.41,1.28 1.03,2.27 v 2.57 0.14 l 0.13,0.07 3.14,1.68 -0.21,2.66 -1.3,3.91 -0.01,0.02 v 0.01 l -0.65,3.67 -2.81,4.34 -0.08,0.11 0.06,0.12 1.22,2.66 L 9.83,-5.6 6.19,-6.03 H 6.18 6.16 2.23 2.05 L 2,-5.87 Z"/></g><g transform="translate(896.1472,436.3579)" id="g40"><path id="path42" style="fill:#9f9fa0;fill-opacity:1;fill-rule:evenodd;stroke:none" d="M 0,0 4.89,-0.89 3.75,2.77 0.33,2.69 Z"/></g><g transform="translate(900.2272,427.1579)" id="g44"><path id="path46" style="fill:#9f9fa0;fill-opacity:1;fill-rule:evenodd;stroke:none" d="M 0,0 2.68,3.59 2.03,6.76 4.63,8.47 7.24,11.08 10.17,8.47 11.8,3.83 12.78,1.79 10.09,0.33 V -2.19 L 3.41,-5.21 0,-2.11 Z"/></g><g transform="translate(897.7772,423.1679)" id="g48"><path id="path50" style="fill:#9f9fa0;fill-opacity:1;fill-rule:evenodd;stroke:none" d="M 0,0 5.13,-1.95 4.4,-4.39 2.04,-5.69 -1.38,-3.33 -1.95,-1.05 Z"/></g><g transform="translate(902.3372,415.0279)" id="g52"><path id="path54" style="fill:#9f9fa0;fill-opacity:1;fill-rule:evenodd;stroke:none" d="m 0,0 2.28,5.62 6.27,3.1 1.14,-4.32 1.63,0.49 0.24,1.87 2.85,-2.77 -0.24,-3.66 -2.12,-3.42 1.79,-2.12 -0.49,-3.17 -2.28,-1.22 -4.64,3.17 -4.15,3.58 -2.36,1.06 z"/></g><g transform="translate(918.6972,411.8579)" id="g56"><path id="path58" style="fill:#9f9fa0;fill-opacity:1;fill-rule:evenodd;stroke:none" d="m 0,0 -0.56,-7.33 -2.77,-5.05 1.06,-3.82 4.55,3.66 4.81,0.33 2.52,2.52 0.33,5.86 -2.69,3.42 -2.28,-2.28 -1.22,1.3 0.16,3.51 z"/></g><g transform="translate(932.1371,401.2679)" id="g60"><path id="path62" style="fill:#9f9fa0;fill-opacity:1;fill-rule:evenodd;stroke:none" d="M 0,0 0.4,-1.95 3.99,-2.76 3.82,-1.38 0.24,0.82 Z"/></g><g transform="translate(935.5771,124.7379)" id="g64"><path id="path66" style="fill:#9f9fa0;fill-opacity:1;fill-rule:evenodd;stroke:none" d="m 0,0 -0.46,2.4 -0.04,0.21 0.21,0.07 2.33,0.74 -1,3.52 -0.06,0.21 0.21,0.08 2.78,1.04 0.21,0.08 0.1,-0.2 2.17,-4.34 5.41,3.22 0.19,0.11 0.13,-0.18 1.87,-2.61 1.6,-1.47 2.09,0.78 0.04,0.02 h 0.04 2.89 0.13 L 20.91,3.56 22.34,1.29 22.43,1.15 22.32,1.02 16.7,-6.13 16.56,-6.31 16.37,-6.18 12.96,-3.78 8.78,-4.17 8.7,-4.18 8.63,-4.13 6.18,-2.58 6.17,-2.57 3.24,-0.44 0.22,-0.19 0.04,-0.18 Z m 23.6,120.24 -1.58,-1.75 -0.05,-0.06 -0.08,-0.02 -3.75,-0.79 -3.4,-1.51 0.19,-3.77 0.98,-2.54 0.04,-0.1 -0.04,-0.09 -1.93,-4.25 1.92,-3.07 0.03,-0.05 v -0.06 l 0.4,-4.57 0.01,-0.07 -0.03,-0.06 -2.98,-5.76 -0.03,-0.06 -0.06,-0.03 -4.96,-3.06 1.86,-3.17 0.08,-0.14 -0.1,-0.13 -2.11,-2.88 1.12,-3.74 4.25,-1.35 0.13,-0.04 0.03,-0.14 0.6,-2.78 0.03,-0.12 -0.09,-0.09 -3.12,-3.31 -0.18,-2.3 1.99,-0.54 0.12,-0.03 0.04,-0.12 0.99,-2.98 0.05,-0.14 -0.11,-0.11 -2.34,-2.34 -0.98,-3.51 -0.08,-0.31 -0.27,0.16 -4.37,2.58 -0.06,0.04 -0.03,0.07 -2.08,4.55 -4.03,-1.83 -0.58,-3.84 -0.01,-0.08 -0.05,-0.05 -8.87,-9.66 0.39,-4.46 0.01,-0.18 -0.17,-0.07 -2.38,-0.99 -0.21,-0.09 -0.1,0.21 -3.41,7.38 -2.34,-3.06 -0.07,-0.09 h -0.11 l -9.2,-0.39 -3.64,-6.71 4.1,-6.44 0.05,-0.08 -0.02,-0.1 -0.79,-3.58 -0.04,-0.17 -0.17,-0.02 -4.05,-0.58 -2.3,-4.41 -0.79,-11.87 -0.02,-0.25 -0.25,0.03 -3.91,0.39 -2.78,-1.29 V 11.1 l 6.69,-5.99 10.05,-7.01 4.05,0.26 0.21,0.01 0.04,-0.23 0.16,-0.68 2.59,-0.06 4.6,3.29 0.2,0.14 0.14,-0.19 2.91,-3.97 8.83,-6.99 H 2.7 2.82 l 0.07,-0.09 3.33,-4.27 0.04,-0.05 0.01,-0.07 0.38,-3.29 4.62,-0.9 0.15,-0.03 0.04,-0.15 0.6,-2.41 4.03,1.34 0.81,2.77 h -4.21 -0.15 l -0.07,0.14 -0.93,2 -0.09,0.2 0.19,0.11 2,1.2 0.04,0.03 0.05,0.01 2.74,0.39 5.51,3.81 1.97,3.03 0.02,0.03 0.03,0.02 4.08,3.69 0.91,2.74 0.01,0.03 0.01,0.02 2.4,4.13 0.01,0.01 2.92,4.51 2.52,6.9 1.88,5.54 -1.97,4.63 -0.02,0.06 0.01,0.06 0.51,4.96 0.01,0.07 0.05,0.06 2.58,3.06 -3.07,2.58 -0.07,0.06 -0.01,0.08 -0.51,2.91 -0.05,0.25 0.26,0.03 5.3,0.66 0.65,3.08 0.06,0.27 0.26,-0.09 2.83,-1 4.95,1.65 1.33,3.15 0.1,0.24 0.23,-0.13 2.51,-1.34 h 2.51 0.12 l 0.07,-0.1 1.78,-2.43 10.48,2.83 1.16,4.48 0.06,0.21 0.22,-0.03 2.1,-0.32 2.65,2.98 0.37,0.41 0.06,-0.55 0.32,-3.24 6.39,-0.98 3.76,2.61 0.16,4.88 -4,2.83 -0.1,0.07 v 0.12 l -0.34,6.16 -0.01,0.13 0.1,0.08 2.22,1.71 0.06,0.05 h 0.08 l 5.46,0.16 -5.13,11.63 -2.75,1.91 -4.83,-2.19 -0.24,-0.11 -0.08,0.26 -1.76,5.29 -7.71,3.08 -3.85,-0.64 -6.02,-12.93 -0.01,-0.03 -0.02,-0.03 -4.05,-4.72 -0.17,-0.2 -0.19,0.18 -2.92,2.92 -1.86,-3.32 -0.07,-0.12 -0.14,-0.01 -5.54,-0.22 -3.76,-2.88 -0.17,-0.13 -0.15,0.16 -3.6,3.82 -0.07,0.08 0.01,0.1 0.67,9.9 v 0.04 l 0.02,0.04 3.27,7.62 -4.24,1.27 -0.11,0.03 -0.04,0.1 -2.02,4.5 -0.03,0.08 0.02,0.08 1.53,6.34 -3.44,1.93 -0.13,0.07 0.01,0.15 0.22,6.23 -2.54,4.87 -2.02,-1.41 -0.07,-0.05 -0.13,0.02 -2.92,0.22 -0.23,0.02 v 0.23 3.15 0.13 l 0.12,0.07 2.27,1.44 z"/></g><g transform="translate(954.7772,245.1679)" id="g68"><path id="path70" style="fill:#9f9fa0;fill-opacity:1;fill-rule:nonzero;stroke:none" d="M 0,0 -0.15,-0.09 -0.29,0.02 -3,2.15 h -6.55 l 0.03,0.27 0.4,3.58 0.01,0.07 0.04,0.06 3.75,4.53 1.11,2.97 -2.42,1.68 -0.11,0.07 v 3.41 l -2.12,2.32 -0.08,0.09 0.02,0.12 0.96,4.62 -2.46,1.89 -0.21,0.16 0.18,0.2 3.7,4.09 -1.37,17.32 -4.34,6.67 2.17,1.12 5.22,4.25 0.08,0.06 0.1,-0.01 3.08,-0.36 1.12,5.41 0.01,0.05 0.02,0.03 1.53,2.28 0.38,3.05 0.01,0.1 0.07,0.06 6.41,5.08 -2.75,3.3 -0.06,0.07 v 5.25 l -5.58,7.89 -0.03,0.04 -0.01,0.06 -0.77,4.02 -1.71,2.28 -0.06,0.07 0.01,0.09 0.18,2.29 -3.44,-1.72 -3.91,-3.01 -5.36,-1.56 -2.08,-3.66 0.13,5.22 10.83,11.23 6.01,10.83 2.74,9.66 -8.36,9.53 -7.83,0.26 -2.74,-3.91 -3.13,-0.53 2.35,6.66 -6.4,0.79 2.09,3 -3.92,3.26 -3.52,-1.3 -5.61,-8.36 1.3,-4.96 -6,-0.39 0.13,-1.57 2.22,-3.26 -4.31,0.91 -2.22,-2.08 -4.96,0.91 -0.65,2.22 -7.05,-0.13 0.13,-4.05 -8.49,-1.17 -5.74,-4.57 -4.44,-0.13 -3.26,-2.87 -1.44,-5.88 2.74,-4.96 -4.17,-1.04 -11.1,1.82 -6.39,0.14 -1.96,-3.53 -0.26,-9.14 4.04,-3.91 1.96,-4.57 h -5.61 l -4.83,9.01 -3.54,-0.21 0.04,-0.46 3.09,-6.56 0.13,-0.29 -0.31,-0.05 -3.33,-0.55 -0.73,-4.03 3.07,-6.52 0.04,-0.08 -0.02,-0.09 -0.78,-3.1 -0.03,-0.11 -0.11,-0.05 -7.26,-3.25 -0.91,-3.65 4.73,-6.25 5.34,-1.33 0.16,-0.04 0.03,-0.16 1.17,-6.69 -0.35,-0.87 v 0.01 l -1.89,-4.8 -0.04,-0.11 -0.12,-0.03 -4.9,-1.32 1.48,-3.52 0.04,-0.08 -0.03,-0.09 -1.55,-4.65 3.9,-5.06 0.06,-0.08 -0.01,-0.1 -0.99,-9.24 3.13,-4.3 0.06,-0.08 -0.02,-0.1 -1.17,-6.61 4.65,-3.49 0.08,-0.06 0.02,-0.09 0.79,-4.77 0.02,-0.1 -0.06,-0.09 -4.13,-5.7 -0.4,-5.1 v -0.07 l -0.05,-0.06 -6.37,-8.1 v -6.31 l 5.2,-3 0.19,-0.1 -0.08,-0.19 -0.93,-2.4 -0.04,-0.1 -0.09,-0.04 -4.67,-2 -0.03,-0.01 -0.03,-0.01 -3.99,-0.49 1.73,-6.09 0.03,-0.12 -0.08,-0.1 -1.7,-2.12 v -3.21 l 12.49,-1.93 0.13,-0.02 0.05,-0.12 3.66,-7.54 3.38,-0.42 0.23,-0.03 -0.02,-0.23 -0.22,-2.84 -0.01,-0.1 -0.07,-0.07 -4.94,-4.29 0.41,-3.51 2.75,-2.74 4.1,-1.3 0.22,-0.07 -0.06,-0.22 -0.66,-2.41 -0.02,-0.08 -0.06,-0.05 -4.51,-3.43 -0.21,-4.49 -0.01,-0.15 -0.03,-0.01 -0.61,-2.86 3.9,-7.58 0.08,-0.15 -0.12,-0.13 -1.97,-1.97 -0.03,-0.03 -0.04,-0.02 -1.66,-0.78 1.95,-5.76 h 3.75 l 3.71,0.44 0.08,0.01 0.08,-0.05 2.4,-1.53 0.18,-0.11 -0.09,-0.2 -1.25,-2.72 2.77,-4.26 0.03,-0.05 v -0.04 l 0.66,-3.71 1.3,-3.92 0.01,-0.03 0.01,-0.03 0.21,-2.84 0.02,-0.16 -0.14,-0.08 -3.16,-1.67 v -2.54 l -0.02,-0.05 -1.09,-2.4 -0.04,-0.1 -0.1,-0.03 -3.41,-1.28 -1.84,-3.88 5.49,-3.87 9.03,-1.18 3.92,3.27 0.04,0.04 0.06,0.01 2.09,0.49 0.12,2.09 0.01,0.12 0.1,0.07 3.21,2.05 -0.25,2.25 -0.03,0.2 0.21,0.06 2.39,0.63 0.76,3.19 0.05,0.17 0.17,0.02 11.95,1.05 0.6,2.75 -6.67,5.98 -0.09,0.07 v 2.84 l 0.14,0.07 2.98,1.39 0.07,0.03 0.06,-0.01 3.73,-0.37 0.77,11.67 0.01,0.05 0.02,0.05 2.39,4.57 0.05,0.11 0.13,0.02 4,0.57 0.74,3.31 -4.12,6.47 -0.08,0.13 0.07,0.12 3.78,6.96 0.06,0.12 h 0.14 l 9.22,0.4 2.52,3.28 0.24,0.32 0.17,-0.36 3.48,-7.54 2,0.84 -0.38,4.39 -0.01,0.11 0.08,0.07 8.89,9.68 0.58,3.86 -0.03,0.13 4.76,2.19 0.1,-0.22 2.16,-4.7 4.03,-2.38 0.91,3.26 0.02,0.07 0.04,0.04 2.28,2.28 -0.9,2.72 -2.07,0.56 -0.19,0.05 0.02,0.2 0.19,2.58 0.01,0.09 0.06,0.06 3.09,3.29 -0.54,2.52 -4.23,1.35 -0.13,0.03 -0.03,0.13 -1.2,3.97 -0.03,0.11 0.07,0.1 2.09,2.85 -1.9,3.24 -0.12,0.21 0.2,0.13 5.11,3.14 2.91,5.64 -0.38,4.44 -1.96,3.13 -0.07,0.11 0.06,0.12 1.94,4.28 -0.95,2.49 -0.02,0.03 v 0.04 l -0.2,3.97 -0.01,0.17 0.16,0.07 3.57,1.59 0.03,0.01 h 0.02 l 3.7,0.78 1.6,1.78 -1.33,1.65 z"/></g><g transform="translate(913.7372,111.918)" id="g72"><path id="path74" style="fill:#9f9fa0;fill-opacity:1;fill-rule:evenodd;stroke:none" d="m 0,0 11.07,-4.46 10.18,-2.36 2.09,-8.09 7.44,-3.91 5.22,0.13 7.44,4.44 5.74,-1.83 6,0.39 1.57,-2.74 3.46,-0.15 1.13,4.19 0.03,0.1 0.09,0.05 3.31,1.74 -3.55,3.87 -0.17,0.19 0.2,0.16 3.46,2.8 -1.31,3.95 -0.11,0.32 h 0.34 6.58 l 4.04,3.37 0.08,0.07 0.11,-0.02 3.62,-0.49 6.76,8.95 0.06,0.09 0.11,0.01 4.33,0.33 1.3,2.12 0.05,0.07 0.07,0.03 3.71,1.51 2.82,3.49 0.32,3.72 -2.96,1.97 -0.11,0.07 v 0.13 3.6 0.12 l 0.1,0.07 6.45,4.92 2.2,5.08 0.04,0.1 0.1,0.03 5.64,1.99 -0.32,4.51 -3.47,3.14 -3.86,0.67 -0.14,0.03 -0.05,0.14 -3.23,9.69 -2.01,1.84 -0.16,0.14 0.13,0.18 2,2.83 -0.28,2.78 -2.37,-2.67 -0.09,-0.09 -0.13,0.02 -2.01,0.3 -1.14,-4.4 -0.03,-0.14 -0.14,-0.04 -10.78,-2.9 -0.16,-0.05 -0.1,0.14 -1.81,2.46 H 76.46 76.4 l -0.06,0.03 -2.33,1.25 -1.26,-3.01 -0.05,-0.1 -0.1,-0.03 -5.13,-1.72 -0.08,-0.02 -0.08,0.02 -2.65,0.94 -0.63,-2.98 -0.03,-0.17 -0.17,-0.02 -5.22,-0.66 0.45,-2.56 3.18,-2.68 0.19,-0.16 -0.16,-0.19 -2.69,-3.19 -0.5,-4.83 1.74,-4.07 0.27,0.81 1.07,6.64 v 0.04 l 0.02,0.04 1.74,3.07 0.08,0.14 0.16,-0.02 2.26,-0.27 0.18,-0.02 0.03,-0.18 0.4,-2.53 0.01,-0.05 -0.01,-0.03 -1.06,-5.97 0.4,-5.81 0.92,-3.17 0.03,-0.08 -0.03,-0.08 -1.2,-3.07 -0.02,-0.05 -0.04,-0.04 -1.84,-1.7 -0.6,-1.08 0.64,-2.03 0.02,-0.08 -0.03,-0.08 -0.8,-2 L 63.37,16.83 63.25,16.8 61.3,16.31 61.17,14.09 V 14.03 L 61.14,13.98 58.6,9.85 58.55,9.77 58.47,9.74 54.68,8.57 52.19,5.17 52.11,5.05 51.98,5.07 49.13,5.32 48.37,1 48.36,0.93 48.32,0.88 46.18,-1.52 46.15,-1.56 46.1,-1.58 39.27,-4.6 l -0.9,-3.09 -0.04,-0.12 -0.12,-0.04 -4.4,-1.47 -0.25,-0.08 -0.06,0.25 -0.63,2.52 -4.64,0.9 -0.18,0.04 -0.02,0.18 -0.39,3.39 L 24.42,2 H 20.14 20.06 L 19.99,2.05 11.06,9.12 11.03,9.14 11.02,9.17 8.23,12.97 3.75,9.78 3.69,9.73 H 3.61 L 1.06,9.79 1.18,9.23 1.22,9.1 1.12,9 -0.25,7.63 0.25,5.64 0.28,5.51 0.2,5.42 -1.69,3.27 Z"/></g><g transform="translate(1003.9471,108.5879)" id="g76"><path id="path78" style="fill:#9f9fa0;fill-opacity:1;fill-rule:evenodd;stroke:none" d="m 0,0 1.2,3.08 0.05,0.13 0.05,0.14 0.15,0.02 0.14,0.02 6.75,0.83 1.94,4.04 0.14,0.29 0.14,0.29 0.24,-0.22 0.24,-0.22 1.55,-1.42 1.61,3.81 0.05,0.12 0.05,0.12 0.13,0.03 0.13,0.03 3.42,0.69 0.09,0.02 0.1,0.02 0.08,-0.05 0.08,-0.05 L 22.44,9.15 22.58,9.06 22.72,8.97 22.69,8.81 22.66,8.65 22.15,5.91 22.12,5.76 22.09,5.6 21.93,5.56 21.78,5.52 19.76,5.05 23.19,1.9 23.45,1.66 23.71,1.42 23.39,1.27 23.07,1.11 8.87,-5.73 8.75,-5.79 8.63,-5.85 8.52,-5.78 8.41,-5.71 0.2,-0.58 l -0.17,0.11 -0.17,0.11 0.07,0.19 z m -29.51,-15.27 2.19,-0.09 2.22,-4.18 17.1,-1.56 11.49,6.92 3.66,0.13 1.17,3.79 5.61,5.22 7.83,0.39 2.35,-2.22 3.26,3 13.84,-2.22 1.96,5.35 4.7,3.26 -1.96,4.83 2.09,13.05 3.52,3.53 -2.35,6.27 -4.96,0.52 3.53,6.53 6.22,4.31 -5.63,8.44 -0.09,0.14 0.1,0.13 1.9,2.69 -3.36,1.92 -0.11,0.07 -0.01,0.13 -0.49,6.56 -3.32,-0.79 -0.18,-0.04 -0.09,0.16 -2.1,3.73 -4.41,-2.45 -0.16,-0.09 -0.13,0.13 -2.74,2.74 -0.15,0.15 0.12,0.17 1.57,2.19 -5.44,3.63 -0.05,0.03 -0.03,0.06 -6.95,12.87 -5.59,-0.17 -2.06,-1.58 0.33,-5.92 4.01,-2.84 0.11,-0.08 v -0.13 l -0.17,-5.13 v -0.12 l -0.1,-0.07 -3.93,-2.74 -0.08,-0.05 -0.09,0.01 -6.53,1 -1.84,-2.61 1.9,-1.74 0.04,-0.04 0.02,-0.06 3.21,-9.61 3.79,-0.66 0.07,-0.01 0.05,-0.05 3.59,-3.25 0.07,-0.07 0.01,-0.1 0.34,-4.79 0.01,-0.19 L 19.2,43.07 13.48,41.05 11.3,36.01 11.27,35.95 11.22,35.91 4.81,31.02 V 27.68 L 7.78,25.7 7.9,25.62 7.89,25.48 7.55,21.54 7.54,21.47 7.49,21.41 4.58,17.82 4.54,17.77 4.48,17.75 0.79,16.24 -0.54,14.08 -0.6,13.97 l -0.12,-0.01 -4.34,-0.33 -6.78,-8.98 -0.09,-0.11 -0.14,0.02 -3.66,0.5 -4.02,-3.35 -0.07,-0.06 h -0.09 -6.33 l 1.26,-3.79 0.05,-0.16 -0.13,-0.1 -3.4,-2.75 3.59,-3.92 0.21,-0.23 -0.28,-0.15 -3.5,-1.83 z"/></g></g></svg>