<svg xmlns:dc="http://purl.org/dc/elements/1.1/" xmlns:cc="http://creativecommons.org/ns#" xmlns:rdf="http://www.w3.org/1999/02/22-rdf-syntax-ns#" xmlns:svg="http://www.w3.org/2000/svg" xmlns="http://www.w3.org/2000/svg" xml:space="preserve" id="svg2" version="1.1" viewBox="952.03 1143.32 246.02 248.05"><metadata id="metadata8"><rdf:RDF><cc:Work rdf:about=""><dc:format>image/svg+xml</dc:format><dc:type rdf:resource="http://purl.org/dc/dcmitype/StillImage"/></cc:Work></rdf:RDF></metadata><defs id="defs6"/><g transform="matrix(1.3333333,0,0,-1.3333333,0,1440)" id="g10"><g transform="translate(891.0771,200.1872)" id="g12"><path id="path14" style="fill:#9f9fa0;fill-opacity:1;fill-rule:evenodd;stroke:none" d="m 0,0 -2.63,-0.16 -1.3,-4.7 -4.31,3.92 -1.18,-4.05 4.57,-4.96 0.27,-4.3 -8.36,7.44 -0.26,4.7 3.52,4.3 0.53,6.92 -1.44,-0.65 -1.7,-4.7 -2.61,-2.35 -2.74,-0.78 -2.61,-3.92 0.13,-10.31 -6.4,-10.05 0.4,-6.14 h 6.52 l 5.36,-6.39 v -6.14 l -3.79,-4.57 1.04,-2.08 3.01,-1.7 -5.62,-1.31 -1.56,5.88 4.17,7.31 -1.82,5.48 -6.4,0.91 -3.52,-3.39 -0.4,-7.7 -5.87,-6.01 -5.35,-1.95 -3.66,-3.92 -12.27,7.57 v 3.66 l 8.23,-3.79 4.31,1.7 6.91,4.43 4.7,9.4 -0.78,5.09 7.96,18.93 0.91,3.26 -0.91,4.31 5.22,4.96 1.05,6.92 -4.05,5.35 4.16,0.55 -0.61,5.03 -4.12,0.31 -0.31,-3.67 0.88,-2.22 -2.61,1.05 -3.92,-3.01 -4.7,-6 -3.65,-3.52 -5.48,-1.31 -2.87,-2.74 2.87,-3.79 -3.13,-5.61 -4.31,-1.31 -0.13,-1.95 3.78,-3.92 -1.3,-3.65 0.65,-2.35 1.44,-2.09 -4.83,-4.44 -1.57,2.48 -1.31,5.61 -5.09,8.18 -2.92,-2.43 1.71,-3.05 0.07,-0.12 -0.07,-0.12 -3.57,-6.35 1.38,-4.54 0.03,-0.1 -0.06,-0.1 -2.22,-3.42 -0.05,-0.07 -0.08,-0.03 -3.56,-1.19 -2.37,-2.77 -0.07,-0.08 h -0.11 l -8.98,-0.4 -4.57,-3.78 -0.06,-0.05 h -0.09 l -2.94,-0.05 -0.27,-7.64 v -0.07 l -0.04,-0.06 -3.52,-4.95 2.28,-4.81 8.66,-0.65 0.07,-0.01 0.06,-0.04 4.13,-3.2 0.09,-0.07 v -0.12 l 0.13,-4.16 1.46,-1.34 9.91,-0.53 h 0.11 l 0.07,-0.09 3.07,-3.86 0.05,-0.07 v -0.08 l 0.26,-6.32 1.69,-2.2 0.05,-0.07 v -0.09 l -0.13,-4.14 h 6.55 0.1 l 0.06,-0.07 5.97,-5.44 8.23,-3.58 0.07,-0.03 0.04,-0.07 3.04,-5.01 5.36,-3.27 5.45,-0.52 4.46,3.27 0.16,0.13 0.15,-0.14 4.06,-3.8 4.17,0.13 0.13,0.01 0.07,-0.12 3.13,-4.56 1.62,-0.13 0.09,-0.01 0.07,-0.06 3,-3.01 6.22,7.9 0.39,5.09 v 0.07 l 0.04,0.06 4.11,5.68 -0.76,4.57 -4.69,3.52 -0.12,0.09 0.03,0.15 1.17,6.65 -3.12,4.29 -0.05,0.07 0.01,0.1 0.98,9.24 -3.91,5.09 -0.08,0.1 0.04,0.12 1.56,4.68 -1.55,3.7 -0.11,0.25 0.27,0.08 5.05,1.35 2.13,5.43 -1.12,6.39 -5.27,1.32 -0.09,0.02 -0.05,0.07 -4.85,6.41 -0.07,0.09 0.03,0.11 0.97,3.88 0.03,0.11 0.11,0.05 7.26,3.25 0.73,2.91 -3.07,6.52 -0.04,0.07 0.02,0.07 0.77,4.27 0.04,0.17 0.16,0.03 3.18,0.53 -2.97,6.3 -0.02,0.04 v 0.04 z"/></g><g transform="translate(782.3171,44.7672)" id="g16"><path id="path18" style="fill:#9f9fa0;fill-opacity:1;fill-rule:evenodd;stroke:none" d="m 0,0 3.67,0.06 3,-5.09 2.42,-0.38 0.08,0.08 0.79,2.13 0.02,0.06 0.04,0.03 4.29,4.02 0.67,3.05 0.01,0.07 0.04,0.04 2.59,2.86 0.09,0.1 0.13,-0.03 3.23,-0.65 0.84,1.32 0.52,2.33 -0.89,2.41 -2.75,1.05 -0.11,0.05 -0.03,0.11 -0.41,1.5 -0.03,0.12 0.08,0.1 1.31,1.57 0.4,4 0.01,0.09 0.06,0.06 4.62,4.48 0.17,0.17 0.17,-0.17 2.58,-2.58 0.14,-0.15 -0.12,-0.17 -1.41,-2 1.8,-0.33 0.05,-0.01 0.05,-0.03 4.67,-3.34 3.57,0.53 0.08,0.01 0.07,-0.04 3.35,-1.87 3.25,-0.13 4.41,3.02 -7.88,5.9 -0.04,0.04 -0.03,0.05 -3.8,7.47 v 0.01 l -2.81,6.27 -2.19,0.52 h -0.01 l -0.02,0.01 -4.62,1.9 -0.04,0.02 -0.03,0.03 -2.32,2.19 -0.68,-1.83 -0.07,-0.16 H 22.81 L 19.12,41 18.25,40 18.22,39.97 18.18,39.95 15.87,38.73 15.79,38.69 15.71,38.7 13.92,39.09 12.78,38.21 12.72,38.16 h -0.09 -2.3 -0.05 L 10.23,38.18 7.31,39.44 6.06,37.06 6.01,36.96 5.89,36.94 1.76,36.13 -0.9,31.54 l -0.07,-0.13 -0.15,0.01 -7.36,0.24 -2.01,-4.25 0.13,-4.13 v -0.19 l -0.18,-0.06 -1.96,-0.54 -0.67,-3.28 1.67,-3.87 0.01,-0.02 V 15.3 l 0.69,-2.56 3.1,-0.94 0.05,-0.02 0.04,-0.04 2.87,-2.6 0.07,-0.07 0.01,-0.1 L -4.58,6.29 -0.35,2.6 -0.28,2.54 -0.27,2.44 0,0.02 Z"/></g><g transform="translate(747.4371,49.2772)" id="g20"><path id="path22" style="fill:#9f9fa0;fill-opacity:1;fill-rule:evenodd;stroke:none" d="m 0,0 7.35,-1.7 4.17,-2.62 2.49,1.96 3.65,-1.96 12.27,-2.35 4.46,2.04 0.01,0.1 -0.26,2.31 -4.24,3.71 -0.07,0.07 -0.01,0.1 -0.08,2.68 -2.76,2.5 -3.17,0.97 -0.13,0.04 -0.04,0.13 -0.71,2.67 -1.7,3.93 -0.03,0.07 0.02,0.07 0.68,3.32 -3.49,1.66 -2.59,-1.3 -0.17,-0.08 -0.13,0.15 -2.11,2.73 -4.52,1.56 -5.14,-1.57 0.27,-1.45 0.01,-0.02 V 19.69 L 3.94,15.03 V 14.91 L 3.84,14.84 -3.15,9.61 -3.32,7.09 1.94,3.94 2.14,3.82 2.02,3.61 Z"/></g><g transform="translate(718.577,36.4772)" id="g24"><path id="path26" style="fill:#9f9fa0;fill-opacity:1;fill-rule:evenodd;stroke:none" d="m 0,0 1.49,1.96 4.96,0.39 0.39,3.52 2.35,1.31 2.48,-0.13 3,-2.35 1.83,1.69 -2.22,3.66 -1.04,3.65 2.47,2.62 2.22,0.65 3.4,-3.66 7.04,-0.44 v 0.02 l 0.01,0.04 0.02,0.04 1.94,3.48 -5.17,3.1 -0.13,0.08 0.01,0.15 0.18,2.78 0.01,0.11 0.09,0.07 6.99,5.22 0.08,4.52 -0.61,3.21 -1.87,1.79 -1,-0.61 -0.09,-0.06 -0.1,0.03 -1.79,0.44 -0.06,0.02 -0.04,0.04 -7.44,6.37 -1.29,-0.33 -0.36,-2.5 -0.01,-0.04 -0.02,-0.04 -1.56,-2.9 0.21,-1.46 1.56,-2.09 0.09,-0.11 -0.07,-0.14 -0.91,-1.83 -0.03,-0.06 -0.07,-0.04 -1.37,-0.76 -0.16,-0.09 -0.13,0.13 -2.57,2.5 -1,0.71 L 10.24,34.8 8.47,33.99 8.33,33.93 8.22,34.02 6.69,35.24 6.6,35.31 v 0.12 l -0.07,3.19 -1.34,1.75 -1.64,0.14 -3.13,-1.89 -0.78,-2.27 1.77,-3.97 1.51,-1.23 6.8,-2.24 1.51,0.79 0.01,0.01 1.14,0.53 0.16,0.07 0.12,-0.12 1.98,-2.06 0.18,-0.19 L 14.61,27.77 13.17,26.63 13.13,26.6 13.08,26.59 11,25.94 10.2,23.1 10.15,22.92 H 9.97 8.67 8.62 L 8.56,22.95 6.47,24.03 2.3,21.69 -0.23,17.37 -0.61,14.75 -0.63,14.59 -0.79,14.55 -3.91,13.83 -4.19,11.71 V 11.7 L -4.54,9.55 0.61,7.98 0.71,7.94 0.76,7.84 1.83,5.51 1.87,5.43 1.84,5.34 1.31,3.72 1.28,3.65 1.22,3.61 -0.7,2.1 Z"/></g><g transform="translate(770.6671,131.0572)" id="g28"><path id="path30" style="fill:#9f9fa0;fill-opacity:1;fill-rule:evenodd;stroke:none" d="m 0,0 -1.27,-2.18 -0.92,-2.1 -0.01,-0.02 -0.02,-0.03 -4.19,-5.55 -0.01,-0.01 -0.01,-0.01 -6.3,-6.17 -0.03,-0.03 -0.04,-0.02 -5.29,-2.41 -0.11,-2.37 1.7,-3.27 0.07,-0.15 -0.11,-0.12 -2.29,-2.66 -0.36,-3.5 -0.01,-0.07 -0.04,-0.06 -1.49,-1.85 -0.06,-0.08 -0.11,-0.01 -5,-0.24 -0.7,-3.15 -0.02,-0.1 -0.08,-0.05 -2.1,-1.36 -0.17,-0.11 -0.14,0.16 -2.01,2.22 -2.79,-4.41 -0.06,-0.1 -0.12,-0.01 -4.59,-0.49 -3.93,-4.65 0.7,-2.17 1.82,-1.45 4.43,-1.96 1.45,-0.21 1.52,0.38 0.13,0.03 0.09,-0.08 7.49,-6.42 1.64,-0.41 1.08,0.67 0.16,0.09 0.13,-0.13 2.07,-1.97 0.05,-0.05 0.02,-0.08 0.26,-1.39 5.17,1.58 0.07,0.02 0.08,-0.02 4.66,-1.62 0.07,-0.02 0.04,-0.06 2.03,-2.62 2.52,1.25 0.1,0.06 0.11,-0.05 3.68,-1.76 1.83,0.51 -0.11,4.01 v 0.06 l 0.02,0.05 2.1,4.44 0.06,0.14 h 0.17 l 7.37,-0.24 2.57,4.43 -1.89,2.83 -0.05,0.07 0.01,0.09 0.25,2.71 v 0.01 l 0.71,4.91 -5.04,3.24 -0.07,0.05 -0.03,0.07 -0.86,2.22 -0.05,0.13 0.09,0.11 2.88,3.49 -0.59,2.97 -0.99,5.31 -0.02,0.1 0.06,0.09 2.42,3.38 -0.12,3.95 -2.79,6.66 -4.74,2.8 -0.09,0.06 -0.02,0.1 -0.73,3.26 z"/></g><g transform="translate(803.1671,159.5772)" id="g32"><path id="path34" style="fill:#9f9fa0;fill-opacity:1;fill-rule:evenodd;stroke:none" d="M 0,0 -2.83,-0.04 -6.9,-3.65 -6.96,-3.71 h -0.09 l -3.68,-0.19 -0.14,-0.01 -0.08,0.12 -1.2,1.89 -5.93,-5.29 -0.95,-3.41 -0.02,-0.07 -0.05,-0.05 -6.27,-5.59 -6.88,-11.78 1.46,-1.48 0.05,-0.05 0.01,-0.07 0.72,-3.22 4.72,-2.79 0.07,-0.04 0.03,-0.07 2.84,-6.79 0.02,-0.04 v -0.04 l 0.12,-4.08 v -0.08 l -0.04,-0.06 -2.41,-3.37 0.97,-5.2 0.61,-3.09 0.03,-0.11 -0.08,-0.09 -2.87,-3.47 0.78,-2.01 5.12,-3.29 0.13,-0.08 -0.02,-0.16 -0.74,-5.06 -0.24,-2.61 1.84,-2.75 3.97,0.77 1.3,2.48 0.1,0.2 0.21,-0.09 3.07,-1.34 h 2.18 l 1.16,0.9 0.09,0.07 0.11,-0.02 1.81,-0.39 2.19,1.16 0.92,1.05 0.08,0.09 0.11,-0.01 3.63,-0.13 0.75,2.01 0.13,0.34 0.27,-0.25 2.55,-2.41 4.55,-1.87 2.29,-0.54 0.12,-0.03 0.05,-0.11 2.84,-6.37 3.78,-7.42 7.97,-5.98 4.39,2.51 0.51,2.69 0.02,0.1 0.09,0.06 2.66,1.73 0.08,0.05 0.08,-0.01 3.14,-0.38 2.73,8.74 0.03,0.07 0.06,0.05 3.86,2.93 0.1,0.08 0.12,-0.04 4.13,-1.2 0.04,-0.01 0.03,-0.02 5.54,-3.69 8.45,-0.13 h 0.08 l 0.07,-0.05 5.87,-4.31 7.06,4.06 0.13,0.08 0.13,-0.09 3.65,-2.62 4.14,0.52 4.54,1.95 0.82,2.11 -5.15,2.96 -0.12,0.07 v 0.14 6.43 l -3.07,3.06 -1.64,0.13 -0.11,0.01 -0.07,0.1 -3.13,4.55 -4.13,-0.13 h -0.1 l -0.07,0.07 -3.98,3.73 -4.38,-3.22 -0.07,-0.05 -0.09,0.01 -5.6,0.53 -0.05,0.01 -0.05,0.02 -5.47,3.34 -0.05,0.03 -0.03,0.05 -3.02,5 -8.2,3.56 -0.04,0.02 -0.03,0.03 -5.92,5.4 h -6.71 -0.25 l 0.01,0.25 0.13,4.31 -1.68,2.2 -0.05,0.06 v 0.08 l -0.26,6.32 -2.95,3.71 -9.89,0.53 h -0.08 l -0.07,0.06 -1.6,1.47 -0.07,0.07 -0.01,0.1 -0.13,4.15 -3.98,3.09 -8.73,0.66 -0.14,0.01 -0.06,0.13 -2.4,5.06 -0.06,0.13 0.09,0.12 3.55,5 z"/></g></g></svg>