<svg xmlns:dc="http://purl.org/dc/elements/1.1/" xmlns:cc="http://creativecommons.org/ns#" xmlns:rdf="http://www.w3.org/1999/02/22-rdf-syntax-ns#" xmlns:svg="http://www.w3.org/2000/svg" xmlns="http://www.w3.org/2000/svg" xml:space="preserve" id="svg2" version="1.1" viewBox="1200.4 655.5 158.73 129.95"><metadata id="metadata8"><rdf:RDF><cc:Work rdf:about=""><dc:format>image/svg+xml</dc:format><dc:type rdf:resource="http://purl.org/dc/dcmitype/StillImage"/></cc:Work></rdf:RDF></metadata><defs id="defs6"/><g transform="matrix(1.3333333,0,0,-1.3333333,0,1440)" id="g10"><g transform="translate(912.4055,501.131)" id="g12"><path id="path14" style="fill:#9f9fa0;fill-opacity:1;fill-rule:evenodd;stroke:none" d="m 0,0 1.09,-2.07 -0.19,-4.81 3.32,-1.78 0.02,-0.01 2.4,-1.54 2.23,1.54 0.06,0.05 0.09,-0.01 3.37,-0.18 3.53,2.16 0.39,2.7 0.03,0.23 0.24,-0.03 3.96,-0.53 2.08,0.66 0.2,0.06 0.09,-0.19 1.56,-3.12 3.51,-1.25 0.78,0.7 0.24,3.92 -2.26,1.7 -0.09,0.06 -0.01,0.12 -0.16,2.53 -1.43,1.35 -2.19,1.61 -0.11,0.08 0.01,0.13 0.24,3.85 -4.37,3.39 -0.08,0.06 -0.01,0.1 -0.41,2.58 -1.66,0.79 -0.14,0.07 v 0.15 1.63 l -0.66,1.18 -2.48,0.15 -0.44,-1.02 -0.05,-0.13 -0.14,-0.02 -1.01,-0.17 -0.14,-0.02 -0.09,0.11 -0.69,0.84 H 9.57 L 7.95,16.15 V 13.38 13.3 L 7.9,13.23 6.94,11.9 7.77,11.28 7.86,11.22 V 11.1 L 7.95,9.75 7.97,9.48 7.7,9.49 5.9,9.57 5.17,8.34 5.66,5.89 5.69,5.76 5.6,5.67 Z"/></g><g transform="translate(903.8955,527.501)" id="g16"><path id="path18" style="fill:#9f9fa0;fill-opacity:1;fill-rule:evenodd;stroke:none" d="m 0,0 -1.89,-2.34 -0.91,-1.43 0.39,-1.96 1.96,-0.91 -0.26,-3.01 4.96,-3.13 0.13,-5.74 3.89,-7.4 5.4,5.47 -0.48,2.41 -0.02,0.09 0.05,0.08 0.84,1.44 0.08,0.13 0.14,-0.01 1.68,-0.07 -0.06,0.97 -0.93,0.7 -0.19,0.14 0.14,0.19 1.05,1.46 v 2.71 L 12.38,-6.53 8.82,-5.78 8.77,-5.77 8.73,-5.75 6.2,-4.05 6.12,-4 6.1,-3.92 5.47,-1.78 4.18,-1.56 2.9,-2.28 2.76,-2.37 2.63,-2.26 Z"/></g><g transform="translate(907.3055,540.191)" id="g20"><path id="path22" style="fill:#9f9fa0;fill-opacity:1;fill-rule:evenodd;stroke:none" d="m 0,0 -2.16,-0.93 -1.05,-2.09 -1.57,-0.39 -0.13,-2.61 2.22,-1.31 -0.54,-4.87 2.63,-2.27 1.2,0.68 0.08,0.04 0.08,-0.01 1.52,-0.25 0.15,-0.03 0.05,-0.15 0.65,-2.2 2.42,-1.62 3.59,-0.75 0.07,-0.01 0.05,-0.06 3.56,-3.64 1.6,1.45 0.07,0.07 h 0.09 1.27 0.11 l 0.08,-0.09 0.67,-0.82 0.74,0.12 0.4,0.94 -1.6,2.17 -0.05,0.06 v 0.07 l -0.16,2.12 -1.7,0.54 -0.1,0.03 -0.05,0.1 -0.51,1.1 -0.02,0.05 v 0.05 1.78 l -0.79,1.04 -0.05,0.06 v 0.09 3.81 l -5.71,7.46 z"/></g><g transform="translate(915.3855,557.631)" id="g24"><path id="path26" style="fill:#9f9fa0;fill-opacity:1;fill-rule:evenodd;stroke:none" d="m 0,0 -3.59,0.3 -2.61,2.48 0.26,2.35 -2.48,0.52 -1.43,-3.53 -5.22,-4.43 0.39,-2.87 2.74,0.13 2.09,-1.7 0.78,-3.66 2.35,0.26 2.74,-0.52 v -1.82 l -3.41,-4.49 6.47,-0.24 8.04,5.89 -0.63,1.04 -0.04,0.06 v 0.06 1.3 0.11 l 0.07,0.07 0.96,0.96 0.02,0.01 0.03,0.02 1.36,0.81 -0.15,1.08 -1.63,0.12 -0.88,-0.7 -0.13,-0.1 -0.14,0.08 -1.44,0.82 -0.06,0.04 -0.04,0.06 -0.89,1.71 -0.02,0.05 v 0.06 L 3.44,-2.1 v 0.07 l 0.03,0.06 0.83,1.44 -3.85,0.25 H 0.38 l -0.06,0.05 z"/></g><g transform="translate(926.7455,579.731)" id="g28"><path id="path30" style="fill:#9f9fa0;fill-opacity:1;fill-rule:evenodd;stroke:none" d="m 0,0 -0.59,-1.05 -4.31,-2.48 -2.22,-3.52 -2.35,-4.83 -0.26,-3.92 0.66,-2.35 -1.7,-2.09 -0.11,-1.61 0.07,-0.05 4.11,-0.26 1.66,0.72 0.05,0.03 h 0.05 l 3.26,-0.07 1.78,1.64 0.07,0.07 h 0.1 l 2.4,-0.14 0.17,-0.01 0.05,-0.16 1.01,-3.47 0.89,0.53 0.08,0.04 0.08,-0.01 1.78,-0.28 0.1,-0.01 0.06,-0.09 0.88,-1.25 4.66,0.46 2.78,1.79 3.09,4.43 0.12,1.07 -2.13,2.59 -0.04,0.05 -0.01,0.07 -0.32,2.35 -5.23,0.93 -0.05,0.01 -0.05,0.03 -2.53,1.85 -0.05,0.04 -0.02,0.05 -3.36,6.29 V -2.6 L 4.62,-2.59 3.56,-0.07 2.56,0.46 0.53,-0.06 0.48,-0.07 H 0.43 Z"/></g><g transform="translate(914.8855,540.111)" id="g32"><path id="path34" style="fill:#9f9fa0;fill-opacity:1;fill-rule:evenodd;stroke:none" d="m 0,0 5.67,-7.42 0.05,-0.07 v -0.08 -3.81 l 0.8,-1.04 0.05,-0.06 v -0.09 -1.81 l 0.44,-0.95 1.72,-0.55 2.64,-0.13 0.81,1.44 0.03,0.05 0.03,0.02 4.99,4.05 0.52,4.09 -2.17,1.97 -0.03,0.03 -0.02,0.05 -1.1,2.39 -0.02,0.06 v 0.05 l 0.13,4.16 -6.57,3.49 z"/></g><g transform="translate(932.3155,529.191)" id="g36"><path id="path38" style="fill:#9f9fa0;fill-opacity:1;fill-rule:evenodd;stroke:none" d="m 0,0 -4.85,-3.92 -0.87,-1.54 -0.07,-0.13 -0.15,0.01 -2.54,0.12 0.15,-1.94 1.58,-2.14 2.67,-0.16 0.14,-0.01 0.06,-0.11 0.76,-1.36 0.03,-0.05 v -0.07 -1.54 l 1.64,-0.78 0.11,-0.05 0.02,-0.13 0.41,-2.61 4.28,-3.33 2.08,0.96 0.56,1.29 -0.33,2.09 -0.6,1.27 -0.06,0.11 0.07,0.11 0.89,1.57 0.04,0.07 0.07,0.04 3.66,1.69 2.15,1.96 0.07,2.39 -0.52,1.6 -1.92,1.53 -0.06,0.04 -0.02,0.06 -0.63,1.71 -1.84,0.18 -2.88,-1.34 -0.06,-0.03 -0.07,0.01 -2.05,0.2 -0.1,0.01 -0.06,0.08 z"/></g><g transform="translate(944.7055,520.871)" id="g40"><path id="path42" style="fill:#9f9fa0;fill-opacity:1;fill-rule:evenodd;stroke:none" d="m 0,0 -0.01,-0.38 v -0.1 l -0.07,-0.07 -2.26,-2.05 -0.03,-0.03 -0.03,-0.02 -3.63,-1.67 -0.79,-1.4 0.56,-1.19 0.02,-0.03 v -0.03 l 0.35,-2.19 0.01,-0.07 -0.03,-0.07 -0.62,-1.43 -0.03,-0.09 -0.09,-0.04 -2.16,-1 -0.24,-3.7 2.09,-1.53 0.01,-0.01 0.01,-0.01 1.52,-1.44 0.07,-0.07 0.01,-0.09 0.16,-2.51 2.19,-1.65 3.21,0.56 6.42,3.31 0.81,1.12 0.07,5.33 v 0.02 0.02 l 0.62,3.62 0.01,0.07 0.04,0.05 L 11,-5.44 8.74,-2.94 7.41,-3.79 7.38,-3.81 7.35,-3.82 6.19,-4.16 6.09,-4.19 6,-4.14 4.22,-3.11 4.16,-3.08 4.12,-3.02 2.55,-0.13 Z"/></g><g transform="translate(929.9155,542.4611)" id="g44"><path id="path46" style="fill:#9f9fa0;fill-opacity:1;fill-rule:evenodd;stroke:none" d="m 0,0 -0.13,-4.12 1.05,-2.29 2.22,-2.03 0.09,-0.08 -0.01,-0.13 -0.54,-4.2 1.79,-2.17 1.89,-0.19 2.88,1.34 0.06,0.03 0.07,-0.01 1.82,-0.18 0.17,1.07 0.01,0.06 0.03,0.05 1.3,1.78 0.01,0.01 0.01,0.01 2.61,2.8 v 1.76 0.1 l 0.07,0.07 1.56,1.56 -0.32,3.19 L 14.76,-0.4 14.7,-0.37 14.66,-0.3 13.85,1.4 9.87,1.21 8.91,0.06 8.78,-0.1 8.6,0.01 5.14,2.11 4.17,2.41 Z"/></g><g transform="translate(945.5955,533.881)" id="g48"><path id="path50" style="fill:#9f9fa0;fill-opacity:1;fill-rule:evenodd;stroke:none" d="m 0,0 -2.59,-2.79 -1.26,-1.72 -0.19,-1.18 0.64,-1.73 1.93,-1.53 0.06,-0.04 0.02,-0.07 0.55,-1.71 0.01,-0.04 v -0.04 l -0.04,-1.68 2.69,-0.13 0.13,-0.01 0.07,-0.12 1.61,-2.95 1.63,-0.94 1.03,0.31 1.48,0.94 0.17,0.11 0.14,-0.16 2.49,-2.76 1.67,-0.58 1.51,0.06 5,4.46 0.01,0.01 0.02,0.01 2.65,1.88 -0.62,1.67 -1.02,2.79 -5.12,8.63 -3.13,0.12 -1.09,-0.96 -0.14,-0.12 -0.15,0.1 -1.24,0.82 V 0.66 L 7.7,1.51 7.09,1.01 7.05,0.97 7,0.96 4.81,0.41 4.73,0.39 4.65,0.43 3.43,0.98 2.59,0.2 2.52,0.14 2.43,0.13 Z"/></g><g transform="translate(943.7855,544.351)" id="g52"><path id="path54" style="fill:#9f9fa0;fill-opacity:1;fill-rule:evenodd;stroke:none" d="m 0,0 0.75,0.93 1.18,1.71 v 4.03 l -1.85,1.02 -0.06,0.03 -0.03,0.05 -1.44,2.26 -0.03,0.05 v 0.05 l -0.36,2.3 -2.56,-1.65 -0.05,-0.03 -0.05,-0.01 -4.87,-0.48 -0.14,-0.01 -0.08,0.12 -0.9,1.28 -1.59,0.25 -1.09,-0.65 -0.26,-0.15 -0.09,0.3 -1.05,3.59 -2.12,0.13 -1.77,-1.64 -0.08,-0.07 h -0.09 l -3.3,0.07 -1.59,-0.7 -0.95,-1.65 0.06,-1.45 0.83,-1.6 1.24,-0.7 0.82,0.65 0.08,0.06 0.09,-0.01 1.92,-0.14 0.19,-0.01 0.03,-0.2 L -19,6.3 -18.98,6.14 -19.12,6.05 -20.6,5.18 -21.46,4.31 V 3.18 l 0.68,-1.11 6.66,-3.54 4.27,2.47 0.09,0.05 0.1,-0.03 1.1,-0.34 0.02,-0.01 0.03,-0.02 3.31,-2.01 0.9,1.07 0.06,0.08 0.11,0.01 z"/></g><g transform="translate(942.3855,557.121)" id="g56"><path id="path58" style="fill:#9f9fa0;fill-opacity:1;fill-rule:evenodd;stroke:none" d="m 0,0 0.39,-2.52 1.37,-2.16 1.93,-1.07 0.13,-0.07 v -0.14 -4.24 -0.08 l -0.04,-0.06 -1.23,-1.78 -0.02,-0.01 -0.72,-0.91 0.79,-1.65 1.93,-1.19 0.1,-0.07 0.01,-0.12 0.34,-3.42 0.01,-0.11 -0.08,-0.08 -1.57,-1.58 v -1.49 l 2.19,0.12 0.89,0.83 0.12,0.11 0.15,-0.06 1.29,-0.59 2.05,0.52 0.72,0.58 0.14,0.12 0.15,-0.11 1.36,-0.95 1.08,-0.72 1.03,0.9 0.07,0.07 0.1,-0.01 3.21,-0.13 1.21,1.85 0.83,2.35 -0.78,0.71 -0.01,0.02 -0.01,0.01 -1.44,1.85 -0.03,0.03 -0.01,0.04 -1.16,3.56 -0.03,0.08 0.03,0.07 0.82,2.53 0.01,0.05 0.03,0.04 2.67,3.08 0.02,0.01 v 0.01 l 1.66,1.52 0.37,1.86 -2.11,2.49 -5.02,-0.07 H 14.87 L 14.81,0.06 9.26,3.62 9.14,3.7 9.15,3.84 9.28,5.94 8.62,6.27 8.06,5.71 8.01,5.65 7.92,5.64 3.18,4.98 3.13,4.55 V 4.49 L 3.09,4.44 Z"/></g><g transform="translate(964.0955,552.2111)" id="g60"><path id="path62" style="fill:#9f9fa0;fill-opacity:1;fill-rule:evenodd;stroke:none" d="m 0,0 -1.33,-1.22 -2.63,-3.03 -0.78,-2.41 1.13,-3.44 1.4,-1.81 0.87,-0.8 0.12,-0.11 -0.05,-0.15 -0.89,-2.53 -0.01,-0.03 -0.02,-0.02 -1.21,-1.86 4.99,-8.43 3.49,2.09 0.05,0.03 H 5.2 l 4.42,0.15 4.86,2.93 -1.02,2.85 -4.75,6.1 -2.36,1.03 -0.05,0.02 -0.03,0.03 -1.81,1.96 -0.14,0.15 0.13,0.16 1.32,1.77 0.56,2.23 L 5.22,-3.23 2.84,-5.2 2.66,-5.35 2.5,-5.18 0.24,-2.77 0.18,-2.71 v 0.09 z"/></g><g transform="translate(970.5455,548.441)" id="g64"><path id="path66" style="fill:#9f9fa0;fill-opacity:1;fill-rule:evenodd;stroke:none" d="m 0,0 0.32,-0.32 0.1,-0.1 -0.04,-0.13 -0.6,-2.41 -0.01,-0.05 -0.03,-0.04 -1.23,-1.65 1.63,-1.77 2.37,-1.03 0.05,-0.03 0.04,-0.05 4.82,-6.17 0.03,-0.04 0.01,-0.03 1.02,-2.87 1.57,0.31 1.14,1.64 0.07,0.1 h 0.12 l 2.91,0.23 0.11,0.01 0.08,-0.08 1.14,-1.07 1.82,1.04 0.53,6.35 -2.87,1.58 -0.12,0.06 -0.01,0.14 -0.14,2.61 -1.33,1.19 -2.13,-0.7 -0.09,-0.04 -0.09,0.05 -7.02,3.73 z"/></g><g transform="translate(977.6755,547.881)" id="g68"><path id="path70" style="fill:#9f9fa0;fill-opacity:1;fill-rule:evenodd;stroke:none" d="m 0,0 4.19,-2.23 2.16,0.72 0.14,0.04 0.1,-0.09 1.51,-1.36 0.07,-0.06 0.01,-0.1 0.14,-2.58 2.9,-1.59 0.14,-0.08 -0.02,-0.16 -0.53,-6.36 8.64,-0.08 1.06,0.71 0.06,0.04 h 0.08 l 2.84,-0.07 0.17,-0.01 0.05,-0.15 0.79,-2.22 2.3,-1.01 0.04,-0.02 0.03,-0.03 1.96,-1.99 3.19,3.25 0.07,0.07 h 0.11 l 7.75,-0.15 0.14,4.88 v 0.09 l 0.06,0.07 1.5,1.64 -1.69,1.7 -4.09,-1.02 -0.1,-0.03 -0.08,0.05 -6.18,3.62 -0.06,0.03 -0.03,0.06 L 25.69,2.45 20.07,5.86 11.47,6.3 8.53,4.24 8.47,4.2 8.4,4.19 5.06,4.05 4.07,2.5 4.04,2.45 3.99,2.42 Z"/></g><g transform="translate(964.7855,555.0811)" id="g72"><path id="path74" style="fill:#9f9fa0;fill-opacity:1;fill-rule:evenodd;stroke:none" d="M 0,0 3.69,1.67 3.18,3.41 3.16,3.46 3.17,3.52 4.31,9.77 4.35,9.98 4.57,9.97 7.76,9.75 l 4.04,3.93 -0.53,4.67 -3.95,-0.02 -0.03,-0.26 -0.35,0.32 -4.36,3.87 -2.6,-0.15 -0.1,-0.01 -0.07,0.06 -3.12,2.55 -0.06,0.05 -0.02,0.08 -0.55,2.3 -2.33,1.65 -0.85,-0.66 -0.39,-2.12 -0.04,-0.22 -0.22,0.02 -5.74,0.49 -0.08,0.01 -0.06,0.05 -1.93,1.69 -5.6,1.46 -0.05,0.02 -0.04,0.02 -2.95,2.14 -0.01,0.01 -0.02,0.01 -1.56,1.57 -1.51,-1.51 -0.89,-3.7 -0.01,-0.04 -0.02,-0.04 -1.66,-2.56 -0.06,-0.09 -0.1,-0.01 -3.89,-0.76 0.98,-2.31 3.32,-6.24 2.44,-1.78 5.35,-0.95 0.18,-0.03 0.02,-0.17 0.33,-2.47 2.15,-2.62 0.06,-0.08 -0.01,-0.09 -0.03,-0.31 4.53,0.63 0.63,0.63 0.13,0.12 0.15,-0.08 0.96,-0.48 0.14,-0.07 -0.01,-0.16 -0.12,-2.12 5.36,-3.44 5.06,0.07 h 0.11 l 0.08,-0.09 z"/></g><g transform="translate(988.6955,554.451)" id="g76"><path id="path78" style="fill:#9f9fa0;fill-opacity:1;fill-rule:evenodd;stroke:none" d="m 0,0 -3.16,3.02 -0.1,0.1 0.04,0.14 1.22,4.43 -2.35,2.87 -2.04,-0.1 -0.07,-0.01 -0.07,0.04 -5.3,3.42 -4.06,-3.95 -0.08,-0.08 -0.11,0.01 -3.08,0.21 -1.09,-5.98 0.55,-1.88 0.06,-0.2 -0.19,-0.09 -3.94,-1.78 -0.38,-1.9 0.21,-3.01 2.04,-2.18 2.39,1.96 0.17,0.14 0.15,-0.15 0.6,-0.6 4.63,0.51 0.08,0.01 0.06,-0.03 2.31,-1.23 4.18,2.55 1.03,1.61 0.07,0.1 0.12,0.01 3.4,0.15 z"/></g></g></svg>