<?xml version="1.0" encoding="utf-8"?>
<!-- Generator: Adobe Illustrator 28.0.0, SVG Export Plug-In . SVG Version: 6.00 Build 0)  -->
<svg version="1.1"
	 id="svg2" xmlns:rdf="http://www.w3.org/1999/02/22-rdf-syntax-ns#" xmlns:svg="http://www.w3.org/2000/svg" xmlns:dc="http://purl.org/dc/elements/1.1/" xmlns:cc="http://creativecommons.org/ns#"
	 xmlns="http://www.w3.org/2000/svg" xmlns:xlink="http://www.w3.org/1999/xlink" x="0px" y="0px" viewBox="0 0 124.5 98"
	 style="enable-background:new 0 0 124.5 98;" xml:space="preserve">
<style type="text/css">
	.st0{fill-rule:evenodd;clip-rule:evenodd;fill:#9F9FA0;}
</style>
<polygon class="st0" points="67.6,16.3 67.5,17.6 63.5,17.5 61.9,19.8 59.8,20.1 57.3,24.5 53.2,26.1 50.2,21.7 43.1,20.7 
	39.8,24.1 46.9,28.3 44.8,29.7 41.2,27.5 39.1,29.2 40.3,31.6 42.9,31.6 43,31.6 43.1,31.7 46.2,35.5 46.2,35.7 46.2,35.8 
	43.9,40.2 46.9,43.9 47,44 46.9,44.1 46.2,45.5 46,48.5 47.8,50.6 49.4,48.8 49.5,48.6 49.7,48.7 52.4,49.7 53.4,48.1 53.5,47.9 
	53.7,48 55.8,48.9 56,48.9 56,49.1 56,52.4 58.6,53.6 58.7,53.7 58.7,53.8 58.7,57 60,59.2 63.2,58.9 64.2,57 64.3,56.8 64.4,56.8 
	69.6,56.8 72.7,53.4 72.6,51.7 69.7,51.3 69.5,51.3 69.5,51.1 69.3,48.7 66.6,44.9 66.5,44.8 66.6,44.7 68,39.5 66.2,36.9 
	66.1,36.7 66.3,36.6 70.1,34.4 70.3,34.3 70.4,34.4 71.8,35.8 74.4,35.6 76,32.6 75.4,27.4 75.4,27.2 75.6,27.2 79.6,24.5 
	78.9,18.2 75.8,18 73.5,19.6 73.3,19.7 73.2,19.6 70.7,18 "/>
<polygon class="st0" points="94.8,55 99.2,53.5 99.9,50.1 103.7,48 107.7,47 109.2,46.5 109,41 106.6,40.5 106.5,40.5 106.4,40.4 
	105.2,38.6 105.2,38.6 105.2,38.5 105,35.3 103.5,35.9 103.4,36 103.4,35.9 101.5,35.8 101.3,35.8 101.3,35.6 101.4,33.2 
	101.4,33.1 101.5,33 103.4,30.8 103.4,27.8 99.1,23.6 96.7,23.1 96.6,23.1 96.5,23 94.8,20.8 94.8,20.7 94.8,20.6 94.5,17.4 
	90.9,16.2 90.8,16.1 90.8,16 89.3,13 87.3,13.6 87.3,13.6 87.2,13.6 83.4,13.1 83.1,15.7 83.1,15.8 83,15.9 79.4,18.1 80.1,24.6 
	80.1,24.8 80,24.8 75.9,27.5 76.5,32.6 76.5,32.7 76.4,32.7 74.8,36 74.8,36.1 74.6,36.1 71.7,36.3 71.6,36.3 71.5,36.2 70.2,34.9 
	66.8,36.9 68.5,39.4 68.5,39.5 68.5,39.6 67.1,44.7 69.7,48.3 76.1,49 76.7,47.2 76.8,47 77,47.1 79.2,47.2 79.3,47.3 79.4,47.4 
	80.1,50.7 82.5,51 84.7,49.7 84.8,49.6 84.9,49.6 92.6,51.2 92.8,51.2 92.8,51.3 "/>
<polygon class="st0" points="75.8,84.8 79.9,86.3 90.9,86 90,81.7 92.7,81.2 94.8,69.4 93,66.9 90.2,66.3 90.6,64.1 94,60.9 
	91,56.7 92.4,56 94.4,55.1 92.4,51.7 84.9,50.1 82.9,51.4 84.3,55 84.3,55.1 84.3,55.1 82.8,61.9 84.6,65.1 84.7,65.2 84.6,65.3 
	82.8,70.5 83.5,73.7 83.6,74 83.3,74 80.1,73.7 78.4,74.4 78.2,74.5 78.1,74.3 76.9,72.6 75.9,73.8 77.6,77.8 77.7,78 77.5,78.1 
	75.2,80 75.2,80 75.2,80 73.2,81.1 "/>
<polygon class="st0" points="67.2,86.4 71.3,86.5 75.2,84.7 72.6,81.1 72.5,80.9 72.7,80.8 75,79.6 77.1,77.8 75.4,73.9 75.3,73.7 
	75.4,73.6 76.8,72 77,71.8 77.2,72 78.4,73.9 79.9,73.2 80,73.2 80.1,73.2 83,73.5 82.3,70.6 82.3,70.5 82.3,70.4 84.1,65.3 
	82.4,62.1 82.3,62 82.3,61.9 83.8,55.1 82.4,51.5 79.8,51.2 79.7,51.1 79.6,51 78.9,47.7 77.1,47.6 76.5,49.4 76.4,49.6 76.2,49.5 
	69.8,48.8 69.9,50.9 72.8,51.2 73,51.3 73,51.4 73.2,53.4 73.2,53.5 73.2,53.6 69.9,57.3 69.8,57.3 69.7,57.3 64.6,57.3 63.6,59.2 
	63.5,59.3 63.4,59.3 59.9,59.7 59.8,59.7 59.7,59.6 58.3,57.2 58.2,57.2 58.2,57.1 58.2,54 55.6,52.8 55.5,52.7 55.5,52.6 
	55.5,49.3 53.7,48.5 52.7,50.1 52.6,50.3 52.4,50.2 49.7,49.2 48.1,51 49.9,53.2 51.7,52.9 51.9,52.8 52,53 53.2,54.7 55.6,55.4 
	55.8,55.4 55.8,55.6 56.9,58.4 59.4,62.8 59.4,62.8 59.4,62.9 58.7,67.2 61.4,72 61.4,72.1 61.4,72.1 62.3,75.9 62.3,75.9 62.3,76 
	62.2,79.8 66.3,83.9 66.3,84 66.3,84 "/>
<path class="st0" d="M17,28.6l0.3,4.6l-1.4,1.7l0.7,2l2.1,1.6l-0.1,3.3l1.2,5.2l-0.4,4.8l-0.9,8l1,1.4l2.1-0.9l1.4,2.3l6.2-2.1
	l0.2-0.1l0.1,0.1l1.9,2.6l3.2,0.3l2.3-4.6l0-0.1l0.1,0l2.4-1l-0.9-1.4l-0.1-0.1l0.1-0.1l1.4-2.5l-1.5-1.3L38,52l0.2-0.2l1.8-1.8
	l0.2-1.5l0-0.1l0.1-0.1l2-0.9l0.2-0.1l0.1,0.2l1.3,2.3l1.7-1.4l0.2-3v0l0,0l0.7-1.3l-3-3.7l-0.1-0.1l0.1-0.1l2.3-4.4l-2.9-3.6h-2.6
	H40L39.9,32l-1.6-3.1l-4.8-4.3l-0.7,6.3l-2.6-1.3l-5,0.3l-1.8,2.4L19.8,26L17,28.6L17,28.6z M21.9,57.3l-0.2-3.1l0,0l0-0.2l0-0.2
	l0.2,0l0.2,0l3.2-0.3v-1.9l0,0v-0.1v-0.1l0.1-0.1l0.1-0.1l0,0l3.6-2.7L26.9,47l0,0l0,0l0,0l0,0l0,0l0,0l-2.9-3.4l0,0l-0.1-0.1
	l-0.1-0.1l0-0.1l0-0.1l0.4-2.7l0,0l0-0.3l0-0.3l0.3,0.1l0.3,0.1l2.5,0.9l0,0l0.1,0l0.1,0l0,0.1l0,0.1l0,0l2,3.2h2.8l0,0h0.2h0.2
	l0,0.2l0,0.2l0.2,2.9l2,1.7l0.1,0.1l0.1,0.1l0,0.1v0.1l-0.2,4v0.1v0.1l0,0.1L34.9,54L32,57.8l-0.4,0.5l-0.4,0.5l-0.1-0.6l-0.1-0.6
	l-0.4-3.3l-4.5,5l-0.1,0.1l-0.1,0.1l-0.2-0.1l-0.2-0.1l-3.4-1.7L22,57.7l-0.1-0.1l0-0.1L21.9,57.3L21.9,57.3z"/>
<polygon class="st0" points="22.2,54.2 22.4,57.3 25.8,58.9 30.7,53.5 31.1,53.1 31.2,53.6 31.6,57.5 34.5,53.6 34.7,49.7 
	32.6,47.9 32.5,47.8 32.5,47.7 32.4,44.8 32.4,44.8 29.4,44.8 29.3,44.8 29.2,44.6 27.1,41.3 24.6,40.4 24.6,40.4 24.2,43.1 
	24.2,43.1 24.2,43.1 27.1,46.6 27.1,46.6 27.1,46.6 29.7,48.2 30,48.4 29.7,48.6 25.8,51.5 25.8,51.5 25.8,53.6 25.8,53.8 
	25.6,53.8 "/>
</svg>
