<svg xmlns:dc="http://purl.org/dc/elements/1.1/" xmlns:cc="http://creativecommons.org/ns#" xmlns:rdf="http://www.w3.org/1999/02/22-rdf-syntax-ns#" xmlns:svg="http://www.w3.org/2000/svg" xmlns="http://www.w3.org/2000/svg" xml:space="preserve" id="svg2" version="1.1" viewBox="1135.45 917.62 124.53 98.03"><metadata id="metadata8"><rdf:RDF><cc:Work rdf:about=""><dc:format>image/svg+xml</dc:format><dc:type rdf:resource="http://purl.org/dc/dcmitype/StillImage"/></cc:Work></rdf:RDF></metadata><defs id="defs6"/><g transform="matrix(1.3333333,0,0,-1.3333333,0,1440)" id="g10"><g transform="translate(903.3521,388.5056)" id="g12"><path id="path14" style="fill:#9f9fa0;fill-opacity:1;fill-rule:evenodd;stroke:none" d="m 0,0 -0.05,-1.31 -4.05,0.13 -1.57,-2.35 -2.08,-0.26 -2.48,-4.44 -4.18,-1.57 -3,4.44 -7.05,0.92 -3.26,-3.4 7.04,-4.17 -2.08,-1.44 -3.66,2.22 -2.09,-1.65 1.25,-2.47 h 2.57 0.11 l 0.08,-0.09 3.08,-3.81 0.1,-0.12 -0.07,-0.14 -2.29,-4.39 2.98,-3.69 0.1,-0.12 -0.07,-0.14 -0.7,-1.4 -0.17,-2.94 1.75,-2.15 1.62,1.86 0.11,0.13 0.16,-0.06 2.71,-1.02 0.99,1.64 0.11,0.18 0.19,-0.08 2.17,-0.9 0.15,-0.06 v -0.17 -3.29 l 2.58,-1.2 0.14,-0.07 v -0.15 -3.19 l 1.34,-2.17 3.16,0.33 1.03,1.88 0.07,0.13 h 0.14 5.15 l 3.12,3.46 -0.15,1.7 -2.89,0.34 -0.2,0.02 -0.01,0.2 -0.18,2.47 -2.68,3.75 -0.06,0.1 0.03,0.11 1.42,5.15 -1.75,2.63 -0.15,0.21 0.23,0.13 3.8,2.18 0.17,0.09 0.13,-0.13 1.37,-1.37 2.65,0.16 1.54,3.08 -0.54,5.19 -0.01,0.14 0.12,0.08 4.05,2.64 -0.69,6.36 L 8.19,-1.7 5.91,-3.28 5.77,-3.37 5.64,-3.29 3.1,-1.66 Z"/></g><g transform="translate(930.6121,349.8456)" id="g16"><path id="path18" style="fill:#9f9fa0;fill-opacity:1;fill-rule:evenodd;stroke:none" d="m 0,0 4.41,1.45 0.65,3.4 3.79,2.09 4.04,1.04 1.46,0.44 -0.13,5.55 -2.48,0.5 -0.1,0.02 -0.06,0.08 -1.2,1.74 -0.04,0.06 v 0.07 L 10.22,19.69 8.67,19.03 8.62,19 8.56,19.01 6.69,19.14 6.45,19.16 6.47,19.4 6.6,21.8 v 0.09 l 0.06,0.06 1.94,2.2 v 3.01 l -4.28,4.16 -2.47,0.52 -0.09,0.02 -0.05,0.07 -1.74,2.27 -0.04,0.05 -0.01,0.07 -0.25,3.19 -3.6,1.28 -0.09,0.03 -0.04,0.09 -1.51,3.02 -1.94,-0.61 -0.05,-0.01 -0.05,0.01 -3.77,0.5 -0.37,-2.57 -0.02,-0.11 -0.09,-0.06 -3.57,-2.18 0.7,-6.55 0.02,-0.15 -0.12,-0.08 -4.05,-2.64 0.53,-5.11 0.01,-0.07 -0.04,-0.07 -1.63,-3.26 -0.06,-0.13 h -0.14 l -2.9,-0.19 h -0.11 l -0.08,0.08 -1.32,1.31 -3.42,-1.95 1.67,-2.5 0.06,-0.09 -0.02,-0.11 -1.42,-5.15 2.58,-3.62 6.42,-0.7 0.66,1.82 0.06,0.17 0.18,-0.01 2.18,-0.18 0.18,-0.02 0.04,-0.18 0.69,-3.27 2.46,-0.33 2.18,1.38 0.09,0.05 0.09,-0.02 7.75,-1.6 0.11,-0.02 0.05,-0.1 z"/></g><g transform="translate(911.6021,320.0256)" id="g20"><path id="path22" style="fill:#9f9fa0;fill-opacity:1;fill-rule:evenodd;stroke:none" d="m 0,0 4.1,-1.49 10.96,0.26 -0.91,4.31 2.74,0.52 2.09,11.75 -1.83,2.48 -2.74,0.65 0.39,2.22 3.4,3.13 -3.03,4.21 1.46,0.75 1.92,0.85 L 16.61,33.1 9.07,34.66 7.06,33.39 8.44,29.77 8.47,29.7 8.45,29.63 7.02,22.83 8.79,19.64 8.84,19.55 8.81,19.45 7.02,14.25 7.73,11.06 7.8,10.73 7.46,10.76 4.26,11.12 2.57,10.38 2.39,10.3 2.28,10.47 1.12,12.2 0.09,10.96 1.77,6.96 1.84,6.79 1.7,6.68 -0.57,4.81 -0.59,4.79 -0.61,4.78 -2.64,3.71 Z"/></g><g transform="translate(903.012,318.3656)" id="g24"><path id="path26" style="fill:#9f9fa0;fill-opacity:1;fill-rule:evenodd;stroke:none" d="M 0,0 4.07,-0.09 7.97,1.7 5.39,5.31 5.23,5.54 5.48,5.67 7.73,6.86 9.84,8.6 l -1.67,3.97 -0.05,0.14 0.09,0.11 1.34,1.6 0.2,0.25 0.19,-0.27 1.22,-1.83 1.56,0.68 0.06,0.03 0.06,-0.01 2.93,-0.33 -0.65,2.94 -0.02,0.07 0.02,0.06 1.78,5.15 -1.76,3.17 -0.04,0.08 0.02,0.09 1.43,6.82 -1.37,3.61 -2.58,0.34 -0.17,0.02 -0.03,0.17 -0.69,3.27 L 9.9,38.88 9.24,37.06 9.17,36.88 8.98,36.9 2.56,37.59 2.71,35.55 5.59,35.21 5.79,35.18 5.8,34.99 5.99,32.99 6,32.89 5.93,32.81 2.66,29.18 2.59,29.1 H 2.48 -2.63 l -1.02,-1.86 -0.06,-0.12 -0.13,-0.01 -3.45,-0.36 -0.15,-0.02 -0.08,0.13 -1.45,2.36 -0.03,0.06 v 0.06 3.12 l -2.58,1.2 -0.14,0.06 v 0.16 3.28 l -1.84,0.77 -0.97,-1.64 -0.11,-0.17 -0.19,0.07 -2.74,1.03 -1.57,-1.81 1.77,-2.17 1.86,0.33 0.15,0.03 0.09,-0.13 1.22,-1.74 2.45,-0.7 0.12,-0.03 0.05,-0.12 1.08,-2.88 2.53,-4.33 0.04,-0.08 -0.01,-0.09 -0.72,-4.26 2.68,-4.83 0.02,-0.03 0.01,-0.03 0.9,-3.81 0.01,-0.03 V 10.48 L -5.07,6.6 -0.97,2.5 -0.94,2.47 -0.92,2.42 Z"/></g><g transform="translate(857.6821,347.5056)" id="g28"><path id="path30" style="fill:#9f9fa0;fill-opacity:1;fill-rule:evenodd;stroke:none" d="M 0,0 -0.18,3.08 -0.19,3.31 -0.2,3.54 0.03,3.56 0.26,3.58 3.45,3.9 v 1.92 0.12 0.12 l 0.1,0.07 0.1,0.07 3.6,2.66 -2.29,1.43 -0.03,0.02 -0.03,0.02 -0.03,0.03 -0.03,0.03 -2.9,3.44 -0.07,0.08 -0.07,0.08 0.01,0.11 0.01,0.11 0.36,2.72 0.04,0.3 0.04,0.29 0.28,-0.1 0.28,-0.1 2.54,-0.91 0.08,-0.03 0.08,-0.03 0.05,-0.07 0.04,-0.07 2.03,-3.22 h 2.82 0.23 0.23 L 10.93,12.76 10.94,12.53 11.11,9.66 13.12,7.98 13.21,7.9 13.3,7.82 13.29,7.7 V 7.58 L 13.11,3.59 V 3.51 3.43 L 13.07,3.37 13.02,3.31 10.12,-0.5 9.76,-0.97 9.4,-1.44 9.32,-0.85 9.25,-0.26 8.84,3.04 4.29,-1.98 4.17,-2.11 4.05,-2.24 3.89,-2.16 3.73,-2.08 0.28,-0.42 0.15,-0.36 0.02,-0.3 0.01,-0.16 Z m -4.9,28.73 0.26,-4.57 -1.44,-1.7 0.65,-1.96 2.09,-1.57 -0.13,-3.26 1.17,-5.22 -0.39,-4.83 -0.91,-7.96 1.04,-1.44 2.09,0.92 1.37,-2.3 6.21,2.15 0.17,0.06 0.11,-0.14 1.93,-2.63 3.17,-0.33 2.28,4.56 0.04,0.08 0.08,0.03 2.44,0.98 -0.92,1.38 -0.08,0.12 0.07,0.13 1.36,2.55 -1.49,1.32 -0.19,0.17 0.18,0.18 1.75,1.75 0.17,1.54 0.01,0.14 0.13,0.06 1.99,0.91 0.2,0.09 0.11,-0.19 1.31,-2.29 1.69,1.38 0.17,2.98 v 0.05 l 0.02,0.05 0.66,1.31 -2.98,3.69 -0.1,0.12 0.07,0.14 2.29,4.39 -2.91,3.59 h -2.6 -0.15 l -0.07,0.13 -1.58,3.13 -4.78,4.34 L 11.01,26.49 8.4,27.8 3.44,27.54 1.61,25.19 -2.05,31.32 Z"/></g></g></svg>